<svg xmlns="http://www.w3.org/2000/svg" viewBox="0 0 284.16 43.61"><defs><style>.a{opacity:0.9;}.b{fill:red;}</style></defs><g class="a"><path class="b" d="M27.75,13.87V49.55H0V6H11.89v7.92ZM15.86,25.77h-4V37.66h4Z" transform="translate(0 -5.95)"/><path class="b" d="M59.46,6v43.6H31.71V6ZM47.57,17.84h-4V37.66h4Z" transform="translate(0 -5.95)"/><path class="b" d="M75.32,6V17.84H63.43V6Zm0,15.85V49.55H63.43V21.8Z" transform="translate(0 -5.95)"/><path class="b" d="M79.29,49.55V6H107v43.6H95.14V17.84h-4V49.55Z" transform="translate(0 -5.95)"/><path class="b" d="M138.75,6V17.84H122.89V37.66h4V21.8h11.89V49.55H111V6Z" transform="translate(0 -5.95)"/><path class="b" d="M173.16,13.87V49.55H145.41V6H157.3v7.92Zm-11.89,11.9h-4V37.66h4Z" transform="translate(0 -5.95)"/><path class="b" d="M204.87,6v43.6H177.12V6ZM193,17.84h-4V37.66h4Z" transform="translate(0 -5.95)"/><path class="b" d="M220.73,6V17.84H208.84V6Zm0,15.85V49.55H208.84V21.8Z" transform="translate(0 -5.95)"/><path class="b" d="M224.69,49.55V6h27.75v43.6H240.55V17.84h-4V49.55Z" transform="translate(0 -5.95)"/><path class="b" d="M284.16,6V17.84H268.3V37.66h4V21.8h11.89V49.55H256.41V6Z" transform="translate(0 -5.95)"/></g></svg>