<?xml version="1.0" encoding="UTF-8" standalone="no"?>
<!-- Created with Inkscape (http://www.inkscape.org/) -->
<svg xmlns:dc="http://purl.org/dc/elements/1.1/" xmlns:cc="http://creativecommons.org/ns#" xmlns:rdf="http://www.w3.org/1999/02/22-rdf-syntax-ns#" xmlns:svg="http://www.w3.org/2000/svg" xmlns="http://www.w3.org/2000/svg" xmlns:sodipodi="http://sodipodi.sourceforge.net/DTD/sodipodi-0.dtd" xmlns:inkscape="http://www.inkscape.org/namespaces/inkscape" width="1000" height="146.91701" viewBox="0 0 937.50003 137.73469" id="svg4643" version="1.1" inkscape:version="0.92.2 (5c3e80d, 2017-08-06)" sodipodi:docname="Esquire (2017).svg">
  <defs id="defs4645"/>
  <sodipodi:namedview id="base" pagecolor="#ffffff" bordercolor="#666666" borderopacity="1.0" inkscape:pageopacity="0.0" inkscape:pageshadow="2" inkscape:zoom="0.7" inkscape:cx="494.0176" inkscape:cy="127.6978" inkscape:document-units="px" inkscape:current-layer="layer1" showgrid="false" inkscape:window-width="1366" inkscape:window-height="705" inkscape:window-x="-8" inkscape:window-y="-8" inkscape:window-maximized="1" fit-margin-top="0" fit-margin-left="0" fit-margin-right="0" fit-margin-bottom="0" units="px"/>
  <metadata id="metadata4648">
    <rdf:RDF>
      <cc:Work rdf:about="">
        <dc:format>image/svg+xml</dc:format>
        <dc:type rdf:resource="http://purl.org/dc/dcmitype/StillImage"/>
        <dc:title/>
      </cc:Work>
    </rdf:RDF>
  </metadata>
  <g inkscape:label="Layer 1" inkscape:groupmode="layer" id="layer1" transform="translate(1035.4574,-1082.5982)">
    <g id="g13580" transform="matrix(1.1998311,0,0,1.1998311,-1035.4574,1082.5979)">
      <path id="Fill-1" d="m 723.678,68.162 c 0,-8.344 28.778,-11.137 28.778,-11.137 l -0.405,-8.346 c -4.197,-0.115 -20.58,0.487 -20.58,-3.897 0,-5.723 25.067,-7.118 33.853,-7.428 L 763.521,24 c -15.141,0.042 -83.169,0.224 -85.952,18.635 -1.504,9.94 18.082,12.288 18.082,12.288 l -0.006,0.468 c 0,0 -25.645,4.741 -25.645,17.155 0,25.328 88.462,18.236 111.36,11.933 0,0 -2.217,-11.249 -3.227,-11.771 -0.914,-0.472 -19.483,2.273 -34.219,1.879 -11.985,-0.322 -20.236,-2.234 -20.236,-6.425" inkscape:connector-curvature="0"/>
      <path id="Fill-4" d="m 539.365,12.454 c 0,7.186 -7.882,12.268 -21.676,12.268 C 504.137,24.722 496,19.75 496,12.454 496,4.313 507.929,0 517.679,0 c 9.473,0 21.686,4.205 21.686,12.454" inkscape:connector-curvature="0"/>
      <path id="Fill-7" d="m 664.635,72.161 c -1.096,-0.365 -9.074,1.429 -18.002,-1.665 -14.287,-4.952 -16.479,-24.111 0.482,-35.056 L 631.242,22 c -28.002,10.791 -33.763,11.56 -36.384,12.159 -1.301,-3.807 -7.378,-10.202 -20.268,-9.434 -7.011,0.418 -17.43,4.353 -20.443,11.521 -2.031,4.83 -0.801,10.253 3.907,13.959 6.787,5.342 19.742,4.011 19.742,4.011 -4.078,17.09 -39.604,28.78 -39.604,10.463 V 33.251 H 496 v 36.5 c 0,18.234 22.377,22.951 44.349,21.501 30.742,-2.029 48.034,-19.672 54.337,-38.717 l 14.998,-3.462 c 0,0 -20.526,26.752 5.086,38.918 14.613,6.941 41.483,1.591 52.283,-4.164 0,0 -1.793,-11.458 -2.418,-11.666 M 568.249,39.168 c 0.277,-4.56 11.614,-5.73 12.303,-0.454 0,0 -12.603,5.378 -12.303,0.454" inkscape:connector-curvature="0"/>
      <path id="Fill-9" d="m 491.345,75.261 c -0.386,-0.406 -7.631,1.4 -12.881,0.118 -5.795,-1.416 -6.172,-5.753 -6.172,-11.521 L 472.295,33 c 0,0 -43.449,0.009 -43.452,0.009 v 29.122 c 0,3.434 0.289,11.795 -11.901,11.795 -5.481,0 -11.737,-0.461 -11.737,-8.361 V 33 H 362 l 0.037,37.103 c 0,21.153 35.482,27.622 71.938,13.812 0,0 17.064,13.488 59.733,3.57 0,0 -1.863,-11.698 -2.363,-12.224" inkscape:connector-curvature="0"/>
      <path id="Fill-11" d="m 349.4866,108.52832 -0.017,-76.084002 -39.54,0.006 c 0,0 1.339,27.446 -0.74,32.779 -3.535,11.596 -32.026,9.949 -32.019,-3.57 0.01,-15.715 29.015,-13.013 29.015,-13.013 l -2.904,-16.23 c 0,0 -67.061,-6.241 -70.273,29.605 -0.719,24.985 43.789,35.4 76.703,23.102 l -0.015,29.672002 z" inkscape:connector-curvature="0"/>
      <path id="Fill-14" d="m 220.77031,72.0231 c 3.977,-4.04 3.738,-8.954 0.363,-14.307 -4.982,-7.902 -18.742,-12.529 -22.03,-18.801 -1.444,-2.756 -1.389,-6.029 0.757,-10.059 l -0.741,-3.31 -46.431,5.129 c -2.749,6.192 0.055,11.022 0.257,11.59 -33.54,35.917 -87.931996,36.242 -89.379996,23.583 -1.358,-11.872 35.83,-14.495 35.83,-14.495 l -0.728,-11.834 c 0,0 -25.049,1.97 -25.425,-5.74 -0.388,-7.95 23.044,-10.52 36.629996,-10.677 l -3.468,-19.0849999 C 62.415314,3.5361001 21.297314,13.2281 17.519314,29.8461 c -1.134,4.985 2.195,13.753 20.34,17.411 v 0.637 c 0,0 -38.11700005,6.017 -37.85800005,22.557 0.23,14.713 33.10800005,21.248 56.32500005,21.411 47.043996,0.328 71.844996,-15.263 71.844996,-15.263 -6.574,17.985 44.935,20.157 80.695,7.249 1.702,-0.614 15.444,5.237 23.789,8.926 0,0 5.338,-12.786 4.624,-14.527 -0.65,-1.583 -16.509,-6.224 -16.509,-6.224 m -45.958,4.782 c -4.63,5.704 -22.76,5.649 -21.488,1.915 1.368,-4.017 19.354,-3.011 21.488,-1.915 m -34.889,-6.108 c 0,0 10.899,-6.9 22.101,-16.723 0,0 9.649,5.637 14.065,12.339 0,0 -15.384,-2.922 -36.166,4.384" inkscape:connector-curvature="0"/>
    </g>
  </g>
</svg>