<svg xmlns="http://www.w3.org/2000/svg" viewBox="0 0 52.04 13.63"><defs><style>.a{fill:#33629A;}</style></defs><title>forbes</title><path class="a" d="M5,1.24H6.14a3.84,3.84,0,0,1,2.05.26A3.63,3.63,0,0,1,9.83,3.69C10,4.17,10,4.17,10.41,4L10.73,4V0.2H0V0.87H0.44a1.28,1.28,0,0,1,1,.47C1.85,2,1.92,2.74,1.92,6.59c0,4.09-.09,5.09-0.48,5.6a1.08,1.08,0,0,1-.83.44C0,12.74,0,12.73,0,13a0.4,0.4,0,0,0,0,.28H6.77a0.63,0.63,0,0,0,0-.57,3.45,3.45,0,0,0-.5-0.1,3.34,3.34,0,0,1-.54-0.11A1.8,1.8,0,0,1,5,10.87C4.9,10.21,4.85,9,4.85,8V7.21h0.4a5.4,5.4,0,0,1,1.48.16,1.85,1.85,0,0,1,.86,1.32L7.68,9H8.29V4.57H7.73L7.64,5a1.78,1.78,0,0,1-.91,1.32A1.67,1.67,0,0,1,6,6.37H4.85V5.29c0-1.12.06-3.48,0.1-3.85ZM51.8,9.17A3.63,3.63,0,0,0,49.73,7.6a5,5,0,0,1-1.79-1,1,1,0,0,1-.29-0.89A1.19,1.19,0,0,1,48,4.87a1.21,1.21,0,0,1,1.2-.33,2.52,2.52,0,0,1,1.77,1.88c0.16,0.45.18,0.45,0.47,0.33l0.18-.07V4.19l-0.13-.06a7.73,7.73,0,0,0-3.07-.42,3.6,3.6,0,0,0-2.4,1,2.76,2.76,0,0,0-.87,2.16,2.37,2.37,0,0,0,.68,1.64,4.06,4.06,0,0,0,1.7,1c1.55,0.61,2,1,2,1.71a1.32,1.32,0,0,1-1,1.31,2.47,2.47,0,0,1-1.06,0,3.08,3.08,0,0,1-1.87-2.11l-0.13-.32H45.29a0.8,0.8,0,0,0-.25.06h-0.1V13L45.11,13a10.31,10.31,0,0,0,2.08.46h1a3.92,3.92,0,0,0,1.29-.12,3.11,3.11,0,0,0,2.36-2,2.32,2.32,0,0,0,.18-0.9A2.49,2.49,0,0,0,51.8,9.17ZM42.38,4a4.61,4.61,0,0,0-3.77.09,4.39,4.39,0,0,0-2.29,2.73,5.34,5.34,0,0,0-.27,2,5.47,5.47,0,0,0,.09,1.1,4.44,4.44,0,0,0,3.59,3.58,7,7,0,0,0,1.75,0,4.8,4.8,0,0,0,1.7-.65,3,3,0,0,0,1.06-1A0.5,0.5,0,0,0,44,11.54a1.29,1.29,0,0,0-.32.17,2.86,2.86,0,0,1-1.68.47,2.67,2.67,0,0,1-2.13-.84,2.39,2.39,0,0,1-.51-0.68,4.65,4.65,0,0,1-.49-2V8.27h5.54V8.07a4.91,4.91,0,0,0,0-.6A4,4,0,0,0,42.38,4ZM39.59,7.46h-0.7V6.87c0.23-1.51.8-2.41,1.5-2.41s1,0.89,1.13,2.52V7.44h-0.6ZM25.21,3.67a2.1,2.1,0,0,0-1,.21,3.35,3.35,0,0,0-1.55,1.55l-0.13.24v-2H22.48c-0.12,0-3.82.74-3.94,0.79s-0.08.06-.08,0.24,0,0.21.08,0.22L18.93,5a0.72,0.72,0,0,1,.56.29c0.25,0.33.3,0.91,0.3,3.38A19.31,19.31,0,0,1,19.65,12a0.82,0.82,0,0,1-.69.65l-0.34.07H18.49V13a0.4,0.4,0,0,0,0,.29h5.59V13a0.73,0.73,0,0,0,0-.29,5.59,5.59,0,0,1-1-.13,1,1,0,0,1-.53-1C22.47,11,22.43,9.3,22.45,8s0-1.38.11-1.47a1.8,1.8,0,0,1,1.17-.37,2.61,2.61,0,0,1,1.14.29,1.5,1.5,0,0,0,.39.15s1-2.42,1-2.53A1.18,1.18,0,0,0,25.21,3.67Zm-6.74,4.2a4.49,4.49,0,0,0-2.06-3.56,5.2,5.2,0,0,0-4.68-.13,4.52,4.52,0,0,0-2.19,2.6,6.68,6.68,0,0,0,0,3.84,4.19,4.19,0,0,0,1.07,1.81,4.06,4.06,0,0,0,2.31,1.12,10.08,10.08,0,0,0,1.68,0,5.29,5.29,0,0,0,.61-0.13A4.45,4.45,0,0,0,18.4,9.87,8.74,8.74,0,0,0,18.47,7.87Zm-4.16,5c-1,.3-1.75-0.67-2-2.71a18.74,18.74,0,0,1,0-3.21c0.2-1.64.71-2.47,1.5-2.47a1,1,0,0,1,.84.37c0.67,0.67,1,2,1,4a7.41,7.41,0,0,1-.52,3.32,1.52,1.52,0,0,1-.82.65v0.05Zm18-9a3.33,3.33,0,0,0-.85,0,3.78,3.78,0,0,0-1.57.34l-0.31.13V2.17a14.91,14.91,0,0,0,0-2.2c-0.12,0-3.94.73-4,.76a0.31,0.31,0,0,0,0,.23c0,0.21,0,.2.45,0.3a1.29,1.29,0,0,1,.36.14,1.23,1.23,0,0,1,.37.69,11.45,11.45,0,0,1,.11,2.3v8.78l0.27,0.06c0.4,0.09,1.53.28,1.9,0.32a14,14,0,0,0,2.22,0A4.53,4.53,0,0,0,35,10.74a6.89,6.89,0,0,0,.38-1.52,9,9,0,0,0-.07-2.11,3.85,3.85,0,0,0-3-3.24h0ZM29.69,12.7c0-.13-0.1-4.51-0.08-6.26V5.07L29.9,5a2.08,2.08,0,0,1,.59,0,1,1,0,0,1,.62.14A3,3,0,0,1,32.4,7.42a11,11,0,0,1,0,2.19,4.81,4.81,0,0,1-1.16,2.87,1.39,1.39,0,0,1-.71.36,1.78,1.78,0,0,1-.61,0c-0.19,0-.19-0.06-0.19-0.14h0Z" transform="translate(0.01 0.03)"/></svg>