<?xml version="1.0" encoding="UTF-8"?>
<!-- Generator: Adobe Illustrator 24.2.1, SVG Export Plug-In . SVG Version: 6.00 Build 0)  -->
<svg version="1.1" id="Layer_1" xmlns="http://www.w3.org/2000/svg" xmlns:xlink="http://www.w3.org/1999/xlink" x="0px" y="0px" viewBox="0 0 594.6 94.6" style="enable-background:new 0 0 594.6 94.6;" xml:space="preserve">
<style type="text/css">
	.st0{fill:#0E1929;}
</style>
<polygon class="st0" points="79.2,0.2 79.2,0.2 79.2,0.2 51.3,48.6 23.4,0.2 23.3,0.2 23.3,0.2 0,0.2 0,94.5 23.3,94.5 23.3,46.9   42.7,80.5 46.2,86.5 56.4,86.5 60.8,78.7 79.2,46.9 79.2,94.5 102.5,94.5 102.5,0.2 "/>
<path class="st0" d="M159.9,60.3c0-7.1-4.5-12.4-11-12.4c-6.8,0-11.4,5.8-11.4,12.4c0,6.9,4.6,12.4,11.4,12.4  C155.4,72.7,159.9,67.4,159.9,60.3z M112.7,60.5c0-20.6,14.1-34.5,28.4-34.5c9.9,0,16.2,5.1,19.9,10.2l2.3-8.4h20.9v64.9h-20.9  l-2.3-8.4c-3.7,5.2-10,10.2-19.9,10.2C126.8,94.6,112.7,80.7,112.7,60.5z"/>
<path class="st0" d="M244.8,30.6v19.8c-4.6-2.6-13-5-20.1-5c-4.1,0-6.3,0.8-6.3,2.4c0,1.6,2.3,2.6,8.6,4  c11.2,2.4,22.4,6.4,22.4,20.5c0,13.6-10.7,22.2-30.2,22.2c-10,0-18.2-2.3-23.7-5.3V68c5.9,3.9,13,7.1,22.6,7.1  c4.8,0,7.6-0.8,7.6-2.6c0-2.1-3.5-2.8-11.3-4.8c-10-2.6-19.7-7.5-19.7-19.7c0-12.7,10.4-22,28.8-22C231.2,26,239.4,27.7,244.8,30.6z  "/>
<path class="st0" d="M283.5,32.8h0.1c3.6-3.8,9.6-6.9,16.7-6.9c13.8,0,22.4,8.4,22.4,23v43.6h-24.7V55.3c0-5.3-2.3-7.6-6.8-7.6  c-4.7,0-7.6,3.1-7.6,7.2v37.5h-24.7V0h24.7V32.8z"/>
<path class="st0" d="M378.3,60.3c0-7.1-4.5-12.4-11-12.4c-6.8,0-11.4,5.8-11.4,12.4c0,6.9,4.6,12.4,11.4,12.4  C373.8,72.7,378.3,67.4,378.3,60.3z M331.1,60.5c0-20.6,14.1-34.5,28.4-34.5c9.9,0,16.2,5.1,19.9,10.2l2.3-8.4h20.9v64.9h-20.9  l-2.3-8.4c-3.7,5.2-10,10.2-19.9,10.2C345.2,94.6,331.1,80.7,331.1,60.5z"/>
<path class="st0" d="M439.3,60.1c0,7.2,4.5,12.4,11,12.4c6.7,0,11.3-5.4,11.3-12.3c0-6.8-4.6-12.5-11.4-12.5  C443.7,47.7,439.3,53,439.3,60.1z M439.5,35.8c3.7-5.5,11.3-9.9,19.3-9.9c14.9,0,27.6,13.4,27.6,34.2c0,20.8-13.8,34.2-28.7,34.2  c-9.4,0-15.9-5.1-19.5-10.2l-2.3,8.4h-20.9V0h24.6L439.5,35.8z"/>
<rect x="495.8" class="st0" width="24.6" height="92.5"/>
<path class="st0" d="M571.4,53.2c-0.1-4.5-3.1-8.4-8.4-8.4c-4.8,0-8.8,3.2-10.5,8.4H571.4z M594,66.8h-40.6  c3.1,6.2,10.2,9.1,17.9,9.1c7,0,13.2-2.3,18.9-4.8v18.8c-6.7,3.2-14.2,4.8-22.4,4.8c-24.8,0-38.3-14.6-38.3-34.2  c0-20.3,14.5-34.4,33.6-34.4c17.3,0,31.4,11.5,31.4,33.3C594.6,61.8,594.4,64.3,594,66.8z"/>
</svg>