<?xml version="1.0" encoding="UTF-8"?>
<!DOCTYPE svg PUBLIC "-//W3C//DTD SVG 1.1//EN" "http://www.w3.org/Graphics/SVG/1.1/DTD/svg11.dtd">
<svg width="427pt" height="131pt" viewBox="0 0 1300 401" version="1.1" xmlns="http://www.w3.org/2000/svg">
  <g fill="#2d0023">
    <path d="M 145.22 0.00 L 152.56 0.00 C 191.80 1.45 230.60 12.23 265.20 30.74 C 252.08 56.46 238.98 82.19 225.83 107.88 C 208.84 93.99 188.17 83.44 165.93 82.27 C 152.51 81.60 137.96 84.39 127.91 93.93 C 118.59 102.34 116.08 117.55 122.64 128.32 C 127.79 135.73 135.82 140.54 143.91 144.17 C 155.85 149.65 168.75 152.45 181.17 156.61 C 198.64 162.05 215.80 168.93 231.34 178.68 C 243.98 186.61 255.55 196.63 263.87 209.11 C 276.65 228.08 281.14 251.46 280.77 274.03 C 280.64 302.51 272.24 331.63 253.70 353.65 C 235.58 375.62 209.08 389.19 181.72 395.73 C 166.68 399.32 151.20 400.82 135.75 401.00 L 128.49 401.00 C 82.58 400.21 37.43 384.65 0.00 358.21 L 0.00 358.10 C 14.11 331.57 28.22 305.04 42.34 278.52 C 61.24 295.17 83.15 309.49 108.06 314.97 C 122.00 317.93 136.83 318.52 150.60 314.40 C 160.84 311.38 169.52 303.77 174.07 294.14 C 178.10 285.20 177.81 274.41 173.54 265.62 C 168.37 255.99 158.26 250.49 148.61 246.23 C 127.12 237.10 104.49 231.06 82.83 222.39 C 68.42 216.97 54.85 209.03 43.62 198.45 C 34.03 189.20 26.59 177.76 21.81 165.34 C 15.29 147.03 14.70 127.13 16.53 107.95 C 19.64 76.89 34.63 46.61 59.43 27.26 C 83.64 8.30 114.82 0.15 145.22 0.00 Z"/>
    <path d="M 324.45 390.44 C 324.42 263.81 324.43 137.19 324.45 10.56 C 357.38 10.57 390.31 10.55 423.25 10.57 C 423.26 109.29 423.25 208.02 423.25 306.74 C 467.77 306.76 512.30 306.73 556.82 306.76 C 556.82 334.65 556.82 362.54 556.82 390.43 C 479.36 390.45 401.90 390.43 324.45 390.44 Z"/>
    <path d="M 604.45 85.57 C 604.26 60.57 604.40 35.56 604.38 10.56 C 626.72 10.56 649.06 10.56 671.40 10.55 C 719.61 137.19 767.96 263.77 816.03 390.46 C 780.91 390.42 745.79 390.45 710.68 390.44 C 700.88 362.57 691.31 334.61 681.42 306.78 C 655.74 306.86 630.05 306.81 604.37 306.81 C 604.37 281.76 604.35 256.72 604.38 231.68 C 621.36 231.69 638.34 231.69 655.31 231.68 C 638.40 182.97 621.29 134.31 604.45 85.57 Z"/>
    <path d="M 775.75 10.57 C 862.82 10.56 949.88 10.55 1036.94 10.57 C 1036.94 38.46 1036.95 66.35 1036.94 94.25 C 1009.88 94.26 982.82 94.25 955.76 94.25 C 955.73 192.99 955.79 291.72 955.73 390.45 C 922.80 390.42 889.87 390.46 856.94 390.43 C 856.92 291.71 856.95 192.98 856.93 94.25 C 829.87 94.25 802.81 94.26 775.75 94.25 C 775.74 66.35 775.75 38.46 775.75 10.57 Z"/>
    <path d="M 1083.69 10.57 C 1155.79 10.55 1227.90 10.56 1300.00 10.56 L 1300.00 94.25 C 1260.86 94.25 1221.72 94.26 1182.58 94.25 C 1182.55 115.37 1182.58 136.49 1182.56 157.61 C 1221.71 157.64 1260.85 157.61 1300.00 157.62 L 1300.00 241.31 C 1260.85 241.32 1221.71 241.29 1182.56 241.33 C 1182.57 263.13 1182.57 284.93 1182.56 306.73 C 1221.70 306.78 1260.85 306.73 1300.00 306.75 L 1300.00 390.44 C 1227.90 390.44 1155.79 390.45 1083.69 390.43 C 1083.68 263.81 1083.68 137.19 1083.69 10.57 Z"/>
  </g>
</svg>