<?xml version="1.0" encoding="UTF-8" standalone="no"?>
<svg xmlns:rdf="http://www.w3.org/1999/02/22-rdf-syntax-ns#" xmlns="http://www.w3.org/2000/svg" height="92.321" width="298" version="1.1" xmlns:cc="http://creativecommons.org/ns#" xmlns:dc="http://purl.org/dc/elements/1.1/" viewBox="0 0 298 92.320587">
 <path fill="#e90606" d="m142.27 0.95117s-3.33 0.06973-5.26 0.03711c-0.08 0.80992-1.01 8.1492-1.81 14.053-0.92 5.463-8.21 45.988-10.68 58.119-0.65 3.663-2.66 14.011-2.85 15.045-2.32 0.277-5.06 0.533-6.85 0.602-0.24 0.008-0.64 0.086-0.83 0.086v2.101c0.22-0.009 1.38 0.08 2.2 0.045 1.97-0.063 7.56-0.328 8.62-0.328 4.02 0 6.7 0.266 10.42 0.34 0.05 0 1.07-0.004 1.52-0.061v-2.123c-0.31 0-0.72-0.01-0.96-0.01-1.05 0.033-4.92-0.264-6.88-0.531 0.23-1.388 3.65-22.376 5.29-30.769 3.12-15.535 5.28-26.545 5.28-26.545l0.58 1.367 24.65 58.752 4.5 0.023s2.57-6.362 5.62-13.498c0.08-0.169 0.3-0.68 0.61-1.41 3.2-7.41 19.06-45.017 19.06-45.017s0.15 0.677 0.4 1.888c1.51 7.371 6.62 33.935 7.71 40.344 0.51 3.297 0.99 6.641 1.27 8.6 0.41 2.774 0.68 5.489 0.68 6.269-0.5 0.023-5.52 0.477-7.42 0.559-0.27-0.009-0.78 0.016-0.81 0.021v2.137c0.68 0 1.34 0.03 2 0.015 3.88-0.074 7.61-0.378 11.49-0.376 4.36 0.004 11.43 0.385 15.96 0.414 0.51 0 1.42-0.045 1.42-0.045v-2.159c-0.26-0.002-1.4-0.058-1.82-0.091-2.03-0.159-5.45-0.476-6.32-0.534 0 0-0.56-3.103-1.3-6.687-2.96-14.337-11.39-57.916-12.68-68.639-0.44-3.6856-1.69-11.961-1.69-11.961l-5.07-0.00158s-2.59 7.4313-4.95 14.207c-1.61 4.63-3.8 10.346-5.47 14.729-8.24 21.656-17.48 41.836-17.48 41.836s-19.64-46.862-20.68-49.572c-1.05-2.711-7.47-21.231-7.47-21.231zm-141.18 0.01953l0.043 4.9531-0.084 12.062 1.3067-0.037 0.1367-10.728c0-0.0003 7.1651-0.062 8.0918-0.0608l13.361 0.0058 8.623 0.043 0.014 74.607 0.002 6.444-0.182 0.025c-1.148 0.089-5.565 0.359-7.359 0.424-0.402 0.013-0.659 0.023-0.703 0.018l0.008 2.183c0.324 0.016 1.197 0.037 1.312 0.033 4.244-0.055 9.987-0.424 14.059-0.42 4.137 0.002 9.959 0.404 13.562 0.446 0.357 0.002 0.78-0.033 1.123-0.033v-2.047l-0.447 0.004c-1.148-0.005-7.497-0.414-8.154-0.5-0.027-1.001-0.145-5.833-0.145-5.94l0.031-75.252 6.565-0.0174 17.129 0.0117 5.717 0.0781c0.038 0.4085 0.327 5.8426 0.322 5.9906-0.013 0.395 0.214 4.443 0.205 5.439l1.355 0.016-0.097-12.2 0.062-5.4878c-5.034 0.137-17.863 0.3094-37.773 0.2989-17.075-0.0105-33.53-0.1537-38.084-0.3594zm79.746 0.01953l0.021 2.1368c0.676 0.0367 4.65 0.3883 5.616 0.4355 0.771 0.0944 1.847 0.191 2.617 0.2656 0 0.6841 0.012 5.4048 0.023 7.2679 0.129 17.659 0.019 56.687-0.033 70.496-0.016 3.993-0.027 6.566-0.027 6.566-0.487 0.146-1.583 0.201-2.768 0.281-1.013 0.069-4.643 0.374-5.453 0.391v2.137c0.336 0 0.952 0.071 1.303 0.068 4.109 0.001 9.822-0.509 14.031-0.506 4.254 0.003 9.934 0.521 13.284 0.522l-0.01 0.002c0.29 0.004 0.98-0.072 1.27-0.071v-2.136h-0.29c-0.13-0.028-4.45-0.21-5.5-0.319-0.55-0.035-2.93-0.241-2.96-0.32-0.01-0.042-0.02-0.681-0.02-1.746 0.01-1.011 0.01-2.692 0.01-4.514 0.01-13.929 0.05-55.298 0.06-71.111 0-3.0561 0.01-5.5392 0.01-6.8712 0.93-0.0588 4.73-0.4561 6.09-0.5761 0.06-0.0059 1.86-0.1095 2.6-0.1543v-2.2266c-4.65-0.0017-10.803 0.3617-15.341 0.3594-4.746-0.0029-10.593-0.37522-14.533-0.37697zm215.2 0.06057s-0.49 0.0021-1.4 0.0039c-3.11 0.0134-11.07 0.0718-20.38 0.123-5.72 0.0332-10.19 0.0791-16.08 0.0762-4.13 0.0484-9.91 0.2076-13.48 0.2012-5.7-0.0093-10.35-0.3606-12.88-0.3711-1.2-0.0053-1.87 0.0399-2.2 0.0195 0.02 0.0303 0.02 2.1094 0.02 2.1094 0.22 0.0384 0.66 0.0874 1.07 0.0781 1.43 0.0962 4.11 0.3127 5.47 0.4922 0.27 0.0495 0.73 0.1254 2.01 0.2676-0.01 0.4731 0.06 5.8267 0.05 9.0432 0 2.98-0.03 69.47-0.03 69.47 0 0.108-0.15 5.347-0.15 5.77-2.26 0.387-6.6 0.625-8.08 0.631h-0.44v2.115c0.21-0.001 1.18 0.037 1.73 0.037 2.39-0.001 8.55-0.381 14.84-0.385 4.41-0.004 9.26 0.161 14.17 0.231 6.05 0.084 12.17 0.088 17.67 0.166 9.07 0.128 16.42 0.139 18.81 0.142 0 0 0.29-16.823 0.29-18.179l-1.31 0.015c0 1.431-0.53 6.76-0.55 6.993-0.17 2.006-0.35 4.108-0.49 5.144 0 0-0.64 0.051-0.95 0.045-1.49-0.028-6.25 0.145-6.35 0.145l-21.23 0.009-14.91-0.25-0.1-4.136-0.01-32.112c2.66-0.09 6.72-0.231 9.19-0.226 2.1 0.004 7.05-0.114 9.82-0.108 6.73 0.012 12.71 0.055 13.19 0.069 1.11 0.032 3.17 0.1 3.95 0.148 0.03 0.283 0.12 0.725 0.13 0.85 0.4 2.459 0.62 4.162 0.89 6.576 0.04 0.217 0.06 0.427 0.09 0.625h1.53s0.04-0.863 0.02-1.4c-0.03-1.893-0.15-5.669-0.15-9.854-0.01-2.901 0.16-7.336 0.18-9.469 0.01-0.577-0.06-0.987-0.06-1.152l-1.4 0.027c-0.01 0.461-0.12 1.141-0.12 1.141-0.12 1.59-0.57 3.622-0.93 5.766-0.1 0.267-0.17 0.64-0.17 0.64-0.16 0.054-4.55 0.288-4.94 0.285-0.15-0.001-6.54 0.178-6.65 0.178l-24.56-0.092 0.04-35.41c0 0.0001 3.12-0.1101 3.99-0.1054 3.54 0.0006 9.3-0.0316 15.17-0.0234 8.59 0.0104 16.93 0.0639 16.95 0.0761 0.05 0.0245 2.59 0.0598 2.64 0.1035 0.06 0.0478 3.24 0.1429 4.02 0.168 0 0 0.06 0.2636 0.1 0.5957 0.35 3.7335 0.64 8.1675 0.77 9.7385l0.01 0.629 1.31-0.004c0-2.299-0.12-9.3396-0.14-13.819-0.01-1.4387 0.02-2.6103 0.02-3.2769v-0.5703z"/>
</svg>