<svg xmlns="http://www.w3.org/2000/svg" width="1706.667" height="1706.667" version="1.0"
    viewBox="0 0 1280 1280">
    <path
        d="M576.9 257.4c-3.6 1.3-8.6 3.7-11 5.4-2.4 1.6-85.4 80.4-184.4 174.9C242 571 200.8 610.9 198.3 615.1c-8.8 15-8.6 35.8.5 50.8 2.9 4.8 359.5 346.1 367.1 351.3 13.9 9.7 36.4 10.6 51.1 2 6-3.4 13.3-10.4 16.9-16 9.8-15.4 9.6-38.2-.4-52.9-2.1-3.2-56.1-55.4-138.2-133.5L360.6 688.5l346-.5c328.6-.5 346.1-.6 350.4-2.3 6.6-2.6 13.3-7.2 18.2-12.5 9.1-9.7 12.8-19.4 12.8-33.2 0-13.8-3.7-23.5-12.8-33.2-4.9-5.3-11.6-9.9-18.2-12.5-4.3-1.7-21.8-1.8-350.4-2.3l-346-.5 134.7-128.3c82.1-78.1 136.1-130.3 138.2-133.5 10-14.7 10.2-37.5.4-52.9-6-9.3-16.4-17.2-26.8-20.2-8.4-2.5-22.1-2.1-30.2.8z" />
</svg>