<svg width="120" height="120" viewBox="0 0 120 120" fill="none" xmlns="http://www.w3.org/2000/svg">
<circle cx="59" cy="61" r="23" stroke="#6364FF" stroke-width="2"/>
<mask id="path-2-inside-1_187_47" fill="white">
<path fill-rule="evenodd" clip-rule="evenodd" d="M49.5 17C49.5 15.8954 50.3954 15 51.5 15H67.5C68.6046 15 69.5 15.8954 69.5 17V26.5785C71.8991 27.3202 74.1895 28.3095 76.3414 29.5165L83.1881 22.6698C83.9691 21.8887 85.2355 21.8887 86.0165 22.6698L97.3302 33.9835C98.1113 34.7645 98.1113 36.0309 97.3302 36.8119L90.3372 43.8049C91.4654 45.9182 92.3861 48.1589 93.0721 50.5H103C104.105 50.5 105 51.3954 105 52.5V68.5C105 69.6046 104.105 70.5 103 70.5H93.0721C92.3861 72.8411 91.4654 75.0818 90.3372 77.1951L97.3302 84.1881C98.1113 84.9691 98.1113 86.2355 97.3302 87.0165L86.0165 98.3302C85.2355 99.1113 83.9691 99.1113 83.1881 98.3302L76.3414 91.4835C74.1895 92.6905 71.8991 93.6798 69.5 94.4215V104C69.5 105.105 68.6046 106 67.5 106H51.5C50.3954 106 49.5 105.105 49.5 104V94.7146C46.9777 94.0158 44.5682 93.0455 42.3049 91.8372L35.8119 98.3302C35.0309 99.1113 33.7645 99.1113 32.9835 98.3302L21.6698 87.0165C20.8887 86.2355 20.8887 84.9691 21.6698 84.1881L28.0165 77.8414C26.7259 75.5405 25.6842 73.0812 24.9279 70.5H16C14.8954 70.5 14 69.6046 14 68.5V52.5C14 51.3954 14.8954 50.5 16 50.5H24.9279C25.6843 47.9188 26.7259 45.4595 28.0165 43.1586L21.6698 36.8119C20.8887 36.0309 20.8887 34.7645 21.6698 33.9835L32.9835 22.6698C33.7645 21.8887 35.0309 21.8887 35.8119 22.6698L42.3049 29.1628C44.5682 27.9545 46.9777 26.9842 49.5 26.2854V17Z"/>
</mask>
<path d="M69.5 26.5785H67.5V28.0535L68.9092 28.4892L69.5 26.5785ZM76.3414 29.5165L75.363 31.2608L76.6843 32.002L77.7556 30.9307L76.3414 29.5165ZM83.1881 22.6698L81.7739 21.2556L81.7739 21.2556L83.1881 22.6698ZM86.0165 22.6698L87.4307 21.2556L87.4307 21.2556L86.0165 22.6698ZM97.3302 33.9835L95.916 35.3977L95.916 35.3977L97.3302 33.9835ZM97.3302 36.8119L95.916 35.3977L95.916 35.3977L97.3302 36.8119ZM90.3372 43.8049L88.923 42.3907L87.8747 43.439L88.5729 44.7468L90.3372 43.8049ZM93.0721 50.5L91.1528 51.0624L91.574 52.5H93.0721V50.5ZM93.0721 70.5V68.5H91.574L91.1528 69.9376L93.0721 70.5ZM90.3372 77.1951L88.5729 76.2532L87.8747 77.561L88.923 78.6093L90.3372 77.1951ZM97.3302 84.1881L95.916 85.6023L97.3302 84.1881ZM83.1881 98.3302L84.6023 96.916L83.1881 98.3302ZM76.3414 91.4835L77.7556 90.0693L76.6843 88.998L75.363 89.7392L76.3414 91.4835ZM69.5 94.4215L68.9092 92.5108L67.5 92.9465V94.4215H69.5ZM49.5 94.7146H51.5V93.1934L50.034 92.7872L49.5 94.7146ZM42.3049 91.8372L43.2468 90.0729L41.939 89.3747L40.8907 90.423L42.3049 91.8372ZM35.8119 98.3302L34.3977 96.916L34.3977 96.916L35.8119 98.3302ZM32.9835 98.3302L34.3977 96.916L34.3977 96.916L32.9835 98.3302ZM21.6698 87.0165L20.2556 88.4307L20.2556 88.4307L21.6698 87.0165ZM21.6698 84.1881L20.2556 82.7739L20.2556 82.7739L21.6698 84.1881ZM28.0165 77.8414L29.4307 79.2556L30.502 78.1843L29.7608 76.863L28.0165 77.8414ZM24.9279 70.5L26.8472 69.9376L26.426 68.5H24.9279V70.5ZM24.9279 50.5V52.5H26.426L26.8472 51.0624L24.9279 50.5ZM28.0165 43.1586L29.7608 44.137L30.502 42.8157L29.4307 41.7444L28.0165 43.1586ZM21.6698 36.8119L20.2556 38.2261H20.2556L21.6698 36.8119ZM21.6698 33.9835L23.084 35.3977L23.084 35.3977L21.6698 33.9835ZM32.9835 22.6698L34.3977 24.084L34.3977 24.084L32.9835 22.6698ZM35.8119 22.6698L34.3977 24.084V24.084L35.8119 22.6698ZM42.3049 29.1628L40.8907 30.577L41.939 31.6253L43.2468 30.9271L42.3049 29.1628ZM49.5 26.2854L50.034 28.2128L51.5 27.8066V26.2854H49.5ZM51.5 13C49.2909 13 47.5 14.7909 47.5 17H51.5V17V13ZM67.5 13H51.5V17H67.5V13ZM71.5 17C71.5 14.7909 69.7091 13 67.5 13V17H71.5ZM71.5 26.5785V17H67.5V26.5785H71.5ZM77.3198 27.7722C75.0464 26.497 72.6262 25.4516 70.0908 24.6677L68.9092 28.4892C71.172 29.1888 73.3326 30.122 75.363 31.2608L77.3198 27.7722ZM81.7739 21.2556L74.9272 28.1023L77.7556 30.9307L84.6023 24.084L81.7739 21.2556ZM87.4307 21.2556C85.8686 19.6935 83.336 19.6935 81.7739 21.2556L84.6023 24.084H84.6023L87.4307 21.2556ZM98.7444 32.5693L87.4307 21.2556L84.6023 24.084L95.916 35.3977L98.7444 32.5693ZM98.7444 38.2261C100.307 36.664 100.307 34.1314 98.7444 32.5693L95.916 35.3977V35.3977L98.7444 38.2261ZM91.7514 45.2191L98.7444 38.2261L95.916 35.3977L88.923 42.3907L91.7514 45.2191ZM94.9914 49.9376C94.2664 47.4635 93.2935 45.0957 92.1015 42.863L88.5729 44.7468C89.6374 46.7407 90.5058 48.8544 91.1528 51.0624L94.9914 49.9376ZM103 48.5H93.0721V52.5H103V48.5ZM107 52.5C107 50.2909 105.209 48.5 103 48.5V52.5H107ZM107 68.5V52.5H103V68.5H107ZM103 72.5C105.209 72.5 107 70.7091 107 68.5H103V72.5ZM93.0721 72.5H103V68.5H93.0721V72.5ZM92.1015 78.137C93.2935 75.9043 94.2664 73.5365 94.9914 71.0624L91.1528 69.9376C90.5058 72.1456 89.6374 74.2593 88.5729 76.2532L92.1015 78.137ZM98.7444 82.7739L91.7514 75.7809L88.923 78.6093L95.916 85.6023L98.7444 82.7739ZM98.7444 88.4307C100.307 86.8686 100.307 84.336 98.7444 82.7739L95.916 85.6023L98.7444 88.4307ZM87.4307 99.7444L98.7444 88.4307L95.916 85.6023L84.6023 96.916L87.4307 99.7444ZM81.7739 99.7444C83.336 101.307 85.8686 101.307 87.4307 99.7444L84.6023 96.916L81.7739 99.7444ZM74.9272 92.8977L81.7739 99.7444L84.6023 96.916L77.7556 90.0693L74.9272 92.8977ZM70.0908 96.3323C72.6263 95.5484 75.0464 94.503 77.3198 93.2278L75.363 89.7392C73.3326 90.878 71.172 91.8112 68.9092 92.5108L70.0908 96.3323ZM71.5 104V94.4215H67.5V104H71.5ZM67.5 108C69.7091 108 71.5 106.209 71.5 104H67.5V108ZM51.5 108H67.5V104H51.5V108ZM47.5 104C47.5 106.209 49.2909 108 51.5 108V104H47.5ZM47.5 94.7146V104H51.5V94.7146H47.5ZM41.363 93.6015C43.7541 94.8781 46.3003 95.9035 48.966 96.642L50.034 92.7872C47.655 92.1281 45.3822 91.2129 43.2468 90.0729L41.363 93.6015ZM37.2261 99.7444L43.7191 93.2514L40.8907 90.423L34.3977 96.916L37.2261 99.7444ZM31.5693 99.7444C33.1314 101.307 35.664 101.307 37.2261 99.7444L34.3977 96.916H34.3977L31.5693 99.7444ZM20.2556 88.4307L31.5693 99.7444L34.3977 96.916L23.084 85.6023L20.2556 88.4307ZM20.2556 82.7739C18.6935 84.336 18.6935 86.8686 20.2556 88.4307L23.084 85.6023V85.6023L20.2556 82.7739ZM26.6023 76.4271L20.2556 82.7739L23.084 85.6023L29.4307 79.2556L26.6023 76.4271ZM23.0086 71.0624C23.8079 73.7903 24.9087 76.389 26.2721 78.8198L29.7608 76.863C28.5431 74.692 27.5606 72.3721 26.8472 69.9376L23.0086 71.0624ZM16 72.5H24.9279V68.5H16V72.5ZM12 68.5C12 70.7091 13.7909 72.5 16 72.5V68.5H16H12ZM12 52.5V68.5H16V52.5H12ZM16 48.5C13.7909 48.5 12 50.2909 12 52.5H16H16V48.5ZM24.9279 48.5H16V52.5H24.9279V48.5ZM26.2722 42.1802C24.9087 44.611 23.8079 47.2097 23.0086 49.9376L26.8472 51.0624C27.5606 48.6279 28.5431 46.308 29.7608 44.137L26.2722 42.1802ZM20.2556 38.2261L26.6023 44.5728L29.4307 41.7444L23.084 35.3977L20.2556 38.2261ZM20.2556 32.5693C18.6935 34.1314 18.6935 36.664 20.2556 38.2261L23.084 35.3977H23.084L20.2556 32.5693ZM31.5693 21.2556L20.2556 32.5693L23.084 35.3977L34.3977 24.084L31.5693 21.2556ZM37.2261 21.2556C35.664 19.6935 33.1314 19.6935 31.5693 21.2556L34.3977 24.084H34.3977L37.2261 21.2556ZM43.7191 27.7486L37.2261 21.2556L34.3977 24.084L40.8907 30.577L43.7191 27.7486ZM48.966 24.358C46.3003 25.0966 43.7542 26.1219 41.363 27.3985L43.2468 30.9271C45.3822 29.7871 47.655 28.8719 50.034 28.2128L48.966 24.358ZM47.5 17V26.2854H51.5V17H47.5Z" fill="#6364FF" mask="url(#path-2-inside-1_187_47)"/>
<path d="M51.1 56.4L46 61.5L51.1 66.6" stroke="#6364FF" stroke-width="2" stroke-linecap="round"/>
<path d="M66.1 56.4L71.2 61.5L66.1 66.6" stroke="#6364FF" stroke-width="2" stroke-linecap="round"/>
<path d="M60.1 56.4L57.1 66.6" stroke="#6364FF" stroke-width="2" stroke-linecap="round"/>
</svg>
