<svg width="120" height="120" viewBox="0 0 120 120" fill="none" xmlns="http://www.w3.org/2000/svg">
<path d="M60.823 67.8999L51.0602 104.335C50.8348 105.176 49.7161 105.347 49.2497 104.612L44.9171 97.7772C44.6436 97.3457 44.0888 97.1897 43.6305 97.4156L36.0262 101.163C35.2555 101.543 34.3963 100.838 34.618 100.008L44.5 63" stroke="#6364FF" stroke-width="2"/>
<path d="M60.1316 67.8999L69.8943 104.335C70.1198 105.176 71.2384 105.347 71.7048 104.612L76.0374 97.7772C76.311 97.3457 76.8658 97.1897 77.324 97.4156L84.9283 101.163C85.699 101.543 86.5582 100.838 86.3365 100.008L76.4545 63" stroke="#6364FF" stroke-width="2"/>
<circle cx="60" cy="41" r="27" stroke="#6364FF" stroke-width="2"/>
</svg>
