<svg width="120" height="120" viewBox="0 0 120 120" fill="none" xmlns="http://www.w3.org/2000/svg">
<circle cx="61" cy="60" r="11" stroke="currentColor" stroke-width="2"/>
<circle cx="61" cy="60" r="5" fill="currentColor"/>
<path d="M59.2929 108.707C59.6834 109.098 60.3166 109.098 60.7071 108.707L67.0711 102.343C67.4616 101.953 67.4616 101.319 67.0711 100.929C66.6805 100.538 66.0474 100.538 65.6569 100.929L60 106.586L54.3431 100.929C53.9526 100.538 53.3195 100.538 52.9289 100.929C52.5384 101.319 52.5384 101.953 52.9289 102.343L59.2929 108.707ZM61 82C61 81.4477 60.5523 81 60 81C59.4477 81 59 81.4477 59 82L61 82ZM61 108L61 82L59 82L59 108L61 108Z" fill="currentColor"/>
<path d="M59.2929 11.2929C59.6834 10.9024 60.3166 10.9024 60.7071 11.2929L67.0711 17.6569C67.4616 18.0474 67.4616 18.6805 67.0711 19.0711C66.6805 19.4616 66.0474 19.4616 65.6569 19.0711L60 13.4142L54.3431 19.0711C53.9526 19.4616 53.3195 19.4616 52.9289 19.0711C52.5384 18.6805 52.5384 18.0474 52.9289 17.6569L59.2929 11.2929ZM61 38C61 38.5523 60.5523 39 60 39C59.4477 39 59 38.5523 59 38L61 38ZM61 12L61 38L59 38L59 12L61 12Z" fill="currentColor"/>
<path d="M11.2929 59.2929C10.9024 59.6834 10.9024 60.3166 11.2929 60.7071L17.6569 67.0711C18.0474 67.4616 18.6805 67.4616 19.0711 67.0711C19.4616 66.6805 19.4616 66.0474 19.0711 65.6569L13.4142 60L19.0711 54.3431C19.4616 53.9526 19.4616 53.3195 19.0711 52.9289C18.6805 52.5384 18.0474 52.5384 17.6569 52.9289L11.2929 59.2929ZM38 61C38.5523 61 39 60.5523 39 60C39 59.4477 38.5523 59 38 59L38 61ZM12 61L38 61L38 59L12 59L12 61Z" fill="currentColor"/>
<path d="M108.707 59.2929C109.098 59.6834 109.098 60.3166 108.707 60.7071L102.343 67.0711C101.953 67.4616 101.319 67.4616 100.929 67.0711C100.538 66.6805 100.538 66.0474 100.929 65.6569L106.586 60L100.929 54.3431C100.538 53.9526 100.538 53.3195 100.929 52.9289C101.319 52.5384 101.953 52.5384 102.343 52.9289L108.707 59.2929ZM82 61C81.4477 61 81 60.5523 81 60C81 59.4477 81.4477 59 82 59V61ZM108 61H82V59H108V61Z" fill="currentColor"/>
<path d="M25.0589 93.9411C25.0589 94.4934 25.5066 94.9411 26.0589 94.9411L35.0589 94.9411C35.6112 94.9411 36.0589 94.4934 36.0589 93.9411C36.0589 93.3888 35.6112 92.9411 35.0589 92.9411L27.0589 92.9411L27.0589 84.9411C27.0589 84.3888 26.6112 83.9411 26.0589 83.9411C25.5066 83.9411 25.0589 84.3888 25.0589 84.9411L25.0589 93.9411ZM45.4336 75.9806C45.8241 75.5901 45.8241 74.9569 45.4336 74.5664C45.0431 74.1759 44.4099 74.1759 44.0194 74.5664L45.4336 75.9806ZM26.766 94.6482L45.4336 75.9806L44.0194 74.5664L25.3518 93.234L26.766 94.6482Z" fill="currentColor"/>
<path d="M93.9411 25.0589C94.4934 25.0589 94.9411 25.5066 94.9411 26.0589L94.9411 35.0589C94.9411 35.6112 94.4934 36.0589 93.9411 36.0589C93.3888 36.0589 92.9411 35.6112 92.9411 35.0589L92.9411 27.0589L84.9411 27.0589C84.3888 27.0589 83.9411 26.6112 83.9411 26.0589C83.9411 25.5066 84.3888 25.0589 84.9411 25.0589L93.9411 25.0589ZM75.9806 45.4336C75.5901 45.8241 74.9569 45.8241 74.5664 45.4336C74.1759 45.0431 74.1759 44.4099 74.5664 44.0194L75.9806 45.4336ZM94.6482 26.766L75.9806 45.4336L74.5664 44.0194L93.234 25.3518L94.6482 26.766Z" fill="currentColor"/>
<path d="M94.9411 93.9411C94.9411 94.4934 94.4934 94.9411 93.9411 94.9411L84.9411 94.9411C84.3888 94.9411 83.9411 94.4934 83.9411 93.9411C83.9411 93.3888 84.3888 92.9411 84.9411 92.9411L92.9411 92.9411L92.9411 84.9411C92.9411 84.3888 93.3888 83.9411 93.9411 83.9411C94.4934 83.9411 94.9411 84.3888 94.9411 84.9411L94.9411 93.9411ZM74.5664 75.9806C74.1759 75.5901 74.1759 74.9569 74.5664 74.5664C74.9569 74.1759 75.5901 74.1759 75.9806 74.5664L74.5664 75.9806ZM93.234 94.6482L74.5664 75.9806L75.9806 74.5664L94.6482 93.234L93.234 94.6482Z" fill="currentColor"/>
<path d="M26.0589 25.0589C25.5066 25.0589 25.0589 25.5066 25.0589 26.0589L25.0589 35.0589C25.0589 35.6112 25.5066 36.0589 26.0589 36.0589C26.6112 36.0589 27.0589 35.6112 27.0589 35.0589L27.0589 27.0589L35.0589 27.0589C35.6112 27.0589 36.0589 26.6112 36.0589 26.0589C36.0589 25.5066 35.6112 25.0589 35.0589 25.0589L26.0589 25.0589ZM44.0194 45.4336C44.4099 45.8241 45.0431 45.8241 45.4336 45.4336C45.8241 45.0431 45.8241 44.4099 45.4336 44.0194L44.0194 45.4336ZM25.3518 26.766L44.0194 45.4336L45.4336 44.0194L26.766 25.3518L25.3518 26.766Z" fill="currentColor"/>
</svg>
