<svg width="120" height="120" viewBox="0 0 120 120" fill="none" xmlns="http://www.w3.org/2000/svg">
<line x1="101.84" y1="70.5434" x2="18.1599" y2="70.5434" stroke="#6364FF" stroke-width="2"/>
<line x1="77.7264" y1="61.7821" x2="42.2736" y2="61.7821" stroke="#6364FF" stroke-width="2" stroke-linecap="round"/>
<mask id="path-3-inside-1_187_44" fill="white">
<path d="M22.2773 54.0302C22.7526 52.2909 24.3328 51.0845 26.1359 51.0845H94.2289C95.9987 51.0845 97.5581 52.2475 98.0628 53.9437L103.071 70.774V100C103.071 102.209 101.28 104 99.0707 104H21.0234C18.7778 104 16.9722 102.152 17.0245 99.907L17.702 70.774L22.2773 54.0302Z"/>
</mask>
<path d="M17.702 71.774H103.071V69.774H17.702V71.774ZM17.702 70.774L15.7727 70.2468L15.7082 70.4829L15.7025 70.7275L17.702 70.774ZM103.071 70.774H105.071V70.4828L104.988 70.2036L103.071 70.774ZM98.0628 53.9437L96.1459 54.5141L98.0628 53.9437ZM22.2773 54.0302L20.348 53.503L22.2773 54.0302ZM26.1359 53.0845H94.2289V49.0845H26.1359V53.0845ZM99.0707 102H21.0234V106H99.0707V102ZM19.0239 99.9535L19.7014 70.8205L15.7025 70.7275L15.025 99.8605L19.0239 99.9535ZM19.6312 71.3012L24.2066 54.5574L20.348 53.503L15.7727 70.2468L19.6312 71.3012ZM96.1459 54.5141L101.154 71.3444L104.988 70.2036L99.9798 53.3734L96.1459 54.5141ZM101.071 70.774V100H105.071V70.774H101.071ZM21.0234 102C19.9006 102 18.9978 101.076 19.0239 99.9535L15.025 99.8605C14.9467 103.228 17.6551 106 21.0234 106V102ZM99.0707 106C102.384 106 105.071 103.314 105.071 100H101.071C101.071 101.105 100.175 102 99.0707 102V106ZM94.2289 53.0845C95.1138 53.0845 95.8935 53.666 96.1459 54.5141L99.9798 53.3734C99.2227 50.829 96.8836 49.0845 94.2289 49.0845V53.0845ZM26.1359 49.0845C23.4312 49.0845 21.061 50.894 20.348 53.503L24.2066 54.5574C24.4442 53.6877 25.2343 53.0845 26.1359 53.0845V49.0845Z" fill="#6364FF" mask="url(#path-3-inside-1_187_44)"/>
<path d="M76.7901 28.4791C76.7901 37.4685 69.2982 44.801 60 44.801C50.7018 44.801 43.2099 37.4685 43.2099 28.4791C43.2099 19.4897 50.7018 12.1572 60 12.1572C69.2982 12.1572 76.7901 19.4897 76.7901 28.4791Z" stroke="#6364FF" stroke-width="2"/>
<mask id="path-6-outside-2_187_44" maskUnits="userSpaceOnUse" x="53.3821" y="17.6477" width="13" height="21" fill="black">
<rect fill="white" x="53.3821" y="17.6477" width="13" height="21"/>
<path d="M59.1853 38.3104V35.8486H60.9212V38.3104H59.1853ZM59.1853 21.1203V18.6477H60.9212V21.1203H59.1853ZM60.229 36.5122C59.1995 36.5122 58.2729 36.3302 57.4493 35.9663C56.6328 35.5953 55.9583 35.0708 55.4258 34.3929C54.9004 33.715 54.5525 32.9158 54.3821 31.9952L56.0861 31.7062C56.3133 32.6696 56.8032 33.4367 57.5558 34.0075C58.3155 34.5713 59.2279 34.8531 60.2929 34.8531C61.3721 34.8531 62.2454 34.5927 62.9128 34.0718C63.5802 33.5437 63.9139 32.8551 63.9139 32.0059C63.9139 31.3923 63.7329 30.8999 63.3708 30.5288C63.0087 30.1506 62.398 29.826 61.5389 29.5548L58.0777 28.4844C55.9973 27.8279 54.9572 26.5863 54.9572 24.7595C54.9572 23.8961 55.1666 23.1433 55.5855 22.501C56.0044 21.8588 56.5902 21.3593 57.3428 21.0025C58.0954 20.6386 58.9758 20.4602 59.984 20.4673C60.9638 20.4745 61.8407 20.66 62.6146 21.0239C63.3885 21.3879 64.024 21.9052 64.521 22.576C65.0251 23.2467 65.3623 24.0459 65.5327 24.9736L63.7968 25.2947C63.6974 24.6668 63.4702 24.1173 63.1152 23.6463C62.7672 23.1682 62.3235 22.7972 61.7839 22.5332C61.2443 22.2691 60.6408 22.1335 59.9734 22.1264C59.3486 22.1193 58.7877 22.2263 58.2907 22.4475C57.8008 22.6616 57.4103 22.9649 57.1192 23.3573C56.8352 23.7427 56.6931 24.1851 56.6931 24.6846C56.6931 25.2269 56.892 25.6872 57.2896 26.0654C57.6872 26.4436 58.3155 26.7647 59.1746 27.0287L62.0821 27.8957C63.3317 28.2739 64.2334 28.7806 64.7872 29.4156C65.341 30.0436 65.6179 30.8856 65.6179 31.9417C65.6179 32.8622 65.3943 33.665 64.947 34.3501C64.4997 35.028 63.8713 35.5596 63.0619 35.9449C62.2525 36.3231 61.3082 36.5122 60.229 36.5122Z"/>
</mask>
<path d="M59.1853 38.3104V35.8486H60.9212V38.3104H59.1853ZM59.1853 21.1203V18.6477H60.9212V21.1203H59.1853ZM60.229 36.5122C59.1995 36.5122 58.2729 36.3302 57.4493 35.9663C56.6328 35.5953 55.9583 35.0708 55.4258 34.3929C54.9004 33.715 54.5525 32.9158 54.3821 31.9952L56.0861 31.7062C56.3133 32.6696 56.8032 33.4367 57.5558 34.0075C58.3155 34.5713 59.2279 34.8531 60.2929 34.8531C61.3721 34.8531 62.2454 34.5927 62.9128 34.0718C63.5802 33.5437 63.9139 32.8551 63.9139 32.0059C63.9139 31.3923 63.7329 30.8999 63.3708 30.5288C63.0087 30.1506 62.398 29.826 61.5389 29.5548L58.0777 28.4844C55.9973 27.8279 54.9572 26.5863 54.9572 24.7595C54.9572 23.8961 55.1666 23.1433 55.5855 22.501C56.0044 21.8588 56.5902 21.3593 57.3428 21.0025C58.0954 20.6386 58.9758 20.4602 59.984 20.4673C60.9638 20.4745 61.8407 20.66 62.6146 21.0239C63.3885 21.3879 64.024 21.9052 64.521 22.576C65.0251 23.2467 65.3623 24.0459 65.5327 24.9736L63.7968 25.2947C63.6974 24.6668 63.4702 24.1173 63.1152 23.6463C62.7672 23.1682 62.3235 22.7972 61.7839 22.5332C61.2443 22.2691 60.6408 22.1335 59.9734 22.1264C59.3486 22.1193 58.7877 22.2263 58.2907 22.4475C57.8008 22.6616 57.4103 22.9649 57.1192 23.3573C56.8352 23.7427 56.6931 24.1851 56.6931 24.6846C56.6931 25.2269 56.892 25.6872 57.2896 26.0654C57.6872 26.4436 58.3155 26.7647 59.1746 27.0287L62.0821 27.8957C63.3317 28.2739 64.2334 28.7806 64.7872 29.4156C65.341 30.0436 65.6179 30.8856 65.6179 31.9417C65.6179 32.8622 65.3943 33.665 64.947 34.3501C64.4997 35.028 63.8713 35.5596 63.0619 35.9449C62.2525 36.3231 61.3082 36.5122 60.229 36.5122Z" fill="#6364FF"/>
<path d="M59.1853 38.3104V35.8486H60.9212V38.3104H59.1853ZM59.1853 21.1203V18.6477H60.9212V21.1203H59.1853ZM60.229 36.5122C59.1995 36.5122 58.2729 36.3302 57.4493 35.9663C56.6328 35.5953 55.9583 35.0708 55.4258 34.3929C54.9004 33.715 54.5525 32.9158 54.3821 31.9952L56.0861 31.7062C56.3133 32.6696 56.8032 33.4367 57.5558 34.0075C58.3155 34.5713 59.2279 34.8531 60.2929 34.8531C61.3721 34.8531 62.2454 34.5927 62.9128 34.0718C63.5802 33.5437 63.9139 32.8551 63.9139 32.0059C63.9139 31.3923 63.7329 30.8999 63.3708 30.5288C63.0087 30.1506 62.398 29.826 61.5389 29.5548L58.0777 28.4844C55.9973 27.8279 54.9572 26.5863 54.9572 24.7595C54.9572 23.8961 55.1666 23.1433 55.5855 22.501C56.0044 21.8588 56.5902 21.3593 57.3428 21.0025C58.0954 20.6386 58.9758 20.4602 59.984 20.4673C60.9638 20.4745 61.8407 20.66 62.6146 21.0239C63.3885 21.3879 64.024 21.9052 64.521 22.576C65.0251 23.2467 65.3623 24.0459 65.5327 24.9736L63.7968 25.2947C63.6974 24.6668 63.4702 24.1173 63.1152 23.6463C62.7672 23.1682 62.3235 22.7972 61.7839 22.5332C61.2443 22.2691 60.6408 22.1335 59.9734 22.1264C59.3486 22.1193 58.7877 22.2263 58.2907 22.4475C57.8008 22.6616 57.4103 22.9649 57.1192 23.3573C56.8352 23.7427 56.6931 24.1851 56.6931 24.6846C56.6931 25.2269 56.892 25.6872 57.2896 26.0654C57.6872 26.4436 58.3155 26.7647 59.1746 27.0287L62.0821 27.8957C63.3317 28.2739 64.2334 28.7806 64.7872 29.4156C65.341 30.0436 65.6179 30.8856 65.6179 31.9417C65.6179 32.8622 65.3943 33.665 64.947 34.3501C64.4997 35.028 63.8713 35.5596 63.0619 35.9449C62.2525 36.3231 61.3082 36.5122 60.229 36.5122Z" stroke="#6364FF" stroke-width="0.5" mask="url(#path-6-outside-2_187_44)"/>
</svg>
