<svg width="120" height="120" viewBox="0 0 120 120" fill="none" xmlns="http://www.w3.org/2000/svg">
<path d="M58.4462 80.2381V75.3193H61.757V80.2381H58.4462ZM58.4462 45.8925V40.9524H61.757V45.8925H58.4462ZM60.4367 76.6453C58.4733 76.6453 56.7062 76.2817 55.1354 75.5546C53.5782 74.8132 52.2918 73.7653 51.2763 72.4109C50.2742 71.0564 49.6107 69.4596 49.2857 67.6205L52.5356 67.043C52.9689 68.9678 53.9032 70.5004 55.3385 71.641C56.7874 72.7673 58.5274 73.3305 60.5586 73.3305C62.6168 73.3305 64.2823 72.8101 65.5552 71.7693C66.8281 70.7143 67.4645 69.3384 67.4645 67.6418C67.4645 66.4157 67.1192 65.432 66.4286 64.6906C65.738 63.935 64.5735 63.2863 62.935 62.7445L56.3338 60.6059C52.3663 59.2942 50.3826 56.8135 50.3826 53.1637C50.3826 51.4385 50.782 49.9344 51.5809 48.6512C52.3798 47.3681 53.497 46.3701 54.9323 45.6572C56.3677 44.9301 58.0467 44.5737 59.9696 44.5879C61.8382 44.6022 63.5105 44.9729 64.9865 45.7C66.4624 46.4271 67.6744 47.4608 68.6222 48.8009C69.5836 50.1411 70.2268 51.7379 70.5518 53.5914L67.241 54.2329C67.0515 52.9783 66.6182 51.8805 65.9411 50.9395C65.2776 49.9843 64.4313 49.2429 63.4022 48.7154C62.3731 48.1879 61.2221 47.917 59.9492 47.9027C58.7576 47.8885 57.6879 48.1023 56.74 48.5443C55.8057 48.972 55.061 49.578 54.5058 50.3621C53.9641 51.132 53.6933 52.0159 53.6933 53.014C53.6933 54.0975 54.0725 55.0171 54.8308 55.7727C55.5891 56.5284 56.7874 57.1699 58.4259 57.6974L63.9709 59.4297C66.3541 60.1853 68.0738 61.1976 69.13 62.4665C70.1862 63.7211 70.7143 65.4035 70.7143 67.5135C70.7143 69.3527 70.2878 70.9566 69.4347 72.3253C68.5816 73.6798 67.3832 74.7419 65.8396 75.5118C64.2959 76.2674 62.4949 76.6453 60.4367 76.6453Z" fill="#6364FF"/>
<path d="M59.1605 13.1379C59.5545 12.529 60.4455 12.529 60.8395 13.1379L69.0933 25.8922C69.8648 27.0844 71.3665 27.5723 72.6915 27.0613L86.8656 21.5943C87.5424 21.3333 88.2632 21.857 88.224 22.5813L87.4047 37.7511C87.3281 39.1691 88.2562 40.4465 89.6285 40.8119L104.309 44.7204C105.01 44.907 105.285 45.7543 104.828 46.3173L95.2484 58.1083C94.353 59.2105 94.353 60.7895 95.2484 61.8917L104.828 73.6827C105.285 74.2457 105.01 75.093 104.309 75.2796L89.6285 79.1881C88.2562 79.5535 87.3281 80.8309 87.4047 82.2489L88.224 97.4187C88.2632 98.143 87.5424 98.6667 86.8656 98.4057L72.6915 92.9387C71.3665 92.4277 69.8648 92.9156 69.0933 94.1078L60.8395 106.862C60.4455 107.471 59.5545 107.471 59.1605 106.862L50.9067 94.1078C50.1352 92.9156 48.6335 92.4277 47.3085 92.9387L33.1344 98.4057C32.4576 98.6667 31.7368 98.143 31.776 97.4187L32.5953 82.2489C32.6719 80.8309 31.7438 79.5535 30.3715 79.1881L15.691 75.2796C14.99 75.093 14.7147 74.2457 15.1721 73.6827L24.7516 61.8917C25.647 60.7895 25.647 59.2105 24.7516 58.1083L15.1721 46.3173C14.7147 45.7543 14.99 44.907 15.691 44.7204L30.3715 40.8119C31.7438 40.4465 32.6719 39.1691 32.5953 37.7511L31.776 22.5813C31.7368 21.857 32.4576 21.3333 33.1344 21.5943L47.3085 27.0613C48.6335 27.5723 50.1352 27.0844 50.9067 25.8922L50.0672 25.3489L50.9067 25.8922L59.1605 13.1379Z" stroke="#6364FF" stroke-width="2"/>
</svg>
