<svg xmlns="http://www.w3.org/2000/svg" fill="none" viewBox="0 0 18 18">
  <path fill="currentColor"
    d="M3.75 15.375c-.478 0-.818-.213-1.02-.64-.202-.427-.153-.824.146-1.192L7.125 8.38V3.75h-.894a.544.544 0 0 1-.401-.162.545.545 0 0 1-.162-.4c0-.16.054-.294.162-.401a.545.545 0 0 1 .4-.162h5.54c.159 0 .292.054.4.162a.545.545 0 0 1 .162.4c0 .16-.054.294-.162.401a.545.545 0 0 1-.4.162h-.895v4.63l4.249 5.163c.3.368.348.765.146 1.192-.202.427-.542.64-1.02.64H3.75Zm0-1.125h10.5l-4.5-5.475V3.75h-1.5v5.025l-4.5 5.475Z" />
</svg>