<svg width="120" height="120" viewBox="0 0 120 120" fill="none" xmlns="http://www.w3.org/2000/svg">
<circle cx="83" cy="60" r="29" stroke="currentColor" stroke-width="2"/>
<line x1="23" y1="41" x2="41" y2="41" stroke="currentColor" stroke-width="2" stroke-linecap="round"/>
<line x1="7" y1="59" x2="41" y2="59" stroke="currentColor" stroke-width="2" stroke-linecap="round"/>
<line x1="23" y1="77" x2="41" y2="77" stroke="currentColor" stroke-width="2" stroke-linecap="round"/>
<path d="M81.6948 76V71.9935H84.4758V76H81.6948ZM81.6948 48.024V44H84.4758V48.024H81.6948ZM83.3668 73.0735C81.7175 73.0735 80.2332 72.7774 78.9137 72.1851C77.6057 71.5812 76.5251 70.7276 75.672 69.6244C74.8303 68.5211 74.273 67.2205 74 65.7224L76.7299 65.252C77.0938 66.8198 77.8787 68.0682 79.0844 68.9973C80.3014 69.9147 81.763 70.3734 83.4692 70.3734C85.1981 70.3734 86.5972 69.9496 87.6664 69.1018C88.7355 68.2424 89.2701 67.1218 89.2701 65.7398C89.2701 64.7411 88.9801 63.9398 88.4 63.3359C87.8199 62.7204 86.8417 62.192 85.4654 61.7507L79.9204 60.0087C76.5877 58.9403 74.9213 56.9196 74.9213 53.9467C74.9213 52.5415 75.2569 51.3163 75.928 50.2711C76.5991 49.2259 77.5374 48.413 78.7431 47.8323C79.9488 47.2401 81.3592 46.9497 82.9744 46.9613C84.5441 46.973 85.9488 47.2749 87.1886 47.8672C88.4284 48.4594 89.4464 49.3014 90.2427 50.393C91.0502 51.4847 91.5905 52.7853 91.8635 54.295L89.0825 54.8176C88.9232 53.7957 88.5592 52.9015 87.9905 52.135C87.4332 51.3569 86.7223 50.753 85.8578 50.3234C84.9934 49.8937 84.0265 49.673 82.9573 49.6614C81.9564 49.6498 81.0578 49.824 80.2616 50.184C79.4768 50.5324 78.8512 51.0259 78.3848 51.6647C77.9299 52.2918 77.7024 53.0118 77.7024 53.8247C77.7024 54.7073 78.0209 55.4564 78.6578 56.0719C79.2948 56.6874 80.3014 57.2099 81.6777 57.6396L86.3355 59.0506C88.3374 59.6661 89.782 60.4907 90.6692 61.5242C91.5564 62.5462 92 63.9165 92 65.6353C92 67.1334 91.6417 68.4398 90.9251 69.5547C90.2085 70.658 89.2019 71.5231 87.9052 72.1502C86.6085 72.7657 85.0957 73.0735 83.3668 73.0735Z" fill="currentColor"/>
</svg>
