<svg width="120" height="120" viewBox="0 0 120 120" fill="none" xmlns="http://www.w3.org/2000/svg">
<path d="M15 38C15 36.3431 16.3431 35 18 35H47C48.6569 35 50 36.3431 50 38V70H15V38Z" stroke="currentColor" stroke-width="2"/>
<rect x="77" y="15" width="28" height="28" rx="3" stroke="currentColor" stroke-width="2"/>
<path d="M15 70H50V105H18C16.3431 105 15 103.657 15 102V70Z" stroke="currentColor" stroke-width="2"/>
<path d="M50 70H82C83.6569 70 85 71.3431 85 73V102C85 103.657 83.6569 105 82 105H50V70Z" stroke="currentColor" stroke-width="2"/>
<path d="M72.6777 47.1924C73.23 47.1924 73.6777 47.6401 73.6777 48.1924L73.6777 57.1924C73.6777 57.7447 73.23 58.1924 72.6777 58.1924C72.1254 58.1924 71.6777 57.7447 71.6777 57.1924L71.6777 49.1924L63.6777 49.1924C63.1254 49.1924 62.6777 48.7447 62.6777 48.1924C62.6777 47.6401 63.1254 47.1924 63.6777 47.1924L72.6777 47.1924ZM57.8284 64.4559C57.4379 64.8464 56.8047 64.8464 56.4142 64.4559C56.0237 64.0653 56.0237 63.4322 56.4142 63.0417L57.8284 64.4559ZM73.3848 48.8995L57.8284 64.4559L56.4142 63.0417L71.9706 47.4853L73.3848 48.8995Z" fill="currentColor"/>
</svg>
