<svg xmlns="http://www.w3.org/2000/svg" fill="none" viewBox="0 0 18 14">
  <path fill="currentColor"
    d="M5.207 13.5a2.211 2.211 0 0 1-1.645-.696 2.328 2.328 0 0 1-.678-1.687H.886l.282-1.3H3.32c.196-.33.46-.593.792-.79a2.114 2.114 0 0 1 1.096-.294c.398 0 .764.098 1.096.295.331.196.595.459.792.789h3.713L12.623 1.8h-9.25l.052-.227c.062-.315.213-.573.45-.773.238-.2.518-.3.84-.3h9.492l-.733 3.25h2.114L18 7.05l-.788 4.067H15.88c0 .66-.226 1.223-.678 1.687-.453.464-1 .696-1.645.696a2.212 2.212 0 0 1-1.645-.696 2.328 2.328 0 0 1-.678-1.687H7.53c0 .66-.226 1.223-.679 1.687-.452.464-1 .696-1.644.696Zm7.312-5.525h4.003l.117-.613-1.685-2.312h-1.77l-.665 2.925Zm-.02-5.665.124-.51-1.815 8.017.124-.51.693-3.097.874-3.9ZM0 8.007l.317-1.3h4.216l-.317 1.3H0ZM1.69 4.91l.316-1.3h5.06l-.316 1.3H1.69Zm3.517 7.29c.293 0 .543-.105.748-.316.205-.21.308-.466.308-.767 0-.302-.103-.557-.308-.768a1.005 1.005 0 0 0-.748-.316c-.294 0-.543.106-.748.316-.206.21-.308.466-.308.768 0 .3.102.557.308.767.205.21.454.316.748.316Zm8.35 0c.293 0 .543-.105.748-.316.205-.21.308-.466.308-.767 0-.302-.103-.557-.308-.768a1.005 1.005 0 0 0-.748-.316c-.294 0-.543.106-.748.316-.206.21-.308.466-.308.768 0 .3.102.557.308.767.205.21.454.316.748.316Z" />
</svg>