<svg width="120" height="120" viewBox="0 0 120 120" fill="none" xmlns="http://www.w3.org/2000/svg">
<rect x="11" y="17" width="98" height="86" rx="3" stroke="currentColor" stroke-width="2"/>
<mask id="path-2-inside-1_187_30" fill="white">
<path fill-rule="evenodd" clip-rule="evenodd" d="M83.794 60.9219C84.2723 60.6458 84.4362 60.0342 84.16 59.5559L80.16 52.6277C79.8839 52.1494 79.2723 51.9855 78.794 52.2617L34.6085 77.7722C34.4277 77.8766 34.2841 78.0349 34.1978 78.2249L31.3572 84.4838C31.074 85.1079 31.4883 85.8256 32.1704 85.8923L39.0111 86.5617C39.2188 86.582 39.4277 86.5368 39.6085 86.4325L83.794 60.9219Z"/>
</mask>
<path d="M39.0111 86.5617L38.8163 88.5522L39.0111 86.5617ZM31.3572 84.4838L29.536 83.6572L31.3572 84.4838ZM32.1704 85.8923L31.9757 87.8828L32.1704 85.8923ZM34.1978 78.2249L36.0191 79.0515L34.1978 78.2249ZM78.428 53.6277L82.428 60.5559L85.8921 58.5559L81.8921 51.6277L78.428 53.6277ZM35.6085 79.5043L79.794 53.9937L77.794 50.5296L33.6085 76.0401L35.6085 79.5043ZM33.1784 85.3103L36.0191 79.0515L32.3766 77.3984L29.536 83.6572L33.1784 85.3103ZM39.2058 84.5712L32.3652 83.9018L31.9757 87.8828L38.8163 88.5522L39.2058 84.5712ZM82.794 59.1899L38.6085 84.7004L40.6085 88.1645L84.794 62.654L82.794 59.1899ZM38.8163 88.5522C39.4395 88.6132 40.0662 88.4776 40.6085 88.1645L38.6085 84.7004C38.7892 84.596 38.9981 84.5509 39.2058 84.5712L38.8163 88.5522ZM29.536 83.6572C28.6862 85.5296 29.9292 87.6826 31.9757 87.8828L32.3652 83.9018C33.0474 83.9686 33.4617 84.6862 33.1784 85.3103L29.536 83.6572ZM33.6085 76.0401C33.0662 76.3532 32.6354 76.8282 32.3766 77.3984L36.0191 79.0515C35.9328 79.2416 35.7892 79.3999 35.6085 79.5043L33.6085 76.0401ZM82.428 60.5559C82.1518 60.0776 82.3157 59.466 82.794 59.1899L84.794 62.654C86.2289 61.8255 86.7205 59.9908 85.8921 58.5559L82.428 60.5559ZM81.8921 51.6277C81.0637 50.1928 79.2289 49.7012 77.794 50.5296L79.794 53.9937C79.3157 54.2699 78.7041 54.106 78.428 53.6277L81.8921 51.6277Z" fill="currentColor" mask="url(#path-2-inside-1_187_30)"/>
<path d="M84.8662 49.9106C85.3445 49.6344 85.9561 49.7983 86.2322 50.2766L89.2322 55.4728C89.5084 55.9511 89.3445 56.5626 88.8662 56.8388L83.67 59.8388L79.67 52.9106L84.8662 49.9106Z" stroke="currentColor" stroke-width="2"/>
<line x1="35.5027" y1="78.4106" x2="39.0027" y2="84.4728" stroke="currentColor" stroke-width="2"/>
<circle cx="18" cy="24" r="3" transform="rotate(90 18 24)" fill="currentColor"/>
<circle cx="30" cy="24" r="3" transform="rotate(90 30 24)" fill="currentColor"/>
<circle cx="42" cy="24" r="3" transform="rotate(90 42 24)" fill="currentColor"/>
<line x1="11" y1="31" x2="109" y2="31" stroke="currentColor" stroke-width="2"/>
</svg>
