<svg width="120" height="120" viewBox="0 0 120 120" fill="none" xmlns="http://www.w3.org/2000/svg">
<mask id="path-1-inside-1_187_37" fill="white">
<path fill-rule="evenodd" clip-rule="evenodd" d="M78.1838 45.2218C73.888 40.9261 66.9232 40.9261 62.6274 45.2218L59.9559 47.8934L57.7782 45.7157C53.4824 41.42 46.5176 41.42 42.2218 45.7157C37.9261 50.0115 37.9261 56.9763 42.2218 61.2721L59.8995 78.9498L60.4498 78.3995L60.5061 78.4558L78.1838 60.7782C82.4796 56.4824 82.4796 49.5176 78.1838 45.2218Z"/>
</mask>
<path d="M62.6274 45.2218L61.2132 43.8076V43.8076L62.6274 45.2218ZM78.1838 45.2218L76.7696 46.636V46.636L78.1838 45.2218ZM59.9559 47.8934L58.5416 49.3076L59.9559 50.7218L61.3701 49.3076L59.9559 47.8934ZM57.7782 45.7157L59.1924 44.3015L57.7782 45.7157ZM42.2218 45.7157L43.636 47.13L42.2218 45.7157ZM42.2218 61.2721L40.8076 62.6863H40.8076L42.2218 61.2721ZM59.8995 78.9498L58.4853 80.364L59.8995 81.7782L61.3137 80.364L59.8995 78.9498ZM60.4498 78.3995L61.864 76.9853L60.4498 75.571L59.0355 76.9853L60.4498 78.3995ZM60.5061 78.4558L59.0919 79.87L60.5061 81.2843L61.9203 79.8701L60.5061 78.4558ZM78.1838 60.7782L76.7696 59.364L78.1838 60.7782ZM64.0417 46.636C67.5564 43.1213 73.2549 43.1213 76.7696 46.636L79.598 43.8076C74.5212 38.7308 66.29 38.7308 61.2132 43.8076L64.0417 46.636ZM61.3701 49.3076L64.0417 46.636L61.2132 43.8076L58.5416 46.4792L61.3701 49.3076ZM61.3701 46.4792L59.1924 44.3015L56.364 47.13L58.5416 49.3076L61.3701 46.4792ZM59.1924 44.3015C54.1156 39.2247 45.8844 39.2247 40.8076 44.3015L43.636 47.13C47.1508 43.6152 52.8492 43.6152 56.364 47.13L59.1924 44.3015ZM40.8076 44.3015C35.7308 49.3783 35.7308 57.6095 40.8076 62.6863L43.636 59.8579C40.1213 56.3432 40.1213 50.6447 43.636 47.13L40.8076 44.3015ZM40.8076 62.6863L58.4853 80.364L61.3137 77.5355L43.636 59.8579L40.8076 62.6863ZM61.3137 80.364L61.864 79.8137L59.0355 76.9853L58.4853 77.5355L61.3137 80.364ZM61.9204 77.0417L61.864 76.9853L59.0355 79.8137L59.0919 79.87L61.9204 77.0417ZM76.7696 59.364L59.0919 77.0416L61.9203 79.8701L79.598 62.1924L76.7696 59.364ZM76.7696 46.636C80.2843 50.1508 80.2843 55.8492 76.7696 59.364L79.598 62.1924C84.6748 57.1156 84.6748 48.8844 79.598 43.8076L76.7696 46.636Z" fill="currentColor" mask="url(#path-1-inside-1_187_37)"/>
<path d="M59.1605 13.1379C59.5545 12.529 60.4455 12.529 60.8395 13.1379L69.0933 25.8922C69.8648 27.0844 71.3665 27.5723 72.6915 27.0613L86.8656 21.5943C87.5424 21.3333 88.2632 21.857 88.224 22.5813L87.4047 37.7511C87.3281 39.1691 88.2562 40.4465 89.6285 40.8119L104.309 44.7204C105.01 44.907 105.285 45.7543 104.828 46.3173L95.2484 58.1083C94.353 59.2105 94.353 60.7895 95.2484 61.8917L104.828 73.6827C105.285 74.2457 105.01 75.093 104.309 75.2796L89.6285 79.1881C88.2562 79.5535 87.3281 80.8309 87.4047 82.2489L88.224 97.4187C88.2632 98.143 87.5424 98.6667 86.8656 98.4057L72.6915 92.9387C71.3665 92.4277 69.8648 92.9156 69.0933 94.1078L60.8395 106.862C60.4455 107.471 59.5545 107.471 59.1605 106.862L50.9067 94.1078C50.1352 92.9156 48.6335 92.4277 47.3085 92.9387L33.1344 98.4057C32.4576 98.6667 31.7368 98.143 31.776 97.4187L32.5953 82.2489C32.6719 80.8309 31.7438 79.5535 30.3715 79.1881L15.691 75.2796C14.99 75.093 14.7147 74.2457 15.1721 73.6827L24.7516 61.8917C25.647 60.7895 25.647 59.2105 24.7516 58.1083L15.1721 46.3173C14.7147 45.7543 14.99 44.907 15.691 44.7204L30.3715 40.8119C31.7438 40.4465 32.6719 39.1691 32.5953 37.7511L31.776 22.5813C31.7368 21.857 32.4576 21.3333 33.1344 21.5943L47.3085 27.0613C48.6335 27.5723 50.1352 27.0844 50.9067 25.8922L50.0672 25.3489L50.9067 25.8922L59.1605 13.1379Z" stroke="currentColor" stroke-width="2"/>
</svg>
