<svg width="120" height="120" viewBox="0 0 120 120" fill="none" xmlns="http://www.w3.org/2000/svg">
<mask id="path-1-inside-1_187_40" fill="white">
<path fill-rule="evenodd" clip-rule="evenodd" d="M17 92C17 94.2091 18.7909 96 21 96L50.155 96C50.4813 96 50.7871 96.1592 50.9742 96.4265L59.6808 108.864C60.0789 109.433 60.9211 109.433 61.3192 108.864L70.0258 96.4265C70.2129 96.1592 70.5187 96 70.845 96L99 96C101.209 96 103 94.2091 103 92L103 14C103 11.7909 101.209 10 99 10L21 10C18.7909 10 17 11.7909 17 14L17 92Z"/>
</mask>
<path d="M17 92L15 92L17 92ZM21 10L21 12L21 10ZM17 14L19 14L17 14ZM70.0258 96.4265L71.6642 97.5735L70.0258 96.4265ZM59.6808 108.864L58.0423 110.011L59.6808 108.864ZM61.3192 108.864L59.6808 107.718L61.3192 108.864ZM50.9742 96.4265L52.6127 95.2796L50.9742 96.4265ZM21 94C19.8954 94 19 93.1046 19 92L15 92C15 95.3137 17.6863 98 21 98L21 94ZM50.155 94L21 94L21 98L50.155 98L50.155 94ZM61.3192 107.718L52.6127 95.2796L49.3358 97.5735L58.0423 110.011L61.3192 107.718ZM68.3873 95.2796L59.6808 107.718L62.9577 110.011L71.6642 97.5735L68.3873 95.2796ZM99 94L70.845 94L70.845 98L99 98L99 94ZM101 92C101 93.1046 100.105 94 99 94L99 98C102.314 98 105 95.3137 105 92L101 92ZM101 14L101 92L105 92L105 14L101 14ZM99 12C100.105 12 101 12.8954 101 14L105 14C105 10.6863 102.314 8 99 8L99 12ZM21 12L99 12L99 8L21 8.00001L21 12ZM19 14C19 12.8954 19.8954 12 21 12L21 8.00001C17.6863 8.00001 15 10.6863 15 14L19 14ZM19 92L19 14L15 14L15 92L19 92ZM71.6642 97.5735C71.4771 97.8408 71.1713 98 70.845 98L70.845 94C69.8661 94 68.9487 94.4776 68.3873 95.2796L71.6642 97.5735ZM58.0423 110.011C59.2366 111.718 61.7634 111.718 62.9577 110.011L59.6808 107.718C60.0789 107.149 60.9211 107.149 61.3192 107.718L58.0423 110.011ZM50.155 98C49.8287 98 49.5229 97.8408 49.3358 97.5735L52.6127 95.2796C52.0513 94.4776 51.1339 94 50.155 94L50.155 98Z" fill="currentColor" mask="url(#path-1-inside-1_187_40)"/>
<mask id="path-3-inside-2_187_40" fill="white">
<path fill-rule="evenodd" clip-rule="evenodd" d="M78.1838 41.2218C73.888 36.9261 66.9232 36.9261 62.6274 41.2218L59.9559 43.8934L57.7782 41.7157C53.4824 37.42 46.5176 37.42 42.2218 41.7157C37.9261 46.0115 37.9261 52.9763 42.2218 57.2721L59.8995 74.9498L60.4498 74.3995L60.5061 74.4558L78.1838 56.7782C82.4796 52.4824 82.4796 45.5176 78.1838 41.2218Z"/>
</mask>
<path d="M62.6274 41.2218L61.2132 39.8076V39.8076L62.6274 41.2218ZM78.1838 41.2218L76.7696 42.636V42.636L78.1838 41.2218ZM59.9559 43.8934L58.5416 45.3076L59.9559 46.7218L61.3701 45.3076L59.9559 43.8934ZM57.7782 41.7157L59.1924 40.3015L57.7782 41.7157ZM42.2218 41.7157L40.8076 40.3015H40.8076L42.2218 41.7157ZM42.2218 57.2721L40.8076 58.6863L42.2218 57.2721ZM59.8995 74.9498L58.4853 76.364L59.8995 77.7782L61.3137 76.364L59.8995 74.9498ZM60.4498 74.3995L61.864 72.9853L60.4498 71.571L59.0355 72.9853L60.4498 74.3995ZM60.5061 74.4558L59.0919 75.87L60.5061 77.2843L61.9203 75.8701L60.5061 74.4558ZM78.1838 56.7782L76.7696 55.364L78.1838 56.7782ZM64.0417 42.636C67.5564 39.1213 73.2549 39.1213 76.7696 42.636L79.598 39.8076C74.5212 34.7308 66.29 34.7308 61.2132 39.8076L64.0417 42.636ZM61.3701 45.3076L64.0417 42.636L61.2132 39.8076L58.5416 42.4792L61.3701 45.3076ZM61.3701 42.4792L59.1924 40.3015L56.364 43.13L58.5416 45.3076L61.3701 42.4792ZM59.1924 40.3015C54.1156 35.2247 45.8844 35.2247 40.8076 40.3015L43.636 43.13C47.1508 39.6152 52.8492 39.6152 56.364 43.13L59.1924 40.3015ZM40.8076 40.3015C35.7308 45.3783 35.7308 53.6095 40.8076 58.6863L43.636 55.8579C40.1213 52.3432 40.1213 46.6447 43.636 43.13L40.8076 40.3015ZM40.8076 58.6863L58.4853 76.364L61.3137 73.5355L43.636 55.8579L40.8076 58.6863ZM61.3137 76.364L61.864 75.8137L59.0355 72.9853L58.4853 73.5355L61.3137 76.364ZM61.9204 73.0417L61.864 72.9853L59.0355 75.8137L59.0919 75.87L61.9204 73.0417ZM76.7696 55.364L59.0919 73.0416L61.9203 75.8701L79.598 58.1924L76.7696 55.364ZM76.7696 42.636C80.2843 46.1508 80.2843 51.8492 76.7696 55.364L79.598 58.1924C84.6748 53.1156 84.6748 44.8844 79.598 39.8076L76.7696 42.636Z" fill="currentColor" mask="url(#path-3-inside-2_187_40)"/>
</svg>
