<svg width="120" height="120" viewBox="0 0 120 120" fill="none" xmlns="http://www.w3.org/2000/svg">
<line x1="109" y1="74" x2="11" y2="74" stroke="currentColor" stroke-width="2"/>
<line x1="89" y1="103" x2="31" y2="103" stroke="currentColor" stroke-width="2" stroke-linecap="round"/>
<rect x="11" y="18" width="98" height="70" rx="3" stroke="currentColor" stroke-width="2"/>
<path d="M41 88H79V103H41V88Z" stroke="currentColor" stroke-width="2"/>
<mask id="path-5-inside-1_187_39" fill="white">
<path fill-rule="evenodd" clip-rule="evenodd" d="M62.8049 59.9152C63.1955 60.3057 63.8286 60.3057 64.2191 59.9152L67.9152 56.2192C68.3057 55.8286 68.3057 55.1955 67.9152 54.8049L62.0006 48.8904C61.6101 48.4998 61.6101 47.8667 62.0006 47.4762L64.7176 44.7592C65.288 44.1888 64.983 43.2125 64.1894 43.0682L49.5735 40.4108C48.8862 40.2858 48.2858 40.8862 48.4108 41.5735L51.0682 56.1894C51.2125 56.983 52.1888 57.288 52.7592 56.7176L55.4761 54.0006C55.8667 53.6101 56.4998 53.6101 56.8904 54.0006L62.8049 59.9152Z"/>
</mask>
<path d="M56.8904 54.0006L55.4761 55.4148L56.8904 54.0006ZM51.0682 56.1894L53.0359 55.8316L51.0682 56.1894ZM49.5735 40.4108L49.2157 42.3785L49.5735 40.4108ZM62.0006 48.8904L63.4148 47.4762L62.0006 48.8904ZM62.8049 59.9152L64.2191 58.501L62.8049 59.9152ZM66.501 54.8049L62.8049 58.501L65.6334 61.3294L69.3294 57.6334L66.501 54.8049ZM60.5864 50.3046L66.501 56.2192L69.3294 53.3907L63.4148 47.4762L60.5864 50.3046ZM63.3034 43.345L60.5864 46.0619L63.4148 48.8904L66.1318 46.1734L63.3034 43.345ZM49.2157 42.3785L63.8316 45.0359L64.5471 41.1005L49.9313 38.443L49.2157 42.3785ZM53.0359 55.8316L50.3785 41.2158L46.443 41.9313L49.1004 56.5471L53.0359 55.8316ZM54.0619 52.5864L51.3449 55.3034L54.1734 58.1318L56.8904 55.4148L54.0619 52.5864ZM64.2191 58.501L58.3046 52.5864L55.4761 55.4148L61.3907 61.3294L64.2191 58.501ZM56.8904 55.4148C56.4998 55.8054 55.8667 55.8054 55.4761 55.4148L58.3046 52.5864C57.133 51.4148 55.2335 51.4148 54.0619 52.5864L56.8904 55.4148ZM49.1004 56.5471C49.5333 58.9281 52.4622 59.843 54.1734 58.1318L51.3449 55.3034C51.9153 54.733 52.8916 55.038 53.0359 55.8316L49.1004 56.5471ZM49.9313 38.443C47.8693 38.0681 46.0681 39.8693 46.443 41.9313L50.3785 41.2158C50.5035 41.9031 49.9031 42.5035 49.2157 42.3785L49.9313 38.443ZM66.1318 46.1734C67.843 44.4622 66.9281 41.5334 64.5471 41.1005L63.8316 45.0359C63.0379 44.8916 62.733 43.9154 63.3034 43.345L66.1318 46.1734ZM63.4148 47.4762C63.8053 47.8667 63.8053 48.4998 63.4148 48.8904L60.5864 46.0619C59.4148 47.2335 59.4148 49.133 60.5864 50.3046L63.4148 47.4762ZM62.8049 58.501C63.1955 58.1105 63.8286 58.1105 64.2191 58.501L61.3907 61.3294C62.5623 62.501 64.4618 62.501 65.6334 61.3294L62.8049 58.501ZM69.3294 57.6334C70.501 56.4618 70.501 54.5623 69.3294 53.3907L66.501 56.2192C66.1104 55.8286 66.1104 55.1955 66.501 54.8049L69.3294 57.6334Z" fill="currentColor" mask="url(#path-5-inside-1_187_39)"/>
</svg>
