<svg width="120" height="120" viewBox="0 0 120 120" fill="none" xmlns="http://www.w3.org/2000/svg">
<rect x="11" y="17" width="98" height="22" rx="3" stroke="currentColor" stroke-width="2"/>
<rect x="11" y="49" width="98" height="22" rx="3" stroke="currentColor" stroke-width="2"/>
<rect x="11" y="79" width="98" height="22" rx="3" stroke="currentColor" stroke-width="2"/>
<line x1="59" y1="79" x2="59" y2="70" stroke="currentColor" stroke-width="2"/>
<line x1="101" y1="28" x2="67" y2="28" stroke="currentColor" stroke-width="4" stroke-linecap="round"/>
<circle cx="21" cy="28" r="4" fill="currentColor"/>
<circle cx="33" cy="28" r="4" fill="currentColor"/>
<circle cx="45" cy="28" r="4" fill="currentColor"/>
<line x1="101" y1="60" x2="67" y2="60" stroke="currentColor" stroke-width="4" stroke-linecap="round"/>
<circle cx="21" cy="60" r="4" fill="currentColor"/>
<circle cx="33" cy="60" r="4" fill="currentColor"/>
<circle cx="45" cy="60" r="4" fill="currentColor"/>
<line x1="101" y1="90" x2="67" y2="90" stroke="currentColor" stroke-width="4" stroke-linecap="round"/>
<circle cx="21" cy="90" r="4" fill="currentColor"/>
<circle cx="33" cy="90" r="4" fill="currentColor"/>
<circle cx="45" cy="90" r="4" fill="currentColor"/>
</svg>
