<svg xmlns="http://www.w3.org/2000/svg" fill="none" viewBox="0 0 18 18">
  <path fill="currentColor"
    d="m11.975 13.025 1.05-1.05L10.25 9.2V5.75h-1.5V9.8l3.225 3.225ZM9.5 17a7.304 7.304 0 0 1-2.925-.59 7.575 7.575 0 0 1-2.381-1.604 7.574 7.574 0 0 1-1.603-2.381A7.303 7.303 0 0 1 2 9.5c0-1.037.197-2.013.59-2.925a7.574 7.574 0 0 1 1.604-2.381A7.574 7.574 0 0 1 6.575 2.59 7.303 7.303 0 0 1 9.5 2c1.037 0 2.012.197 2.925.59a7.574 7.574 0 0 1 2.381 1.604 7.575 7.575 0 0 1 1.603 2.381c.394.912.591 1.888.591 2.925a7.304 7.304 0 0 1-.59 2.925 7.575 7.575 0 0 1-1.604 2.381 7.575 7.575 0 0 1-2.381 1.603A7.304 7.304 0 0 1 9.5 17Zm0-1.5c1.662 0 3.078-.584 4.247-1.753S15.5 11.162 15.5 9.5s-.584-3.078-1.753-4.247S11.162 3.5 9.5 3.5s-3.078.584-4.247 1.753S3.5 7.838 3.5 9.5s.584 3.078 1.753 4.247S7.838 15.5 9.5 15.5Z" />
</svg>