<?xml version="1.0" encoding="UTF-8" standalone="no"?>
<svg
   xmlns:dc="http://purl.org/dc/elements/1.1/"
   xmlns:cc="http://creativecommons.org/ns#"
   xmlns:rdf="http://www.w3.org/1999/02/22-rdf-syntax-ns#"
   xmlns:svg="http://www.w3.org/2000/svg"
   xmlns="http://www.w3.org/2000/svg"
   height="213.44052"
   width="677.56506"
   version="1.1"
   viewBox="0 0 677.56505 213.44052"
   data-name="Calque 1"
   id="Calque_1">
  <metadata
     id="metadata1037">
    <rdf:RDF>
      <cc:Work
         rdf:about="">
        <dc:format>image/svg+xml</dc:format>
        <dc:type
           rdf:resource="http://purl.org/dc/dcmitype/StillImage" />
        <dc:title>F-logosvg</dc:title>
      </cc:Work>
    </rdf:RDF>
  </metadata>
  <defs
     id="defs817">
    <style
       id="style815">.cls-1{fill:#75a0d4;}.cls-2{fill:#bb4f4f;}.cls-3{fill:#dadada;}.cls-4{fill:#b2b9d3;}.cls-5{fill:#d64d4d;}.cls-6{fill:#d83130;}.cls-7{fill:#7eaad9;}.cls-8{fill:#d37e7e;}</style>
  </defs>
  <title
     id="title819">F-logosvg</title>
  <ellipse
     style="fill:#75a0d4"
     ry="104.5"
     rx="105.52"
     cy="107.78122"
     cx="107.3485"
     class="cls-1"
     data-name="&lt;Ellipse&gt;"
     id="_Ellipse_" />
  <rect
     style="fill:#bb4f4f"
     id="rect822"
     ry="12"
     rx="12"
     height="134.66"
     width="37.27"
     y="40.611225"
     x="76.088501"
     class="cls-2" />
  <path
     style="fill:#bb4f4f"
     id="path824"
     d="m 157.2685,71.031225 h -39.38 c -1.24,0 -4,0.47 -5.15,0.1 -4.88,-1.59 -6.85,-7.05 -6.85,-12.66 v -3.08 c 0,-6.9 -9.449999,-14.71 -2.85,-14.71 l 54.35,0.32 c 7.78,0 11.83,7.49 11.83,14.39 v 3.08 c 0.05,6.91 -5.4,12.56 -11.95,12.56 z"
     class="cls-2" />
  <rect
     style="fill:#bb4f4f"
     id="rect826"
     ry="11.76"
     rx="11.76"
     height="28.280001"
     width="38.450001"
     y="98.251221"
     x="107.3485"
     class="cls-2" />
  <path
     style="fill:#dadada"
     id="path828"
     d="m 215.5085,149.67122 a 0.39,0.39 0 0 0 0.08,-0.2 l -0.09,0.21 z"
     class="cls-3" />
  <path
     style="fill:#b2b9d3"
     id="path830"
     d="m 138.6085,71.581225 c 0.12,-0.15 0.25,-0.28 0.37,-0.42 h -6 c 0.07,1.2 0.15,2.43 0.15,3.65 a 18,18 0 0 1 5.48,-3.23 z"
     class="cls-4" />
  <path
     style="fill:#b2b9d3"
     id="path832"
     d="m 122.6285,72.041225 c 0.58,-0.18 0.83,0.72 0.25,0.91 -2.72,0.87 -5.3,0.71 -8.1,0.55 a 8.26,8.26 0 0 0 -1.42,0 v 3.32 c 0.8,0.62 1.57,1.27 2.39,1.85 1.55,1.1 2.43,1 2.8,-1.1 0.11,-0.6 1,-0.36 0.91,0.25 -0.48,2.7 -2.11,3.21 -4.18,1.67 -0.61,-0.45 -1.26,-1 -1.92,-1.49 v 16.33 a 6.83,6.83 0 0 0 6.32,1.07 c 4.38,-1.49 7,-6.22 9.12,-10.16 1.22,-2.23 2.7,-4.48 3.19,-7 a 4.81,4.81 0 0 0 -0.27,0.73 0.44161635,0.44161635 0 0 1 -0.85,-0.24 7.8,7.8 0 0 1 1.22,-2.67 v -4.85 h -18.73 v 0.12 c 2.91,-0.37 5.98,1.68 9.27,0.71 z"
     class="cls-4" />
  <path
     style="fill:#b2b9d3"
     id="path834"
     d="m 115.3885,149.33122 a 5.09,5.09 0 0 1 -2,-1.11 v 1 a 22.89,22.89 0 0 1 4.61,3.57 l -0.06,-0.27 a 7.32,7.32 0 0 1 -0.66,-1.47 12.83,12.83 0 0 0 -1.47,-1.85 0.37,0.37 0 0 1 -0.42,0.13 z"
     class="cls-4" />
  <path
     style="fill:#b2b9d3"
     id="path836"
     d="m 140.4485,76.771225 c 0.74,-0.14 1.48,-0.26 2.23,-0.38 a 27,27 0 0 1 1.17,-5.23 h -1 a 11,11 0 0 0 -2.22,4.73 c -0.09,0.29 -0.13,0.59 -0.18,0.88 z"
     class="cls-4" />
  <path
     style="fill:#dadada"
     id="path838"
     d="m 140.3485,73.071225 c 0,-0.08 0.05,-0.16 0.08,-0.24 l -0.17,0.12 a 0.47,0.47 0 0 1 0.09,0.12 z"
     class="cls-3" />
  <path
     style="fill:#b2b9d3"
     id="path840"
     d="m 133.0785,76.331225 a 13.9,13.9 0 0 1 -0.16,1.43 v 0.09 a 11,11 0 0 1 5.2,-4.35 l 0.35,-0.28 c -2.04,0.81 -4.04,1.59 -5.39,3.11 z"
     class="cls-4" />
  <path
     style="fill:#b2b9d3"
     id="path842"
     d="m 140.1785,73.661225 c -0.41,0.24 -0.8,0.49 -1.2,0.74 l -0.58,0.86 c -0.48,0.71 -1.09,1.53 -1.62,2.4 a 27,27 0 0 1 2.68,-0.69 15.82,15.82 0 0 1 0.52,-2.46 c 0.06,-0.28 0.12,-0.57 0.2,-0.85 z"
     class="cls-4" />
  <path
     style="fill:#b2b9d3"
     id="path844"
     d="m 139.9985,79.661225 a 0.5,0.5 0 0 0 0,0.12 l -0.09,0.41 c -0.08,0.38 -0.17,0.75 -0.27,1.13 0.71,0 1.41,-0.07 2.11,-0.07 a 24.47,24.47 0 0 0 0.69,-3.19 c -0.79,0.34 -1.57,0.68 -2.33,1 z"
     class="cls-4" />
  <path
     style="fill:#b2b9d3"
     id="path846"
     d="m 113.0585,40.601225 12.35,0.4 c -0.12,-0.51 -0.25,-0.44 -0.59,-0.82 a 10.26,10.26 0 0 0 -3.09,-1.56 c -0.35,0 -0.7,-0.06 -1.06,-0.09 0.16,0.28 0,0.71 -0.36,0.67 -3.86,-0.36 -8,-1.38 -11.84,-0.62 a 16.78,16.78 0 0 0 -5.43,2.1"
     class="cls-4" />
  <path
     style="fill:#b2b9d3"
     id="path848"
     d="m 74.268501,108.89122 a 8.49,8.49 0 0 0 -1.18,0.66 c -1,1.16 -1.79,2.43 -2.8,3.55 -0.27,0.31 -0.92,0 -0.74,-0.43 a 8.25,8.25 0 0 1 2.63,-3.51 v 0 a 15.54,15.54 0 0 0 -5.08,1.12 15.31,15.31 0 0 0 -1.57,1.27 c -0.34,0.32 -1,-0.11 -0.7,-0.54 l 0.08,-0.08 v 0 c 0,0 0.05,0 0.07,-0.06 a 5.05,5.05 0 0 1 1.34,-1.1 16.81,16.81 0 0 1 9.49,-3.19 c 0.13,0 0.27,0 0.4,-0.06 v -0.73 a 18.19,18.19 0 0 0 -2.45,0.1 4.12,4.12 0 0 1 -0.15,0.55 c -0.17,0.53 -1,0.32 -0.83,-0.22 a 1.62,1.62 0 0 0 0,-0.19 13.74,13.74 0 0 0 -2.47,0.68 0.46,0.46 0 0 1 -0.56,-0.56 c 0.66,-1.8 1.65,-2.59 2.83,-2.79 a 3.81,3.81 0 0 0 -0.41,-0.58 10.51,10.51 0 0 0 -3.09,-1.56 c -0.35,0 -0.71,-0.06 -1.06,-0.09 0.15,0.28 0,0.71 -0.36,0.67 -3.87,-0.36 -8,-1.38 -11.85,-0.62 a 16.42,16.42 0 0 0 -10.28,6.58 18.23,18.23 0 0 0 -3.21,8.89 0.37,0.37 0 0 1 0,0.15 32.25,32.25 0 0 0 0.49,4.5 c 1.5,1.9 4.72,2.11 5.49,5.06 a 0.44,0.44 0 0 1 -0.65,0.5 35.57,35.57 0 0 1 -4.38,-3.53 l 0.51,2.64 a 4.56,4.56 0 0 1 0.53,-0.55 0.41,0.41 0 0 1 0.6,0.53 7,7 0 0 0 -0.84,1.7 c 0.14,0.89 0.26,1.78 0.33,2.68 a 0.39,0.39 0 0 1 -0.17,0.35 10.11,10.11 0 0 0 0.9,1.58 11.33,11.33 0 0 1 0.57,-5.3 c 0.17,-0.57 0.9,-0.24 0.81,0.29 a 7.65,7.65 0 0 0 0.08,2.92 3.14,3.14 0 0 1 1.54,-2.73 4.35,4.35 0 0 1 1,-0.57 c 0.49,-0.22 0.9,0.56 0.4,0.8 a 4.89,4.89 0 0 0 -0.86,0.53 2.09,2.09 0 0 0 -0.28,0.22 v 0 a 3.05,3.05 0 0 0 -0.88,2 11.51,11.51 0 0 0 1,3.44 c 0.21,0.3 0.43,0.59 0.66,0.89 0.09,-0.31 0.48,-0.51 0.71,-0.17 2.33,3.24 4.37,7.11 7.5,9.61 a 16,16 0 0 0 11.55,3.58 16.7,16.7 0 0 0 7.4,-2.7 v -36.48 c -0.74,0.13 -1.39,0.22 -2.06,0.3 z"
     class="cls-4" />
  <path
     style="fill:#b2b9d3"
     id="path850"
     d="m 113.7285,146.64122 a 16.17,16.17 0 0 1 1.46,1 15.9,15.9 0 0 1 1.32,1 c -0.07,-0.25 -0.15,-0.5 -0.23,-0.74 -0.43,-0.61 -0.88,-1.19 -1.26,-1.71 -0.38,-0.52 -1,-1.46 -1.66,-2.22 v 2 a 5.72,5.72 0 0 0 0.37,0.67 z"
     class="cls-4" />
  <path
     style="fill:#b2b9d3"
     id="path852"
     d="m 126.7185,40.541225 a 7,7 0 0 0 -1.16,-0.84 c 0.49,0.46 0.7,0.55 0.8,1.31 h 0.68 c -0.03,-0.34 -0.34,-0.16 -0.32,-0.47 z"
     class="cls-4" />
  <path
     style="fill:#b2b9d3"
     id="path854"
     d="m 76.268501,93.741225 v -40.64 a 12.93,12.93 0 0 1 1.83,-6.63 c -2.45,1.63 -4.57,4 -5.1,6.79 -0.64,3.44 -0.34,6.55 -1.59,9.47 l 1.73,-0.27 c 0.42,-0.06 0.8,0.56 0.33,0.76 l -3,1.28 c -0.15,0.21 -0.3,0.43 -0.47,0.64 v 0 l -0.06,0.09 a 0.42,0.42 0 0 1 -0.71,-0.19 29.59,29.59 0 0 0 -6.1,3.41 27,27 0 0 1 7.42,-0.77 c 0.31,0 0.59,0.47 0.29,0.71 -2.07,1.62 -3.91,1 -6.32,1.21 a 6.05,6.05 0 0 0 -4.78,3.09 c 2.32,-0.91 5.51,0.38 8.06,0.71 0.55,0.07 0.59,0.92 0,0.91 -2.11,0 -4.57,-0.58 -6.62,0.09 a 5.43,5.43 0 0 0 -2,1.13 c -2.88,4.18 -5.23,9.67 -5.36,14.81 -0.13,5.14 3.1,7.56 7.61,8 4.24,0.44 10.3,-1.28 13.86,1.12 a 3.54,3.54 0 0 1 -0.15,-0.41 5.9,5.9 0 0 1 1.13,-5.31 z"
     class="cls-4" />
  <path
     style="fill:#dadada"
     id="path856"
     d="m 76.268501,157.45122 v -3.85"
     class="cls-3" />
  <path
     style="fill:#dadada"
     id="path858"
     d="M 72.968501,102.27122"
     class="cls-3" />
  <path
     style="fill:#dadada"
     id="path860"
     d="M 74.428501,103.40122"
     class="cls-3" />
  <path
     style="fill:#b2b9d3"
     id="path862"
     d="m 125.0585,37.161225 a 7.37,7.37 0 0 1 2,1.86 6.37,6.37 0 0 1 0.58,-1.17 8.1,8.1 0 0 0 -2.58,-0.69 z"
     class="cls-4" />
  <path
     style="fill:#b2b9d3"
     id="path864"
     d="m 69.188501,53.201225 -0.73,0.53 c -0.47,0.65 -0.9,1.32 -1.3,1.9 -1,1.46 -2.53,3.42 -2.85,5.29 a 15.77,15.77 0 0 1 3.55,-1.6 h 0.08 a 30,30 0 0 1 0.8,-4.43 16,16 0 0 1 0.45,-1.69 z"
     class="cls-4" />
  <path
     style="fill:#b2b9d3"
     id="path866"
     d="m 135.0885,82.001225 a 18.76,18.76 0 0 1 3.57,-0.63 15.31,15.31 0 0 0 0.41,-1.78 24.5,24.5 0 0 0 -3.98,2.41 z"
     class="cls-4" />
  <path
     style="fill:#b2b9d3"
     id="path868"
     d="m 113.1085,165.27122 c 3.58,0.55 6.82,0.3 7,-3.55 0.17,-3.22 -1.24,-8 -4.83,-10.35 -0.65,-0.44 -1.3,-0.82 -1.94,-1.19 v 12.53 a 13.55,13.55 0 0 1 -0.23,2.56 z"
     class="cls-4" />
  <path
     style="fill:#b2b9d3"
     id="path870"
     d="m 129.5985,40.881225 a 5.73,5.73 0 0 0 -1,-2.18 9.2,9.2 0 0 0 -0.47,1.93 l 0.22,0.38"
     class="cls-4" />
  <path
     style="fill:#b2b9d3"
     id="path872"
     d="M 129.7585,41.331225"
     class="cls-4" />
  <path
     style="fill:#b2b9d3"
     id="path874"
     d="m 133.8585,78.831225 c 0.27,-0.14 0.55,-0.25 0.82,-0.37 a 7.24,7.24 0 0 1 0.24,-0.83 c -0.36,0.39 -0.73,0.77 -1.06,1.2 z"
     class="cls-4" />
  <path
     style="fill:#b2b9d3"
     id="path876"
     d="m 66.918501,63.131225 a 11.56,11.56 0 0 0 0.84,-2.78 20.85,20.85 0 0 0 -5.93,4.93 21.77,21.77 0 0 1 5.09,-1.75 0.47,0.47 0 0 1 0,-0.4 z"
     class="cls-4" />
  <path
     style="fill:#b2b9d3"
     id="path878"
     d="m 72.918501,50.331225 a 7.18,7.18 0 0 1 -1.35,1.24 11.11,11.11 0 0 0 -2.21,4.73 c -0.22,1.25 -0.36,2.52 -0.6,3.78 0,0 0,0.07 0,0.11 0,0.04 -0.05,0.28 -0.08,0.42 a 13.28,13.28 0 0 1 -0.86,2.78 c 0.75,-0.15 1.5,-0.28 2.26,-0.4 1.62,-4.12 1.15,-8.87 3.15,-12.82 a 2.69,2.69 0 0 1 -0.31,0.16 z"
     class="cls-4" />
  <path
     style="fill:#b2b9d3"
     id="path880"
     d="m 115.5685,144.05122 c -0.19,-1.07 -0.42,-2.1 -0.64,-3.12 a 8.31,8.31 0 0 0 -1.05,-1 c -0.43,-0.32 0,-0.83 0.46,-0.5 0.12,0.08 0.22,0.17 0.33,0.25 -0.18,-0.81 -0.37,-1.63 -0.53,-2.44 a 0.47,0.47 0 0 1 -0.33,-0.41 c 0,-0.23 0,-0.47 -0.06,-0.71 a 5.87,5.87 0 0 0 -0.27,-1.22 l -0.12,-0.17 v 7.51 a 9.23,9.23 0 0 1 3.38,4.84 17.36,17.36 0 0 0 -0.28,-3.16 c 0.01,0.52 -0.8,0.62 -0.89,0.13 z"
     class="cls-4" />
  <path
     style="fill:#dadada"
     id="path882"
     d="m 39.678501,98.411225 c 2.59,-1.58 5.09,-5.46 3.51,-8.59 a 3,3 0 0 0 -3.25,-1.92 6.15,6.15 0 0 0 -3.7,0.52 c -1.36,0.66 -2.89,3.19 -3.29,5.48 a 5.85,5.85 0 0 0 -0.22,1.32 c -0.14,4.11 4.26,4.829995 6.95,3.19 z"
     class="cls-3" />
  <path
     style="fill:#dadada"
     id="path884"
     d="m 85.318501,32.651225 c -0.14,4.09 4.26,4.83 6.95,3.19 2.69,-1.64 5.09,-5.46 3.51,-8.59 a 3,3 0 0 0 -3.25,-1.92 6.15,6.15 0 0 0 -3.7,0.52 c -1.36,0.66 -2.89,3.19 -3.3,5.48 a 6.4,6.4 0 0 0 -0.21,1.32 z"
     class="cls-3" />
  <path
     style="fill:#b2b9d3"
     id="path886"
     d="m 4.8885006,90.671225 a 16.51,16.51 0 0 1 -1.3,-4.06 4.15,4.15 0 0 1 -0.5,-1.08 c -0.66,-3 0.34,-4.64 2.32,-6.76 0.33,-0.35 1,0.1 0.7,0.54 a 9.54,9.54 0 0 0 -1.63,7.28 15.52,15.52 0 0 0 1.28,2 c -0.26,-2.34 -0.1,-4.62 1.65,-6.39 0.4,-0.41 1,0.17 0.63,0.62 a 7.35,7.35 0 0 0 -1.38,5 19.21,19.21 0 0 1 2.25,-2.26 c 0.42,-0.35 1.05,0.2 0.63,0.62 -0.42,0.42 -2.72,2.61 -2.21,3.71 a 20.13,20.13 0 0 0 4.3600004,0.85 39.64,39.64 0 0 0 5.92,-0.85 c 1.34,-0.28 2.85,-0.65 4.38,-1.13 a 20,20 0 0 0 8.11,-7.4 c 2,-3.15 3.83,-7.89 2.61,-11.7 a 12.24,12.24 0 0 0 -1.32,-2.4 2.65,2.65 0 0 0 -0.21,-0.26 18.22,18.22 0 0 0 -1.91,-1.77 0.27,0.27 0 0 1 -0.2,-0.08 c -1.58,-1.5 -4.13,-2 -5.68,-3.55 -1,-0.52 -2.07,-1 -3.09,-1.52 -0.39,-0.19 -0.17,-0.77 0.22,-0.77 a 11,11 0 0 1 6.35,2.55 c -1.39,-2.07 -2.61,-4.25 -2.44,-6.85 a 0.34,0.34 0 0 1 0.67,0 6.23,6.23 0 0 0 0.32,1.47 0.31,0.31 0 0 1 0.13,0.08 17.42,17.42 0 0 1 2,4.18 c 0,0 0,0 0,0 1.23,1.1 2.81,2 4.08,3.07 l -0.09,-0.23 c -2.73,-6.61 -7,-12.3 -10.69,-18.35 -0.24,-0.41 0.35,-0.85 0.64,-0.5 a 72.11,72.11 0 0 1 6.59,9.56 8,8 0 0 1 -0.24,-0.93 4.69,4.69 0 0 1 0.81,-4.8 v 0 0 -0.07 c 0.23,-0.27 0.72,0.09 0.51,0.4 a 5.34,5.34 0 0 0 -0.9,4 20.65,20.65 0 0 0 2.31,4.6 c 0,-0.46 0,-0.91 0.11,-1.36 -0.15,-1.74 0,-3.37 1.77,-4.35 0.27,-0.15 0.71,0.17 0.48,0.48 a 9.32,9.32 0 0 0 -1.58,4.09 30.61,30.61 0 0 1 0.37,3.59 0.34,0.34 0 0 1 -0.24,0.3 28.93,28.93 0 0 1 2.16,3.38 12.9,12.9 0 0 0 1,-2.89 c 0.37,-3 -0.4,-6.15 -0.52,-9.38 -0.17,-4.68 1.87,-7.75 5.83,-9.84 0.4,-0.22 0.93,0.35 0.52,0.68 -4.07,3.28 -4.47,7.44 -4.41,12.46 a 33.19,33.19 0 0 1 -0.13,3.89 c 0.42,-1.67 0.73,-3.4 1.25,-5.16 a 11.72,11.72 0 0 1 5.75,-7.2 0.47257275,0.47257275 0 0 1 0.47,0.82 c -4.48,3 -4.89,7.9 -6.18,12.58 2.8,-4.42 5.88,-8.67 11.07,-10 a 0.47185803,0.47185803 0 0 1 0.25,0.91 13.09,13.09 0 0 0 -5.55,3.61 l 0.5,-0.12 0.31,-0.11 a 32,32 0 0 1 7.11,-0.64 h 1.76 a 0.5,0.5 0 0 1 0,1 39,39 0 0 0 -8.41,0.6 8,8 0 0 0 -3.89,3.16 c 3.18,-1 6.54,1.62 10.17,0.54 a 0.47185803,0.47185803 0 0 1 0.25,0.91 c -2.72,0.88 -5.3,0.72 -8.1,0.55 a 6.19,6.19 0 0 0 -5.06,1.71 l 0.42,-0.28 a 0.22,0.22 0 0 1 0.23,0.37 4.07,4.07 0 0 1 1.59,0.58 c 1.36,0.82 2.5,1.93 3.79,2.83 1.55,1.09 2.43,1 2.8,-1.1 0.11,-0.6 1,-0.36 0.91,0.25 -0.48,2.7 -2.11,3.2 -4.19,1.67 -2.08,-1.53 -4.43,-3.92 -6.24,-2.92 -2.19,3.08 -1.19,8.49 0,11.7 1.57,4.37 5.76,8.74 10.69,7.07 4.38,-1.49 7,-6.22 9.12,-10.17 1.26,-2.29 2.8,-4.61 3.24,-7.27 0,-0.11 0,-0.22 0,-0.34 v -4.45 a 0.43,0.43 0 0 1 -0.42,-0.54 7.4,7.4 0 0 1 0.42,-1.23 v -1.24 a 0.42,0.42 0 0 1 0.78,-0.19 c 1.5,-2.15 4,-3.35 6.54,-4.44 a 53.27,53.27 0 0 1 5.54,-5.5 c 2.17,-2.07 5.42,-5.3 3.11,-8.54 -2.67,-3.73 -7.76,-5.81 -11.92,-7 -0.54,-0.15 -1.08,-0.3 -1.64,-0.44 a 0.38,0.38 0 0 1 -0.13,0.24 h 0.22 c 0.55,0.06 0.58,0.91 0,0.89 a 23.66,23.66 0 0 0 -3.46,0.06 11.91,11.91 0 0 1 -4.25,1.09 8.38,8.38 0 0 0 -1.17,0.66 c -1,1.16 -1.8,2.43 -2.8,3.55 -0.28,0.3 -0.92,0 -0.75,-0.43 a 8.34,8.34 0 0 1 2.63,-3.51 v 0 a 15.34,15.34 0 0 0 -5.09,1.12 14,14 0 0 0 -1.56,1.27 c -0.34,0.32 -1,-0.11 -0.7,-0.54 l 0.07,-0.08 v 0 l 0.06,-0.06 a 5.21,5.21 0 0 1 1.34,-1.1 16.87,16.87 0 0 1 9.5,-3.19 9,9 0 0 1 2.13,-0.22 c -0.09,-0.16 -0.18,-0.32 -0.26,-0.48 a 16,16 0 0 0 -7.34,0.83 0.46,0.46 0 0 1 -0.56,-0.56 c 1.38,-3.78 4.23,-3.11 7.11,-1.9 a 17,17 0 0 1 -1.31,-4.06 4.07,4.07 0 0 1 -0.49,-1.08 c -0.66,-3 0.33,-4.64 2.32,-6.76 0.33,-0.35 1,0.1 0.7,0.54 a 9.55,9.55 0 0 0 -1.64,7.28 15.52,15.52 0 0 0 1.28,2 c -0.25,-2.34 -0.1,-4.62 1.66,-6.39 0.4,-0.41 1,0.17 0.63,0.62 a 7.3,7.3 0 0 0 -1.38,5 17.79,17.79 0 0 1 2.25,-2.26 c 0.42,-0.35 1.05,0.2 0.63,0.62 -0.42,0.42 -2.72,2.61 -2.21,3.71 a 20.16,20.16 0 0 0 4.35,0.85 39.64,39.64 0 0 0 5.92,-0.85 c 1.35,-0.28 2.85,-0.65 4.38,-1.13 a 20,20 0 0 0 8.11,-7.4 c 2,-3.15 3.84,-7.89 2.62,-11.7000005 a 13.38,13.38 0 0 0 -1.32,-2.4 c -0.08,-0.09 -0.14,-0.18 -0.22,-0.26 -0.6,-0.66 0.9,0.82 0.22,0.26 -0.07,0 -2.9,1.43 -3,1.37 -1.23,-1.17 -44.64,21.3100005 -68.85,56.5300005 -6.9000004,10 -11.75000037,30.57 -8.3600004,30.39 a 8.56,8.56 0 0 1 2.13,-0.21 l -0.26,-0.49"
     class="cls-4" />
  <path
     style="fill:#dadada"
     id="path888"
     d="m 42.728501,197.20122 c -0.15,0.28 -0.32,0.54 -0.49,0.8"
     class="cls-3" />
  <path
     style="fill:#dadada"
     id="path890"
     d="M 41.798501,200.81122"
     class="cls-3" />
  <path
     style="fill:#dadada"
     id="path892"
     d="m 130.5585,169.33122 a 7.5,7.5 0 0 0 -1.08,-0.7 c -3.52,-1.77 -5.51,1.08 -4.91,3.67 0.6,2.59 3.2,5.88 6.41,6 1.68,0.08 2.45,-0.57 2.67,-1.54 a 4,4 0 0 0 0.68,-2.86 c -0.16,-1.21 -1.89,-3.34 -3.77,-4.57 z"
     class="cls-3" />
  <path
     style="fill:#b2b9d3"
     id="path894"
     d="m 144.8385,119.74122 a 6.3,6.3 0 0 0 0.19,-0.92 v -0.11 a 12.05,12.05 0 0 1 -11.1,7.81 h -14.58 a 11.35,11.35 0 0 1 -4,-0.73 18.55,18.55 0 0 0 -0.93,4.39 0.47,0.47 0 0 1 0,0.14 29.36,29.36 0 0 0 0.49,4.5 c 1.49,1.91 4.71,2.11 5.48,5.06 a 0.44,0.44 0 0 1 -0.65,0.5 35.37,35.37 0 0 1 -4.45,-3.46 c 0.28,1.41 0.56,2.82 0.78,4.24 1.57,2 1.88,4.37 2.05,6.74 a 50.66,50.66 0 0 1 3.09,6.22 c 1.15,2.4 3,6 6.5,5.72 4.07,-0.38 7.44,-3.18 9.76,-5.66 0.3,-0.32 0.6,-0.65 0.88,-1 a 0.52,0.52 0 0 1 -0.15,-0.18 l -0.1,0.13 0.09,-0.14 v 0 l 2.08,-2.53 c 1,-1.68 7.23,-0.63 11,0.64 0.24,0.07 1.29,-0.18 1.54,0 v 0 c 2.64,-2.36 5.81,-4.5 7.55,-7.7 a 16.49,16.49 0 0 0 1.24,-12.31 22.6,22.6 0 0 0 -5,-9 l -0.14,-0.09 a 38.34,38.34 0 0 0 -3.85,-3 c -2.26,-0.35 -4.31,1.5 -6.85,0.4 a 4.57,4.57 0 0 1 -0.15,0.55 c -0.11,0.54 -0.93,0.38 -0.77,-0.21 z"
     class="cls-4" />
  <path
     style="fill:#b2b9d3"
     id="path896"
     d="m 1.8285006,97.801225 c 0,0 1.64,1.29 0,-0.92 -0.99999997,0.11 2,27.919995 9.6700004,54.659995 4.62,16.05 25.15,36.85 28.83,35 -5,0.8 -5,-1.2 -3.32,-1.31 -2.83,-1.81 -3.23,-6.16 -6.42,-8.26 -0.51,-0.33 0,-1.13 0.47,-0.81 2.45,1.53 4.07,3.65 5.83,5.93 a 6.26,6.26 0 0 0 4.6,2.78 c -0.16,-0.05 -0.32,-0.08 -0.49,-0.14 -0.17,-0.06 -0.15,-0.49 0.11,-0.42 a 4.7,4.7 0 0 1 -0.65,-1.63 c -0.33,-1.6 -0.31,-3.23 -0.53,-4.84 -0.27,-1.94 -0.94,-2.54 -2.66,-1.43 -0.5,0.31 -0.94,-0.56 -0.44,-0.88 2.24,-1.43 3.69,-0.51 4,2.13 0.31,2.64 0.19,6.07 2.12,6.81 3.66,-0.37 6.81,-4.77 8.32,-7.82 2,-4.14 2.33,-10.33 -2.16,-13 -4,-2.41 -9.08,-1.24 -13.32,-0.28 -2.47,0.57 -5.14,0.93 -7.32,2.36 l -0.27,0.2 -5.29,5 c -0.39,0.36 -0.92,-0.27 -0.56,-0.65 a 34.28,34.28 0 0 1 5.43,-5.14 l 0.07,-0.06 c -2.94,0.5 -5.56,-0.36 -8.23,-2.05 -0.4,-0.25 -0.13,-0.92 0.32,-0.76 a 20.38,20.38 0 0 0 7.94,1.45 c -3.64,-1.55 -6.47,-4.23 -9.56,-6.87 -0.32,-0.28 -0.14,-1 0.33,-0.76 3.63,1.82 7,3.77 10.65,4.55 a 29.29,29.29 0 0 1 -5.51,-5.24 c -0.21,-0.25 -0.07,-0.78 0.31,-0.7 2.53,0.52 3.31,2.38 5.09,4.09 a 5.91,5.91 0 0 0 5.4,1.64 c -2.2,-1.19 -3.43,-4.53 -4.9,-6.73 -0.32,-0.48 0.25,-1.08 0.64,-0.61 1.39,1.65 2.66,3.94 4.5,5.08 a 5.41,5.41 0 0 0 2.11,0.75 c 4.9,-0.57 10.36,-2.42 14.09,-5.76 3.73,-3.34 3.29,-7.48 0.6,-11.3 -2.69,-3.82 -8.5,-7.59 -8.58,-12.34 a 4.61,4.61 0 0 1 -0.06,-1.65 c -0.3,-1.38 -0.6,-2.74 -0.87,-4.09 a 0.48,0.48 0 0 1 -0.33,-0.41 c 0,-0.24 0,-0.47 -0.06,-0.71 a 5.73,5.73 0 0 0 -0.27,-1.22 c -0.13,-0.16 -0.24,-0.34 -0.36,-0.52 -0.81,3.37 0,6.84 -0.17,10.3 a 0.37,0.37 0 0 1 -0.06,0.21 c 0,0 0,0.12 0,0.18 a 6.55,6.55 0 0 0 2.85,3.41 c 0.47,0.23 0.13,1 -0.34,0.82 a 4.29,4.29 0 0 1 -3.35,-3.86 15.14,15.14 0 0 1 -1.08,-5.87 39.33,39.33 0 0 1 -1.13,4.2 11.29,11.29 0 0 1 -0.69,1.65 c -0.26,0.51 -1,0.08 -0.77,-0.44 a 15,15 0 0 0 0.61,-1.43 v -0.05 -0.1 c 1.21,-3.56 0.95,-7.59 3,-10.83 a 11.72,11.72 0 0 1 -0.89,-2.25 c -1.38,-5 -2.85,-11.77 -9.32,-9.82 -3.83,1.16 -8.58,4.44 -9.4,8.85 -0.82,4.41 -0.1,8.26 -3,11.88 v 0 l -0.07,0.09 c -0.31,0.37 -0.93,-0.1 -0.68,-0.52 2.69,-4.47 1.73,-10.06 4,-14.59 a 2.69,2.69 0 0 1 -0.29,0.16 7.13,7.13 0 0 1 -1.34,1.24 11.12,11.12 0 0 0 -2.22,4.73 c -0.21,1.25 -0.36,2.52 -0.59,3.78 a 0.43,0.43 0 0 0 0,0.11 l -0.09,0.42 a 13.23,13.23 0 0 1 -1,3 c -0.24,0.52 -1,0.09 -0.77,-0.45 1.22,-2.62 1,-5.56 1.82,-8.25 a 13.87,13.87 0 0 1 0.45,-1.68 c -0.25,0.17 -0.49,0.35 -0.73,0.53 -0.47,0.65 -0.91,1.32 -1.3,1.9 -1.05,1.55 -2.74,3.66 -2.91,5.63 a 0.45,0.45 0 0 1 -0.89,0 c -0.43,-3.65 1.49,-5.78 3.87,-7.64 -2.93,1.12 -5.8100004,2.21 -6.7500004,5.67 a 0.44161635,0.44161635 0 0 1 -0.85,-0.24 c 1,-4 4.2700004,-5.63 7.7400004,-7.1 a 53.37,53.37 0 0 1 5.55,-5.5 c 2.17,-2.07 5.42,-5.3 3.1,-8.54 -2.67,-3.729995 -7.76,-5.809995 -11.91,-6.999995 l -1.6400004,-0.44 a 0.44,0.44 0 0 1 -0.13,0.24 h 0.22 c 0.5500004,0.06 0.5800004,0.91 0,0.89 a 23.77,23.77 0 0 0 -3.47,0.06 11.8,11.8 0 0 1 -4.21,1.06 8.49,8.49 0 0 0 -1.18,0.66"
     class="cls-4" />
  <path
     style="fill:#b2b9d3"
     id="path898"
     d="m 141.9885,150.58122 a 18.06,18.06 0 0 1 3.94,0.73 3.89,3.89 0 0 1 1.09,0.09 6.86,6.86 0 0 1 3.66,2.14 l 1.43,-0.62 c 0.24,-0.22 0.49,-0.46 0.73,-0.7 a 0.61,0.61 0 0 1 -0.38,-0.32 c -2.39,-0.28 -9.06,-2.46 -10.47,-1.32 z"
     class="cls-4" />
  <path
     style="fill:#b2b9d3"
     id="path900"
     d="m 166.5685,17.011225 a 6.16,6.16 0 0 0 -5.06,1.71 c 0.14,-0.1 0.27,-0.2 0.42,-0.29 a 0.22,0.22 0 0 1 0.23,0.37 4.27,4.27 0 0 1 1.59,0.59 c 1.36,0.81 2.5,1.92 3.79,2.83 1.55,1.09 2.43,1 2.8,-1.11 0.11,-0.6 1,-0.36 0.91,0.25 -0.48,2.7 -2.11,3.21 -4.19,1.67 -2.08,-1.54 -4.43,-3.92 -6.24,-2.92 -2.19,3.09 -1.19,8.49 0,11.7 1.57,4.37 5.76,8.74 10.69,7.07 4.38,-1.49 7,-6.22 9.12,-10.16 1.22,-2.3 -11.26,-11.55 -14.06,-11.71 z"
     class="cls-4" />
  <path
     style="fill:#dadada"
     id="path902"
     d="m 185.9085,22.221225 -0.09,-0.07 c -0.05,0.06 -0.12,0.12 -0.17,0.19 z"
     class="cls-3" />
  <path
     style="fill:#dadada"
     id="path904"
     d="m 184.7085,21.401225 0.1,-0.14 -0.08,-0.08 c 0,0 0,0.09 0,0.13 z"
     class="cls-3" />
  <path
     style="fill:#b2b9d3"
     id="path906"
     d="m 216.4385,109.33122 c 0,-31.359995 -6.94,-49.779995 -27.5,-70.479995 -0.7,0 -2,-8.09 -4,-7.42 a 5.58,5.58 0 0 0 -2,1.13 c -2.88,4.18 -5.23,9.67 -5.36,14.81 -0.13,5.14 3.1,7.57 7.61,8 4.51,0.43 11.08,-1.51 14.5,1.62 a 3.86,3.86 0 0 1 2,3.7 0.4,0.4 0 0 1 -0.78,0.1 6.1,6.1 0 0 0 -1.6,-3.12 7.21,7.21 0 0 0 -3,-0.94 10.81,10.81 0 0 1 3.37,4 c 0.29,0.52 -0.43,0.86 -0.75,0.44 a 6.85,6.85 0 0 0 -2.13,-1.9 3.2,3.2 0 0 1 0.91,3 5,5 0 0 1 -0.24,1.13 c -0.17,0.52 -1,0.32 -0.83,-0.23 a 5.47,5.47 0 0 0 0.2,-1 2.28,2.28 0 0 0 0,-0.36 v 0 a 3,3 0 0 0 -0.8,-2 10.51,10.51 0 0 0 -3.09,-1.56 l -1.06,-0.08 c 0.15,0.28 0,0.7 -0.36,0.67 -3.87,-0.37 -8,-1.39 -11.85,-0.63 a 16.42,16.42 0 0 0 -10.28,6.58 18.27,18.27 0 0 0 -3.21,8.9 0.29,0.29 0 0 1 0,0.14 32.09,32.09 0 0 0 0.49,4.5 c 1.5,1.91 4.72,2.11 5.49,5.06 a 0.44,0.44 0 0 1 -0.65,0.5 34.66,34.66 0 0 1 -4.45,-3.46 c 0.23,1.16 2.48,5.31 2.67,6.54 0.19,1.23 -1.7,-0.48 -1.61,0.7 0,0.51 -0.73,0.39 -0.82,-0.11 -0.43,-2.34 2.3,8.3 1.86,6.08 -0.16,-0.06 -3.6,-13.05 -3.62,-13.27 -0.02,-0.22 0,-0.47 -0.06,-0.71 a 5.63,5.63 0 0 0 -0.27,-1.21 c -0.13,-0.17 -0.24,-0.35 -0.36,-0.52 -0.81,3.37 -0.05,6.83 -0.17,10.29 a 0.37,0.37 0 0 1 -0.06,0.21 c 0,0.06 0,0.12 0,0.18 0.64,1.52 3.87,4.47 5.13,5.12 0.3,0.15 -1,-0.5 -1.23,-0.07 -0.23,0.43 -0.08,0.15 -1.39,-0.82 -1.71,-1.24 -3.18,-1.94 -3.35,-3.86 a 15.1,15.1 0 0 1 -1.08,-5.87 39.33,39.33 0 0 1 -1.13,4.2 c -0.19,0.57 2.24,7.67 2,8.2 -0.24,0.53 -3.7,-3.51 -3.43,-4 0.27,-0.49 0.44,-3.9 0.62,-4.38 v -0.06 c 0,0 -0.17,-3.93 -0.15,-4 1.21,-3.56 1.13,-3.72 3.17,-7 a 11.47,11.47 0 0 1 -0.89,-2.25 c -0.35,-1.26 -0.7,-2.63 -1.14,-3.95 a 11.38,11.38 0 0 1 -5.15,1.25 h -11.85 a 7.35,7.35 0 0 0 -0.55,1.74 31.07,31.07 0 0 0 -0.42,3.32 l 1.35,-0.21 c 0.42,-0.06 0.8,0.56 0.33,0.76 l -1.8,0.76 a 18.39,18.39 0 0 1 -0.76,4.08 0.33,0.33 0 0 1 -0.11,0.33 v 0 a 9.9,9.9 0 0 1 -1.62,2.82 v 0 l -0.07,0.09 c -0.31,0.37 -0.93,-0.09 -0.68,-0.52 a 11.65,11.65 0 0 0 0.77,-1.54 7.43,7.43 0 0 1 -2.2,0.29 l -0.06,0.12 a 0.43,0.43 0 0 1 -0.8,-0.12 15.73,15.73 0 0 0 -1.65,0.06 6.07,6.07 0 0 0 -4.78,3.09 c 2.32,-0.91 5.51,0.38 8.06,0.71 0.55,0.07 0.59,0.92 0,0.91 -2.1,0 -4.57,-0.58 -6.62,0.09 a 5.58,5.58 0 0 0 -1.95,1.13 33.22,33.22 0 0 0 -4.42,9.16 h 7.13 a 12.21,12.21 0 0 1 11.81,10.399995 c 0.13,0.09 0.26,0.17 0.38,0.27 a 18.05,18.05 0 0 1 5.3,3.65 c -0.9,-1.3 -1.83,-2.61 -2.6,-4 a 15.69,15.69 0 0 1 -0.87,-1.74 c -0.24,-0.57 0.58,-0.79 0.83,-0.22 0.25,0.57 0.47,1 0.74,1.52 v 0.06 l 0.06,0.09 c 2,3.55 5.38,6.4 6.66,10.3 a 13.77,13.77 0 0 1 2.33,1.06 c 4.83,2.81 11.05,6.83 13.56,0.73 a 12.14,12.14 0 0 0 -1.42,-12.12 c -2.95,-3.91 -7.5,-8.999995 -8.51,-13.799995 l 1.37,1.4 v 0 -0.11 c -0.1,-0.5 -0.43,-2.5 -0.26,-2 1.85,5.3 7.94,10.719995 10.08,15.779995 a 3.26,3.26 0 0 1 0.05,-0.33 8.23,8.23 0 0 1 -0.15,-1.8 13.5,13.5 0 0 0 -2.34,-5.15 c -0.85,-1.1 -1.76,-2.16 -2.6,-3.279995 l -0.08,-0.1 -0.27,-0.37 a 16.18,16.18 0 0 1 -1.79,-3 c -0.26,-0.57 0.58,-0.8 0.84,-0.22 1.3,2.85 3.76,4.899995 5.37,7.519995 a 18.89,18.89 0 0 1 1,1.59 c 0,-0.31 0,-0.61 0,-0.92 -0.22,-0.83 -0.48,-1.64 -0.69,-2.36 a 25.67,25.67 0 0 0 -4.18,-7.259995 c -0.43,-0.47 1.63,-0.08 2.12,0.3 3.15,2.44 3.62,5.42 3.6,8.519995 0.95,-2.939995 -4.3,-11.129995 -6.44,-14.409995 -0.33,-0.52 0.6,0 0.36,-0.77 -1.34,-4.25 10,4.89 7.31,16.549995 a 60.52,60.52 0 0 1 0.87,8.11 c 0.28,3.11 0.79,7.87 4.79,8.66 4.61,0.9 9.42,-1.18 13,-3.25 0.46,-0.27 0.92,-0.55 1.37,-0.84 a 0.54,0.54 0 0 1 -0.11,-0.27 l -0.15,0.14 c -0.4,0.34 -1.09,-0.28 -0.7,-0.67 a 20.21,20.21 0 0 0 2.11,-2.53 10.37,10.37 0 0 1 1.8,-3.86 9.84,9.84 0 0 0 0.21,-1.34 c -0.31,-1.56 -0.79,-3.11 -1.05,-4.68 a 0.42,0.42 0 0 1 0.81,-0.2 9.57,9.57 0 0 1 1.12,4.52 v 0 a 13.42,13.42 0 0 0 2.3,-4.48 14.51,14.51 0 0 0 0,-2.08 0.43289722,0.43289722 0 0 1 0.86,-0.1 0.49,0.49 0 0 1 0,0.12 v 0 a 0.28,0.28 0 0 1 0,0.09 5.15,5.15 0 0 1 0,1.79 15.31,15.31 0 0 1 -3.42,9.2 7.08,7.08 0 0 1 -1.16,1.68 l 0.55,0.19 c 1.73,-1.6 11.08,-2.05 11.84,-4.43 0.1,-0.3 0,1 0.17,1.37 2.12,3.84 -7.49,2.57 -10.23,3.72 a 20.11,20.11 0 0 1 4,2.12 4.47,4.47 0 0 1 1.16,0.47 c 2.77,1.77 3.45,3.73 3.87,6.75 0.08,0.5 -0.69,0.63 -0.86,0.09 a 11.88,11.88 0 0 0 -4.71,-6.65 15.94,15.94 0 0 0 -2.36,-0.58 c 2,1.58 3.7,3.41 4,6 0.07,0.6 -0.76,0.58 -0.88,0 a 9.19,9.19 0 0 0 -3.11,-4.78 22.09,22.09 0 0 1 0.38,3.31 0.45,0.45 0 1 1 -0.89,0 c -0.09,-0.76 -0.35,-3.9 -1.54,-4.37 a 16.48,16.48 0 0 0 -3.39,2.47 34.66,34.66 0 0 0 -3,4.88 37.59,37.59 0 0 0 -1.84,4 21.53,21.53 0 0 0 0.76,11.37 c 1.25,3.78 3.82,8.69 7.58,10.7 a 14.2,14.2 0 0 0 2.72,0.85 l 0.34,0.05 a 17.7,17.7 0 0 0 2.63,0 0.2,0.2 0 0 1 0.18,-0.09 c 2.17,0 1.18,-5.62 3.36,-5.56"
     class="cls-4" />
  <path
     style="fill:#b2b9d3"
     id="path908"
     d="m 145.8985,112.33122 a 6.08,6.08 0 0 1 2,1.2 3.89,3.89 0 0 1 1.73,2 l 1.58,1 a 0.45,0.45 0 0 1 0.52,0.07 c 0.21,0.16 0.4,0.33 0.6,0.49 a 6.68,6.68 0 0 0 1.13,0.72 l 0.63,0.14 c -2.15,-3.12 -5.35,-5.19 -8,-7.88 a 0.53,0.53 0 0 1 -0.12,-0.2 c -0.05,0 -0.09,-0.1 -0.14,-0.15 v 0 c 0,0.33 0.05,0.67 0.05,1 z"
     class="cls-4" />
  <path
     style="fill:#b2b9d3"
     id="path910"
     d="m 96.268501,2.5812245 c 1.55,1.09 2.42,1 2.8,-1.1 0.1,-0.59999999 0.999999,-0.36 0.91,0.25 -0.49,2.7 -2.11,3.2 -4.19,1.67 -2.08,-1.53 -7.43,5.57 -6.28,8.7800005 1.57,4.37 5.76,8.74 10.689999,7.07 4.37,-1.49 7,-6.22 9.12,-10.1700005 1.26,-2.29 2.8,-4.61 3.24,-7.27 0,-0.11 0,-0.22 0,-0.34 0,-0.12 1.25,-2.30999999 0.84,0.2 v 0.1 c 1.61,-2.60999999 2.64,-1.26999999 0.94,0.94 3.54,-1.78999999 4.2,0.9 1.23,3.17 a 26.87,26.87 0 0 1 7.41,-0.77 c 0.32,0 0.6,0.47 0.29,0.71 -2.06,1.62 -3.91,1 -6.31,1.21 a 6.05,6.05 0 0 0 -4.78,3.0900005 c 2.32,-0.9100005 5.5,0.38 8.05,0.71 0.56,0.07 0.6,0.92 0,0.9 -2.1,0 -4.57,-0.57 -6.61,0.1 a 5.35,5.35 0 0 0 -1.95,1.13 c -2.88,4.18 -5.23,9.67 -5.37,14.81 -0.14,5.14 3.1,7.56 7.61,8 4.36,0.45 10.63,-1.36 14.14,1.33 a 15.17,15.17 0 0 1 1.1,-1.29 c 0.33,-0.36 1,0.1 0.7,0.53 a 12.4,12.4 0 0 0 -0.83,1.48 3.74,3.74 0 0 1 1.32,2.44 5.58,5.58 0 0 1 0.81,-1.05 c 0.4,-0.41 1,0.18 0.63,0.63 -0.37,0.45 -0.52,0.51 -0.72,1.07 l 20.88,0.06 a 14.33,14.33 0 0 0 1.9,-2.55 c 2,-3.16 3.83,-7.89 2.61,-11.71 a 11.9,11.9 0 0 0 -1.32,-2.39 c -0.07,-0.09 -0.13,-0.18 -0.21,-0.27 a 19.32,19.32 0 0 0 -2,-1.79 0.31,0.31 0 0 1 -0.2,-0.07 c -1.58,-1.5 -4.13,-2 -5.68,-3.56 -1,-0.52 -2.07,-1 -3.09,-1.51 -0.39,-0.19 -0.17,-0.78 0.22,-0.78 a 11,11 0 0 1 6.35,2.55 c -1.39,-2.07 -2.61,-4.24 -2.44,-6.84 a 0.34,0.34 0 0 1 0.67,0 6.26,6.26 0 0 0 0.32,1.46 0.46,0.46 0 0 1 0.13,0.08 17.42,17.42 0 0 1 2,4.18 c 0,0 0,0 0,0.05 1.23,1.11 2.81,2 4.08,3.07 l -0.09,-0.23 c -2.73,-6.6 -5.41,-12.6400005 -3.46,-9.29 a 8,8 0 0 1 -0.24,-0.93 c -0.53,-1.5700005 0.3,-1.8700005 0.5,-0.4600005 a 20.8,20.8 0 0 0 2.31,4.5900005 c 0,-0.46 0,-0.91 0.11,-1.36 -0.15,-1.74 0.9,-1.29 0.67,0.22 a 30.61,30.61 0 0 1 0.37,3.59 0.32,0.32 0 0 1 -0.24,0.3 29.79,29.79 0 0 1 2.16,3.38 12.73,12.73 0 0 0 1,-2.89 c 0.52,-2.97 -63.349999,-16.1300005 -62.099999,-15.2300005 z"
     class="cls-4" />
  <path
     style="fill:#b2b9d3"
     id="path912"
     d="m 148.5585,157.86122 a 6.11,6.11 0 0 0 2.61,-1.46 10.64,10.64 0 0 1 -5.25,-0.6 0.43416587,0.43416587 0 0 1 0.12,-0.86 7.84,7.84 0 0 0 1,0.09 10.69,10.69 0 0 0 -3.17,-2 17.77,17.77 0 0 1 1.28,2.54 0.32,0.32 0 0 1 0,0.16"
     class="cls-4" />
  <path
     style="fill:#dadada"
     id="path914"
     d="m 58.578501,165.49122 a 6.61,6.61 0 0 0 2.85,2.53 c 1.39,0.61 4.2,0.11 6.1,-1.12 a 5.47,5.47 0 0 0 1.08,-0.72 c 3,-2.63 0.56,-6.54 -2.4,-7.53 -2.96,-0.99 -7.29,-0.29 -8.44,3 a 3.23,3.23 0 0 0 0.81,3.84 z"
     class="cls-3" />
  <path
     style="fill:#b2b9d3"
     id="path916"
     d="M 146.6585,201.71122"
     class="cls-4" />
  <path
     style="fill:#b2b9d3"
     id="path918"
     d="m 154.5185,204.60122 a 44,44 0 0 1 -6.67,-3.13 h -0.08"
     class="cls-4" />
  <path
     style="fill:#b2b9d3"
     id="path920"
     d="m 163.7585,187.65122 c -1.16,-0.53 -2.28,-1.08 -3.35,-1.69 1.33,1 2.75,1.92 4.12,3 2.57,2.05 4,0.07 4.52,2.81 0.1,0.5 -2,0.95 -2.11,0.44 -1.28,-4.45 -4.15,-2.92 -7.83,-5.76 3,3.81 5.75,7.76 5.36,12 0,0.48 -0.87,0.3 -0.87,-0.19 a 10.77,10.77 0 0 0 -1.45,-5.45 c 0,0.14 0,0.27 -0.05,0.41 a 1.13,1.13 0 0 1 0,0.26 20.08,20.08 0 0 1 -1.62,5.35 c -0.17,0.42 -0.35,0.84 -0.53,1.26 -0.18,0.42 -1,0.05 -0.82,-0.39 a 24.82,24.82 0 0 0 2.05,-6.26 7,7 0 0 0 -1.56,-4.07 c -0.11,2.68 -3.42,4 -3.6,7.05 0,0.48 -0.88,0.3 -0.87,-0.19 a 13.79,13.79 0 0 1 2,-6 4.44,4.44 0 0 0 0.06,-4.31 c 0,0.13 0.09,0.27 0.12,0.41 0.03,0.14 -0.32,0.24 -0.39,0 a 2.86,2.86 0 0 1 -1,0.89 c -1.12,0.64 -2.44,1 -3.63,1.56 -1.43,0.66 -1.59,1.33 0.11,2.45 0.48,0.32 0,0.88 -0.5,0.55 -2.21,-1.45 -2.15,-2.82 -0.17,-3.68 1.98,-0.86 4.78,-1.56 4.45,-3.27 -2,-2.83 -7,-4.33 -10.18,-4.82 -4.29,-0.66 -9.38,0.55 -9.44,4.76 -0.05,3.74 3.29,7.53 6.06,10.69 1.62,1.84 3.17,3.89 5.35,5.29 l 0.28,0.17"
     class="cls-4" />
  <path
     style="fill:#b2b9d3"
     id="path922"
     d="m 187.8085,176.48122 c -2.06,-1.79 0.29,0.56 -1.44,-1.62 l -0.07,-0.07 c 1.05,3.12 -2.91,2.89 -4,5.74 a 12.12,12.12 0 0 0 -0.3,1.38 c 0.38,-2.74 3.68,-4.28 3,-7.16 -0.81,3.89 -2.85,6.9 -4.83,10.2 -0.2,0.34 -0.94,0.15 -0.8,-0.34 1.07,-3.88 2.3,-7.53 2.36,-11.37 a 22.65,22.65 0 0 1 -4,5.88 0.45,0.45 0 0 1 -0.74,-0.32 c 0,-2.7 1.68,-3.53 3,-5.43 a 6.17,6.17 0 0 0 0.55,-5.75 c -0.73,2.35 -3.74,3.65 -5.59,5.23 -0.41,0.34 -1.09,-0.26 -0.71,-0.68 1.33,-1.48 3.31,-2.84 4,-4.8 a 5.41,5.41 0 0 0 0.33,-2.26 c -1.49,-5.21 -4.35,-11 -8.32,-15 -3.97,-4 -7.89,-3.49 -11.08,-0.61 -3.19,2.88 -5.73,9.06 -10.33,9.16 -1.37,0.31 -2.47,-0.67 -3.81,-2.06 a 2.32,2.32 0 0 1 -0.4,-0.69 0.64,0.64 0 0 1 -0.17,-0.19 c -0.29,-0.58 -1.43,-3 -2.55,-3.09 a 13,13 0 0 0 -2.08,2.76 26.18,26.18 0 0 0 -1.07,4.59 30.85,30.85 0 0 0 -0.36,3.6 18.35,18.35 0 0 0 4,8.83 c 2.15,2.69 5.7,6 9.4,6.66 a 13,13 0 0 0 2.5,0 h 0.29 a 14.68,14.68 0 0 0 2.16,-0.67 0.21,0.21 0 0 1 0.13,-0.11 c 1.79,-0.51 3,-2.13 4.84,-2.6 0.77,-0.53 1.52,-1.07 2.26,-1.59 0.29,-0.21 0.73,0.19 0.62,0.47 -0.69,1.64 -2.4,2.73 -4.18,3.5 a 12,12 0 0 1 6.72,1.06 c 0.37,0.19 0.18,0.62 -0.21,0.47 a 7.91,7.91 0 0 0 -1.37,-0.37 0.29,0.29 0 0 1 -0.11,0.06 17.66,17.66 0 0 1 -4.27,-0.25 h -0.05 c -1.34,0.43 -2.64,1.17 -3.93,1.66 h 0.23 c 6.59,0.75 12.88,0 19.28,-0.14 0.42,0 0.63,0.6 0.23,0.66 a 69.17,69.17 0 0 1 -10.35,0.8 c 0.3,0.06 0.59,0.13 0.89,0.21 a 5.48,5.48 0 0 1 3.93,2.55 v 0 0 l 0.05,0.07 c 0.17,0.27 -0.3,0.48 -0.5,0.2 a 6.2,6.2 0 0 0 -3.25,-2.29 21.66,21.66 0 0 0 -4.72,-0.24 c 0.4,0.21 0.78,0.42 1.15,0.64 1.57,0.6 2.94,1.38 3.25,3 0.05,0.26 -0.36,0.44 -0.57,0.15 a 10.68,10.68 0 0 0 -3.07,-2.8 33.11,33.11 0 0 1 -3.24,-1.21 0.28,0.28 0 0 1 -0.19,-0.29 28.73,28.73 0 0 1 -3.61,0.16 15.68,15.68 0 0 0 2.22,1.88 c 2.51,1.48 5.48,2.22 8.33,3.46"
     class="cls-4" />
  <path
     style="fill:#b2b9d3"
     id="path924"
     d="m 202.9085,160.22122 c 0,0.17 0,0.34 0,0.51 0,0.17 -0.45,0.17 -0.43,-0.11 a 3.49,3.49 0 0 1 -1.46,0.69 c -1.49,0.36 -3.07,0.34 -4.6,0.58 -1.83,0.29 -2.28,1 -0.87,2.84 0.4,0.52 -0.36,1 -0.77,0.46 -1.83,-2.38 -1.21,-3.92 1.3,-4.25 2.51,-0.33 5.86,-0.22 6.2,-2.27 -1.06,-3.9 -5.94,-7.25 -9.19,-8.85 -4.43,-2.17 -10.49,-2.47 -12.25,2.32 -1.57,4.25 0.55,9.67 2.31,14.19 1,2.63 1.89,5.48 3.7,7.79 l 0.24,0.29"
     class="cls-4" />
  <path
     style="fill:#b2b9d3"
     id="path926"
     d="m 143.5185,201.33122 a 17.66,17.66 0 0 1 -1.61,5.62 0.41,0.41 0 0 1 -0.7,-0.08 c -0.78,-2.15 0.35,-3.2 0.88,-5 a 5,5 0 0 0 -1.23,-4.69 c 0.08,2 -2,3.79 -3.09,5.48 -0.23,0.37 -1,0.05 -0.79,-0.37 0.67,-1.49 1.91,-3 2,-4.77 a 4.32,4.32 0 0 0 -0.39,-1.86 33.17,33.17 0 0 0 -11.26,-9.9 c -4.35,-2.15 -7.55,-0.88 -9.34,2.15 -1.79,3.03 -2.08,8.55 -5.85,9.72 a 3.86,3.86 0 0 1 -3.83,-0.11 c -0.38,-0.19 -0.28,-0.71 0.15,-0.6 a 6.29,6.29 0 0 0 3.21,0.14 4.8,4.8 0 0 0 1.74,-1.78 9.58,9.58 0 0 1 -4.52,0.78 c -0.54,0 -0.62,-0.66 -0.15,-0.72 a 5.72,5.72 0 0 0 2.31,-0.74 3.51,3.51 0 0 1 -2.92,-0.59 6.46,6.46 0 0 1 -0.9,-0.63 c -0.41,-0.34 0,-0.84 0.45,-0.51 a 6.54,6.54 0 0 0 0.83,0.57 2.38,2.38 0 0 0 0.31,0.17 v 0 a 3.18,3.18 0 0 0 2,0.24 7.13,7.13 0 0 0 2.31,-1.57 c 0.14,-0.24 0.27,-0.48 0.4,-0.72 -0.29,0 -0.63,-0.27 -0.47,-0.54 1.5,-2.61 3.65,-5.13 4.18,-8.21 a 13.46,13.46 0 0 0 -2.59,-10.05 20.26,20.26 0 0 0 -3.11,-3.38 11.92,11.92 0 0 1 -10.16,5.92 H 88.268501 a 11.83,11.83 0 0 1 -9.7,-5.22 c -0.78,4.54 1.14,9.8 3,13.77 0.25,0.53 0.51,1.05 0.78,1.57 a 0.4,0.4 0 0 1 0.26,-0.06 l -0.13,-0.18 c -0.32,-0.48 0.26,-1.07 0.63,-0.6 a 26.48,26.48 0 0 0 2.37,2.65 12.19,12.19 0 0 1 3.62,2.56 8.62,8.62 0 0 0 1.25,0.47 c 1.47,0 2.93,-0.23 4.4,-0.2 0.4,0 0.62,0.71 0.19,0.87 a 7.54,7.54 0 0 1 -4.25,0.3 v 0 a 16.25,16.25 0 0 0 4.2,3.2 13.45,13.45 0 0 0 1.95,0.36 c 0.45,0.05 0.61,0.87 0.09,0.9 a 0.4,0.4 0 0 1 -0.11,0 h -0.09 a 4.8,4.8 0 0 1 -1.68,-0.3 17.17,17.17 0 0 1 -8.62,-5.24 9.48,9.48 0 0 1 -1.59,-1.51 c 0,0.18 -0.11,0.36 -0.17,0.53 a 16.92,16.92 0 0 0 5.51,5.14 0.48,0.48 0 0 1 0,0.81 c -3.6,1.47 -5,-1.2 -6.11,-4.24 a 17,17 0 0 1 -2,3.73 4,4 0 0 1 -0.44,1.11 c -1.67,2.52 -3.52,2.85 -6.34,2.73 -0.47,0 -0.6,-0.84 -0.09,-0.91 a 8.67,8.67 0 0 0 6.25,-3.61 15.7,15.7 0 0 0 0.55,-2.32 c -1.49,1.77 -3.21,3.18 -5.64,3 a 0.46,0.46 0 0 1 0,-0.91 c 1.93,-0.05 3.21,-1.08 4.49,-2.3 a 18.09,18.09 0 0 1 -3.11,-0.23 c -0.53,-0.09 -0.56,-0.95 0,-0.91 0.56,0.04 3.66,0.37 4.1,-0.77 a 22.34,22.34 0 0 0 -2.31,-3.95 42.73,42.73 0 0 0 -4.58,-4 43.23,43.23 0 0 0 -3.74,-2.64 18.87,18.87 0 0 0 -10.68,-1.34 c -3.54,0.59 -8.16,2.31 -10,5.81 a 13,13 0 0 0 -0.81,2.64 c 0,0.11 0,0.22 0,0.34 a 19,19 0 0 0 0,2.72 0.31,0.31 0 0 1 0.08,0.2 c 0,2.23 1.34,4.56 1.28,6.79 0.33,1.15 -1.87,-0.5 -2.14,-2.88 -0.54,2.47 -1.87,1.63 -1.28,0.2 0,0 0,0 0,-0.05 0,-1.7 -0.44,-3.55 -0.56,-5.23 0,0.08 -0.07,0.15 -0.1,0.22 -1.86,4.26 11.57,5.2 10.5,9.73 18.57,12.67 29.06,10.62 53.309999,10.62 37.11,0 60.33,-16.14 81.46,-43.13 -0.2,-0.18 -4.28,5.85 -4.08,5.62"
     class="cls-4" />
  <path
     style="fill:#dadada"
     id="path928"
     d="m 179.5485,131.33122 c -3.13,-3.18 -6.46,-0.58 -6.85,2.57 -0.39,3.15 1.13,7.76 4.58,9 1.8,0.64 2.91,0.16 3.54,-0.88 a 5.23,5.23 0 0 0 1.9,-3 c 0.33,-1.47 -0.7,-4.47 -2.26,-6.49 a 8.24,8.24 0 0 0 -0.91,-1.2 z"
     class="cls-3" />
  <path
     style="fill:#b2b9d3"
     id="path930"
     d="m 149.1185,117.33122 a 6.31,6.31 0 0 0 -0.27,-0.93 c -1,-0.68 -2,-1.38 -3,-2.12 a 0.66,0.66 0 0 0 0,0.14 14.48,14.48 0 0 1 2,2.85 c 0.29,0.52 -0.43,0.86 -0.75,0.44 a 7.33,7.33 0 0 0 -1.44,-1.45 c 0,0.13 -0.05,0.26 -0.08,0.39 a 3.21,3.21 0 0 1 0.33,1.51 31.11,31.11 0 0 1 4.84,-0.46 l -0.88,-0.59 v 0.12 a 0.4,0.4 0 0 1 -0.75,0.1 z"
     class="cls-4" />
  <path
     style="fill:#dadada"
     id="path932"
     d="M 74.428501,103.40122"
     class="cls-3" />
  <path
     style="fill:#dadada"
     id="path934"
     d="M 75.878501,103.81122"
     class="cls-3" />
  <path
     style="fill:#dadada"
     id="path936"
     d="M 112.8885,146.03122"
     class="cls-3" />
  <path
     style="fill:#dadada"
     id="path938"
     d="m 113.2685,146.01122 -0.37,-0.24 v 0.89 l 0.44,0.27"
     class="cls-3" />
  <path
     style="fill:#dadada"
     id="path940"
     d="m 145.7885,153.06122 a 1.83,1.83 0 0 1 0.13,0.16"
     class="cls-3" />
  <path
     style="fill:#dadada"
     id="path942"
     d="m 127.6185,41.511225 h 0.54"
     class="cls-3" />
  <path
     style="fill:#dadada"
     id="path944"
     d="M 127.0385,39.021225"
     class="cls-3" />
  <path
     style="fill:#dadada"
     id="path946"
     d="m 130.4185,40.331225 a 5.69,5.69 0 0 0 -0.56,1.17"
     class="cls-3" />
  <path
     style="fill:#d64d4d"
     id="path948"
     d="m 112.9585,143.54122 c -0.13,-2.55 -0.44,-6.63 0.16,-9.12 l 0.24,0.34 v -9.93 c 0.53,-2.69 2.2,-5.91 2.2,-10.54 l -2.2,-3.68 c -5.11,4.5 -8.67,0.29 -8.6,-1.83 a 6.26,6.26 0 0 1 0.22,-1.32 c 0.4,-2.3 1.93,-4.83 3.29,-5.49 0.88,-0.43 5.28,-0.43 6.39,-0.34 0.59,-0.54 -2,-1.27 -1.3,-1.689995 v -5.61 a 12.94,12.94 0 0 1 -4.37,-6 c -1.15,-3.21 -2.15,-8.61 0,-11.7 1.27,-0.7 2.82,0.27 4.33,1.43 v -1.18 a 15.15,15.15 0 0 0 -1.4,-1 4,4 0 0 0 -1.59,-0.59 0.22,0.22 0 0 0 -0.22,-0.37 c -0.16,0.09 -0.29,0.19 -0.43,0.28 a 5.74,5.74 0 0 1 3.64,-1.67 v -2.2 c -0.3,0 -0.71,-0.06 -0.62,-0.18 a 11.18,11.18 0 0 1 -1.93,-0.22 c -0.52,0.74 -0.2,0.83 0,0 -0.5,-0.15 -0.5,-0.9 -0.67,-0.25 0.07,-0.71 -3.2,2 -3.4,3.67 a 13.29,13.29 0 0 1 -1,2.89 28.93,28.93 0 0 0 -2.16,-3.38 0.34,0.34 0 0 0 0.24,-0.3 30.61,30.61 0 0 0 -0.37,-3.59 10.18,10.18 0 0 1 0.87,-2.87 11,11 0 0 1 -0.74,-0.92 4.52,4.52 0 0 0 -0.79,3.57 12.27,12.27 0 0 0 -0.12,1.36 20.65,20.65 0 0 1 -2.31,-4.6 6,6 0 0 1 0.07,-2.2 c 0,0 -0.08,0 -0.12,0 l -0.569999,-0.39 a 4.88,4.88 0 0 0 0.12,3.09 8,8 0 0 0 0.239999,0.93 74.23,74.23 0 0 0 -4.089999,-6.28 c 0.21,1 0.4,2.05 0.57,3.08 a 78.66,78.66 0 0 1 6.999999,12.49 l 0.09,0.23 c -1.27,-1 -2.85,-2 -4.079999,-3.07 0,0 0,0 0,-0.05 a 17.42,17.42 0 0 0 -2,-4.18 0.46,0.46 0 0 0 -0.13,-0.08 7.48,7.48 0 0 1 -0.32,-1.46 0.34,0.34 0 0 0 -0.67,0 c -0.16,2.6 1.06,4.77 2.44,6.84 a 11,11 0 0 0 -6.35,-2.55 c -0.39,0 -0.61,0.59 -0.22,0.78 1,0.49 2.06,1 3.09,1.51 1.55,1.54 4.1,2.06 5.679999,3.55 a 0.27,0.27 0 0 0 0.2,0.08 18.22,18.22 0 0 1 1.95,1.79 c 0.08,0.08 0.14,0.18 0.21,0.26 a 12.86,12.86 0 0 1 1.33,2.4 c 1.21,3.82 -0.66,8.55 -2.62,11.7 a 20,20 0 0 1 -8.109999,7.399995 c -1.53,0.48 -3,0.85 -4.38,1.13 a 41,41 0 0 1 -5.92,0.86 20.77,20.77 0 0 1 -4.36,-0.86 c -0.51,-1.1 1.7,-3.18 2.21,-3.699995 0.51,-0.52 -0.21,-1 -0.63,-0.63 a 20,20 0 0 0 -2.25,2.259995 7.37,7.37 0 0 1 1.38,-4.999995 c 0.37,-0.44 -0.23,-1 -0.63,-0.62 -1.75,1.77 -1.91,4.05 -1.65,6.389995 -0.1,-0.13 -0.18,-0.26 -0.27,-0.38 a 4.08,4.08 0 0 1 0.35,1.94 0.4,0.4 0 0 1 -0.78,0.11 7.16,7.16 0 0 0 -0.85,-2.16 v 0.87 c 0.2,0.57 0.42,1.14 0.68,1.72 l -0.68,-0.28 v 1.82 c 0.49,0 1,0 1.47,0.09 l 0.26,0.49 a 9.12,9.12 0 0 0 -1.73,0.15 v 2.1 a 8.35,8.35 0 0 0 2.3,-0.79 23.77,23.77 0 0 1 3.47,-0.06 c 0.58,0 0.55,-0.82 0,-0.89 h -0.22 a 0.41,0.41 0 0 0 0.13,-0.24 l 1.64,0.44 c 4.15,1.21 9.24,3.28 11.91,7 2.32,3.24 -0.93,6.47 -3.1,8.54 a 55.42,55.42 0 0 0 -5.55,5.5 c -3.47,1.48 -6.77,3.15 -7.74,7.1 a 0.45,0.45 0 0 0 0.48,0.55 c 0,-0.86 0.44,0.35 1,-0.5 0.19,-0.31 0.31,-2.29 0.41,-1.93 1.34,-1.86 3.52,-2.7 5.75,-3.54 -2.34,1.82 -4.23,3.92 -3.88,7.47 0.58,-0.81 1.17,-1.62 1.8,-2.4 0.61,-1.12 1.41,-2.18 2,-3.07 0.39,-0.58 0.83,-1.24 1.3,-1.9 l 0.73,-0.53 a 14.92,14.92 0 0 0 -0.45,1.68 c -0.62,2 -0.65,4.17 -1.14,6.22 q 0.57,-0.58 1.17,-1.14 c 0.22,-1.24 0.37,-2.48 0.58,-3.71 a 11.24,11.24 0 0 1 2.22,-4.73 7.13,7.13 0 0 0 1.34,-1.24 l 0.3,-0.16 a 23.42,23.42 0 0 0 -1.86,7.23 3.2,3.2 0 0 1 -0.08,0.54 24.21,24.21 0 0 1 -1.2,5 l 0.52,-0.24 c 0.32,-0.13 0.65,-0.26 1,-0.37 1,-2.78 0.79,-5.74 1.4,-9 0.83,-4.42 5.57,-7.7 9.399999,-8.86 6.47,-1.95 7.94,4.79 9.32,9.82 a 11.47,11.47 0 0 0 0.89,2.25 c -2,3.24 -1.78,7.27 -3,10.83 l -0.29,0.69 c 0.23,0.21 0.49,0.41 0.73,0.59 l 0.35,-0.91 a 41.88,41.88 0 0 0 1.14,-4.2 c 0,0.53 0.11,1.81 0.16,2.34"
     class="cls-5" />
  <path
     style="fill:#d64d4d"
     id="path950"
     d="m 90.398501,139.59122 h -0.09 a 15.49,15.49 0 0 0 -1.41,0.71 l -0.26,0.49 c -0.26,0.43 0.36,0.89 0.67,0.52 l 0.07,-0.09 v 0 a 9.64,9.64 0 0 0 1.12,-1.71 v 0 z"
     class="cls-5" />
  <path
     style="fill:#d64d4d"
     id="path952"
     d="m 108.3685,145.01122 c -0.26,0.52 0.51,0.95 0.77,0.45 0.13,-0.25 0.24,-0.5 0.34,-0.75 -0.24,-0.18 -0.49,-0.38 -0.73,-0.59 -0.12,0.3 -0.23,0.6 -0.38,0.89 z"
     class="cls-5" />
  <path
     style="fill:#d64d4d"
     id="path954"
     d="m 94.358501,60.741225 c 0,-0.24 0,-0.47 -0.05,-0.71 a 5.85,5.85 0 0 0 -0.21,-1 c -0.15,-0.2 -0.3,-0.4 -0.46,-0.59 -0.09,0.4 -0.16,0.81 -0.21,1.22 0.48,0.77 1,1.54 1.45,2.31 -0.06,-0.28 -0.13,-0.57 -0.18,-0.85 a 0.46,0.46 0 0 1 -0.34,-0.38 z"
     class="cls-5" />
  <path
     style="fill:#d64d4d"
     id="path956"
     d="m 101.2685,62.451225 c 0.22,-0.31 -0.28,-0.67 -0.51,-0.39 v 0.06 0 0 c -0.1,0.13 -0.18,0.25 -0.26,0.37 a 4.89,4.89 0 0 1 0.38,0.72 5.06,5.06 0 0 1 0.39,-0.76 z"
     class="cls-5" />
  <path
     style="fill:#d64d4d"
     id="path958"
     d="m 111.1285,141.94122 a 13.87,13.87 0 0 0 0.91,3.53 0.5,0.5 0 0 1 0,0.12 c 0.44,0.27 0.87,0.53 1.3,0.81 v -0.34 q -0.25,-0.45 -0.48,-1 c 0,-0.06 0,-0.12 0,-0.18 a 0.37,0.37 0 0 0 0.06,-0.21 c 0,-0.39 0,-0.78 0,-1.17 a 8,8 0 0 0 -1.79,-1.56 z"
     class="cls-5" />
  <path
     style="fill:#d64d4d"
     id="path960"
     d="m 76.898501,100.80122 a 6.34,6.34 0 0 1 -0.39,-0.66 9.55,9.55 0 0 1 1.63,-7.279995 c 0.29,-0.43 -0.37,-0.89 -0.7,-0.53 a 15.87,15.87 0 0 0 -1.2,1.41 v 6.469995 a 4.1,4.1 0 0 1 0.66,0.59 z"
     class="cls-5" />
  <path
     style="fill:#d64d4d"
     id="path962"
     d="m 102.3485,159.13122 a 10.68,10.68 0 0 0 -1.4,0.54 l 0.94,0.61 a 5.21,5.21 0 0 1 0.66,-0.24 c 0.54,-0.17 0.33,-1.07 -0.2,-0.91 z"
     class="cls-5" />
  <path
     style="fill:#d64d4d"
     id="path964"
     d="m 87.048501,137.22122 c -1.85,1.91 -3.55,4 -5.87,5.28 0,-0.21 0.1,-0.42 0.13,-0.63 a 5.84,5.84 0 0 1 0.68,-1 c 0.15,-0.18 0.31,-0.35 0.46,-0.52 a 0.48,0.48 0 0 0 0.07,-0.53 c 1.28,-1.83 2.47,-3.76 3.85,-5.66 0.29,-0.4 -0.35,-1 -0.68,-0.61 -0.33,0.39 -0.74,0.85 -1.09,1.29 -0.47,0.84 -1.32,0.14 -1.39,1 -0.05,0.58 -0.33,2.14 -0.4,1.57 0,-0.05 0,-0.1 0,-0.16 l -1.32,1.89 a 40.07,40.07 0 0 0 -0.53,-5.78 c 0,0 0,0 0,0 a 6.41,6.41 0 0 0 -1,2.12 0.41,0.41 0 0 1 -0.37,0.31 c 0.09,1.73 0.92,3.46 0.69,5.09 a 30,30 0 0 1 -2.87,3.4 0.83,0.83 0 0 0 -0.08,0.12 c -0.34,0.28 -0.7,0.53 -1.06,0.78 v 8.49 a 29.45,29.45 0 0 1 3.39,-6.84 12,12 0 0 0 1,-2.2 c 3.13,-0.5 7.28,-3.75 10,-5.28 a 5.45,5.45 0 0 0 0.39,-0.89 c -1.1,0.51 -3.65,1.72 -4.71,2.31 a 14.42,14.42 0 0 0 3.43,-4.77 4.25,4.25 0 0 0 1,-1.92 c 0,-0.18 0.06,-0.36 0.08,-0.54 a 5.49,5.49 0 0 0 -0.56,-2.73 0.44,0.44 0 0 0 -0.82,0.28 6.93,6.93 0 0 1 -0.5,4.5 l -0.14,0.12 a 0.37,0.37 0 0 0 -0.19,0.09 c -0.13,0.11 -0.25,0.23 -0.37,0.35 a 0.17,0.17 0 0 0 0,0.07 0.5,0.5 0 0 0 0,0.12 c 0,0.13 -0.54,0.24 -0.56,0.38"
     class="cls-5" />
  <path
     style="fill:#d64d4d"
     id="path966"
     d="m 96.718501,162.33122 1.24,0.34 c 0.54,-0.37 3.379999,-2 3.929999,-2.36 -0.35,-0.15 -0.58,-0.47 -0.94,-0.61 -0.6,0.37 -3.629999,2.19 -4.229999,2.63 z"
     class="cls-5" />
  <path
     style="fill:#d83130"
     id="path968"
     d="m 102.4685,163.71122 0.39,0.15 c 0.25,0.09 0.49,0.16 0.72,0.22 v 0 a 0.51,0.51 0 0 0 0.08,-0.51 l -0.46,-0.28 a 0.61,0.61 0 0 0 -0.22,0.1 5,5 0 0 1 -0.51,0.32 z"
     class="cls-6" />
  <path
     style="fill:#d64d4d"
     id="path970"
     d="m 98.978501,158.33122 c -0.31,-0.25 -0.72,-0.55 -1,-0.81 -0.05,0 -0.66,0.32 -0.71,0.28 a 18.36,18.36 0 0 0 -1.61,1.1 13.6,13.6 0 0 1 1.71,0.34 c 0.3,-0.2 1.29,-0.74 1.61,-0.91 z"
     class="cls-5" />
  <path
     style="fill:#d64d4d"
     id="path972"
     d="m 97.958501,157.51122 q 0.5,0.42 1,0.81 a 11.93,11.93 0 0 1 3.169999,-1.11 c 0.47,-0.08 0.38,-0.88 -0.09,-0.87 h -0.11 a 9.12,9.12 0 0 0 -4.069999,1.09 v 0 z"
     class="cls-5" />
  <path
     style="fill:#d64d4d"
     id="path974"
     d="m 86.698501,166.56122 a 51.27,51.27 0 0 0 7.61,0.62 c 3.38,1.7 6.779999,3.15 10.229999,1.24 0.49,-0.26 0.08,-1.06 -0.4,-0.81 -3.08,1.59 -5.779999,0.08 -8.539999,-1.44 0.58,0.12 1.16,0.21 1.73,0.27 a 72.8,72.8 0 0 1 7.239999,-2.32 c -0.36,-0.1 -1,-0.75 -1.34,-0.86 -1.21,0.28 -5.119999,1.48 -6.159999,1.61 -0.68,0.09 -1.44,0.2 -2.22,0.27 l -0.87,-0.21 a 13.3,13.3 0 0 0 1.5,-0.78 c 0.54,-0.25 2,-1.18 2.48,-1.51 -0.39,-0.13 -0.85,-0.2 -1.24,-0.34 a 14.65,14.65 0 0 1 -5.52,1.9 7.54,7.54 0 0 0 -1.78,-0.21 l -0.31,-0.12 c 2.6,-0.68 4.77,-2.34 7,-3.85 l -0.49,-0.23 a 0.53,0.53 0 0 1 -0.16,-0.13 l -0.16,-0.08 h -0.54 c -1,0.8 -2.08,1.64 -3.28,2.4 -3.69,2.32 -9.19,0.84 -12.58,-1.37 a 6.27,6.27 0 0 1 -2.68,-3.13 v 5.26 a 12.82,12.82 0 0 0 2.3,7.34 c 0,-0.06 0,-0.12 0,-0.18 0.75,-3.99 5.26,-3.64 8.18,-3.34 z"
     class="cls-5" />
  <path
     style="fill:#d64d4d"
     id="path976"
     d="m 91.878501,139.08122 c 0.54,-0.14 0.33,-1 -0.2,-0.89 l -0.66,0.2 a 10.84,10.84 0 0 1 -0.52,1.16 13.18,13.18 0 0 1 1.38,-0.47 z"
     class="cls-5" />
  <path
     style="fill:#d64d4d"
     id="path978"
     d="m 77.518501,101.74122 a 3.57,3.57 0 0 0 -0.62,-0.94"
     class="cls-5" />
  <path
     style="fill:#d64d4d"
     id="path980"
     d="m 91.688501,54.231225 a 12.4,12.4 0 0 0 0.89,2.25 c -2,3.24 -1.77,7.27 -3,10.83 v 0.1 c 0,0 0,0 0,0.05 a 15,15 0 0 1 -0.61,1.43 c -0.26,0.52 0.51,0.95 0.76,0.44 a 11.29,11.29 0 0 0 0.69,-1.65 41.88,41.88 0 0 0 1.14,-4.2 15,15 0 0 0 1.08,5.87 4.27,4.27 0 0 0 3.34,3.86 c 0.47,0.15 0.82,-0.59 0.35,-0.82 a 6.51,6.51 0 0 1 -2.85,-3.41 c 0,-0.06 0,-0.13 0,-0.18 a 0.65,0.65 0 0 0 0.06,-0.21 c 0.1,-3 -0.45,-6 -0.08,-8.91 l -0.53,-0.85 c -0.24,-0.4 0.36,-0.85 0.64,-0.5 a 1.13,1.13 0 0 1 0.1,0.13 1,1 0 0 0 0,-0.17 c 0.13,0.18 0.24,0.36 0.37,0.52 l 0.06,0.24 c 0.67,0.83 1.32,1.69 1.94,2.56 -0.05,-0.27 -0.1,-0.54 -0.16,-0.81 a 33,33 0 0 0 3.89,3.07 5.09,5.09 0 0 1 0.669999,-1.34 c -1.219999,-1.83 -3.689999,-2.23 -4.939999,-3.83 a 32.25,32.25 0 0 1 -0.49,-4.5 0.66,0.66 0 0 0 0,-0.15 18.23,18.23 0 0 1 3.21,-8.89 15.59,15.59 0 0 1 4.849999,-4.48 11.66,11.66 0 0 0 -1.68,-0.14 H 88.268501 a 11.91,11.91 0 0 0 -10.17,5.93 16.7,16.7 0 0 1 4.3,-2.06 c 6.45,-1.95 7.87,4.79 9.29,9.82 z"
     class="cls-5" />
  <path
     style="fill:#d64d4d"
     id="path982"
     d="m 96.128501,67.921225 a 0.45,0.45 0 0 0 0.88,-0.12 c -0.08,-1 -0.22,-2.08 -0.4,-3.11 -0.58,-0.9 -1.16,-1.8 -1.73,-2.7 0.39,1.94 0.87,3.89 1.25,5.93 z"
     class="cls-5" />
  <path
     style="fill:#d64d4d"
     id="path984"
     d="m 100.9885,63.761225 c -0.05,-0.18 -0.11,-0.35 -0.17,-0.51 a 5.13,5.13 0 0 0 -0.36,1 0.44,0.44 0 0 0 0.53,-0.49 z"
     class="cls-5" />
  <path
     style="fill:#d64d4d"
     id="path986"
     d="m 109.7385,144.03122 c -0.08,0.23 -0.16,0.46 -0.26,0.68 0.26,0.2 0.52,0.4 0.78,0.58 l 0.34,0.23 0.09,0.06 c 0.53,0.35 2.13,1.36 2.67,1.7 -0.11,-0.32 0,-0.53 0,-0.88 -0.8,-0.49 -2.88,-1.8 -3.62,-2.37 z"
     class="cls-5" />
  <path
     style="fill:#d64d4d"
     id="path988"
     d="m 109.0085,143.53122 c 0,0 0,-0.06 0,-0.09 -0.16,-0.14 -0.32,-0.28 -0.47,-0.44 -0.4,-0.4 -1,0 -0.64,0.37 0.36,0.37 0.55,0.51 0.83,0.75 0.08,-0.18 0.17,-0.35 0.23,-0.53 z"
     class="cls-5" />
  <path
     style="fill:#d64d4d"
     id="path990"
     d="m 95.268501,158.83122 a 3.78,3.78 0 0 0 -4.39,0.81 c -0.27,0.27 0.26,0.82 0.61,0.58 a 5.42,5.42 0 0 1 3.3,-0.67 c 0.28,-0.23 0.57,-0.45 0.86,-0.66 z"
     class="cls-5" />
  <path
     style="fill:#d64d4d"
     id="path992"
     d="m 102.2685,163.61122 a 0.42,0.42 0 0 0 -0.45,0.07 c -1.26,-0.36 -2.529999,-0.69 -3.809999,-1 -0.3,0.22 -0.61,0.42 -0.92,0.63 1.19,0.4 2.39,0.75 3.599999,1.1 a 7,7 0 0 0 1.83,-0.66 z"
     class="cls-5" />
  <path
     style="fill:#d64d4d"
     id="path994"
     d="m 108.7085,164.33122 a 13.73,13.73 0 0 0 -2.23,-0.28 18.65,18.65 0 0 0 -4.59,-3.8 12.12,12.12 0 0 0 -2.299999,1.24 31.19,31.19 0 0 1 3.639999,1.74 0.46,0.46 0 0 1 0.46,0.28 c 0.29,0.18 0.59,0.37 0.88,0.58 -0.19,0 -0.38,0 -0.57,0 l -0.42,-0.09 a 6.55,6.55 0 0 1 -6.249999,2.36 v 0 c -0.29,0.14 -0.12,0.58 0.24,0.67 2.809999,0.65 3.999999,-1.57 6.089999,-1.86 a 39.19,39.19 0 0 1 4.08,1.49 h 0.13 a 21.59,21.59 0 0 1 3.66,2.56 13,13 0 0 0 1.59,-4.08 c -1.48,-0.1 -3.01,-0.46 -4.41,-0.81 z"
     class="cls-5" />
  <path
     style="fill:#d64d4d"
     id="path996"
     d="m 106.4785,143.97122 c -0.29,-0.35 -0.89,-0.1 -0.66,0.28 l 0.06,0.08 v 0 c 1.84,2.94 4.58,4.19 7.48,5.85 v -0.93 c -2.47,-1.57 -5.04,-3.04 -6.88,-5.28 z"
     class="cls-5" />
  <path
     style="fill:#d64d4d"
     id="path998"
     d="m 99.118501,160.68122 0.09,-0.06 0.35,-0.21 0.459999,-0.25 c -0.879999,-0.38 -3.489999,-1 -4.379999,-1.27 -0.41,0.25 -0.46,0.39 -0.86,0.66 0.78,0.37 2.94,1.19 3.75,1.53 z"
     class="cls-5" />
  <path
     style="fill:#d64d4d"
     id="path1000"
     d="m 100.1785,160.07122 c 0.26,-0.13 0.51,-0.28 0.77,-0.4 -0.67,-0.44 -1.329999,-0.88 -1.999999,-1.35 -0.22,0.11 -0.44,0.22 -0.66,0.35 0.64,0.47 1.26,0.95 1.889999,1.4 z"
     class="cls-5" />
  <path
     style="fill:#d64d4d"
     id="path1002"
     d="m 96.718501,162.33122 -1.3,-0.37 c -0.46,-0.14 -0.63,0.5 -0.17,0.69 l 0.62,0.22 0.17,-0.08 z"
     class="cls-5" />
  <path
     style="fill:#d64d4d"
     id="path1004"
     d="m 97.838501,157.41122 c -0.37,-0.33 -0.72,-0.67 -1.06,-1 -0.34,-0.33 -1,0 -0.62,0.36 a 13.39,13.39 0 0 0 1.09,1 c 0.21,-0.12 0.41,-0.24 0.63,-0.35 z"
     class="cls-5" />
  <path
     style="fill:#d64d4d"
     id="path1006"
     d="m 132.9185,70.141225 a 0.42,0.42 0 0 0 -0.83,0 v 1 h 0.89 q -0.03,-0.5 -0.06,-1 z"
     class="cls-5" />
  <path
     style="fill:#d64d4d"
     id="path1008"
     d="m 116.3485,68.331225 a 39,39 0 0 1 8.41,-0.6 0.47,0.47 0 0 0 0,-0.94 h -1.76 a 31.87,31.87 0 0 0 -7.1,0.64 l -0.32,0.11 -0.5,0.12 a 13.09,13.09 0 0 1 5.55,-3.61 0.47185803,0.47185803 0 0 0 -0.25,-0.91 c -2.89,0.76 -8.17,4.73 -9.57,7.77 l 1.93,0.22 a 10.54,10.54 0 0 1 3.61,-2.8 z"
     class="cls-5" />
  <path
     style="fill:#d64d4d"
     id="path1010"
     d="m 115.4885,60.601225 a 0.47,0.47 0 0 0 -0.47,-0.81 14.53,14.53 0 0 0 -1.66,1.11 v 1.6 a 10.65,10.65 0 0 1 2.13,-1.9 z"
     class="cls-5" />
  <path
     style="fill:#b2b9d3"
     id="path1012"
     d="m 128.1585,41.511225 c 0,0.09 0,0.18 0,0.27"
     class="cls-4" />
  <path
     style="fill:#d64d4d"
     id="path1014"
     d="m 125.6285,42.231225 c 0,0.11 0,0.24 0,0.36 a 5.71,5.71 0 0 1 -0.21,1 c -0.16,0.54 0.67,0.75 0.84,0.22 a 5.64,5.64 0 0 0 0.24,-1.12 4.44,4.44 0 0 0 0,-1.21 h -0.93 a 2.94,2.94 0 0 1 0.09,0.68 z"
     class="cls-5" />
  <path
     style="fill:#d64d4d"
     id="path1016"
     d="m 129.5785,45.631225 a 14.85,14.85 0 0 1 -1.28,-2 10.73,10.73 0 0 1 -0.16,-1.87 0.48,0.48 0 0 1 -0.45,-0.19 l -0.07,-0.08 h -0.88 a 9.23,9.23 0 0 0 0.17,1.08 4,4 0 0 0 0.5,1.08 16.37,16.37 0 0 0 1.3,4.06 c -2.87,-1.21 -5.73,-1.88 -7.1,1.9 a 0.46,0.46 0 0 0 0.56,0.56 15.94,15.94 0 0 1 7.33,-0.83 l 0.26,0.49 a 8.57,8.57 0 0 0 -2.13,0.22 16.8,16.8 0 0 0 -9.49,3.18 4.76,4.76 0 0 0 -1.34,1.11 c 0,0 0,0 -0.07,0.06 v 0 a 0.34,0.34 0 0 0 -0.08,0.09 c -0.33,0.42 0.36,0.85 0.7,0.53 a 16.38,16.38 0 0 1 1.56,-1.27 15.65,15.65 0 0 1 5.09,-1.12 v 0 a 8.14,8.14 0 0 0 -2.62,3.5 c -0.18,0.43 0.47,0.74 0.74,0.43 1,-1.12 1.84,-2.39 2.8,-3.55 a 8.49,8.49 0 0 1 1.18,-0.66 11.6,11.6 0 0 0 4.24,-1.09 23.77,23.77 0 0 1 3.47,-0.06 c 0.58,0 0.55,-0.82 0,-0.89 h -0.22 a 0.41,0.41 0 0 0 0.13,-0.23 c 0.55,0.13 1.1,0.28 1.64,0.44 4.15,1.2 9.24,3.27 11.91,7 2.32,3.24 -0.93,6.47 -3.1,8.54 a 65.35,65.35 0 0 0 -5.18,5.08 h 3.83 a 7.53,7.53 0 0 0 1.34,-1.25 2.69,2.69 0 0 0 0.29,-0.16 12.36,12.36 0 0 0 -0.59,1.41 h 0.91 c 1.56,-3.53 5.54,-6.12 8.85,-7.11 4.84,-1.46 6.88,1.95 8.18,5.86 4,-2 5.71,-5.24 6.85,-10.19 l 0.58,-4.33 a 20.47,20.47 0 0 0 -1.72,-6.62 c 0.11,2.66 -1.91,5.43 -4,6.7 -2.69,1.64 -7.09,0.9 -7,-3.18 a 5.68,5.68 0 0 1 0.22,-1.32 c 0.4,-2.3 1.93,-4.82 3.29,-5.49 a 6.15,6.15 0 0 1 3.7,-0.52 3,3 0 0 1 1.16,0.05 11.7,11.7 0 0 0 -8.28,-3.5 h -5.03 a 19.88,19.88 0 0 1 -5.76,4.33 43.72,43.72 0 0 1 -4.38,1.13 41,41 0 0 1 -5.92,0.86 20.15,20.15 0 0 1 -4.36,-0.86 c -0.51,-1.1 1.7,-3.18 2.21,-3.7 0.51,-0.52 -0.21,-1 -0.63,-0.63 a 20,20 0 0 0 -2.25,2.26 9.76,9.76 0 0 1 0.45,-3.39 h -1.09 a 9.76,9.76 0 0 0 -0.26,4.14 z"
     class="cls-5" />
  <path
     style="fill:#d64d4d"
     id="path1018"
     d="m 110.8085,70.911225 a 29.47,29.47 0 0 1 2.55,-3.27 v -6.74 c -2,2.32 -2.7,6.81 -3.42,9.78 0.33,0.08 0.57,0.17 0.87,0.23 z"
     class="cls-5" />
  <path
     style="fill:#d64d4d"
     id="path1020"
     d="m 113.3585,99.941225 v 1.619995 a 3.37,3.37 0 0 1 1.91,1.77 c 1.24,2.44 0,5.34 -1.86,7.24 v 14.26 a 12.16,12.16 0 0 0 2,1 18.22,18.22 0 0 1 2.28,-4.51 16.42,16.42 0 0 1 10.28,-6.58 c 3.87,-0.76 8,0.26 11.85,0.63 a 0.43,0.43 0 0 0 0.36,-0.67 c 0.35,0 0.71,0 1.06,0.08 a 10.26,10.26 0 0 1 3.03,1.55 3,3 0 0 1 0.8,2 c 0,0 0,0 0,0 v 0.06 h 0.05 a 12.54,12.54 0 0 0 0.49,-1.72 3.14,3.14 0 0 0 -0.6,-0.84 c 0.23,0.13 0.45,0.29 0.68,0.45 a 12.47,12.47 0 0 0 0.19,-1.84 6.59,6.59 0 0 0 -1.37,-1.15 h 0.12 l -0.08,-0.06 c -0.43,-0.36 0,-1 0.46,-0.73 l 0.89,0.6 v -0.77 c -3.6,-1.31 -8.73,0 -12.46,-0.42 -4.51,-0.46 -7.74,-3 -7.61,-8 a 22.41,22.41 0 0 1 0.94,-5.649995 h -7.42 a 11.54,11.54 0 0 0 -5.99,1.68 z"
     class="cls-5" />
  <path
     style="fill:#d64d4d"
     id="path1022"
     d="m 140.9585,108.39122 c -0.41,0.23 -0.05,1 0.43,0.88 a 6.52,6.52 0 0 1 4.46,0.52 c 0,-0.39 -0.08,-0.77 -0.14,-1.15 a 4.21,4.21 0 0 0 -4.75,-0.25 z"
     class="cls-5" />
  <path
     style="fill:#dadada"
     id="path1024"
     d="m 144.9985,118.71122 0.06,-0.16 c 0,-0.05 0,-0.1 0,-0.14 a 0.42,0.42 0 0 0 -0.06,0.3 z"
     class="cls-3" />
  <path
     style="fill:#7eaad9"
     id="path1026"
     d="m 108.9785,9.0012245 c 55.19,0 99.94,43.7500005 99.94,97.7199955 0,53.97 -44.75,97.72 -99.94,97.72 -55.189999,0 -99.9399994,-43.75 -99.9399994,-97.72 0,-53.969995 44.7400004,-97.7199955 99.9399994,-97.7199955 m 0,-8.99999999 A 109.39,109.39 0 0 0 31.978501,31.181225 a 105.21,105.21 0 0 0 0,151.079995 110.57,110.57 0 0 0 153.919999,0 105.21,105.21 0 0 0 0,-151.079995 109.39,109.39 0 0 0 -77,-31.18000049 z"
     class="cls-7" />
  <path
     style="fill:#d37e7e"
     id="path1028"
     d="m 116.5085,106.72122 c 0,3.1 -3.47,5.3 -6.57,5.3 -3.1,0 -5.61,-1.15 -5.61,-4.24 0,-3.09 3.7,-6 6.8,-6 3.1,0 5.38,1.84 5.38,4.94 z"
     class="cls-8" />
  <path
     style="fill:#d37e7e"
     id="path1030"
     d="m 167.0885,48.331225 c 0.82,3 -1.95,6 -4.95,6.84 -3,0.84 -5.71,0.37 -6.52,-2.62 -0.81,-2.99 2,-6.8 5,-7.61 3,-0.81 5.65,0.44 6.47,3.39 z"
     class="cls-8" />
  <ellipse
     style="fill:#75a0d4"
     id="ellipse1032"
     ry="1.33"
     rx="1.14"
     cy="87.291222"
     cx="168.71849"
     class="cls-1" />
  <g
     id="text1041"
     style="font-style:normal;font-variant:normal;font-weight:normal;font-stretch:normal;font-size:48px;line-height:125%;font-family:'Work Sans';-inkscape-font-specification:'Work Sans';letter-spacing:0px;word-spacing:0px;fill:#c84e4e;fill-opacity:1;stroke:none;stroke-width:1px;stroke-linecap:butt;stroke-linejoin:miter;stroke-opacity:1"
     aria-label="fediverse
.network">
    <path
       id="path1082"
       style="font-style:normal;font-variant:normal;font-weight:600;font-stretch:normal;font-size:96px;font-family:'Work Sans';-inkscape-font-specification:'Work Sans Semi-Bold';text-align:center;text-anchor:middle;fill:#c84e4e;fill-opacity:1"
       d="m 259.82761,53.510158 c 0,-5.28 3.072,-7.392 8.256,-7.392 2.4,0 4.032,0.48 5.472,1.44 l 1.824,-8.736 c -2.016,-1.536 -5.664,-2.496 -9.984,-2.496 -10.752,0 -18.144,5.376 -18.144,16.224 v 5.76 h -8.352 v 9.792 h 8.352 v 38.208002 h 13.152 V 68.102158 h 14.592 v -9.792 h -15.168 z" />
    <path
       id="path1084"
       style="font-style:normal;font-variant:normal;font-weight:600;font-stretch:normal;font-size:96px;font-family:'Work Sans';-inkscape-font-specification:'Work Sans Semi-Bold';text-align:center;text-anchor:middle;fill:#c84e4e;fill-opacity:1"
       d="m 326.69011,82.118158 c 0,-15.744 -8.16,-24.768 -23.136,-24.768 -15.456,0 -24.192,9.216 -24.192,24.96 0,15.744 9.024,24.960002 24.96,24.960002 10.848,0 18.24,-4.128 21.312,-11.808002 l -10.752,-3.936 c -1.344,3.84 -4.992,5.952 -10.56,5.952 -6.432,0 -10.656,-3.264 -12,-10.176 h 33.984 c 0.192,-1.248 0.384,-3.84 0.384,-5.184 z m -23.232,-15.072 c 6.048,0 10.08,3.84 11.136,11.04 h -22.368 c 1.056,-7.296 4.896,-11.04 11.232,-11.04 z" />
    <path
       id="path1086"
       style="font-style:normal;font-variant:normal;font-weight:600;font-stretch:normal;font-size:96px;font-family:'Work Sans';-inkscape-font-specification:'Work Sans Semi-Bold';text-align:center;text-anchor:middle;fill:#c84e4e;fill-opacity:1"
       d="m 371.04511,37.286158 v 28.8 c -2.784,-5.28 -7.968,-8.736 -14.976,-8.736 -12.768,0 -20.544,9.312 -20.544,25.056 0,15.648 7.776,24.864002 20.544,24.864002 7.392,0 13.056,-3.936 15.84,-9.792002 l 0.576,8.832002 h 11.712 V 37.286158 Z m -11.136,59.904 c -6.912,0 -11.232,-5.088 -11.232,-14.88 0,-9.792 4.32,-14.88 11.232,-14.88 6.912,0 11.136,5.28 11.136,14.4 v 0.96 c 0,9.312 -4.32,14.4 -11.136,14.4 z" />
    <path
       id="path1088"
       style="font-style:normal;font-variant:normal;font-weight:600;font-stretch:normal;font-size:96px;font-family:'Work Sans';-inkscape-font-specification:'Work Sans Semi-Bold';text-align:center;text-anchor:middle;fill:#c84e4e;fill-opacity:1"
       d="m 404.73211,51.398158 c 5.472,0 8.16,-2.304 8.16,-7.008 0,-4.704 -2.688,-7.104 -8.16,-7.104 -5.472,0 -8.16,2.4 -8.16,7.104 0,4.704 2.688,7.008 8.16,7.008 z m 6.528,6.912 h -13.152 v 48.000002 h 13.152 z" />
    <path
       id="path1090"
       style="font-style:normal;font-variant:normal;font-weight:600;font-stretch:normal;font-size:96px;font-family:'Work Sans';-inkscape-font-specification:'Work Sans Semi-Bold';text-align:center;text-anchor:middle;fill:#c84e4e;fill-opacity:1"
       d="m 456.59611,58.310158 -12.096,38.784 -11.808,-38.784 h -14.112 l 18.24,48.000002 h 15.168 l 18.24,-48.000002 z" />
    <path
       id="path1092"
       style="font-style:normal;font-variant:normal;font-weight:600;font-stretch:normal;font-size:96px;font-family:'Work Sans';-inkscape-font-specification:'Work Sans Semi-Bold';text-align:center;text-anchor:middle;fill:#c84e4e;fill-opacity:1"
       d="m 521.69011,82.118158 c 0,-15.744 -8.16,-24.768 -23.136,-24.768 -15.456,0 -24.192,9.216 -24.192,24.96 0,15.744 9.024,24.960002 24.96,24.960002 10.848,0 18.24,-4.128 21.312,-11.808002 l -10.752,-3.936 c -1.344,3.84 -4.992,5.952 -10.56,5.952 -6.432,0 -10.656,-3.264 -12,-10.176 h 33.984 c 0.192,-1.248 0.384,-3.84 0.384,-5.184 z m -23.232,-15.072 c 6.048,0 10.08,3.84 11.136,11.04 h -22.368 c 1.056,-7.296 4.896,-11.04 11.232,-11.04 z" />
    <path
       id="path1094"
       style="font-style:normal;font-variant:normal;font-weight:600;font-stretch:normal;font-size:96px;font-family:'Work Sans';-inkscape-font-specification:'Work Sans Semi-Bold';text-align:center;text-anchor:middle;fill:#c84e4e;fill-opacity:1"
       d="m 559.90111,57.350158 c -7.488,0 -12.384,3.744 -14.88,10.368 l -0.864,-9.408 h -11.424 v 48.000002 h 13.152 V 81.446158 c 0,-8.736 5.76,-12.96 11.52,-12.96 2.496,0 4.704,0.576 6.048,1.44 l 1.632,-11.52 c -1.152,-0.672 -3.072,-1.056 -5.184,-1.056 z" />
    <path
       id="path1096"
       style="font-style:normal;font-variant:normal;font-weight:600;font-stretch:normal;font-size:96px;font-family:'Work Sans';-inkscape-font-specification:'Work Sans Semi-Bold';text-align:center;text-anchor:middle;fill:#c84e4e;fill-opacity:1"
       d="m 590.54461,107.27016 c 14.304,0 21.888,-6.24 21.888,-14.880002 0,-7.968 -5.184,-12.192 -19.2,-14.976 -8.064,-1.632 -10.464,-3.264 -10.464,-5.856 0,-2.496 3.264,-4.608 8.64,-4.608 6.432,0 10.272,2.496 13.056,7.488 l 8.16,-6.912 c -4.416,-6.912 -10.368,-10.176 -21.408,-10.176 -14.208,0 -21.6,7.68 -21.6,15.456 0,7.968 4.992,12.576 19.968,15.552 7.008,1.44 9.6,2.784 9.6,4.992 0,2.592 -3.168,4.32 -8.832,4.32 -6.528,0 -11.712,-1.728 -14.4,-7.488 l -7.68,7.872 c 4.416,6.528002 12.384,9.216002 22.272,9.216002 z" />
    <path
       id="path1098"
       style="font-style:normal;font-variant:normal;font-weight:600;font-stretch:normal;font-size:96px;font-family:'Work Sans';-inkscape-font-specification:'Work Sans Semi-Bold';text-align:center;text-anchor:middle;fill:#c84e4e;fill-opacity:1"
       d="m 667.56511,82.118158 c 0,-15.744 -8.16,-24.768 -23.136,-24.768 -15.456,0 -24.192,9.216 -24.192,24.96 0,15.744 9.024,24.960002 24.96,24.960002 10.848,0 18.24,-4.128 21.312,-11.808002 l -10.752,-3.936 c -1.344,3.84 -4.992,5.952 -10.56,5.952 -6.432,0 -10.656,-3.264 -12,-10.176 h 33.984 c 0.192,-1.248 0.384,-3.84 0.384,-5.184 z m -23.232,-15.072 c 6.048,0 10.08,3.84 11.136,11.04 h -22.368 c 1.056,-7.296 4.896,-11.04 11.232,-11.04 z" />
    <path
       id="path1100"
       style="font-size:96px;text-align:center;text-anchor:middle;fill:#c84e4e;fill-opacity:1"
       d="m 261.08911,167.27016 c -3.744,0 -6.24,2.496 -6.24,6.24 0,3.744 2.496,6.24 6.24,6.24 3.744,0 6.24,-2.496 6.24,-6.24 0,-3.744 -2.496,-6.24 -6.24,-6.24 z" />
    <path
       id="path1102"
       style="font-size:96px;text-align:center;text-anchor:middle;fill:#c84e4e;fill-opacity:1"
       d="m 306.07711,129.83016 c -6.624,0 -12.768,2.4 -16.128,8.448 l -0.48,-7.488 h -6.72 v 48 h 7.68 v -25.536 c 0,-12.288 7.872,-16.704 14.88,-16.704 6.624,0 11.808,3.552 11.808,14.208 v 28.032 h 7.68 v -30.72 c 0,-12.384 -8.448,-18.24 -18.72,-18.24 z" />
    <path
       id="path1104"
       style="font-size:96px;text-align:center;text-anchor:middle;fill:#c84e4e;fill-opacity:1"
       d="m 383.37061,152.29416 c 0,-12.384 -7.584,-22.464 -21.504,-22.464 -14.496,0 -22.656,9.408 -22.656,24.96 0,15.552 8.736,24.96 23.232,24.96 10.368,0 16.32,-3.936 19.968,-10.464 l -6.432,-3.36 c -1.728,4.608 -6.528,7.104 -13.536,7.104 -8.832,0 -14.688,-5.664 -15.648,-15.36 h 36.192 c 0.192,-1.344 0.384,-3.168 0.384,-5.376 z m -21.504,-15.744 c 8.16,0 13.056,5.472 14.112,14.304 h -29.088 c 1.152,-9.024 6.432,-14.304 14.976,-14.304 z" />
    <path
       id="path1106"
       style="font-size:96px;text-align:center;text-anchor:middle;fill:#c84e4e;fill-opacity:1"
       d="m 423.06211,168.99816 c -2.208,2.208 -4.704,3.552 -8.16,3.552 -4.224,0 -7.2,-2.304 -7.2,-7.008 v -28.128 h 17.76 v -6.624 h -17.76 v -13.632 l -7.68,2.112 v 11.52 h -9.6 v 6.624 h 9.6 v 29.472 c 0.096,9.312 6.24,12.864 13.344,12.864 5.28,0 9.408,-1.632 12.384,-4.32 z" />
    <path
       id="path1108"
       style="font-size:96px;text-align:center;text-anchor:middle;fill:#c84e4e;fill-opacity:1"
       d="m 497.83861,130.79016 -12.096,39.072 -13.056,-39.072 h -7.68 l -13.056,39.072 -12.096,-39.072 h -8.544 l 16.704,48 h 7.68 l 12.768,-38.208 13.536,38.208 h 7.68 l 16.704,-48 z" />
    <path
       id="path1110"
       style="font-size:96px;text-align:center;text-anchor:middle;fill:#c84e4e;fill-opacity:1"
       d="m 537.56761,129.83016 c -14.496,0 -23.232,9.408 -23.232,24.96 0,15.552 8.736,24.96 23.232,24.96 14.496,0 23.232,-9.408 23.232,-24.96 0,-15.552 -8.736,-24.96 -23.232,-24.96 z m 0,6.624 c 9.696,0 15.552,6.912 15.552,18.336 0,11.424 -5.856,18.336 -15.552,18.336 -9.696,0 -15.552,-6.912 -15.552,-18.336 0,-11.424 5.856,-18.336 15.552,-18.336 z" />
    <path
       id="path1112"
       style="font-size:96px;text-align:center;text-anchor:middle;fill:#c84e4e;fill-opacity:1"
       d="m 598.28011,129.83016 c -7.488,0 -12.672,2.976 -15.36,8.832 l -1.056,-7.872 h -6.24 v 48 h 7.68 v -25.92 c 0,-10.752 6.912,-15.84 12.672,-15.84 2.496,0 4.608,0.48 6.048,1.248 l 1.536,-7.488 c -1.44,-0.768 -3.648,-0.96 -5.28,-0.96 z" />
    <path
       id="path1114"
       style="font-size:96px;text-align:center;text-anchor:middle;fill:#c84e4e;fill-opacity:1"
       d="m 648.79561,178.79016 h 9.312 l -19.872,-29.28 18.72,-18.72 h -9.6 l -24.864,24.864 v -46.944 h -7.68 v 70.08 h 7.68 v -13.536 l 10.176,-10.176 z" />
  </g>
</svg>
