<svg xmlns="http://www.w3.org/2000/svg" viewBox="0 0 120 60"><path d="M70.7 50.8h-.2c-2.4 6-8.4 8.7-14.6 8.7-8 0-13.9-4-13.9-12.5 0-11.1 12.3-11.8 20.4-11.8h8.4v-2.9c0-7-3.9-10.4-11-10.4-6 0-10.6 2.4-11.4 8.4h-4.9c1-8.6 7.6-11.8 15.9-11.8 10 0 15.7 3.5 15.7 13.7v23.1h3.5v3.3h-7.9v-7.8zm-13.9 5.4c10.4 0 13.9-8.4 13.9-17.8h-9.1c-5.8 0-14.8 1-14.8 8.8 0 5.7 4.7 9 10 9zM120 22.8v-3.4h-16.2v3.4h5.2l-18.6 18.5v-35.3h-8.9v3.3h4.6v46h-4.4v3.3h15.2v-3.3h-6.5v-9.3l8.9-8.7 11.4 18h-5.4v3.3h14.7v-3.3h-4l-13.5-21.2 11.5-11.3zM18.6 18.6c11.4 0 18.6 8.2 18.6 20.5s-7.2 20.4-18.6 20.4-18.6-8.2-18.6-20.5 7.2-20.4 18.6-20.4zm0 37.6c4.4 0 13.8-2.6 13.8-17.2s-9.4-17.1-13.8-17.1-13.8 2.6-13.8 17.2 9.5 17.1 13.8 17.1z" fill="#fff" /></svg>
