<?xml version="1.0" encoding="UTF-8"?>
<svg width="143px" height="40px" viewBox="0 0 143 40" version="1.1" xmlns="http://www.w3.org/2000/svg" xmlns:xlink="http://www.w3.org/1999/xlink">
    <!-- Generator: sketchtool 63.1 (101010) - https://sketch.com -->
    <title>A1DBA971-E19A-4A28-BBA6-4A646D74DC2A</title>
    <desc>Created with sketchtool.</desc>
    <g id="OCA" stroke="none" stroke-width="1" fill="none" fill-rule="evenodd">
        <g id="index-1140" transform="translate(-156.000000, -16.000000)">
            <g id="header" transform="translate(-1.000000, 0.000000)">
                <g id="logo" transform="translate(157.000000, 16.000000)">
                    <rect id="Rectangle" fill="#28292B" x="5" y="4" width="138" height="33" rx="16.5"></rect>
                    <rect id="Rectangle" fill="#FF3C3C" x="113" y="11" width="1" height="18"></rect>
                    <path d="M120.12,23 C120.253333,23 120.346667,22.9716667 120.4,22.915 C120.453333,22.8583333 120.49,22.8033333 120.51,22.75 L120.51,22.75 L120.94,21.64 L124.1,21.64 L124.53,22.75 C124.55,22.8033333 124.586667,22.8583333 124.64,22.915 C124.693333,22.9716667 124.786667,23 124.92,23 L124.92,23 L125.64,23 C125.713333,23 125.776667,22.9733333 125.83,22.92 C125.883333,22.8666667 125.91,22.8033333 125.91,22.73 C125.91,22.7033333 125.906667,22.68 125.9,22.66 L125.9,22.66 L123.45,16.34 C123.41,16.2266667 123.363333,16.1416667 123.31,16.085 C123.256667,16.0283333 123.176667,16 123.07,16 L123.07,16 L121.97,16 C121.863333,16 121.783333,16.0283333 121.73,16.085 C121.676667,16.1416667 121.63,16.2266667 121.59,16.34 L121.59,16.34 L119.14,22.66 C119.133333,22.68 119.13,22.7033333 119.13,22.73 C119.13,22.8033333 119.156667,22.8666667 119.21,22.92 C119.263333,22.9733333 119.326667,23 119.4,23 L119.4,23 L120.12,23 Z M123.62,20.39 L121.42,20.39 L122.52,17.54 L123.62,20.39 Z M129.41,23 C129.483333,23 129.546667,22.9733333 129.6,22.92 C129.653333,22.8666667 129.68,22.8033333 129.68,22.73 L129.68,22.73 L129.68,17.25 L131.48,17.25 C131.553333,17.25 131.616667,17.2233333 131.67,17.17 C131.723333,17.1166667 131.75,17.0533333 131.75,16.98 L131.75,16.98 L131.75,16.27 C131.75,16.1966667 131.723333,16.1333333 131.67,16.08 C131.616667,16.0266667 131.553333,16 131.48,16 L131.48,16 L126.53,16 C126.456667,16 126.393333,16.0266667 126.34,16.08 C126.286667,16.1333333 126.26,16.1966667 126.26,16.27 L126.26,16.27 L126.26,16.98 C126.26,17.0533333 126.286667,17.1166667 126.34,17.17 C126.393333,17.2233333 126.456667,17.25 126.53,17.25 L126.53,17.25 L128.33,17.25 L128.33,22.73 C128.33,22.8033333 128.356667,22.8666667 128.41,22.92 C128.463333,22.9733333 128.526667,23 128.6,23 L128.6,23 L129.41,23 Z" id="AT" fill="#FFFFFF" fill-rule="nonzero"></path>
                    <path d="M50.42,29.1 C50.92,29.1 51.345,29.0233333 51.695,28.87 C52.045,28.7166667 52.3316667,28.525 52.555,28.295 C52.7783333,28.065 52.9433333,27.82 53.05,27.56 C53.1566667,27.3 53.2133333,27.06 53.22,26.84 C53.22,26.78 53.1983333,26.7283333 53.155,26.685 C53.1116667,26.6416667 53.06,26.62 53,26.62 L53,26.62 L52.54,26.62 C52.4866667,26.62 52.4333333,26.6383333 52.38,26.675 C52.3266667,26.7116667 52.2933333,26.7666667 52.28,26.84 C52.24,27.0066667 52.1816667,27.1716667 52.105,27.335 C52.0283333,27.4983333 51.9183333,27.6433333 51.775,27.77 C51.6316667,27.8966667 51.45,28 51.23,28.08 C51.01,28.16 50.74,28.2 50.42,28.2 C49.8266667,28.2 49.3716667,28.0283333 49.055,27.685 C48.7383333,27.3416667 48.57,26.8933333 48.55,26.34 C48.5366667,26.04 48.53,25.76 48.53,25.5 C48.53,25.24 48.5366667,24.96 48.55,24.66 C48.57,24.1066667 48.7383333,23.6583333 49.055,23.315 C49.3716667,22.9716667 49.8266667,22.8 50.42,22.8 C50.74,22.8 51.01,22.84 51.23,22.92 C51.45,23 51.6316667,23.1033333 51.775,23.23 C51.9183333,23.3566667 52.0283333,23.5016667 52.105,23.665 C52.1816667,23.8283333 52.24,23.9933333 52.28,24.16 C52.2933333,24.2333333 52.3266667,24.2883333 52.38,24.325 C52.4333333,24.3616667 52.4866667,24.38 52.54,24.38 L52.54,24.38 L53,24.38 C53.06,24.38 53.1116667,24.3583333 53.155,24.315 C53.1983333,24.2716667 53.22,24.22 53.22,24.16 C53.2133333,23.94 53.1566667,23.7 53.05,23.44 C52.9433333,23.18 52.7783333,22.935 52.555,22.705 C52.3316667,22.475 52.045,22.2833333 51.695,22.13 C51.345,21.9766667 50.92,21.9 50.42,21.9 C49.9866667,21.9 49.6,21.9683333 49.26,22.105 C48.92,22.2416667 48.6283333,22.43 48.385,22.67 C48.1416667,22.91 47.9533333,23.1966667 47.82,23.53 C47.6866667,23.8633333 47.6133333,24.2233333 47.6,24.61 C47.58,25.2033333 47.58,25.7966667 47.6,26.39 C47.6133333,26.7833333 47.6866667,27.145 47.82,27.475 C47.9533333,27.805 48.1416667,28.09 48.385,28.33 C48.6283333,28.57 48.92,28.7583333 49.26,28.895 C49.6,29.0316667 49.9866667,29.1 50.42,29.1 Z M57.36,29 C57.4933333,29 57.5866667,28.9716667 57.64,28.915 C57.6933333,28.8583333 57.73,28.8033333 57.75,28.75 L57.75,28.75 L58.27,27.42 L61.74,27.42 L62.26,28.75 C62.28,28.8033333 62.3166667,28.8583333 62.37,28.915 C62.4233333,28.9716667 62.5166667,29 62.65,29 L62.65,29 L63.02,29 C63.08,29 63.1316667,28.9783333 63.175,28.935 C63.2183333,28.8916667 63.24,28.84 63.24,28.78 C63.24,28.7466667 63.2266667,28.7 63.2,28.64 L63.2,28.64 L60.76,22.33 C60.7266667,22.2566667 60.6766667,22.1833333 60.61,22.11 C60.5433333,22.0366667 60.4433333,22 60.31,22 L60.31,22 L59.71,22 C59.5766667,22 59.4766667,22.0366667 59.41,22.11 C59.3433333,22.1833333 59.2933333,22.2566667 59.26,22.33 L59.26,22.33 L56.81,28.64 C56.7833333,28.7 56.77,28.7466667 56.77,28.78 C56.77,28.84 56.7916667,28.8916667 56.835,28.935 C56.8783333,28.9783333 56.93,29 56.99,29 L56.99,29 L57.36,29 Z M61.39,26.52 L58.62,26.52 L60.01,22.95 L61.39,26.52 Z M69.39,29.1 C69.7966667,29.1 70.165,29.05 70.495,28.95 C70.825,28.85 71.1066667,28.71 71.34,28.53 C71.5733333,28.35 71.755,28.135 71.885,27.885 C72.015,27.635 72.08,27.36 72.08,27.06 C72.08,26.8133333 72.0416667,26.5916667 71.965,26.395 C71.8883333,26.1983333 71.7666667,26.025 71.6,25.875 C71.4333333,25.725 71.2183333,25.59 70.955,25.47 C70.6916667,25.35 70.37,25.24 69.99,25.14 C69.6166667,25.04 69.3,24.95 69.04,24.87 C68.78,24.79 68.565,24.7016667 68.395,24.605 C68.225,24.5083333 68.1016667,24.4 68.025,24.28 C67.9483333,24.16 67.91,24.0133333 67.91,23.84 C67.91,23.6666667 67.95,23.515 68.03,23.385 C68.11,23.255 68.2166667,23.1466667 68.35,23.06 C68.4833333,22.9733333 68.635,22.9083333 68.805,22.865 C68.975,22.8216667 69.1533333,22.8 69.34,22.8 C69.5866667,22.8 69.8033333,22.835 69.99,22.905 C70.1766667,22.975 70.335,23.0583333 70.465,23.155 C70.595,23.2516667 70.6983333,23.3516667 70.775,23.455 C70.8516667,23.5583333 70.9066667,23.6433333 70.94,23.71 C70.9866667,23.8033333 71.0316667,23.8633333 71.075,23.89 C71.1183333,23.9166667 71.1766667,23.93 71.25,23.93 L71.25,23.93 L71.66,23.93 C71.72,23.93 71.7733333,23.9083333 71.82,23.865 C71.8666667,23.8216667 71.8866667,23.77 71.88,23.71 C71.8733333,23.5433333 71.8133333,23.355 71.7,23.145 C71.5866667,22.935 71.4216667,22.7383333 71.205,22.555 C70.9883333,22.3716667 70.725,22.2166667 70.415,22.09 C70.105,21.9633333 69.7466667,21.9 69.34,21.9 C68.94,21.9 68.5916667,21.955 68.295,22.065 C67.9983333,22.175 67.7516667,22.32 67.555,22.5 C67.3583333,22.68 67.21,22.8866667 67.11,23.12 C67.01,23.3533333 66.96,23.5933333 66.96,23.84 C66.96,24.0666667 66.9916667,24.2766667 67.055,24.47 C67.1183333,24.6633333 67.2233333,24.84 67.37,25 C67.5166667,25.16 67.7066667,25.3016667 67.94,25.425 C68.1733333,25.5483333 68.4566667,25.6533333 68.79,25.74 C69.1566667,25.8333333 69.485,25.9216667 69.775,26.005 C70.065,26.0883333 70.31,26.18 70.51,26.28 C70.71,26.38 70.8633333,26.4916667 70.97,26.615 C71.0766667,26.7383333 71.13,26.8866667 71.13,27.06 C71.13,27.2333333 71.0833333,27.39 70.99,27.53 C70.8966667,27.67 70.77,27.79 70.61,27.89 C70.45,27.99 70.265,28.0666667 70.055,28.12 C69.845,28.1733333 69.6233333,28.2 69.39,28.2 C69.1166667,28.2 68.88,28.1666667 68.68,28.1 C68.48,28.0333333 68.31,27.9516667 68.17,27.855 C68.03,27.7583333 67.9183333,27.655 67.835,27.545 C67.7516667,27.435 67.69,27.3333333 67.65,27.24 C67.61,27.1466667 67.565,27.0866667 67.515,27.06 C67.465,27.0333333 67.4066667,27.02 67.34,27.02 L67.34,27.02 L66.93,27.02 C66.87,27.02 66.8183333,27.0416667 66.775,27.085 C66.7316667,27.1283333 66.71,27.18 66.71,27.24 C66.7166667,27.4533333 66.7883333,27.67 66.925,27.89 C67.0616667,28.11 67.2466667,28.31 67.48,28.49 C67.7133333,28.67 67.9933333,28.8166667 68.32,28.93 C68.6466667,29.0433333 69.0033333,29.1 69.39,29.1 Z M77.05,29 C77.1233333,29 77.1866667,28.9733333 77.24,28.92 C77.2933333,28.8666667 77.32,28.8033333 77.32,28.73 L77.32,28.73 L77.32,22.27 C77.32,22.1966667 77.2933333,22.1333333 77.24,22.08 C77.1866667,22.0266667 77.1233333,22 77.05,22 L77.05,22 L76.64,22 C76.5666667,22 76.5033333,22.0266667 76.45,22.08 C76.3966667,22.1333333 76.37,22.1966667 76.37,22.27 L76.37,22.27 L76.37,28.73 C76.37,28.8033333 76.3966667,28.8666667 76.45,28.92 C76.5033333,28.9733333 76.5666667,29 76.64,29 L76.64,29 L77.05,29 Z M82.72,29 C82.7933333,29 82.8566667,28.9733333 82.91,28.92 C82.9633333,28.8666667 82.99,28.8033333 82.99,28.73 L82.99,28.73 L82.99,23.81 L86.24,28.7 C86.2866667,28.7733333 86.3416667,28.8416667 86.405,28.905 C86.4683333,28.9683333 86.5466667,29 86.64,29 L86.64,29 L86.99,29 C87.0633333,29 87.1266667,28.9733333 87.18,28.92 C87.2333333,28.8666667 87.26,28.8033333 87.26,28.73 L87.26,28.73 L87.26,22.27 C87.26,22.1966667 87.2333333,22.1333333 87.18,22.08 C87.1266667,22.0266667 87.0633333,22 86.99,22 L86.99,22 L86.58,22 C86.5066667,22 86.4433333,22.0266667 86.39,22.08 C86.3366667,22.1333333 86.31,22.1966667 86.31,22.27 L86.31,22.27 L86.31,27.19 L83.06,22.3 C83.0133333,22.2266667 82.9583333,22.1583333 82.895,22.095 C82.8316667,22.0316667 82.7533333,22 82.66,22 L82.66,22 L82.31,22 C82.2366667,22 82.1733333,22.0266667 82.12,22.08 C82.0666667,22.1333333 82.04,22.1966667 82.04,22.27 L82.04,22.27 L82.04,28.73 C82.04,28.8033333 82.0666667,28.8666667 82.12,28.92 C82.1733333,28.9733333 82.2366667,29 82.31,29 L82.31,29 L82.72,29 Z M94.48,29.1 C94.92,29.1 95.3083333,29.03 95.645,28.89 C95.9816667,28.75 96.2666667,28.5566667 96.5,28.31 C96.7333333,28.0633333 96.9116667,27.775 97.035,27.445 C97.1583333,27.115 97.2266667,26.7633333 97.24,26.39 C97.26,25.7966667 97.26,25.2033333 97.24,24.61 C97.2333333,24.2366667 97.1683333,23.885 97.045,23.555 C96.9216667,23.225 96.7433333,22.9383333 96.51,22.695 C96.2766667,22.4516667 95.99,22.2583333 95.65,22.115 C95.31,21.9716667 94.92,21.9 94.48,21.9 C94.04,21.9 93.65,21.9716667 93.31,22.115 C92.97,22.2583333 92.6833333,22.4516667 92.45,22.695 C92.2166667,22.9383333 92.0383333,23.225 91.915,23.555 C91.7916667,23.885 91.7266667,24.2366667 91.72,24.61 C91.7,25.2033333 91.7,25.7966667 91.72,26.39 C91.7333333,26.7633333 91.8016667,27.115 91.925,27.445 C92.0483333,27.775 92.2266667,28.0633333 92.46,28.31 C92.6933333,28.5566667 92.9783333,28.75 93.315,28.89 C93.6516667,29.03 94.04,29.1 94.48,29.1 Z M94.48,28.2 C94.22,28.2 93.9816667,28.1616667 93.765,28.085 C93.5483333,28.0083333 93.36,27.8933333 93.2,27.74 C93.04,27.5866667 92.9133333,27.3933333 92.82,27.16 C92.7266667,26.9266667 92.6766667,26.6533333 92.67,26.34 C92.6566667,26.04 92.65,25.76 92.65,25.5 C92.65,25.24 92.6566667,24.96 92.67,24.66 C92.6766667,24.3466667 92.7266667,24.0733333 92.82,23.84 C92.9133333,23.6066667 93.04,23.4133333 93.2,23.26 C93.36,23.1066667 93.5483333,22.9916667 93.765,22.915 C93.9816667,22.8383333 94.22,22.8 94.48,22.8 C94.74,22.8 94.9783333,22.8383333 95.195,22.915 C95.4116667,22.9916667 95.6,23.1066667 95.76,23.26 C95.92,23.4133333 96.045,23.6066667 96.135,23.84 C96.225,24.0733333 96.2766667,24.3466667 96.29,24.66 C96.3033333,24.96 96.31,25.24 96.31,25.5 C96.31,25.76 96.3033333,26.04 96.29,26.34 C96.2766667,26.6533333 96.225,26.9266667 96.135,27.16 C96.045,27.3933333 95.92,27.5866667 95.76,27.74 C95.6,27.8933333 95.4116667,28.0083333 95.195,28.085 C94.9783333,28.1616667 94.74,28.2 94.48,28.2 Z M103.9,29.1 C104.306667,29.1 104.675,29.05 105.005,28.95 C105.335,28.85 105.616667,28.71 105.85,28.53 C106.083333,28.35 106.265,28.135 106.395,27.885 C106.525,27.635 106.59,27.36 106.59,27.06 C106.59,26.8133333 106.551667,26.5916667 106.475,26.395 C106.398333,26.1983333 106.276667,26.025 106.11,25.875 C105.943333,25.725 105.728333,25.59 105.465,25.47 C105.201667,25.35 104.88,25.24 104.5,25.14 C104.126667,25.04 103.81,24.95 103.55,24.87 C103.29,24.79 103.075,24.7016667 102.905,24.605 C102.735,24.5083333 102.611667,24.4 102.535,24.28 C102.458333,24.16 102.42,24.0133333 102.42,23.84 C102.42,23.6666667 102.46,23.515 102.54,23.385 C102.62,23.255 102.726667,23.1466667 102.86,23.06 C102.993333,22.9733333 103.145,22.9083333 103.315,22.865 C103.485,22.8216667 103.663333,22.8 103.85,22.8 C104.096667,22.8 104.313333,22.835 104.5,22.905 C104.686667,22.975 104.845,23.0583333 104.975,23.155 C105.105,23.2516667 105.208333,23.3516667 105.285,23.455 C105.361667,23.5583333 105.416667,23.6433333 105.45,23.71 C105.496667,23.8033333 105.541667,23.8633333 105.585,23.89 C105.628333,23.9166667 105.686667,23.93 105.76,23.93 L105.76,23.93 L106.17,23.93 C106.23,23.93 106.283333,23.9083333 106.33,23.865 C106.376667,23.8216667 106.396667,23.77 106.39,23.71 C106.383333,23.5433333 106.323333,23.355 106.21,23.145 C106.096667,22.935 105.931667,22.7383333 105.715,22.555 C105.498333,22.3716667 105.235,22.2166667 104.925,22.09 C104.615,21.9633333 104.256667,21.9 103.85,21.9 C103.45,21.9 103.101667,21.955 102.805,22.065 C102.508333,22.175 102.261667,22.32 102.065,22.5 C101.868333,22.68 101.72,22.8866667 101.62,23.12 C101.52,23.3533333 101.47,23.5933333 101.47,23.84 C101.47,24.0666667 101.501667,24.2766667 101.565,24.47 C101.628333,24.6633333 101.733333,24.84 101.88,25 C102.026667,25.16 102.216667,25.3016667 102.45,25.425 C102.683333,25.5483333 102.966667,25.6533333 103.3,25.74 C103.666667,25.8333333 103.995,25.9216667 104.285,26.005 C104.575,26.0883333 104.82,26.18 105.02,26.28 C105.22,26.38 105.373333,26.4916667 105.48,26.615 C105.586667,26.7383333 105.64,26.8866667 105.64,27.06 C105.64,27.2333333 105.593333,27.39 105.5,27.53 C105.406667,27.67 105.28,27.79 105.12,27.89 C104.96,27.99 104.775,28.0666667 104.565,28.12 C104.355,28.1733333 104.133333,28.2 103.9,28.2 C103.626667,28.2 103.39,28.1666667 103.19,28.1 C102.99,28.0333333 102.82,27.9516667 102.68,27.855 C102.54,27.7583333 102.428333,27.655 102.345,27.545 C102.261667,27.435 102.2,27.3333333 102.16,27.24 C102.12,27.1466667 102.075,27.0866667 102.025,27.06 C101.975,27.0333333 101.916667,27.02 101.85,27.02 L101.85,27.02 L101.44,27.02 C101.38,27.02 101.328333,27.0416667 101.285,27.085 C101.241667,27.1283333 101.22,27.18 101.22,27.24 C101.226667,27.4533333 101.298333,27.67 101.435,27.89 C101.571667,28.11 101.756667,28.31 101.99,28.49 C102.223333,28.67 102.503333,28.8166667 102.83,28.93 C103.156667,29.0433333 103.513333,29.1 103.9,29.1 Z" id="CASINOS" fill="#7E7F88" fill-rule="nonzero"></path>
                    <path d="M50.36,18.1 C50.8,18.1 51.1883333,18.03 51.525,17.89 C51.8616667,17.75 52.1466667,17.5566667 52.38,17.31 C52.6133333,17.0633333 52.7916667,16.775 52.915,16.445 C53.0383333,16.115 53.1066667,15.7633333 53.12,15.39 C53.14,14.7966667 53.14,14.2033333 53.12,13.61 C53.1133333,13.2366667 53.0483333,12.885 52.925,12.555 C52.8016667,12.225 52.6233333,11.9383333 52.39,11.695 C52.1566667,11.4516667 51.87,11.2583333 51.53,11.115 C51.19,10.9716667 50.8,10.9 50.36,10.9 C49.92,10.9 49.53,10.9716667 49.19,11.115 C48.85,11.2583333 48.5633333,11.4516667 48.33,11.695 C48.0966667,11.9383333 47.9183333,12.225 47.795,12.555 C47.6716667,12.885 47.6066667,13.2366667 47.6,13.61 C47.58,14.2033333 47.58,14.7966667 47.6,15.39 C47.6133333,15.7633333 47.6816667,16.115 47.805,16.445 C47.9283333,16.775 48.1066667,17.0633333 48.34,17.31 C48.5733333,17.5566667 48.8583333,17.75 49.195,17.89 C49.5316667,18.03 49.92,18.1 50.36,18.1 Z M50.36,17.2 C50.1,17.2 49.8616667,17.1616667 49.645,17.085 C49.4283333,17.0083333 49.24,16.8933333 49.08,16.74 C48.92,16.5866667 48.7933333,16.3933333 48.7,16.16 C48.6066667,15.9266667 48.5566667,15.6533333 48.55,15.34 C48.5366667,15.04 48.53,14.76 48.53,14.5 C48.53,14.24 48.5366667,13.96 48.55,13.66 C48.5566667,13.3466667 48.6066667,13.0733333 48.7,12.84 C48.7933333,12.6066667 48.92,12.4133333 49.08,12.26 C49.24,12.1066667 49.4283333,11.9916667 49.645,11.915 C49.8616667,11.8383333 50.1,11.8 50.36,11.8 C50.62,11.8 50.8583333,11.8383333 51.075,11.915 C51.2916667,11.9916667 51.48,12.1066667 51.64,12.26 C51.8,12.4133333 51.925,12.6066667 52.015,12.84 C52.105,13.0733333 52.1566667,13.3466667 52.17,13.66 C52.1833333,13.96 52.19,14.24 52.19,14.5 C52.19,14.76 52.1833333,15.04 52.17,15.34 C52.1566667,15.6533333 52.105,15.9266667 52.015,16.16 C51.925,16.3933333 51.8,16.5866667 51.64,16.74 C51.48,16.8933333 51.2916667,17.0083333 51.075,17.085 C50.8583333,17.1616667 50.62,17.2 50.36,17.2 Z M60.26,18 C60.3333333,18 60.3966667,17.9733333 60.45,17.92 C60.5033333,17.8666667 60.53,17.8033333 60.53,17.73 L60.53,17.73 L60.53,12.81 L63.78,17.7 C63.8266667,17.7733333 63.8816667,17.8416667 63.945,17.905 C64.0083333,17.9683333 64.0866667,18 64.18,18 L64.18,18 L64.53,18 C64.6033333,18 64.6666667,17.9733333 64.72,17.92 C64.7733333,17.8666667 64.8,17.8033333 64.8,17.73 L64.8,17.73 L64.8,11.27 C64.8,11.1966667 64.7733333,11.1333333 64.72,11.08 C64.6666667,11.0266667 64.6033333,11 64.53,11 L64.53,11 L64.12,11 C64.0466667,11 63.9833333,11.0266667 63.93,11.08 C63.8766667,11.1333333 63.85,11.1966667 63.85,11.27 L63.85,11.27 L63.85,16.19 L60.6,11.3 C60.5533333,11.2266667 60.4983333,11.1583333 60.435,11.095 C60.3716667,11.0316667 60.2933333,11 60.2,11 L60.2,11 L59.85,11 C59.7766667,11 59.7133333,11.0266667 59.66,11.08 C59.6066667,11.1333333 59.58,11.1966667 59.58,11.27 L59.58,11.27 L59.58,17.73 C59.58,17.8033333 59.6066667,17.8666667 59.66,17.92 C59.7133333,17.9733333 59.7766667,18 59.85,18 L59.85,18 L60.26,18 Z M75.86,18 C75.9333333,18 75.9966667,17.9733333 76.05,17.92 C76.1033333,17.8666667 76.13,17.8033333 76.13,17.73 L76.13,17.73 L76.13,17.37 C76.13,17.2966667 76.1033333,17.2333333 76.05,17.18 C75.9966667,17.1266667 75.9333333,17.1 75.86,17.1 L75.86,17.1 L72.47,17.1 L72.47,11.27 C72.47,11.1966667 72.4433333,11.1333333 72.39,11.08 C72.3366667,11.0266667 72.2733333,11 72.2,11 L72.2,11 L71.79,11 C71.7166667,11 71.6533333,11.0266667 71.6,11.08 C71.5466667,11.1333333 71.52,11.1966667 71.52,11.27 L71.52,11.27 L71.52,17.73 C71.52,17.8033333 71.5466667,17.8666667 71.6,17.92 C71.6533333,17.9733333 71.7166667,18 71.79,18 L71.79,18 L75.86,18 Z M82.86,18 C82.9333333,18 82.9966667,17.9733333 83.05,17.92 C83.1033333,17.8666667 83.13,17.8033333 83.13,17.73 L83.13,17.73 L83.13,11.27 C83.13,11.1966667 83.1033333,11.1333333 83.05,11.08 C82.9966667,11.0266667 82.9333333,11 82.86,11 L82.86,11 L82.45,11 C82.3766667,11 82.3133333,11.0266667 82.26,11.08 C82.2066667,11.1333333 82.18,11.1966667 82.18,11.27 L82.18,11.27 L82.18,17.73 C82.18,17.8033333 82.2066667,17.8666667 82.26,17.92 C82.3133333,17.9733333 82.3766667,18 82.45,18 L82.45,18 L82.86,18 Z M90.53,18 C90.6033333,18 90.6666667,17.9733333 90.72,17.92 C90.7733333,17.8666667 90.8,17.8033333 90.8,17.73 L90.8,17.73 L90.8,12.81 L94.05,17.7 C94.0966667,17.7733333 94.1516667,17.8416667 94.215,17.905 C94.2783333,17.9683333 94.3566667,18 94.45,18 L94.45,18 L94.8,18 C94.8733333,18 94.9366667,17.9733333 94.99,17.92 C95.0433333,17.8666667 95.07,17.8033333 95.07,17.73 L95.07,17.73 L95.07,11.27 C95.07,11.1966667 95.0433333,11.1333333 94.99,11.08 C94.9366667,11.0266667 94.8733333,11 94.8,11 L94.8,11 L94.39,11 C94.3166667,11 94.2533333,11.0266667 94.2,11.08 C94.1466667,11.1333333 94.12,11.1966667 94.12,11.27 L94.12,11.27 L94.12,16.19 L90.87,11.3 C90.8233333,11.2266667 90.7683333,11.1583333 90.705,11.095 C90.6416667,11.0316667 90.5633333,11 90.47,11 L90.47,11 L90.12,11 C90.0466667,11 89.9833333,11.0266667 89.93,11.08 C89.8766667,11.1333333 89.85,11.1966667 89.85,11.27 L89.85,11.27 L89.85,17.73 C89.85,17.8033333 89.8766667,17.8666667 89.93,17.92 C89.9833333,17.9733333 90.0466667,18 90.12,18 L90.12,18 L90.53,18 Z M106.1,18 C106.173333,18 106.236667,17.9733333 106.29,17.92 C106.343333,17.8666667 106.37,17.8033333 106.37,17.73 L106.37,17.73 L106.37,17.37 C106.37,17.2966667 106.343333,17.2333333 106.29,17.18 C106.236667,17.1266667 106.173333,17.1 106.1,17.1 L106.1,17.1 L102.74,17.1 L102.74,14.91 L105.8,14.91 C105.873333,14.91 105.936667,14.8833333 105.99,14.83 C106.043333,14.7766667 106.07,14.7133333 106.07,14.64 L106.07,14.64 L106.07,14.28 C106.07,14.2066667 106.043333,14.1433333 105.99,14.09 C105.936667,14.0366667 105.873333,14.01 105.8,14.01 L105.8,14.01 L102.74,14.01 L102.74,11.9 L106.02,11.9 C106.093333,11.9 106.156667,11.8733333 106.21,11.82 C106.263333,11.7666667 106.29,11.7033333 106.29,11.63 L106.29,11.63 L106.29,11.27 C106.29,11.1966667 106.263333,11.1333333 106.21,11.08 C106.156667,11.0266667 106.093333,11 106.02,11 L106.02,11 L102.06,11 C101.986667,11 101.923333,11.0266667 101.87,11.08 C101.816667,11.1333333 101.79,11.1966667 101.79,11.27 L101.79,11.27 L101.79,17.73 C101.79,17.8033333 101.816667,17.8666667 101.87,17.92 C101.923333,17.9733333 101.986667,18 102.06,18 L102.06,18 L106.1,18 Z" id="ONLINE" fill="#7E7F88" fill-rule="nonzero"></path>
                    <g id="casino-chip-2" fill-rule="nonzero">
                        <circle id="Oval" fill="#F1F1F1" cx="20" cy="20" r="20"></circle>
                        <path d="M20,0 C19.5945312,0 19.1922656,0.013515625 18.7927344,0.03734375 C29.2761719,0.661640625 37.5855469,9.35976562 37.5855469,20 C37.5855469,30.6402344 29.2761719,39.3383594 18.7927344,39.9626563 C19.1922656,39.9864844 19.5945313,40 20,40 C31.0457031,40 40,31.0457031 40,20 C40,8.95429688 31.0457031,0 20,0 Z" id="Path" fill="#DFDFDF"></path>
                        <path d="M36.1271875,8.17140625 C34.9210156,6.5296875 33.4703906,5.0790625 31.8286719,3.8728125 L23.0396094,12.661875 L23.0396094,0.22953125 C22.0484375,0.0784375 21.0333594,0 20,0 C18.9666406,0 17.9515625,0.0784375 16.9604687,0.22953125 L16.9604687,12.661875 L8.17140625,3.8728125 C6.52960937,5.0790625 5.0790625,6.5296875 3.8728125,8.17140625 L12.661875,16.9604687 L0.22953125,16.9604687 C0.0784375,17.9516406 0,18.9666406 0,20 C0,21.0333594 0.0784375,22.0483594 0.22953125,23.0395312 L12.661875,23.0395312 L3.8728125,31.8285937 C5.07898437,33.4703125 6.52960937,34.9209375 8.17132812,36.1271094 L16.9603906,27.3380469 L16.9603906,39.7703906 C17.9515625,39.9215625 18.9666406,40 20,40 C21.0333594,40 22.0484375,39.9215625 23.0395312,39.7704687 L23.0395312,27.3380469 L31.8285937,36.1271094 C33.4703125,34.9209375 34.9209375,33.4703125 36.1271094,31.8285937 L27.3380469,23.0395312 L39.7703906,23.0395312 C39.9215625,22.0483594 40,21.0333594 40,20 C40,18.9666406 39.9215625,17.9516406 39.7704687,16.9604687 L27.3380469,16.9604687 L36.1271875,8.17140625 Z" id="Path" fill="#9CE516"></path>
                        <g id="Group" transform="translate(18.750000, 0.000000)" fill="#83BD17">
                            <path d="M0.042734375,0.03734375 C1.50632813,0.12453125 2.92734375,0.369375 4.28953125,0.75453125 L4.28953125,0.22953125 C3.29835937,0.0784375 2.28335938,-3.46944695e-17 1.25,-3.46944695e-17 C0.84453125,-3.46944695e-17 0.442265625,0.013515625 0.042734375,0.03734375 Z" id="Path"></path>
                            <path d="M0.042734375,39.9626563 C0.442265625,39.9864844 0.84453125,40 1.25,40 C2.28335937,40 3.29835937,39.9215625 4.28953125,39.7704687 L4.28953125,39.2454688 C2.92742188,39.6307031 1.50632813,39.8755469 0.042734375,39.9626563 Z" id="Path"></path>
                            <path d="M13.0785938,3.8728125 L12.0034375,4.94796875 C13.5382031,6.29148438 14.8655469,7.86585937 15.9314844,9.61703125 L17.3771094,8.17140625 C16.1709375,6.5296875 14.7203906,5.0790625 13.0785938,3.8728125 Z" id="Path"></path>
                            <path d="M21.0204688,16.9604688 L18.605,16.9604688 C18.7561719,17.9517187 18.8354688,18.9665625 18.8354688,20 C18.8354688,21.0334375 18.7560937,22.0482813 18.605,23.0395312 L21.0204688,23.0395312 C21.1715625,22.0483594 21.25,21.0333594 21.25,20 C21.25,18.9666406 21.1715625,17.9516406 21.0204688,16.9604688 Z" id="Path"></path>
                            <path d="M17.3771875,31.8285937 L15.9315625,30.3829687 C14.8655469,32.1341406 13.5382812,33.7085156 12.0035156,35.0520312 L13.0786719,36.1271875 C14.7203906,34.9209375 16.1709375,33.4703125 17.3771875,31.8285937 Z" id="Path"></path>
                        </g>
                        <circle id="Oval" fill="#DFDFDF" cx="20" cy="20" r="14.9698438"></circle>
                        <path d="M20,7.92757813 C13.3432031,7.92757813 7.92757813,13.3432031 7.92757813,20 C7.92757813,26.6567969 13.3432031,32.0724219 20,32.0724219 C26.6567188,32.0724219 32.0724219,26.6567969 32.0724219,20 C32.0724219,13.3432031 26.6567188,7.92757813 20,7.92757813 Z M20,31 C13.9346152,31 9,26.0654738 9,20 C9,13.9345262 13.9346152,9 20,9 C26.0653848,9 31,13.9345262 31,20 C31,26.0654738 26.0653848,31 20,31 Z" id="Shape" fill="#B8BCC0"></path>
                        <path d="M14.045,23.1 C14.485,23.1 14.8733333,23.03 15.21,22.89 C15.5466667,22.75 15.8316667,22.5566667 16.065,22.31 C16.2983333,22.0633333 16.4766667,21.775 16.6,21.445 C16.7233333,21.115 16.7916667,20.7633333 16.805,20.39 C16.825,19.7966667 16.825,19.2033333 16.805,18.61 C16.7983333,18.2366667 16.7333333,17.885 16.61,17.555 C16.4866667,17.225 16.3083333,16.9383333 16.075,16.695 C15.8416667,16.4516667 15.555,16.2583333 15.215,16.115 C14.875,15.9716667 14.485,15.9 14.045,15.9 C13.605,15.9 13.215,15.9716667 12.875,16.115 C12.535,16.2583333 12.2483333,16.4516667 12.015,16.695 C11.7816667,16.9383333 11.6033333,17.225 11.48,17.555 C11.3566667,17.885 11.2916667,18.2366667 11.285,18.61 C11.265,19.2033333 11.265,19.7966667 11.285,20.39 C11.2983333,20.7633333 11.3666667,21.115 11.49,21.445 C11.6133333,21.775 11.7916667,22.0633333 12.025,22.31 C12.2583333,22.5566667 12.5433333,22.75 12.88,22.89 C13.2166667,23.03 13.605,23.1 14.045,23.1 Z M14.045,22.2 C13.785,22.2 13.5466667,22.1616667 13.33,22.085 C13.1133333,22.0083333 12.925,21.8933333 12.765,21.74 C12.605,21.5866667 12.4783333,21.3933333 12.385,21.16 C12.2916667,20.9266667 12.2416667,20.6533333 12.235,20.34 C12.2216667,20.04 12.215,19.76 12.215,19.5 C12.215,19.24 12.2216667,18.96 12.235,18.66 C12.2416667,18.3466667 12.2916667,18.0733333 12.385,17.84 C12.4783333,17.6066667 12.605,17.4133333 12.765,17.26 C12.925,17.1066667 13.1133333,16.9916667 13.33,16.915 C13.5466667,16.8383333 13.785,16.8 14.045,16.8 C14.305,16.8 14.5433333,16.8383333 14.76,16.915 C14.9766667,16.9916667 15.165,17.1066667 15.325,17.26 C15.485,17.4133333 15.61,17.6066667 15.7,17.84 C15.79,18.0733333 15.8416667,18.3466667 15.855,18.66 C15.8683333,18.96 15.875,19.24 15.875,19.5 C15.875,19.76 15.8683333,20.04 15.855,20.34 C15.8416667,20.6533333 15.79,20.9266667 15.7,21.16 C15.61,21.3933333 15.485,21.5866667 15.325,21.74 C15.165,21.8933333 14.9766667,22.0083333 14.76,22.085 C14.5433333,22.1616667 14.305,22.2 14.045,22.2 Z M20.325,23.1 C20.825,23.1 21.25,23.0233333 21.6,22.87 C21.95,22.7166667 22.2366667,22.525 22.46,22.295 C22.6833333,22.065 22.8483333,21.82 22.955,21.56 C23.0616667,21.3 23.1183333,21.06 23.125,20.84 C23.125,20.78 23.1033333,20.7283333 23.06,20.685 C23.0166667,20.6416667 22.965,20.62 22.905,20.62 L22.905,20.62 L22.445,20.62 C22.3916667,20.62 22.3383333,20.6383333 22.285,20.675 C22.2316667,20.7116667 22.1983333,20.7666667 22.185,20.84 C22.145,21.0066667 22.0866667,21.1716667 22.01,21.335 C21.9333333,21.4983333 21.8233333,21.6433333 21.68,21.77 C21.5366667,21.8966667 21.355,22 21.135,22.08 C20.915,22.16 20.645,22.2 20.325,22.2 C19.7316667,22.2 19.2766667,22.0283333 18.96,21.685 C18.6433333,21.3416667 18.475,20.8933333 18.455,20.34 C18.4416667,20.04 18.435,19.76 18.435,19.5 C18.435,19.24 18.4416667,18.96 18.455,18.66 C18.475,18.1066667 18.6433333,17.6583333 18.96,17.315 C19.2766667,16.9716667 19.7316667,16.8 20.325,16.8 C20.645,16.8 20.915,16.84 21.135,16.92 C21.355,17 21.5366667,17.1033333 21.68,17.23 C21.8233333,17.3566667 21.9333333,17.5016667 22.01,17.665 C22.0866667,17.8283333 22.145,17.9933333 22.185,18.16 C22.1983333,18.2333333 22.2316667,18.2883333 22.285,18.325 C22.3383333,18.3616667 22.3916667,18.38 22.445,18.38 L22.445,18.38 L22.905,18.38 C22.965,18.38 23.0166667,18.3583333 23.06,18.315 C23.1033333,18.2716667 23.125,18.22 23.125,18.16 C23.1183333,17.94 23.0616667,17.7 22.955,17.44 C22.8483333,17.18 22.6833333,16.935 22.46,16.705 C22.2366667,16.475 21.95,16.2833333 21.6,16.13 C21.25,15.9766667 20.825,15.9 20.325,15.9 C19.8916667,15.9 19.505,15.9683333 19.165,16.105 C18.825,16.2416667 18.5333333,16.43 18.29,16.67 C18.0466667,16.91 17.8583333,17.1966667 17.725,17.53 C17.5916667,17.8633333 17.5183333,18.2233333 17.505,18.61 C17.485,19.2033333 17.485,19.7966667 17.505,20.39 C17.5183333,20.7833333 17.5916667,21.145 17.725,21.475 C17.8583333,21.805 18.0466667,22.09 18.29,22.33 C18.5333333,22.57 18.825,22.7583333 19.165,22.895 C19.505,23.0316667 19.8916667,23.1 20.325,23.1 Z M23.765,23 C23.8983333,23 23.9916667,22.9716667 24.045,22.915 C24.0983333,22.8583333 24.135,22.8033333 24.155,22.75 L24.155,22.75 L24.675,21.42 L28.145,21.42 L28.665,22.75 C28.685,22.8033333 28.7216667,22.8583333 28.775,22.915 C28.8283333,22.9716667 28.9216667,23 29.055,23 L29.055,23 L29.425,23 C29.485,23 29.5366667,22.9783333 29.58,22.935 C29.6233333,22.8916667 29.645,22.84 29.645,22.78 C29.645,22.7466667 29.6316667,22.7 29.605,22.64 L29.605,22.64 L27.165,16.33 C27.1316667,16.2566667 27.0816667,16.1833333 27.015,16.11 C26.9483333,16.0366667 26.8483333,16 26.715,16 L26.715,16 L26.115,16 C25.9816667,16 25.8816667,16.0366667 25.815,16.11 C25.7483333,16.1833333 25.6983333,16.2566667 25.665,16.33 L25.665,16.33 L23.215,22.64 C23.1883333,22.7 23.175,22.7466667 23.175,22.78 C23.175,22.84 23.1966667,22.8916667 23.24,22.935 C23.2833333,22.9783333 23.335,23 23.395,23 L23.395,23 L23.765,23 Z M27.795,20.52 L25.025,20.52 L26.415,16.95 L27.795,20.52 Z" id="OCA" fill="#73777B"></path>
                    </g>
                </g>
            </g>
        </g>
    </g>
</svg>