<svg xmlns="http://www.w3.org/2000/svg" fill="none" viewBox="0 0 256 256">
  <g clip-path="url(#a)">
    <path fill="#49A4DA" d="M205.683 36.508c-19.363-19.344-50.751-19.344-70.093 0-9.671 9.693-14.506 22.36-14.506 35.05v.642c.171-12.882-4.664-25.849-14.506-35.692-19.342-19.344-50.708-19.344-70.072 0-19.341 19.365-19.341 50.713 0 70.079 9.671 9.65 22.338 14.486 35.004 14.508-12.666 0-25.311 4.836-35.004 14.508-19.341 19.365-19.341 50.735 0 70.1 19.364 19.344 50.73 19.344 70.072 0 9.842-9.843 14.677-22.811 14.506-35.692v-48.895h48.889c12.902.15 25.847-4.665 35.71-14.508 19.342-19.365 19.342-50.735 0-70.1Z"/>
    <path fill="#170E4F" d="M163.687 220.125c-15.02 0-29.141-5.842-39.775-16.477-10.826-10.827-16.667-25.207-16.453-40.506V70.445c0-7.896 6.376-14.315 14.292-14.315 7.917 0 14.293 6.42 14.293 14.315v92.868c-.107 7.703 2.802 14.786 8.109 20.114 5.242 5.221 12.195 8.11 19.577 8.11 7.381 0 14.335-2.889 19.556-8.11 5.241-5.221 8.109-12.175 8.109-19.558 0-7.382-2.868-14.336-8.109-19.579-5.221-5.221-12.175-8.11-19.556-8.11-7.895 0-14.293-6.398-14.293-14.294 0-7.896 6.398-14.294 14.293-14.294 15.02 0 29.162 5.863 39.796 16.477 10.612 10.635 16.475 24.779 16.475 39.8 0 15.022-5.841 29.145-16.475 39.779-10.634 10.635-24.755 16.477-39.796 16.477h-.043ZM95.343 121.051c0 7.896-6.398 14.294-14.293 14.294s-14.292-6.398-14.292-14.294c0-7.896 6.397-14.294 14.292-14.294s14.293 6.398 14.293 14.294Z"/>
  </g>
  <defs>
    <clipPath id="a">
      <path fill="#fff" d="M22 22h212v212H22z"/>
    </clipPath>
  </defs>
</svg>
