<svg width="430" height="140" viewBox="0 0 430 140" fill="none" xmlns="http://www.w3.org/2000/svg">
<path d="M100.747 52.9731C99.2034 41.3527 89.2039 32.1796 77.3657 30.4149C75.3626 30.1152 67.7933 29.0164 50.2576 29.0164H50.1262C32.5741 29.0164 28.8141 30.1152 26.8109 30.4149C15.2846 32.1463 4.77632 40.3705 2.21492 52.1407C0.999897 57.9343 0.868543 64.3605 1.09841 70.254C1.4268 78.7113 1.49247 87.1352 2.24776 95.5592C2.77317 101.153 3.67623 106.697 4.97335 112.157C7.40339 122.246 17.2221 130.637 26.8438 134.05C37.1386 137.613 48.2217 138.212 58.8284 135.765C59.9941 135.482 61.1435 135.165 62.2929 134.799C64.8707 133.967 67.8918 133.034 70.1248 131.403C70.1577 131.386 70.1741 131.353 70.1905 131.32C70.2069 131.286 70.2233 131.253 70.2233 131.203V123.045C70.2233 123.045 70.2233 122.979 70.1905 122.946C70.1905 122.912 70.1577 122.879 70.1248 122.862C70.092 122.846 70.0592 122.829 70.0264 122.812C69.9934 122.812 69.9606 122.812 69.9278 122.812C63.1302 124.461 56.1521 125.293 49.1739 125.276C37.1386 125.276 33.904 119.483 32.9846 117.085C32.2456 115.004 31.7696 112.823 31.5725 110.626C31.5725 110.593 31.5725 110.559 31.5889 110.526C31.5889 110.493 31.6217 110.459 31.6546 110.443C31.6874 110.426 31.7202 110.409 31.753 110.393H31.868C38.5507 112.024 45.4139 112.857 52.2936 112.857C53.952 112.857 55.5938 112.857 57.2522 112.807C64.1646 112.607 71.4549 112.257 78.2688 110.909C78.4329 110.876 78.6136 110.842 78.7614 110.809C89.4996 108.711 99.7124 102.152 100.747 85.537C100.78 84.8878 100.878 78.678 100.878 78.0121C100.878 75.6979 101.617 61.6469 100.763 53.0065L100.747 52.9731Z" fill="url(#paint0_linear_2_2)"/>
<path d="M21.2613 59.4662C21.2613 56.0699 23.9377 53.3398 27.2543 53.3398C30.571 53.3398 33.2473 56.0867 33.2473 59.4662C33.2473 62.8458 30.571 65.5927 27.2543 65.5927C23.9377 65.5927 21.2613 62.8458 21.2613 59.4662Z" fill="white"/>
<path d="M110.418 64.7437V92.9124H99.499V65.5761C99.499 59.8158 97.1347 56.9023 92.3895 56.9023C87.1518 56.9023 84.5082 60.3819 84.5082 67.2242V82.1909H73.6716V67.2242C73.6716 60.3485 71.061 56.9023 65.7903 56.9023C61.0617 56.9023 58.6808 59.8158 58.6808 65.5761V92.8958H47.7784V64.7437C47.7784 59 49.2069 54.4217 52.0802 51.0256C55.0521 47.6293 58.9435 45.9145 63.7543 45.9145C69.3368 45.9145 73.5731 48.1121 76.3644 52.5072L79.09 57.1688L81.8156 52.5072C84.6068 48.1288 88.8266 45.9145 94.4255 45.9145C99.2363 45.9145 103.128 47.646 106.1 51.0256C108.973 54.4217 110.401 58.9667 110.401 64.7437H110.418ZM147.985 78.7447C150.251 76.2974 151.318 73.2675 151.318 69.5716C151.318 65.8757 150.234 62.8125 147.985 60.4818C145.818 58.0345 143.059 56.869 139.726 56.869C136.393 56.869 133.651 58.0345 131.467 60.4818C129.3 62.8125 128.216 65.8757 128.216 69.5716C128.216 73.2675 129.3 76.3307 131.467 78.7447C133.635 81.0755 136.393 82.2576 139.726 82.2576C143.059 82.2576 145.801 81.0922 147.985 78.7447V78.7447ZM151.318 47.0467H162.073V92.0967H151.318V86.7859C148.067 91.1976 143.568 93.3786 137.723 93.3786C131.878 93.3786 127.379 91.131 123.389 86.5362C119.465 81.9413 117.478 76.2642 117.478 69.6049C117.478 62.9456 119.481 57.3518 123.389 52.757C127.395 48.1621 132.157 45.8314 137.723 45.8314C143.289 45.8314 148.067 47.9957 151.318 52.3908V47.08V47.0467ZM198.26 68.7227C201.43 71.1698 203.006 74.5828 202.924 78.8946C202.924 83.4895 201.348 87.1022 198.096 89.5994C194.846 92.0467 190.921 93.2953 186.16 93.2953C177.572 93.2953 171.744 89.6827 168.656 82.5905L177.984 76.9135C179.23 80.7759 181.973 82.7737 186.16 82.7737C190.002 82.7737 191.906 81.5251 191.906 78.9112C191.906 77.0134 189.41 75.2986 184.32 73.9667C182.4 73.4339 180.808 72.8846 179.576 72.4351C177.818 71.7193 176.324 70.9035 175.076 69.9047C171.99 67.4574 170.414 64.2275 170.414 60.0821C170.414 55.6705 171.908 52.1576 174.912 49.6271C178 47.0134 181.759 45.7646 186.258 45.7646C193.433 45.7646 198.67 48.9112 202.103 55.3041L192.941 60.6981C191.611 57.6348 189.345 56.1032 186.258 56.1032C183.007 56.1032 181.431 57.3518 181.431 59.7991C181.431 61.6971 183.927 63.4119 189.017 64.7437C192.941 65.6427 196.027 66.9911 198.26 68.7227H198.277H198.26ZM232.446 58.2009H223.021V76.9468C223.021 79.1942 223.858 80.5594 225.451 81.1755C226.617 81.625 228.949 81.7081 232.463 81.5417V92.08C225.221 92.9789 219.967 92.2464 216.881 89.8324C213.793 87.5017 212.299 83.1566 212.299 76.9634V58.2009H205.058V47.0299H212.299V37.9401L223.053 34.4273V47.0467H232.479V58.2176H232.463L232.446 58.2009ZM266.729 78.4784C268.897 76.1477 269.979 73.1676 269.979 69.555C269.979 65.9423 268.897 62.9957 266.729 60.6315C264.545 58.3008 261.885 57.1188 258.635 57.1188C255.383 57.1188 252.723 58.2842 250.539 60.6315C248.455 63.0788 247.371 66.0256 247.371 69.555C247.371 73.0843 248.455 76.0311 250.539 78.4784C252.707 80.8092 255.383 81.9912 258.635 81.9912C261.885 81.9912 264.545 80.8259 266.729 78.4784ZM242.971 86.4861C238.717 81.8913 236.633 76.3142 236.633 69.555C236.633 62.7958 238.717 57.3019 242.971 52.7071C247.223 48.1121 252.477 45.7814 258.635 45.7814C264.791 45.7814 270.063 48.1121 274.298 52.7071C278.534 57.3019 280.719 62.9789 280.719 69.555C280.719 76.131 278.534 81.8913 274.298 86.4861C270.045 91.0812 264.874 93.3286 258.635 93.3286C252.395 93.3286 247.207 91.0812 242.971 86.4861ZM316.675 78.7282C318.843 76.2809 319.927 73.2509 319.927 69.555C319.927 65.8592 318.843 62.7958 316.675 60.465C314.509 58.0177 311.751 56.8525 308.417 56.8525C305.085 56.8525 302.325 58.0177 300.077 60.465C297.909 62.7958 296.825 65.8592 296.825 69.555C296.825 73.2509 297.909 76.3142 300.077 78.7282C302.342 81.0589 305.167 82.2409 308.417 82.2409C311.669 82.2409 314.493 81.0755 316.675 78.7282ZM319.927 29H330.681V92.08H319.927V86.7692C316.759 91.181 312.259 93.3618 306.415 93.3618C300.569 93.3618 296.005 91.1144 291.981 86.5194C288.057 81.9246 286.071 76.2476 286.071 69.5883C286.071 62.9291 288.073 57.3352 291.981 52.7404C295.971 48.1454 300.815 45.8147 306.415 45.8147C312.013 45.8147 316.759 47.9789 319.927 52.374V29.0166V29ZM368.462 78.4284C370.63 76.0977 371.714 73.1178 371.714 69.505C371.714 65.8925 370.63 62.9456 368.462 60.5816C366.296 58.2509 363.636 57.0689 360.368 57.0689C357.101 57.0689 354.458 58.2342 352.273 60.5816C350.187 63.029 349.103 65.9756 349.103 69.505C349.103 73.0345 350.187 75.9811 352.273 78.4284C354.441 80.7593 357.117 81.9413 360.368 81.9413C363.619 81.9413 366.279 80.7759 368.462 78.4284V78.4284ZM344.704 86.4363C340.468 81.8413 338.366 76.2642 338.366 69.505C338.366 62.7459 340.452 57.2519 344.704 52.6571C348.956 48.0622 354.21 45.7314 360.368 45.7314C366.525 45.7314 371.796 48.0622 376.031 52.6571C380.283 57.2519 382.451 62.9291 382.451 69.505C382.451 76.0811 380.283 81.8413 376.031 86.4363C371.779 91.0311 366.607 93.2787 360.368 93.2787C354.128 93.2787 348.939 91.0311 344.704 86.4363ZM428.984 64.3608V92.03H418.23V65.8091C418.23 62.8291 417.49 60.5816 415.963 58.8836C414.551 57.3518 412.547 56.5527 409.97 56.5527C403.896 56.5527 400.808 60.2486 400.808 67.7237V92.0467H390.054V47.0299H400.808V52.091C403.386 47.8623 407.49 45.7814 413.221 45.7814C417.801 45.7814 421.562 47.3963 424.486 50.7258C427.49 54.0555 428.984 58.5673 428.984 64.4107" fill="white"/>
<defs>
<linearGradient id="paint0_linear_2_2" x1="51.0785" y1="29.0164" x2="51.0785" y2="137.23" gradientUnits="userSpaceOnUse">
<stop stop-color="currentColor"/>
<stop offset="1" stop-color="#563ACC"/>
</linearGradient>
</defs>
</svg>
