<svg width="120" height="140" viewBox="0 0 120 140" fill="none" xmlns="http://www.w3.org/2000/svg">
<path d="M117.838 35.0625C116.026 21.7817 104.288 11.3155 90.3748 9.28739C88.0274 8.94469 79.1333 7.69751 58.5306 7.69751H58.3767C37.7683 7.69751 33.3469 8.94469 30.9995 9.28739C17.4732 11.2593 5.12069 20.6637 2.12372 34.1018C0.682209 40.7198 0.528372 48.0568 0.796162 54.7871C1.17791 64.4387 1.25197 74.0735 2.14081 83.6858C2.75529 90.0708 3.82722 96.4049 5.34859 102.641C8.19742 114.157 19.7295 123.742 31.028 127.652C43.1246 131.729 56.1336 132.406 68.5983 129.607C69.9696 129.292 71.3256 128.927 72.6665 128.511C75.6919 127.562 79.2416 126.5 81.8511 124.635C81.8869 124.609 81.9163 124.575 81.937 124.536C81.9577 124.497 81.9692 124.454 81.9708 124.41V115.096C81.9701 115.055 81.9602 115.014 81.9417 114.977C81.9232 114.941 81.8965 114.908 81.8638 114.883C81.831 114.858 81.7929 114.84 81.7523 114.831C81.7116 114.822 81.6695 114.822 81.6289 114.832C73.6429 116.713 65.4593 117.655 57.2486 117.641C43.1184 117.641 39.3181 111.028 38.2298 108.275C37.355 105.896 36.7996 103.415 36.5775 100.894C36.5752 100.851 36.5831 100.809 36.6005 100.77C36.6179 100.731 36.6443 100.697 36.6776 100.67C36.7109 100.644 36.7501 100.625 36.7921 100.616C36.8341 100.607 36.8777 100.608 36.9193 100.618C44.7724 102.486 52.8224 103.429 60.9008 103.427C62.8437 103.427 64.7809 103.427 66.7238 103.377C74.8487 103.152 83.4123 102.742 91.4061 101.202C91.6055 101.163 91.8049 101.129 91.9759 101.079C104.585 98.6913 116.584 91.1969 117.803 72.2195C117.849 71.4724 117.963 64.3938 117.963 63.6185C117.969 60.9837 118.823 44.9276 117.838 35.0625ZM98.4313 82.4161H85.1728V50.3938C85.1728 43.6523 82.324 40.2141 76.5295 40.2141C70.1595 40.2141 66.9688 44.2815 66.9688 52.3152V69.8432H53.7901V52.3152C53.7901 44.2815 50.5937 40.2141 44.2237 40.2141C38.4634 40.2141 35.5861 43.6523 35.5804 50.3938V82.4161H22.3333V49.4219C22.3333 42.6804 24.0787 37.3246 27.5695 33.3546C31.1704 29.394 35.8938 27.3603 41.7567 27.3603C48.5426 27.3603 53.6705 29.9333 57.0891 35.0737L60.388 40.5344L63.6927 35.0737C67.1112 29.9333 72.2391 27.3603 79.0137 27.3603C84.8709 27.3603 89.5942 29.394 93.2065 33.3546C96.6973 37.3209 98.4427 42.6767 98.4427 49.4219L98.4313 82.4161Z" fill="#FBFBFB"/>
</svg>
