<svg width="120" height="140" viewBox="0 0 120 140" fill="none" xmlns="http://www.w3.org/2000/svg">
<path d="M118.15 35.365C116.338 22.0842 104.601 11.618 90.6869 9.58988C88.3395 9.24718 79.4454 8 58.8427 8H58.6888C38.0804 8 33.659 9.24718 31.3116 9.58988C17.7853 11.5618 5.43279 20.9662 2.43582 34.4043C0.994312 41.0222 0.840475 48.3593 1.10827 55.0896C1.49001 64.7412 1.56408 74.3759 2.45291 83.9882C3.06739 90.3732 4.13933 96.7074 5.6607 102.943C8.50953 114.46 20.0416 124.044 31.3401 127.954C43.4367 132.032 56.4457 132.709 68.9104 129.909C70.2817 129.595 71.6377 129.23 72.9786 128.814C76.004 127.864 79.5537 126.803 82.1632 124.937C82.199 124.911 82.2284 124.877 82.2491 124.839C82.2698 124.8 82.2813 124.757 82.2829 124.713V115.398C82.2822 115.357 82.2723 115.317 82.2538 115.28C82.2353 115.243 82.2086 115.211 82.1759 115.186C82.1431 115.16 82.105 115.143 82.0644 115.134C82.0237 115.125 81.9816 115.125 81.941 115.134C73.955 117.015 65.7714 117.958 57.5607 117.943C43.4305 117.943 39.6302 111.331 38.5419 108.578C37.6671 106.199 37.1117 103.717 36.8896 101.196C36.8873 101.154 36.8952 101.111 36.9126 101.073C36.93 101.034 36.9564 101 36.9897 100.973C37.023 100.946 37.0622 100.927 37.1042 100.918C37.1463 100.909 37.1898 100.91 37.2314 100.921C45.0845 102.789 53.1345 103.732 61.2129 103.73C63.1558 103.73 65.093 103.73 67.0359 103.679C75.1608 103.454 83.7244 103.044 91.7182 101.505C91.9176 101.466 92.117 101.432 92.288 101.381C104.897 98.9938 116.896 91.4994 118.115 72.522C118.161 71.7748 118.275 64.6962 118.275 63.921C118.281 61.2862 119.135 45.2301 118.15 35.365ZM98.7434 82.7186H85.4849V50.6963C85.4849 43.9548 82.6361 40.5166 76.8416 40.5166C70.4716 40.5166 67.2809 44.584 67.2809 52.6177V70.1456H54.1022V52.6177C54.1022 44.584 50.9058 40.5166 44.5358 40.5166C38.7755 40.5166 35.8982 43.9548 35.8925 50.6963V82.7186H22.6454V49.7244C22.6454 42.9829 24.3908 37.6271 27.8816 33.6571C31.4825 29.6965 36.2059 27.6628 42.0688 27.6628C48.8547 27.6628 53.9826 30.2358 57.4012 35.3762L60.7001 40.8369L64.0048 35.3762C67.4234 30.2358 72.5513 27.6628 79.3258 27.6628C85.183 27.6628 89.9063 29.6965 93.5187 33.6571C97.0094 37.6234 98.7548 42.9792 98.7548 49.7244L98.7434 82.7186Z" fill="black"/>
</svg>
