<svg width="120" height="140" viewBox="0 0 120 140" fill="none" xmlns="http://www.w3.org/2000/svg">
<path d="M116.9 34.4524C115.107 21.1292 103.495 10.6295 89.73 8.59496C87.4076 8.25117 78.6085 7 58.2255 7H58.0733C37.6848 7 33.3106 8.25117 30.9882 8.59496C17.6062 10.5732 5.3855 20.0076 2.4205 33.4887C0.994373 40.1277 0.842177 47.4882 1.10711 54.24C1.48478 63.9225 1.55806 73.588 2.43741 83.231C3.04533 89.6364 4.10583 95.9908 5.61097 102.247C8.42941 113.8 19.8384 123.415 31.0163 127.337C42.9839 131.428 55.8541 132.107 68.1859 129.299C69.5425 128.983 70.8822 128.617 72.205 128.2C75.2038 127.247 78.7156 126.182 81.2972 124.311C81.3327 124.285 81.3617 124.251 81.3822 124.212C81.4027 124.173 81.4141 124.13 81.4156 124.086V114.741C81.415 114.7 81.4052 114.66 81.3868 114.623C81.3685 114.586 81.3422 114.553 81.3098 114.528C81.2773 114.503 81.2397 114.485 81.1994 114.476C81.1592 114.467 81.1175 114.467 81.0774 114.476C73.1766 116.363 65.0803 117.309 56.9572 117.294C42.9778 117.294 39.218 110.661 38.1414 107.899C37.2759 105.513 36.7264 103.023 36.5067 100.494C36.5044 100.451 36.5122 100.409 36.5294 100.37C36.5466 100.331 36.5728 100.297 36.6057 100.27C36.6387 100.243 36.6775 100.224 36.719 100.215C36.7606 100.206 36.8037 100.207 36.8449 100.218C44.6141 102.092 52.5783 103.038 60.5705 103.036C62.4926 103.036 64.4092 103.036 66.3313 102.985C74.3695 102.759 82.8417 102.348 90.7503 100.804C90.9476 100.764 91.1449 100.73 91.314 100.68C103.788 98.2845 115.66 90.7662 116.866 71.7282C116.911 70.9786 117.024 63.8774 117.024 63.0996C117.029 60.4564 117.875 44.349 116.9 34.4524Z" fill="url(#paint0_linear_2_33)"/>
<path d="M97.1368 49.4214V82.521H84.0198V50.3964C84.0198 43.6333 81.2013 40.1842 75.4686 40.1842C69.1666 40.1842 66.01 44.2645 66.01 52.3239V69.9078H52.9719V52.3239C52.9719 44.2645 49.8096 40.1842 43.5076 40.1842C37.8087 40.1842 34.9621 43.6333 34.9621 50.3964V82.521H21.8507V49.4214C21.8507 42.6583 23.5775 37.2854 27.031 33.3027C30.5935 29.3294 35.2665 27.2892 41.0668 27.2892C47.7803 27.2892 52.8535 29.8705 56.2356 35.0273L59.4994 40.5054L62.7688 35.0273C66.1509 29.8705 71.2241 27.2892 77.9263 27.2892C83.721 27.2892 88.394 29.3294 91.9678 33.3027C95.4175 37.2817 97.1405 42.6546 97.1368 49.4214Z" fill="white"/>
<defs>
<linearGradient id="paint0_linear_2_33" x1="59.1846" y1="7" x2="59.1846" y2="131" gradientUnits="userSpaceOnUse">
<stop stop-color="#6364FF"/>
<stop offset="1" stop-color="#563ACC"/>
</linearGradient>
</defs>
</svg>
