<svg width="430" height="141" viewBox="0 0 430 141" fill="none" xmlns="http://www.w3.org/2000/svg">
<path d="M100.747 53.9731C99.2034 42.3527 89.2039 33.1796 77.3657 31.4149C75.3626 31.1152 67.7933 30.0164 50.2576 30.0164H50.1262C32.5741 30.0164 28.8141 31.1152 26.8109 31.4149C15.2846 33.1463 4.77632 41.3705 2.21492 53.1407C0.999897 58.9343 0.868543 65.3605 1.09841 71.2539C1.4268 79.7113 1.49247 88.1352 2.24776 96.5592C2.77317 102.153 3.67623 107.697 4.97335 113.157C7.40339 123.246 17.2221 131.637 26.8438 135.05C37.1386 138.613 48.2217 139.212 58.8284 136.765C59.9941 136.482 61.1435 136.165 62.2929 135.799C64.8707 134.967 67.8918 134.034 70.1248 132.403C70.1577 132.386 70.1741 132.353 70.1905 132.32C70.2069 132.286 70.2233 132.253 70.2233 132.203V124.045C70.2233 124.045 70.2233 123.979 70.1905 123.946C70.1905 123.912 70.1577 123.879 70.1248 123.862C70.092 123.846 70.0592 123.829 70.0264 123.812C69.9934 123.812 69.9606 123.812 69.9278 123.812C63.1302 125.461 56.1521 126.293 49.1739 126.276C37.1386 126.276 33.904 120.483 32.9846 118.085C32.2456 116.004 31.7696 113.823 31.5725 111.626C31.5725 111.593 31.5725 111.559 31.5889 111.526C31.5889 111.493 31.6217 111.459 31.6546 111.443C31.6874 111.426 31.7202 111.409 31.753 111.393H31.868C38.5507 113.024 45.4139 113.857 52.2936 113.857C53.952 113.857 55.5938 113.857 57.2522 113.807C64.1646 113.607 71.4549 113.257 78.2688 111.909C78.4329 111.876 78.6136 111.842 78.7614 111.809C89.4996 109.711 99.7124 103.152 100.747 86.537C100.78 85.8878 100.878 79.678 100.878 79.0121C100.878 76.6979 101.617 62.6469 100.763 54.0065L100.747 53.9731Z" fill="white"/>
<path d="M21.2613 60.4662C21.2613 57.0699 23.9377 54.3398 27.2543 54.3398C30.571 54.3398 33.2473 57.0867 33.2473 60.4662C33.2473 63.8458 30.571 66.5927 27.2543 66.5927C23.9377 66.5927 21.2613 63.8458 21.2613 60.4662Z" fill="black"/>
<path d="M110.418 65.7437V93.9124H99.499V66.5761C99.499 60.8158 97.1347 57.9023 92.3895 57.9023C87.1518 57.9023 84.5082 61.3819 84.5082 68.2242V83.1909H73.6716V68.2242C73.6716 61.3485 71.061 57.9023 65.7903 57.9023C61.0617 57.9023 58.6808 60.8158 58.6808 66.5761V93.8958H47.7784V65.7437C47.7784 60 49.2069 55.4217 52.0802 52.0256C55.0521 48.6293 58.9435 46.9145 63.7543 46.9145C69.3368 46.9145 73.5731 49.1121 76.3644 53.5072L79.09 58.1688L81.8156 53.5072C84.6068 49.1288 88.8266 46.9145 94.4255 46.9145C99.2363 46.9145 103.128 48.646 106.1 52.0256C108.973 55.4217 110.401 59.9667 110.401 65.7437H110.418ZM147.985 79.7447C150.251 77.2974 151.318 74.2675 151.318 70.5716C151.318 66.8757 150.234 63.8125 147.985 61.4818C145.818 59.0345 143.059 57.869 139.726 57.869C136.393 57.869 133.651 59.0345 131.467 61.4818C129.3 63.8125 128.216 66.8757 128.216 70.5716C128.216 74.2675 129.3 77.3307 131.467 79.7447C133.635 82.0755 136.393 83.2576 139.726 83.2576C143.059 83.2576 145.801 82.0922 147.985 79.7447V79.7447ZM151.318 48.0467H162.073V93.0967H151.318V87.7859C148.067 92.1976 143.568 94.3786 137.723 94.3786C131.878 94.3786 127.379 92.131 123.389 87.5362C119.465 82.9413 117.478 77.2642 117.478 70.6049C117.478 63.9456 119.481 58.3518 123.389 53.757C127.395 49.1621 132.157 46.8314 137.723 46.8314C143.289 46.8314 148.067 48.9957 151.318 53.3908V48.08V48.0467ZM198.26 69.7227C201.43 72.1698 203.006 75.5828 202.924 79.8946C202.924 84.4895 201.348 88.1022 198.096 90.5994C194.846 93.0467 190.921 94.2953 186.16 94.2953C177.572 94.2953 171.744 90.6827 168.656 83.5905L177.984 77.9135C179.23 81.7759 181.973 83.7737 186.16 83.7737C190.002 83.7737 191.906 82.5251 191.906 79.9112C191.906 78.0134 189.41 76.2986 184.32 74.9667C182.4 74.4339 180.808 73.8846 179.576 73.4351C177.818 72.7193 176.324 71.9035 175.076 70.9047C171.99 68.4574 170.414 65.2275 170.414 61.0821C170.414 56.6705 171.908 53.1576 174.912 50.6271C178 48.0134 181.759 46.7646 186.258 46.7646C193.433 46.7646 198.67 49.9112 202.103 56.3041L192.941 61.6981C191.611 58.6348 189.345 57.1032 186.258 57.1032C183.007 57.1032 181.431 58.3518 181.431 60.7991C181.431 62.6971 183.927 64.4119 189.017 65.7437C192.941 66.6427 196.027 67.9911 198.26 69.7227H198.277H198.26ZM232.446 59.2009H223.021V77.9468C223.021 80.1942 223.858 81.5594 225.451 82.1755C226.617 82.625 228.949 82.7081 232.463 82.5417V93.08C225.221 93.9789 219.967 93.2464 216.881 90.8324C213.793 88.5017 212.299 84.1566 212.299 77.9634V59.2009H205.058V48.0299H212.299V38.9401L223.053 35.4273V48.0467H232.479V59.2176H232.463L232.446 59.2009ZM266.729 79.4784C268.897 77.1477 269.979 74.1676 269.979 70.555C269.979 66.9423 268.897 63.9957 266.729 61.6315C264.545 59.3008 261.885 58.1188 258.635 58.1188C255.383 58.1188 252.723 59.2842 250.539 61.6315C248.455 64.0788 247.371 67.0256 247.371 70.555C247.371 74.0843 248.455 77.0311 250.539 79.4784C252.707 81.8092 255.383 82.9912 258.635 82.9912C261.885 82.9912 264.545 81.8259 266.729 79.4784ZM242.971 87.4861C238.717 82.8913 236.633 77.3142 236.633 70.555C236.633 63.7958 238.717 58.3019 242.971 53.7071C247.223 49.1121 252.477 46.7814 258.635 46.7814C264.791 46.7814 270.063 49.1121 274.298 53.7071C278.534 58.3019 280.719 63.9789 280.719 70.555C280.719 77.131 278.534 82.8913 274.298 87.4861C270.045 92.0812 264.874 94.3286 258.635 94.3286C252.395 94.3286 247.207 92.0812 242.971 87.4861ZM316.675 79.7282C318.843 77.2809 319.927 74.2509 319.927 70.555C319.927 66.8592 318.843 63.7958 316.675 61.465C314.509 59.0177 311.751 57.8525 308.417 57.8525C305.085 57.8525 302.325 59.0177 300.077 61.465C297.909 63.7958 296.825 66.8592 296.825 70.555C296.825 74.2509 297.909 77.3142 300.077 79.7282C302.342 82.0589 305.167 83.2409 308.417 83.2409C311.669 83.2409 314.493 82.0755 316.675 79.7282ZM319.927 30H330.681V93.08H319.927V87.7692C316.759 92.181 312.259 94.3618 306.415 94.3618C300.569 94.3618 296.005 92.1144 291.981 87.5194C288.057 82.9246 286.071 77.2476 286.071 70.5883C286.071 63.9291 288.073 58.3352 291.981 53.7404C295.971 49.1454 300.815 46.8147 306.415 46.8147C312.013 46.8147 316.759 48.9789 319.927 53.374V30.0166V30ZM368.462 79.4284C370.63 77.0977 371.714 74.1178 371.714 70.505C371.714 66.8925 370.63 63.9456 368.462 61.5816C366.296 59.2509 363.636 58.0689 360.368 58.0689C357.101 58.0689 354.458 59.2342 352.273 61.5816C350.187 64.029 349.103 66.9756 349.103 70.505C349.103 74.0345 350.187 76.9811 352.273 79.4284C354.441 81.7593 357.117 82.9413 360.368 82.9413C363.619 82.9413 366.279 81.7759 368.462 79.4284V79.4284ZM344.704 87.4363C340.468 82.8413 338.366 77.2642 338.366 70.505C338.366 63.7459 340.452 58.2519 344.704 53.6571C348.956 49.0622 354.21 46.7314 360.368 46.7314C366.525 46.7314 371.796 49.0622 376.031 53.6571C380.283 58.2519 382.451 63.9291 382.451 70.505C382.451 77.0811 380.283 82.8413 376.031 87.4363C371.779 92.0311 366.607 94.2787 360.368 94.2787C354.128 94.2787 348.939 92.0311 344.704 87.4363ZM428.984 65.3608V93.03H418.23V66.8091C418.23 63.8291 417.49 61.5816 415.963 59.8836C414.551 58.3518 412.547 57.5527 409.97 57.5527C403.896 57.5527 400.808 61.2486 400.808 68.7237V93.0467H390.054V48.0299H400.808V53.091C403.386 48.8623 407.49 46.7814 413.221 46.7814C417.801 46.7814 421.562 48.3963 424.486 51.7258C427.49 55.0555 428.984 59.5673 428.984 65.4107" fill="black"/>
</svg>
