<svg width="313" height="80" viewBox="0 0 313 80" fill="none" xmlns="http://www.w3.org/2000/svg">
<path d="M72.9455 17.5324C71.8169 9.03393 64.5038 2.32519 55.846 1.03459C54.3811 0.815429 48.8453 0.0118408 36.0206 0.0118408H35.9245C23.0879 0.0118408 20.338 0.815429 18.873 1.03459C10.4433 2.30085 2.75813 8.31558 0.884866 16.9237C-0.00373551 21.1608 -0.0998005 25.8606 0.0683132 30.1707C0.308475 36.3559 0.356508 42.5167 0.908881 48.6776C1.29314 52.7686 1.95359 56.8231 2.90223 60.8166C4.67943 68.195 11.8603 74.3316 18.8971 76.8275C26.4261 79.4331 34.5317 79.8714 42.2888 78.0815C43.1414 77.8746 43.982 77.6433 44.8226 77.3754C46.7079 76.7666 48.9173 76.0848 50.5504 74.8916C50.5745 74.8794 50.5865 74.8551 50.5985 74.8307C50.6105 74.8064 50.6225 74.782 50.6225 74.7455V68.7794C50.6225 68.7794 50.6225 68.7308 50.5985 68.7064C50.5985 68.6821 50.5745 68.6577 50.5504 68.6455C50.5264 68.6334 50.5024 68.6211 50.4785 68.609C50.4543 68.609 50.4304 68.609 50.4064 68.609C45.4349 69.8144 40.3316 70.4232 35.2281 70.411C26.4261 70.411 24.0605 66.1739 23.3881 64.4206C22.8477 62.8987 22.4995 61.3036 22.3554 59.6965C22.3554 59.6721 22.3554 59.6478 22.3674 59.6234C22.3674 59.5991 22.3914 59.5747 22.4155 59.5625C22.4394 59.5504 22.4634 59.5382 22.4874 59.5261H22.5715C27.4588 60.7192 32.4782 61.328 37.5096 61.328C38.7225 61.328 39.9232 61.328 41.1361 61.2915C46.1915 61.1453 51.5232 60.8897 56.5065 59.9035C56.6265 59.8791 56.7587 59.8548 56.8667 59.8304C64.7201 58.2963 72.1891 53.4991 72.9455 41.3479C72.9697 40.8731 73.0417 36.3316 73.0417 35.8446C73.0417 34.1521 73.582 23.876 72.9576 17.5569L72.9455 17.5324Z" fill="black"/>
<path d="M14.8143 22.2813C14.8143 19.7975 16.7717 17.8008 19.1973 17.8008C21.623 17.8008 23.5802 19.8097 23.5802 22.2813C23.5802 24.753 21.623 26.7619 19.1973 26.7619C16.7717 26.7619 14.8143 24.753 14.8143 22.2813Z" fill="white"/>
<path d="M80.0185 26.141V46.742H72.0331V26.7498C72.0331 22.537 70.304 20.4062 66.8336 20.4062C63.003 20.4062 61.0697 22.951 61.0697 27.9551V38.9009H53.1444V27.9551C53.1444 22.9265 51.2351 20.4062 47.3804 20.4062C43.9222 20.4062 42.1809 22.537 42.1809 26.7498V46.7299H34.2075V26.141C34.2075 21.9404 35.2522 18.5921 37.3536 16.1083C39.5271 13.6245 42.373 12.3704 45.8914 12.3704C49.9742 12.3704 53.0723 13.9775 55.1137 17.1919L57.1071 20.6011L59.1004 17.1919C61.1417 13.9898 64.2279 12.3704 68.3226 12.3704C71.841 12.3704 74.6869 13.6367 76.8604 16.1083C78.9618 18.5921 80.0065 21.916 80.0065 26.141H80.0185ZM107.493 36.3806C109.15 34.5907 109.931 32.3748 109.931 29.6718C109.931 26.9689 109.138 24.7286 107.493 23.024C105.908 21.2342 103.891 20.3819 101.453 20.3819C99.0153 20.3819 97.01 21.2342 95.413 23.024C93.8279 24.7286 93.0354 26.9689 93.0354 29.6718C93.0354 32.3748 93.8279 34.6151 95.413 36.3806C96.998 38.0851 99.0153 38.9497 101.453 38.9497C103.891 38.9497 105.896 38.0974 107.493 36.3806ZM109.931 13.1983H117.796V46.1455H109.931V42.2614C107.553 45.4879 104.263 47.083 99.9881 47.083C95.7132 47.083 92.4229 45.4392 89.5049 42.0788C86.635 38.7184 85.1821 34.5664 85.1821 29.6962C85.1821 24.826 86.647 20.7349 89.5049 17.3745C92.4349 14.0141 95.9173 12.3096 99.9881 12.3096C104.059 12.3096 107.553 13.8924 109.931 17.1067V13.2227V13.1983ZM144.262 29.051C146.58 30.8407 147.733 33.3368 147.673 36.4902C147.673 39.8506 146.52 42.4928 144.142 44.3191C141.765 46.1089 138.894 47.022 135.412 47.022C129.132 47.022 124.869 44.38 122.611 39.1932L129.433 35.0413C130.344 37.866 132.35 39.3271 135.412 39.3271C138.222 39.3271 139.615 38.414 139.615 36.5023C139.615 35.1144 137.789 33.8603 134.067 32.8862C132.662 32.4965 131.498 32.0948 130.597 31.7661C129.311 31.2426 128.219 30.6459 127.306 29.9154C125.049 28.1256 123.897 25.7635 123.897 22.7318C123.897 19.5053 124.989 16.9362 127.186 15.0856C129.445 13.174 132.193 12.2607 135.484 12.2607C140.731 12.2607 144.562 14.5619 147.072 19.2374L140.371 23.1822C139.399 20.9419 137.741 19.8218 135.484 19.8218C133.106 19.8218 131.953 20.7349 131.953 22.5248C131.953 23.9128 133.779 25.1669 137.501 26.141C140.371 26.7985 142.628 27.7846 144.262 29.051H144.274H144.262ZM169.263 21.3559H162.37V35.0657C162.37 36.7093 162.983 37.7077 164.147 38.1583C165 38.487 166.705 38.5478 169.275 38.4261V46.1332C163.979 46.7907 160.137 46.255 157.88 44.4895C155.622 42.7849 154.529 39.6072 154.529 35.0778V21.3559H149.233V13.1861H154.529V6.53829L162.394 3.96923V13.1983H169.287V21.3682H169.275L169.263 21.3559ZM194.336 36.1858C195.921 34.4813 196.713 32.3018 196.713 29.6597C196.713 27.0176 195.921 24.8626 194.336 23.1335C192.738 21.429 190.793 20.5645 188.416 20.5645C186.038 20.5645 184.093 21.4169 182.495 23.1335C180.971 24.9234 180.178 27.0785 180.178 29.6597C180.178 32.2409 180.971 34.396 182.495 36.1858C184.081 37.8904 186.038 38.7548 188.416 38.7548C190.793 38.7548 192.738 37.9026 194.336 36.1858ZM176.961 42.0422C173.85 38.6818 172.325 34.603 172.325 29.6597C172.325 24.7164 173.85 20.6985 176.961 17.3381C180.07 13.9775 183.913 12.273 188.416 12.273C192.918 12.273 196.774 13.9775 199.872 17.3381C202.97 20.6985 204.567 24.8503 204.567 29.6597C204.567 34.469 202.97 38.6818 199.872 42.0422C196.761 45.4027 192.979 47.0464 188.416 47.0464C183.853 47.0464 180.058 45.4027 176.961 42.0422ZM230.864 36.3685C232.449 34.5786 233.242 32.3627 233.242 29.6597C233.242 26.9568 232.449 24.7164 230.864 23.0118C229.28 21.222 227.263 20.3698 224.824 20.3698C222.387 20.3698 220.369 21.222 218.725 23.0118C217.139 24.7164 216.347 26.9568 216.347 29.6597C216.347 32.3627 217.139 34.603 218.725 36.3685C220.381 38.073 222.447 38.9375 224.824 38.9375C227.203 38.9375 229.268 38.0851 230.864 36.3685ZM233.242 0H241.107V46.1332H233.242V42.2492C230.925 45.4758 227.634 47.0707 223.36 47.0707C219.085 47.0707 215.747 45.4271 212.804 42.0665C209.934 38.7061 208.482 34.5543 208.482 29.6841C208.482 24.8139 209.946 20.7228 212.804 17.3624C215.722 14.0019 219.264 12.2973 223.36 12.2973C227.454 12.2973 230.925 13.8801 233.242 17.0945V0.0121756V0ZM268.738 36.1492C270.323 34.4447 271.116 32.2653 271.116 29.6232C271.116 26.9811 270.323 24.826 268.738 23.0971C267.153 21.3925 265.208 20.5281 262.818 20.5281C260.429 20.5281 258.496 21.3803 256.898 23.0971C255.373 24.8869 254.58 27.0419 254.58 29.6232C254.58 32.2044 255.373 34.3594 256.898 36.1492C258.484 37.8539 260.441 38.7184 262.818 38.7184C265.196 38.7184 267.141 37.866 268.738 36.1492ZM251.362 42.0057C248.265 38.6452 246.727 34.5664 246.727 29.6232C246.727 24.6799 248.253 20.6619 251.362 17.3015C254.472 13.9411 258.315 12.2364 262.818 12.2364C267.321 12.2364 271.176 13.9411 274.274 17.3015C277.383 20.6619 278.969 24.8139 278.969 29.6232C278.969 34.4326 277.383 38.6452 274.274 42.0057C271.164 45.3662 267.381 47.0099 262.818 47.0099C258.255 47.0099 254.46 45.3662 251.362 42.0057ZM313 25.861V46.0967H305.135V26.9202C305.135 24.7407 304.594 23.0971 303.478 21.8552C302.445 20.7349 300.98 20.1505 299.094 20.1505C294.652 20.1505 292.394 22.8535 292.394 28.3204V46.1089H284.529V13.1861H292.394V16.8875C294.279 13.7949 297.281 12.273 301.472 12.273C304.822 12.273 307.572 13.454 309.71 15.8891C311.908 18.3242 313 21.6239 313 25.8974" fill="white"/>
</svg>
