<?xml version="1.0" standalone="no"?>
<!DOCTYPE svg PUBLIC "-//W3C//DTD SVG 1.1//EN" "http://www.w3.org/Graphics/SVG/1.1/DTD/svg11.dtd">
<svg xmlns="http://www.w3.org/2000/svg">
<defs >
<font id="Judson" horiz-adv-x="426" ><font-face
    font-family="Judson"
    units-per-em="1000"
    panose-1="2 0 6 3 0 0 0 0 0 0"
    ascent="902"
    descent="-248"
    alphabetic="0" />
<glyph unicode=" " glyph-name="space" horiz-adv-x="240" />
<glyph unicode="!" glyph-name="exclam" horiz-adv-x="235" d="M58 27T58 51T74 94T117 114Q140 114 159 96T178 54T161 10T118 -10Q95 -10 77 8ZM132 186T117 186T94 254Q91 273 80 411T68 585Q68 607 81 618T117 630T152 619T166 585Q166 549 155 410T140 254Q132
186 117 186Z" />
<glyph unicode="&quot;" glyph-name="quotedbl" horiz-adv-x="332" d="M101 408T86 408T55 502Q41 600 41 620Q41 665 86 665T131 620Q131 593 117 502Q101 408 86 408ZM261 408T246 408T215 502Q201 600 201 620Q201 665 246 665T291 620Q291 593 277 502Q261
408 246 408Z" />
<glyph unicode="#" glyph-name="numbersign" horiz-adv-x="486" d="M438 230V196H323L296 0H261L288 196H163L136 0H101L128 196H33V230H133L151 356H48V390H156L183 585H218L191 390H316L343 585H378L351 390H453V356H346L328 230H438ZM168 230H293L311 356H186L168
230Z" />
<glyph unicode="$" glyph-name="dollar" horiz-adv-x="455" d="M240 353Q278 332 293 323T340 291T385 251T411 206T424 148Q424 74 370 33T240 -10V-36H210V-9Q168 -5 128 8T68 34L49 46V139H71Q90 34 210 25V256Q171 279 154 290T106 327T63 379T50 440Q50 499
97 546T210 595V620H240V594Q274 590 307 577T356 552L371 540V458H349Q343 498 316 526T240 560V353ZM210 371V561Q168 559 147 531T125 472Q125 441 146 419T210 371ZM240 239V24Q342 27 342 120Q342 158 316 184T240 239Z" />
<glyph unicode="%" glyph-name="percent" horiz-adv-x="544" d="M461 565L124 20H84L421 565H461ZM92 500T92 466T106 405T138 378T169 405T184 466Q184 500 170 527T138 554T107 527ZM31 415T31 466T63 552T138 588T212 553T245 466T213 380T138 344T64 379ZM360
153T360 119T374 58T406 31T437 58T452 119T438 180T406 207T375 180ZM299 68T299 119T331 205T406 241T480 206T513 119T481 33T406 -3T332 32Z" />
<glyph unicode="&amp;" glyph-name="ampersand" horiz-adv-x="605" d="M285 560Q253 560 243 538T233 466Q233 426 257 357Q333 411 333 469Q333 506 321 533T285 560ZM566 345V324Q509 324 503 305Q457 158 407 90Q450 44 478 44Q516 44 530 51T561 81L573 71Q559
33 536 12T470 -10Q413 -10 357 36Q300 -10 225 -10Q20 -10 20 127Q20 158 33 184T74 235T124 273T186 312Q151 409 151 474Q151 595 265 595Q314 595 344 561T375 481Q375 432 348 395T271 320Q318 204 386 116Q421 172 463 308Q453 324 402 324V345H566ZM334
57Q259 132 203 269Q120 206 120 150Q120 32 262 32Q301 32 334 57Z" />
<glyph unicode="&apos;" glyph-name="quotesingle" horiz-adv-x="172" d="M101 408T86 408T55 502Q41 600 41 620Q41 665 86 665T131 620Q131 593 117 502Q101 408 86 408Z" />
<glyph unicode="(" glyph-name="parenleft" horiz-adv-x="243" d="M40 130T40 315T176 669Q185 680 192 680Q201 680 201 669Q201 666 199 660Q198 658 189 638T178 612T167 585T156 552T146 518T137 475T131 429T126 375T124 315Q124 275 126 240T134 173T144
120T158 72T171 35T186 -1T199 -30Q201 -36 201 -39Q201 -50 192 -50Q185 -50 176 -39Q40 130 40 315Z" />
<glyph unicode=")" glyph-name="parenright" horiz-adv-x="243" d="M203 500T203 315T67 -39Q58 -50 51 -50Q42 -50 42 -39Q42 -36 44 -30Q45 -28 54 -8T65 18T76 45T87 78T97 112T106 155T112 201T117 255T119 315Q119 355 117 390T109 457T99 510T85 558T72
595T57 631T44 660Q42 666 42 669Q42 680 51 680Q58 680 67 669Q203 500 203 315Z" />
<glyph unicode="*" glyph-name="asterisk" horiz-adv-x="360" d="M128 358Q110 358 94 373T77 404Q77 414 83 423Q89 431 120 446T162 462Q153 470 153 481Q153 482 153 484T154 487Q146 482 119 476T75 470Q60 470 52 480T44 505Q44 525 56 541T84 557Q86 557
94 555Q104 552 127 528T155 492Q162 505 177 507Q169 513 152 544T135 585Q135 601 147 610T179 620T210 611T223 585Q223 575 206 544T181 507Q197 505 203 491Q205 500 230 526T265 555Q273 557 276 557Q291 557 303 542T315 506Q315 492 307 481T284 470Q267
470 239 476T204 487Q205 485 205 481Q205 471 196 462Q207 462 239 447T277 423Q283 414 283 405Q283 388 266 373T230 358Q214 358 205 371Q200 377 196 403T192 448Q192 457 193 459Q188 455 179 455Q172 455 166 458Q167 455 167 446Q167 388 154 371Q144 358
128 358Z" />
<glyph unicode="+" glyph-name="plus" horiz-adv-x="404" d="M224 296V155H180V296H39V340H180V481H224V340H365V296H224Z" />
<glyph unicode="," glyph-name="comma" horiz-adv-x="230" d="M101 -6Q79 -6 65 7T50 43Q50 70 69 85T107 100Q143 100 165 69T188 -6Q188 -90 64 -129V-101Q89 -98 115 -74T142 -18Q142 0 140 3T132 7Q129 7 121 1T101 -6Z" />
<glyph unicode="-" glyph-name="hyphen" horiz-adv-x="388" d="M62 340H326V296H62V340Z" />
<glyph unicode="." glyph-name="period" horiz-adv-x="220" d="M50 27T50 51T66 94T109 114Q132 114 151 96T170 54T153 10T110 -10Q87 -10 69 8Z" />
<glyph unicode="/" glyph-name="slash" horiz-adv-x="458" d="M20 -10L409 612L438 594L49 -28L20 -10Z" />
<glyph unicode="0" glyph-name="zero" horiz-adv-x="490" d="M124 399T124 292T158 103T245 21T331 103T366 292T332 481T245 564T159 482ZM34 165T34 292T90 507T245 595T399 507T456 292T400 78T245 -10T91 77Z" />
<glyph unicode="1" glyph-name="one" horiz-adv-x="490" d="M322 585V61Q322 40 362 31T445 21V0H107V21Q150 21 190 30T230 61V444Q188 419 124 371L117 388L295 585H322Z" />
<glyph unicode="2" glyph-name="two" horiz-adv-x="490" d="M40 0Q40 11 69 42T141 116T224 206T295 310T325 414Q325 460 300 497T226 535Q185 535 154 525T108 501T82 473T67 449T58 439Q50 439 50 449Q50 460 60 482T90 530T149 576T237 595Q330 595 376 547T423
427Q423 386 382 326T292 215T201 122T160 70H371Q412 88 430 133H450L412 0H40Z" />
<glyph unicode="3" glyph-name="three" horiz-adv-x="490" d="M212 291Q205 291 199 295T193 304Q193 308 200 311Q252 327 290 359T329 446Q329 487 301 511T222 535Q181 535 152 523T113 496T95 469T83 457Q75 457 75 467Q75 478 84 497T110 539T160 578T233
595Q329 595 372 561T415 459Q415 387 318 331Q367 319 404 271T442 172Q442 133 434 103T404 46T340 5T236 -10Q195 -10 158 0T98 24T62 51T48 72Q48 102 55 114T84 126Q94 126 101 115T115 89T133 58T169 31T230 20Q359 20 359 152Q359 178 351 209T319 268T261
296Q249 296 236 294T212 291Z" />
<glyph unicode="4" glyph-name="four" horiz-adv-x="490" d="M366 585V206H447V176H366V41Q375 21 429 21V0H213V21Q267 21 276 41V176H39L314 585H366ZM276 206V475L94 206H276Z" />
<glyph unicode="5" glyph-name="five" horiz-adv-x="490" d="M142 387Q303 387 372 333T442 196Q442 157 433 123T404 58T344 8T248 -10Q186 -10 137 7T68 43T48 72Q48 102 55 114T84 126Q94 126 100 115T114 89T133 58T173 31T242 20Q275 20 299 36T336 77T353
127T359 176Q359 348 102 348L135 585H414L390 515H160L142 387Z" />
<glyph unicode="6" glyph-name="six" horiz-adv-x="490" d="M249 336Q184 336 149 313Q143 271 143 224Q143 120 173 71T251 22Q294 22 320 70T347 196Q347 230 340 259T309 312T249 336ZM154 346Q195 370 247 370Q355 370 396 323T437 188Q437 96 388 43T251
-10Q156 -10 105 55T53 224Q53 308 82 380T155 498T247 571T335 603L347 585Q273 566 223 505T154 346Z" />
<glyph unicode="7" glyph-name="seven" horiz-adv-x="490" d="M181 11Q181 62 224 176T312 392T356 515H137Q96 497 78 452H58L96 585H432Q432 570 387 462T298 220T253 11Q253 1 241 -4T216 -10Q181 -10 181 11Z" />
<glyph unicode="8" glyph-name="eight" horiz-adv-x="490" d="M275 324Q359 370 359 465Q359 512 332 537T265 563Q155 563 155 458Q155 436 174 412T213 371T275 324ZM306 301Q367 255 401 214T435 123Q435 66 382 28T245 -10Q155 -10 105 28T55 131Q55 234 177
301Q67 387 67 465Q67 520 115 557T246 595Q335 595 380 559T426 457Q426 362 306 301ZM208 277Q122 226 122 123Q122 81 154 52T226 22Q283 22 315 51T347 130Q347 138 345 146T338 163T327 179T312 195T295 211T275 228T254 243T231 260T208 277Z" />
<glyph unicode="9" glyph-name="nine" horiz-adv-x="490" d="M241 249Q306 249 341 272Q347 314 347 361Q347 465 317 514T239 563Q196 563 170 515T143 389Q143 355 150 326T181 273T241 249ZM336 239Q295 215 243 215Q135 215 94 262T53 397Q53 489 102 542T239
595Q334 595 385 530T437 361Q437 277 408 205T335 87T243 14T155 -18L143 0Q217 19 267 80T336 239Z" />
<glyph unicode=":" glyph-name="colon" horiz-adv-x="244" d="M62 357T62 381T78 424T121 444Q144 444 163 426T182 384T165 340T122 320Q99 320 81 338ZM62 27T62 51T78 94T121 114Q144 114 163 96T182 54T165 10T122 -10Q99 -10 81 8Z" />
<glyph unicode=";" glyph-name="semicolon" horiz-adv-x="262" d="M71 357T71 381T87 424T130 444Q153 444 172 426T191 384T174 340T131 320Q108 320 90 338ZM115 -6Q93 -6 79 7T64 43Q64 70 83 85T121 100Q157 100 179 69T202 -6Q202 -90 78 -129V-101Q103 -98
129 -74T156 -18Q156 0 154 3T146 7Q143 7 135 1T115 -6Z" />
<glyph unicode="&lt;" glyph-name="less" horiz-adv-x="465" d="M30 340L398 512V472L68 318L398 164V124L30 296V340Z" />
<glyph unicode="=" glyph-name="equal" horiz-adv-x="484" d="M65 280H419V236H65V280ZM65 400H419V356H65V400Z" />
<glyph unicode="&gt;" glyph-name="greater" horiz-adv-x="465" d="M435 296L67 124V164L397 318L67 472V512L435 340V296Z" />
<glyph unicode="?" glyph-name="question" horiz-adv-x="394" d="M122 27T122 51T138 94T181 114Q204 114 223 96T242 54T225 10T182 -10Q159 -10 141 8ZM167 200Q167 238 183 274T219 336T255 400T272 480Q272 543 250 571T177 600Q139 600 114 577T89 529Q89
517 96 504T104 479Q104 464 95 455T71 445Q54 445 42 457T29 496Q29 547 70 588T187 630Q279 630 320 583T362 475Q362 436 336 395T278 324T220 260T193 200Q193 195 189 191T180 186T172 190T167 200Z" />
<glyph unicode="@" glyph-name="at" horiz-adv-x="626" d="M248 159Q210 159 190 188T169 259Q169 325 214 381T310 437Q369 437 385 373L399 426H452L393 203Q392 201 392 197Q392 182 415 182Q448 182 474 215T510 283T520 338Q520 404 505 449T461 516T404
545T338 553Q237 553 162 482T86 288Q86 209 128 148T226 58T338 29Q383 29 422 43T485 72T530 115T559 152T576 182L592 174Q555 90 495 40T332 -10Q223 -10 134 73T44 284Q44 426 130 510T334 595Q432 595 497 531T562 346Q562 319 552 287T522 222T468 168T391
146Q373 146 357 158T341 197Q341 207 342 213Q298 159 248 159ZM365 338Q365 367 352 387T314 407Q277 407 245 364T213 270Q213 241 226 222T264 202Q301 202 333 244T365 338Z" />
<glyph unicode="A" glyph-name="A" horiz-adv-x="546" d="M336 0V21Q382 21 394 33L338 186H146L94 39Q104 21 156 21V0H-8V21Q48 21 55 42L249 585H297L491 42Q498 21 555 21V0H336ZM241 452L158 219H326L241 452Z" />
<glyph unicode="B" glyph-name="B" horiz-adv-x="558" d="M197 290V34H282Q422 34 422 170Q422 217 387 253T270 290H197ZM197 551V319H238Q378 319 378 446Q378 551 226 551H197ZM42 0V21Q96 21 105 41V544Q96 564 42 564V585H226Q351 585 414 544T478 447Q478
345 372 309Q447 292 484 254T522 171Q522 95 462 48T282 0H42Z" />
<glyph unicode="C" glyph-name="C" horiz-adv-x="562" d="M346 561Q260 561 203 490T146 306Q146 174 206 99T350 24Q400 24 449 58T512 132L536 120Q513 65 464 28T330 -10Q197 -10 120 76T42 284Q42 424 131 509T345 595Q374 595 412 580T456 565Q468 565 468
585H491L501 458H479Q472 503 440 532T346 561Z" />
<glyph unicode="D" glyph-name="D" horiz-adv-x="611" d="M42 0V21Q96 21 105 41V544Q96 564 42 564V585H272Q405 585 486 505T567 294T488 82T284 0H42ZM197 556V34H284Q316 34 346 48T405 92T450 173T467 293Q467 423 409 489T272 556H197Z" />
<glyph unicode="E" glyph-name="E" horiz-adv-x="507" d="M42 0V21Q96 21 105 41V544Q96 564 42 564V585H445V488H424Q424 542 404 551H197V321H337Q357 330 357 384H378V224H357Q357 278 337 287H197V34H425Q450 45 470 97H490L466 0H42Z" />
<glyph unicode="F" glyph-name="F" horiz-adv-x="470" d="M42 0V21Q96 21 105 41V544Q96 564 42 564V585H445V488H424Q424 542 404 551H197V321H337Q357 330 357 384H378V224H357Q357 278 337 287H197V41Q206 21 260 21V0H42Z" />
<glyph unicode="G" glyph-name="G" horiz-adv-x="617" d="M354 561Q268 561 206 481T144 286Q144 217 162 164T210 82T273 38T340 24Q396 24 446 43V248Q437 268 383 268V289H601V268Q547 268 538 248V80Q521 48 470 19T338 -10Q204 -10 122 77T40 284Q40 423
134 509T353 595Q382 595 425 580T474 565Q486 565 486 585H509L519 458H497Q491 502 453 531T354 561Z" />
<glyph unicode="H" glyph-name="H" horiz-adv-x="650" d="M42 0V21Q96 21 105 41V544Q96 564 42 564V585H260V564Q206 564 197 544V321H453V544Q444 564 390 564V585H608V564Q554 564 545 544V41Q554 21 608 21V0H390V21Q444 21 453 41V287H197V41Q206 21 260 21V0H42Z" />
<glyph unicode="I" glyph-name="I" horiz-adv-x="302" d="M42 0V21Q96 21 105 41V544Q96 564 42 564V585H260V564Q206 564 197 544V41Q206 21 260 21V0H42Z" />
<glyph unicode="J" glyph-name="J" horiz-adv-x="412" d="M323 172Q323 137 315 107T290 50T238 6T157 -10Q86 -10 47 18T7 80Q7 103 19 116T50 130Q68 130 81 121T95 95Q95 61 70 53Q97 26 147 26Q170 26 186 34T211 56T224 95T230 144T231 208V544Q222 564 168
564V585H386V564Q332 564 323 544V172Z" />
<glyph unicode="K" glyph-name="K" horiz-adv-x="579" d="M42 0V21Q96 21 105 41V544Q96 564 42 564V585H258V564Q204 564 195 544V41Q204 21 258 21V0H42ZM391 0V21Q414 21 428 24L200 314L445 557Q431 564 394 564V585H551V564Q509 564 489 541L288 342L523
37Q539 21 586 21V0H391Z" />
<glyph unicode="L" glyph-name="L" horiz-adv-x="495" d="M42 0V21Q96 21 105 41V544Q96 564 42 564V585H260V564Q206 564 197 544V34H425Q450 45 470 97H490L466 0H42Z" />
<glyph unicode="M" glyph-name="M" horiz-adv-x="804" d="M42 0V21Q96 21 105 41V544Q96 564 42 564V585H188L401 120L614 585H762V564Q708 564 699 544V41Q708 21 762 21V0H544V21Q598 21 607 41V490L383 0H368L139 496V41Q148 21 202 21V0H42Z" />
<glyph unicode="N" glyph-name="N" horiz-adv-x="637" d="M42 0V21Q96 21 105 41V544Q96 564 42 564V585H176L507 176V544Q498 564 444 564V585H604V564Q550 564 541 544V0H532L139 497V41Q148 21 202 21V0H42Z" />
<glyph unicode="O" glyph-name="O" horiz-adv-x="641" d="M144 300Q144 234 162 174T223 69T325 24T424 66T481 164T498 284Q498 349 479 410T418 516T317 561Q272 561 238 537T184 474T154 390T144 300ZM44 292Q44 417 122 506T321 595T520 506T598 292T520 79T321
-10Q199 -10 122 78T44 292Z" />
<glyph unicode="P" glyph-name="P" horiz-adv-x="538" d="M42 0V21Q96 21 105 41V544Q96 564 42 564V585H268Q391 585 455 538T520 433Q520 358 460 312T280 266H197V41Q206 21 260 21V0H42ZM197 551V300H280Q357 300 388 330T420 432Q420 551 268 551H197Z" />
<glyph unicode="Q" glyph-name="Q" horiz-adv-x="641" d="M44 292Q44 417 122 506T321 595T520 506T598 292Q598 215 567 149T479 41Q483 33 492 15T506 -11T520 -32T536 -50T553 -61T574 -66Q598 -66 618 -55T646 -32L654 -20L669 -31Q668 -34 666 -38T655 -55T636
-77T609 -94T574 -102Q508 -102 471 -74T407 4Q365 -10 321 -10Q199 -10 122 78T44 292ZM231 61Q271 24 325 24Q362 24 390 39Q375 71 361 86T326 102Q270 102 231 61ZM446 91Q498 166 498 284Q498 349 479 410T418 516T317 561Q272 561 238 537T184 474T154 390T144
300Q144 160 214 78Q259 146 332 146Q401 146 446 91Z" />
<glyph unicode="R" glyph-name="R" horiz-adv-x="581" d="M42 0V21Q96 21 105 41V544Q96 564 42 564V585H268Q392 585 456 540T520 437Q520 382 487 341T389 280L522 42Q532 21 588 21V0H545Q475 0 454 8T412 52L291 266H197V41Q206 21 260 21V0H42ZM197 551V300H280Q360
300 390 331T420 436Q420 491 387 521T268 551H197Z" />
<glyph unicode="S" glyph-name="S" horiz-adv-x="478" d="M249 -10Q200 -10 149 5T96 20Q90 20 82 14T74 0H51V139H73Q84 79 132 52T243 24Q296 24 330 48T364 120Q364 142 355 160T326 193T288 219T242 245T198 270Q163 292 146 303T103 338T64 386T52 440Q52
499 106 547T227 595Q256 595 299 580T348 565Q360 565 360 585H383L393 458H371Q365 502 327 531T228 561Q182 561 155 532T127 472Q127 453 136 437T164 406T200 382T245 356T289 332Q330 307 348 295T394 258T434 207T446 148Q446 74 386 32T249 -10Z" />
<glyph unicode="T" glyph-name="T" horiz-adv-x="538" d="M18 585H520V488H499Q499 542 479 551H315V41Q324 21 378 21V0H160V21Q214 21 223 41V551H59Q39 542 39 488H18V585Z" />
<glyph unicode="U" glyph-name="U" horiz-adv-x="618" d="M338 24Q405 24 450 80T496 228V544Q487 564 433 564V585H593V564Q539 564 530 544V248Q530 118 473 54T328 -10Q88 -10 88 248V544Q79 564 25 564V585H243V564Q189 564 180 544V234Q180 135 224 80T338 24Z" />
<glyph unicode="V" glyph-name="V" horiz-adv-x="544" d="M209 585V564Q163 564 151 552L304 133L451 546Q441 564 389 564V585H553V564Q497 564 492 548L296 0H248L54 543Q46 564 -10 564V585H209Z" />
<glyph unicode="W" glyph-name="W" horiz-adv-x="841" d="M506 585V564Q460 564 448 552L601 133L748 546Q738 564 686 564V585H850V564Q794 564 787 543L593 0H545L420 349L296 0H248L54 543Q46 564 -10 564V585H209V564Q163 564 151 552L304 134L400 405L351
543Q344 564 287 564V585H506Z" />
<glyph unicode="X" glyph-name="X" horiz-adv-x="519" d="M225 585V564Q178 564 167 552L276 361L395 548Q385 564 334 564V585H498V564Q449 564 438 547L296 326L459 42Q470 21 523 21V0H304V21Q351 21 362 33L243 242L111 37Q121 21 172 21V0H8V21Q58 21 72
43L222 277L70 544Q59 564 6 564V585H225Z" />
<glyph unicode="Y" glyph-name="Y" horiz-adv-x="563" d="M210 585V564Q163 564 152 552L307 281L467 546Q456 564 405 564V585H569V564Q527 564 512 551L332 252V41Q341 21 395 21V0H177V21Q231 21 240 41V220L55 544Q41 564 -9 564V585H210Z" />
<glyph unicode="Z" glyph-name="Z" horiz-adv-x="500" d="M449 0H17L335 555H92Q72 546 72 492H51V585H454L136 30H408Q439 43 454 96H475L449 0Z" />
<glyph unicode="[" glyph-name="bracketleft" horiz-adv-x="288" d="M154 579V-120H270V-156H74V615H270V579H154Z" />
<glyph unicode="\" glyph-name="backslash" horiz-adv-x="458" d="M438 -10L409 -28L20 594L49 612L438 -10Z" />
<glyph unicode="]" glyph-name="bracketright" horiz-adv-x="288" d="M134 -120V579H18V615H214V-156H18V-120H134Z" />
<glyph unicode="^" glyph-name="asciicircum" horiz-adv-x="456" d="M241 540L406 344L372 316L228 488L84 316L50 344L214 540H241Z" />
<glyph unicode="_" glyph-name="underscore" horiz-adv-x="448" d="M42 -50H406V-94H42V-50Z" />
<glyph unicode="`" glyph-name="grave" horiz-adv-x="300" d="M166 662L240 500H214L60 662H166Z" />
<glyph unicode="a" glyph-name="a" horiz-adv-x="483" d="M112 366Q126 366 136 356T147 325Q147 308 134 299T102 290Q83 290 71 303T59 340Q59 392 102 421T224 450Q317 450 360 404T404 282V84Q404 52 414 37T440 22Q453 22 463 29T474 46H492Q492 18 472 5T400
-8Q350 -8 329 33Q270 -10 182 -10Q32 -10 32 112Q32 138 50 159T104 194T170 216T247 235T314 252Q314 336 292 375T214 414Q124 414 112 366ZM320 58Q314 80 314 112V230Q303 226 277 219T234 207T194 192T158 172T135 146T125 110Q125 62 143 43T199 24Q265
24 320 58Z" />
<glyph unicode="b" glyph-name="b" horiz-adv-x="538" d="M68 559Q6 564 5 564V587Q24 587 79 608T158 630V407Q207 454 295 454Q328 454 360 443T425 407T478 334T499 222Q499 110 437 50T273 -10Q201 -10 154 28Q99 -10 68 -10V559ZM158 373V59Q198 24 267 24Q322
24 363 76T404 222Q404 310 371 365T285 420Q201 420 158 373Z" />
<glyph unicode="c" glyph-name="c" horiz-adv-x="479" d="M272 420Q210 420 172 373T134 246Q134 161 181 95T289 28Q376 28 429 94L453 82Q424 34 378 12T255 -10Q217 -10 182 1T113 39T59 118T39 242Q39 329 100 389T262 450Q341 450 384 423T427 344Q427 321
415 308T384 294Q366 294 353 303T339 329Q339 350 349 360T374 370Q361 420 272 420Z" />
<glyph unicode="d" glyph-name="d" horiz-adv-x="537" d="M363 430V559Q363 559 300 564V587Q319 587 374 608T453 630V61L516 56V33Q497 33 442 12T363 -10V23Q315 -10 243 -10Q210 -10 178 1T113 37T60 110T39 222Q39 334 101 394T265 454Q322 454 363 430ZM363
399Q327 420 271 420Q216 420 175 367T134 222Q134 161 169 93T253 24Q319 24 363 56V399Z" />
<glyph unicode="e" glyph-name="e" horiz-adv-x="493" d="M134 241Q135 157 182 93T289 28Q376 28 429 94L453 82Q424 34 378 12T255 -10Q217 -10 182 1T113 39T59 118T39 242Q39 330 93 390T245 450Q351 450 403 391T455 241H134ZM135 272H357Q351 344 327 382T241
420Q206 420 174 379T135 272Z" />
<glyph unicode="f" glyph-name="f" horiz-adv-x="271" d="M332 571Q332 554 321 544T291 534Q274 534 266 544T256 567T247 589T223 600Q204 600 192 571T179 488V440H241V410H179V41Q188 21 242 21V0H26V21Q80 21 89 41V410H39V440H89V474Q89 556 123 593T213
630Q272 630 302 612T332 571Z" />
<glyph unicode="g" glyph-name="g" horiz-adv-x="520" d="M452 450V29Q452 -74 403 -137T258 -200Q173 -200 122 -171T70 -110Q70 -87 82 -74T113 -60Q131 -60 144 -69T158 -95Q158 -127 133 -137Q160 -164 248 -164Q351 -164 361 20Q315 -10 243 -10Q210 -10
178 0T113 35T60 106T39 218Q39 330 101 390T265 450Q328 450 375 418Q426 450 452 450ZM362 53V65V395Q326 416 271 416T175 364T134 218Q134 130 167 77T253 24Q319 24 362 53Z" />
<glyph unicode="h" glyph-name="h" horiz-adv-x="550" d="M21 0V21Q75 21 84 41V559Q22 564 21 564V587Q40 587 95 608T174 630V404Q228 450 293 450Q388 450 428 419T469 312V41Q478 21 532 21V0H316V21Q370 21 379 41V319Q379 416 287 416Q224 416 174 372V41Q183
21 237 21V0H21Z" />
<glyph unicode="i" glyph-name="i" horiz-adv-x="268" d="M31 0V21Q85 21 94 41V379Q32 384 31 384V407Q50 407 105 428T184 450V41Q193 21 247 21V0H31ZM136 514Q114 514 98 530T81 573Q81 596 95 613T133 630Q155 630 172 613T189 570Q189 547 174 531T136 514Z" />
<glyph unicode="j" glyph-name="j" horiz-adv-x="243" d="M127 514Q105 514 89 530T72 573Q72 596 86 613T124 630Q146 630 163 613T180 570Q180 547 165 531T127 514ZM85 379L22 384V407Q41 407 96 428T175 450V-44Q175 -125 137 -162T41 -200Q-89 -200 -89 -113Q-89
-95 -76 -84T-46 -73T-19 -84T-7 -112Q-7 -126 -17 -136Q-17 -153 -3 -161T31 -170T68 -141T85 -58V379Z" />
<glyph unicode="k" glyph-name="k" horiz-adv-x="501" d="M21 0V21Q75 21 84 41V559Q22 564 21 564V587Q40 587 95 608T174 630V41Q183 21 237 21V0H21ZM310 0V21Q334 21 348 24L181 254L358 413Q343 419 309 419V440H466V419Q429 419 412 406L270 279L442 40Q456
21 505 21V0H310Z" />
<glyph unicode="l" glyph-name="l" horiz-adv-x="258" d="M21 0V21Q75 21 84 41V559Q22 564 21 564V587Q40 587 95 608T174 630V41Q183 21 237 21V0H21Z" />
<glyph unicode="m" glyph-name="m" horiz-adv-x="823" d="M31 0V21Q85 21 94 41V379Q32 384 31 384V407Q50 407 105 428T184 450V405Q237 450 295 450Q415 450 449 392Q505 450 574 450Q742 450 742 336V41Q751 21 805 21V0H589V21Q643 21 652 41V299Q652 364
633 390T568 416Q509 416 459 368Q463 355 463 336V41Q472 21 526 21V0H310V21Q364 21 373 41V299Q373 364 354 390T289 416Q232 416 184 372V41Q193 21 247 21V0H31Z" />
<glyph unicode="n" glyph-name="n" horiz-adv-x="559" d="M31 0V21Q85 21 94 41V379Q32 384 31 384V407Q50 407 105 428T184 450V404Q238 450 303 450Q396 450 437 416T479 308V41Q488 21 542 21V0H326V21Q380 21 389 41V315Q389 416 297 416Q234 416 184 372V41Q193
21 247 21V0H31Z" />
<glyph unicode="o" glyph-name="o" horiz-adv-x="545" d="M135 248Q135 134 178 77T290 20Q344 20 377 68T410 193Q410 419 253 419Q200 419 168 369T135 248ZM277 -10Q165 -10 102 55T39 228Q39 325 96 387T270 450Q388 450 447 388T506 216Q506 119 450 55T277 -10Z" />
<glyph unicode="p" glyph-name="p" horiz-adv-x="538" d="M22 -192V-171Q76 -171 85 -151V379Q85 379 22 384V407Q41 407 96 428T175 450V417Q223 450 295 450Q328 450 360 439T425 403T478 330T499 218Q499 107 437 49T273 -10Q215 -10 175 12V-151Q184 -171
238 -171V-192H22ZM175 44Q213 24 267 24Q322 24 363 75T404 218Q404 279 369 347T285 416Q216 416 175 384V44Z" />
<glyph unicode="q" glyph-name="q" horiz-adv-x="523" d="M302 -192V-171Q356 -171 365 -151V23Q317 -10 243 -10Q210 -10 178 0T113 35T60 106T39 218Q39 330 101 390T265 450Q332 450 377 417Q429 450 455 450V-151Q464 -171 518 -171V-192H302ZM365 55V393Q329
416 271 416Q216 416 175 364T134 218Q134 130 167 77T253 24Q322 24 365 55Z" />
<glyph unicode="r" glyph-name="r" horiz-adv-x="395" d="M31 0V21Q85 21 94 41V379Q32 384 31 384V407Q50 407 105 428T184 450V406Q234 450 283 450Q328 450 358 433T389 395Q389 359 349 359Q328 359 311 387T272 416Q233 416 184 373V41Q193 21 247 21V0H31Z" />
<glyph unicode="s" glyph-name="s" horiz-adv-x="405" d="M207 20Q235 20 268 38T302 92Q302 150 183 192Q154 202 136 211T95 236T62 275T51 329Q51 385 92 417T191 450Q225 450 260 435T301 420Q313 420 313 440H336V320H314Q308 362 274 391T194 420Q162 420
141 405T119 364Q119 349 125 337T137 317T159 300T184 288T215 276T246 265Q298 245 335 209T372 124Q372 63 323 27T199 -10Q163 -10 129 7T91 24Q85 24 77 16T69 0H45V141H67Q74 90 114 55T207 20Z" />
<glyph unicode="t" glyph-name="t" horiz-adv-x="333" d="M180 585V440H266V410H180V92Q180 61 191 45T232 28Q250 28 268 45T294 94L318 82Q297 -10 198 -10Q84 -10 84 100V410H14V440Q61 440 99 479T137 585H180Z" />
<glyph unicode="u" glyph-name="u" horiz-adv-x="550" d="M465 61Q465 61 528 56V33Q509 33 454 12T375 -10V36Q321 -10 256 -10Q163 -10 122 24T80 132V399Q71 419 17 419V440H170V125Q170 24 262 24Q325 24 375 68V399Q366 419 312 419V440H465V61Z" />
<glyph unicode="v" glyph-name="v" horiz-adv-x="483" d="M189 440V419Q160 419 147 415L266 122L380 408Q366 419 324 419V440H488V419Q433 419 426 400L266 0H217L58 399Q49 419 -5 419V440H189Z" />
<glyph unicode="w" glyph-name="w" horiz-adv-x="760" d="M189 440V419Q160 419 147 415L266 122L356 347L335 399Q326 419 272 419V440H466V419Q437 419 424 415L543 122L657 408Q643 419 601 419V440H765V419Q711 419 703 400L543 0H494L380 286L266 0H217L58
399Q49 419 -5 419V440H189Z" />
<glyph unicode="x" glyph-name="x" horiz-adv-x="467" d="M438 440V419Q386 419 371 400L273 254L406 40Q417 21 468 21V0H274V21Q298 21 312 24L219 174L121 28Q134 21 171 21V0H7V21Q60 21 75 42L192 216L76 403Q66 419 17 419V440H211V419Q187 419 172 416L246
296L324 412Q311 419 274 419V440H438Z" />
<glyph unicode="y" glyph-name="y" horiz-adv-x="483" d="M189 440V419Q160 419 147 415L266 122L380 408Q366 419 324 419V440H488V419Q434 419 426 401L225 -102Q206 -149 177 -170T120 -192Q95 -192 81 -179T66 -148Q66 -133 76 -121T105 -109Q116 -109 128
-117T146 -126Q167 -126 174 -108L217 0L58 399Q49 419 -5 419V440H189Z" />
<glyph unicode="z" glyph-name="z" horiz-adv-x="425" d="M387 0H17L282 410H90Q70 401 70 347H49V440H395L130 30H346Q366 39 366 93H387V0Z" />
<glyph unicode="{" glyph-name="braceleft" horiz-adv-x="262" d="M88 -61Q88 -35 92 49T97 150Q97 184 79 196T22 209V232Q60 232 78 245T97 292Q97 308 93 392T88 502Q88 594 234 594V571Q195 571 176 558T157 511Q157 495 162 411T168 301Q168 242 108 221Q168
200 168 141Q168 115 163 31T157 -70Q157 -104 176 -116T234 -129V-153Q88 -153 88 -61Z" />
<glyph unicode="|" glyph-name="bar" horiz-adv-x="188" d="M76 650H112V-30H76V650Z" />
<glyph unicode="}" glyph-name="braceright" horiz-adv-x="262" d="M174 502Q174 476 170 392T165 291Q165 257 183 245T240 232V209Q202 209 184 196T165 149Q165 133 169 49T174 -61Q174 -153 28 -153V-130Q67 -130 86 -117T105 -70Q105 -54 100 30T94 140Q94
199 154 220Q94 241 94 300Q94 326 99 410T105 511Q105 545 86 557T28 570V594Q174 594 174 502Z" />
<glyph unicode="~" glyph-name="asciitilde" horiz-adv-x="545" d="M386 208Q357 208 264 242T152 277Q114 277 100 260T86 208H60Q60 340 162 340Q191 340 285 306T397 271Q435 271 449 288T463 340H489Q489 208 386 208Z" />
<glyph unicode="&#xa0;" glyph-name="uni00A0" horiz-adv-x="240" />
<glyph unicode="&#xa1;" glyph-name="exclamdown" horiz-adv-x="233" d="M176 493T176 469T160 426T117 406Q94 406 75 424T56 466T73 510T116 530Q139 530 157 512ZM102 334T117 334T140 266Q143 247 154 109T166 -65Q166 -87 153 -98T117 -110T82 -99T68 -65Q68
-29 79 110T94 266Q102 334 117 334Z" />
<glyph unicode="&#xa2;" glyph-name="cent" horiz-adv-x="473" d="M290 573L326 566L305 447Q419 431 419 344Q419 321 407 308T376 294Q358 294 345 303T331 329Q331 350 341 360T366 370Q355 410 300 418L234 40Q256 28 281 28Q368 28 421 94L445 82Q416 34
370 12T247 -10Q232 -10 225 -9L204 -128L167 -121L188 -3Q120 14 76 72T31 242Q31 329 92 389T254 450H268L290 573ZM200 64L263 420Q202 419 164 372T126 246Q126 193 146 144T200 64Z" />
<glyph unicode="&#xa3;" glyph-name="sterling" horiz-adv-x="533" d="M343 72Q387 72 418 81T462 101T483 121T494 130Q504 130 504 118Q504 113 500 101T483 69T454 33T409 4T347 -8Q284 -8 223 45Q186 -10 129 -10Q80 -10 55 17T29 82Q29 110 56 136T113 162Q143
162 173 147V152Q173 182 166 242T157 345H89V389H157Q161 497 196 546T300 595Q366 595 408 572T450 508Q450 490 437 479T407 468T380 479T368 507Q368 521 378 531Q378 547 356 556T310 565Q248 565 247 389H353V345H248Q249 321 253 268T257 178Q257 134 247
100Q294 72 343 72ZM170 96Q138 128 113 128Q94 128 79 114T63 81Q63 56 80 40T125 24Q161 24 170 96Z" />
<glyph unicode="&#xa4;" glyph-name="currency" horiz-adv-x="511" d="M113 321T113 262T155 161T256 119T357 161T399 262T357 363T256 405T155 363ZM107 147Q68 199 68 262Q68 327 109 379L53 434L85 466L140 410Q191 450 256 450Q319 450 371 411L425 466L457
434L403 380Q444 330 444 262Q444 197 404 146L457 94L425 62L373 115Q321 74 256 74Q188 74 138 115L85 62L53 94L107 147Z" />
<glyph unicode="&#xa5;" glyph-name="yen" horiz-adv-x="541" d="M218 585V564Q189 564 176 560L295 267L409 553Q395 564 353 564V585H517V564Q462 564 455 545L325 220H404V176H319V120H404V76H319V41Q328 21 382 21V0H164V21Q218 21 227 41V76H140V120H227V176H140V220H216L87
544Q78 564 24 564V585H218Z" />
<glyph unicode="&#xa6;" glyph-name="brokenbar" horiz-adv-x="192" d="M78 650H114V362H78V650ZM78 258H114V-30H78V258Z" />
<glyph unicode="&#xa7;" glyph-name="section" horiz-adv-x="410" d="M310 458Q296 458 285 469T274 494Q274 524 258 550T215 576Q142 576 142 516Q142 496 177 455T256 374T334 284T370 198Q370 75 272 42Q344 -28 344 -84Q344 -123 299 -155T187 -188Q142 -188
104 -153T66 -90Q66 -74 75 -62T100 -50Q114 -50 125 -61T136 -86Q136 -116 152 -142T195 -168Q268 -168 268 -108Q268 -88 233 -47T154 34T76 124T40 210Q40 333 138 366Q66 436 66 492Q66 531 111 563T223 596Q268 596 306 561T344 498Q344 482 335 470T310 458ZM244
69Q310 89 310 140Q310 154 306 168T298 193T282 220T264 244T241 269T217 291T191 316T166 339Q100 319 100 268Q100 254 104 240T112 215T128 188T146 164T169 139T193 117T219 92T244 69Z" />
<glyph unicode="&#xa8;" glyph-name="dieresis" horiz-adv-x="402" d="M244 529T244 549T258 583T293 598T327 584T342 549T328 515T293 500T259 514ZM60 529T60 549T74 583T109 598T143 584T158 549T144 515T109 500T75 514Z" />
<glyph unicode="&#xa9;" glyph-name="copyright" horiz-adv-x="641" d="M72 371T72 268T145 92T321 19T497 92T570 268T497 444T321 517T145 444ZM45 154T45 268T126 463T321 544T516 463T597 268T516 73T321 -8T126 73ZM333 402Q292 402 266 368T239 279Q239
214 267 179T335 143Q361 143 383 161T414 199L435 189Q407 116 325 116Q256 116 217 161T177 268Q177 341 223 385T333 429Q346 429 358 426T379 418T388 414T389 424H411L416 350H396Q386 402 333 402Z" />
<glyph unicode="&#xaa;" glyph-name="ordfeminine" horiz-adv-x="363" d="M64 155H304V129H64V155ZM116 412Q132 408 132 387Q132 365 104 365Q91 365 85 374T78 395Q78 425 101 440T165 455Q214 455 237 430T260 366V267Q260 241 273 241Q285 241 285 253H304Q304
232 293 224T253 216Q228 216 216 234Q185 215 144 215Q64 215 64 281Q64 296 73 307T101 326T135 338T174 348T205 355Q204 396 195 411T160 427Q125 427 116 412ZM207 256Q205 267 205 281V333Q201 332 192 330T178 326T165 322T153 317T142 311T133 305T127
298T122 290T120 280Q120 257 128 250T152 242Q181 242 207 256Z" />
<glyph unicode="&#xab;" glyph-name="guillemotleft" horiz-adv-x="437" d="M52 324L214 418V392L127 299L214 206V180L52 274Q39 281 39 299T52 324ZM212 324L374 418V392L287 299L374 206V180L212 274Q199 281 199 299T212 324Z" />
<glyph unicode="&#xac;" glyph-name="logicalnot" horiz-adv-x="424" d="M315 296H65V340H357V208H315V296Z" />
<glyph unicode="&#xad;" glyph-name="uni00AD" horiz-adv-x="388" d="M62 340H326V296H62V340Z" />
<glyph unicode="&#xae;" glyph-name="registered" horiz-adv-x="641" d="M72 371T72 268T145 92T321 19T497 92T570 268T497 444T321 517T145 444ZM45 154T45 268T126 463T321 544T516 463T597 268T516 73T321 -8T126 73ZM189 122V142Q215 142 220 149V398Q217
404 189 404V424H307Q371 424 404 401T437 346Q437 286 374 264L438 150Q441 142 471 142V122H445Q409 122 397 127T374 151L315 255H276V149Q279 142 307 142V122H189ZM276 398V282H313Q352 282 364 295T377 345Q377 371 362 384T307 398H276Z" />
<glyph unicode="&#xaf;" glyph-name="overscore" horiz-adv-x="384" d="M60 558H324V514H60V558Z" />
<glyph unicode="&#xb0;" glyph-name="degree" horiz-adv-x="312" d="M83 546T83 516T104 465T156 444T207 465T229 516T208 567T156 589T105 568ZM42 470T42 516T76 596T156 630T236 596T270 516T237 437T156 403T76 436Z" />
<glyph unicode="&#xb1;" glyph-name="plusminus" horiz-adv-x="416" d="M65 178H351V134H65V178ZM230 348V247H186V348H65V392H186V493H230V392H351V348H230Z" />
<glyph unicode="&#xb2;" glyph-name="uni00B2" horiz-adv-x="360" d="M263 336Q289 346 301 379H323L295 280H36V285Q36 297 66 326T132 388T199 465T229 548Q229 575 213 592T166 610Q131 610 109 600T79 578T66 556T53 546Q43 546 43 557Q43 583 77 621T174
660Q241 660 272 633T304 557Q304 522 267 476T182 386T129 336H263Z" />
<glyph unicode="&#xb3;" glyph-name="uni00B3" horiz-adv-x="354" d="M152 460Q145 460 140 464T134 473Q134 482 142 482Q195 498 209 512Q226 528 226 554T208 595T158 610Q129 610 111 602T88 584T77 566T65 557Q55 557 55 569Q55 593 84 626T166 660Q293 660
293 563Q293 520 244 491Q274 479 292 455T311 402Q311 344 280 310T168 276Q131 276 99 288T52 313T37 336Q37 359 43 368T65 377Q76 377 83 366T96 342T118 317T164 306Q246 306 246 388Q246 416 231 440T185 464Q177 464 168 462T152 460Z" />
<glyph unicode="&#xb4;" glyph-name="acute" horiz-adv-x="300" d="M134 662H240L86 500H60L134 662Z" />
<glyph unicode="&#xb5;" glyph-name="uni00B5" horiz-adv-x="580" d="M468 440V83Q468 51 478 36T504 20Q517 20 527 27T538 45H556Q556 16 535 3T464 -10Q398 -10 383 61Q325 -10 245 -10Q160 -10 119 24V-33Q119 -62 129 -80T152 -104T174 -123T185 -155Q185
-177 170 -188T135 -200Q114 -200 96 -185T77 -134V440H167V125Q167 24 259 24Q322 24 378 96V111V440H468Z" />
<glyph unicode="&#xb6;" glyph-name="paragraph" horiz-adv-x="532" d="M127 0V21Q181 21 190 41V268Q114 275 72 318T30 426Q30 453 41 479T77 530T145 570T248 585H488V564Q434 564 425 544V41Q434 21 488 21V0H333V551H282V0H127Z" />
<glyph unicode="&#xb7;" glyph-name="middot" horiz-adv-x="228" d="M54 277T54 301T70 344T113 364Q136 364 155 346T174 304T157 260T114 240Q91 240 73 258Z" />
<glyph unicode="&#xb8;" glyph-name="cedilla" horiz-adv-x="304" d="M124 12H162L144 -55Q176 -55 210 -71T244 -122Q244 -199 134 -199Q101 -199 60 -192V-175Q78 -177 85 -177Q123 -177 140 -163T157 -130Q157 -86 96 -86L124 12Z" />
<glyph unicode="&#xb9;" glyph-name="uni00B9" horiz-adv-x="242" d="M40 508Q43 514 57 539T81 580T103 615T125 645T141 655H159V313Q164 303 202 303V280H46V303Q82 303 88 313V530Q81 526 57 499L40 508Z" />
<glyph unicode="&#xba;" glyph-name="ordmasculine" horiz-adv-x="367" d="M62 155H305V129H62V155ZM120 349Q120 292 140 266T192 240Q217 240 232 262T247 321Q247 429 174 429Q150 429 135 405T120 349ZM186 215Q127 215 95 249T62 339Q62 390 92 422T182 455Q244
455 274 422T305 333Q305 282 276 249T186 215Z" />
<glyph unicode="&#xbb;" glyph-name="guillemotright" horiz-adv-x="437" d="M225 274L63 180V206L150 299L63 392V418L225 324Q238 317 238 299T225 274ZM385 274L223 180V206L310 299L223 392V418L385 324Q398 317 398 299T385 274Z" />
<glyph unicode="&#xbc;" glyph-name="onequarter" horiz-adv-x="650" d="M104 -10L493 612L522 594L133 -28L104 -10ZM566 375V134H621V105H566V33Q572 23 608 23V0H454V23Q491 23 496 33V105H335L524 375H566ZM496 134V284L391 134H496ZM34 508Q37 514 51 539T75
580T97 615T119 645T135 655H153V313Q158 303 196 303V280H40V303Q76 303 82 313V530Q75 526 51 499L34 508Z" />
<glyph unicode="&#xbd;" glyph-name="onehalf" horiz-adv-x="678" d="M82 -10L471 612L500 594L111 -28L82 -10ZM589 56Q615 66 627 99H649L621 0H362V5Q362 17 392 46T458 108T525 185T555 268Q555 295 539 312T492 330Q457 330 435 320T405 298T392 276T379
266Q369 266 369 277Q369 303 403 341T500 380Q567 380 598 353T630 277Q630 242 593 196T508 106T455 56H589ZM36 508Q39 514 53 539T77 580T99 615T121 645T137 655H155V313Q160 303 198 303V280H42V303Q78 303 84 313V530Q77 526 53 499L36 508Z" />
<glyph unicode="&#xbe;" glyph-name="threequarters" horiz-adv-x="687" d="M150 -10L539 612L568 594L179 -28L150 -10ZM602 375V134H657V105H602V33Q608 23 644 23V0H490V23Q527 23 532 33V105H371L560 375H602ZM532 134V284L427 134H532ZM144 460Q137 460 132
464T126 473Q126 482 134 482Q187 498 201 512Q218 528 218 554T200 595T150 610Q121 610 103 602T80 584T69 566T57 557Q47 557 47 569Q47 593 76 626T158 660Q285 660 285 563Q285 520 236 491Q266 479 284 455T303 402Q303 344 272 310T160 276Q123 276 91 288T44
313T29 336Q29 359 35 368T57 377Q68 377 75 366T88 342T110 317T156 306Q238 306 238 388Q238 416 223 440T177 464Q169 464 160 462T144 460Z" />
<glyph unicode="&#xbf;" glyph-name="questiondown" horiz-adv-x="394" d="M272 493T272 469T256 426T213 406Q190 406 171 424T152 466T169 510T212 530Q235 530 253 512ZM227 320Q227 282 211 246T175 184T139 120T122 40Q122 -23 144 -51T217 -80Q255 -80 280
-57T305 -9Q305 3 298 16T290 41Q290 56 299 65T323 75Q340 75 352 63T365 24Q365 -27 324 -68T207 -110Q115 -110 74 -63T32 45Q32 84 58 125T116 196T174 260T201 320Q201 325 205 329T214 334T222 330T227 320Z" />
<glyph unicode="&#xc0;" glyph-name="Agrave" horiz-adv-x="546" d="M228 782L302 620H276L122 782H228ZM336 0V21Q382 21 394 33L338 186H146L94 39Q104 21 156 21V0H-8V21Q48 21 55 42L249 585H297L491 42Q498 21 555 21V0H336ZM241 452L158 219H326L241 452Z" />
<glyph unicode="&#xc1;" glyph-name="Aacute" horiz-adv-x="546" d="M337 782H443L289 620H263L337 782ZM336 0V21Q382 21 394 33L338 186H146L94 39Q104 21 156 21V0H-8V21Q48 21 55 42L249 585H297L491 42Q498 21 555 21V0H336ZM241 452L158 219H326L241 452Z" />
<glyph unicode="&#xc2;" glyph-name="Acircumflex" horiz-adv-x="546" d="M301 782L395 620H369L276 707L183 620H157L251 782H301ZM336 0V21Q382 21 394 33L338 186H146L94 39Q104 21 156 21V0H-8V21Q48 21 55 42L249 585H297L491 42Q498 21 555 21V0H336ZM241
452L158 219H326L241 452Z" />
<glyph unicode="&#xc3;" glyph-name="Atilde" horiz-adv-x="546" d="M351 620Q329 620 270 649T196 679Q168 679 157 665T146 620H127Q127 732 203 732Q225 732 285 703T359 673Q387 673 398 687T409 732H428Q428 620 351 620ZM336 0V21Q382 21 394 33L338 186H146L94
39Q104 21 156 21V0H-8V21Q48 21 55 42L249 585H297L491 42Q498 21 555 21V0H336ZM241 452L158 219H326L241 452Z" />
<glyph unicode="&#xc4;" glyph-name="Adieresis" horiz-adv-x="546" d="M319 649T319 669T333 703T368 718T402 704T417 669T403 635T368 620T334 634ZM135 649T135 669T149 703T184 718T218 704T233 669T219 635T184 620T150 634ZM336 0V21Q382 21 394 33L338
186H146L94 39Q104 21 156 21V0H-8V21Q48 21 55 42L249 585H297L491 42Q498 21 555 21V0H336ZM241 452L158 219H326L241 452Z" />
<glyph unicode="&#xc5;" glyph-name="Aring" horiz-adv-x="546" d="M229 708T229 689T242 656T276 642T309 656T323 689T310 722T276 736T243 722ZM186 651T186 689T212 753T276 779T340 753T366 689T340 625T276 599T212 625ZM336 0V21Q382 21 394 33L338 186H146L94
39Q104 21 156 21V0H-8V21Q48 21 55 42L249 585H297L491 42Q498 21 555 21V0H336ZM241 452L158 219H326L241 452Z" />
<glyph unicode="&#xc6;" glyph-name="AE" horiz-adv-x="757" d="M142 0H-22V21Q29 21 41 41L328 553Q316 564 271 564V585H695V488H674Q674 542 654 551H447V321H587Q607 330 607 384H628V224H607Q607 278 587 287H447V34H675Q700 45 720 97H740L716 0H292V21Q346
21 355 41V186H162L80 39Q90 21 142 21V0ZM181 219H355V530L181 219Z" />
<glyph unicode="&#xc7;" glyph-name="Ccedilla" horiz-adv-x="564" d="M348 561L347 562Q261 562 204 491T147 307Q147 175 207 100T351 25Q401 25 450 59T513 133L537 121Q485 -4 343 -9L331 -54Q363 -54 397 -70T431 -121Q431 -198 321 -198Q288 -198 247 -191V-174Q265
-176 272 -176Q310 -176 327 -162T344 -129Q344 -85 283 -85L305 -8Q224 -2 164 41T74 147T44 284Q44 424 133 509T347 595Q376 595 414 580T458 565Q470 565 470 585H493L503 458H481Q474 503 442 532T348 561Z" />
<glyph unicode="&#xc8;" glyph-name="Egrave" horiz-adv-x="507" d="M220 782L294 620H268L114 782H220ZM42 0V21Q96 21 105 41V544Q96 564 42 564V585H445V488H424Q424 542 404 551H197V321H337Q357 330 357 384H378V224H357Q357 278 337 287H197V34H425Q450
45 470 97H490L466 0H42Z" />
<glyph unicode="&#xc9;" glyph-name="Eacute" horiz-adv-x="507" d="M329 782H435L281 620H255L329 782ZM42 0V21Q96 21 105 41V544Q96 564 42 564V585H445V488H424Q424 542 404 551H197V321H337Q357 330 357 384H378V224H357Q357 278 337 287H197V34H425Q450
45 470 97H490L466 0H42Z" />
<glyph unicode="&#xca;" glyph-name="Ecircumflex" horiz-adv-x="507" d="M293 782L387 620H361L268 707L175 620H149L243 782H293ZM42 0V21Q96 21 105 41V544Q96 564 42 564V585H445V488H424Q424 542 404 551H197V321H337Q357 330 357 384H378V224H357Q357 278
337 287H197V34H425Q450 45 470 97H490L466 0H42Z" />
<glyph unicode="&#xcb;" glyph-name="Edieresis" horiz-adv-x="507" d="M311 649T311 669T325 703T360 718T394 704T409 669T395 635T360 620T326 634ZM127 649T127 669T141 703T176 718T210 704T225 669T211 635T176 620T142 634ZM42 0V21Q96 21 105 41V544Q96
564 42 564V585H445V488H424Q424 542 404 551H197V321H337Q357 330 357 384H378V224H357Q357 278 337 287H197V34H425Q450 45 470 97H490L466 0H42Z" />
<glyph unicode="&#xcc;" glyph-name="Igrave" horiz-adv-x="302" d="M357 782L431 620H405L251 782H357ZM42 0V21Q96 21 105 41V544Q96 564 42 564V585H260V564Q206 564 197 544V41Q206 21 260 21V0H42Z" />
<glyph unicode="&#xcd;" glyph-name="Iacute" horiz-adv-x="302" d="M210 782H316L162 620H136L210 782ZM42 0V21Q96 21 105 41V544Q96 564 42 564V585H260V564Q206 564 197 544V41Q206 21 260 21V0H42Z" />
<glyph unicode="&#xce;" glyph-name="Icircumflex" horiz-adv-x="302" d="M430 782L524 620H498L405 707L312 620H286L380 782H430ZM42 0V21Q96 21 105 41V544Q96 564 42 564V585H260V564Q206 564 197 544V41Q206 21 260 21V0H42Z" />
<glyph unicode="&#xcf;" glyph-name="Idieresis" horiz-adv-x="302" d="M448 649T448 669T462 703T497 718T531 704T546 669T532 635T497 620T463 634ZM264 649T264 669T278 703T313 718T347 704T362 669T348 635T313 620T279 634ZM42 0V21Q96 21 105 41V544Q96
564 42 564V585H260V564Q206 564 197 544V41Q206 21 260 21V0H42Z" />
<glyph unicode="&#xd0;" glyph-name="Eth" horiz-adv-x="607" d="M38 -1V20Q92 20 101 40V154Q101 291 177 369T426 457Q399 506 357 530T268 555H193V470H153V555H55Q35 546 35 492H14V585H153V655H193V585H268Q401 585 482 504T563 293T484 81T280 -1H38ZM440
427Q311 419 252 355T193 192V33H280Q312 33 342 47T401 91T446 172T463 292Q463 368 440 427Z" />
<glyph unicode="&#xd1;" glyph-name="Ntilde" horiz-adv-x="637" d="M393 620Q371 620 312 649T238 679Q210 679 199 665T188 620H169Q169 732 245 732Q267 732 327 703T401 673Q429 673 440 687T451 732H470Q470 620 393 620ZM42 0V21Q96 21 105 41V544Q96 564
42 564V585H176L507 176V544Q498 564 444 564V585H604V564Q550 564 541 544V0H532L139 497V41Q148 21 202 21V0H42Z" />
<glyph unicode="&#xd2;" glyph-name="Ograve" horiz-adv-x="641" d="M273 782L347 620H321L167 782H273ZM144 300Q144 234 162 174T223 69T325 24T424 66T481 164T498 284Q498 349 479 410T418 516T317 561Q272 561 238 537T184 474T154 390T144 300ZM44 292Q44
417 122 506T321 595T520 506T598 292T520 79T321 -10Q199 -10 122 78T44 292Z" />
<glyph unicode="&#xd3;" glyph-name="Oacute" horiz-adv-x="641" d="M382 782H488L334 620H308L382 782ZM144 300Q144 234 162 174T223 69T325 24T424 66T481 164T498 284Q498 349 479 410T418 516T317 561Q272 561 238 537T184 474T154 390T144 300ZM44 292Q44
417 122 506T321 595T520 506T598 292T520 79T321 -10Q199 -10 122 78T44 292Z" />
<glyph unicode="&#xd4;" glyph-name="Ocircumflex" horiz-adv-x="641" d="M346 782L440 620H414L321 707L228 620H202L296 782H346ZM144 300Q144 234 162 174T223 69T325 24T424 66T481 164T498 284Q498 349 479 410T418 516T317 561Q272 561 238 537T184 474T154
390T144 300ZM44 292Q44 417 122 506T321 595T520 506T598 292T520 79T321 -10Q199 -10 122 78T44 292Z" />
<glyph unicode="&#xd5;" glyph-name="Otilde" horiz-adv-x="641" d="M396 620Q374 620 315 649T241 679Q213 679 202 665T191 620H172Q172 732 248 732Q270 732 330 703T404 673Q432 673 443 687T454 732H473Q473 620 396 620ZM144 300Q144 234 162 174T223 69T325
24T424 66T481 164T498 284Q498 349 479 410T418 516T317 561Q272 561 238 537T184 474T154 390T144 300ZM44 292Q44 417 122 506T321 595T520 506T598 292T520 79T321 -10Q199 -10 122 78T44 292Z" />
<glyph unicode="&#xd6;" glyph-name="Odieresis" horiz-adv-x="641" d="M364 649T364 669T378 703T413 718T447 704T462 669T448 635T413 620T379 634ZM180 649T180 669T194 703T229 718T263 704T278 669T264 635T229 620T195 634ZM144 300Q144 234 162 174T223
69T325 24T424 66T481 164T498 284Q498 349 479 410T418 516T317 561Q272 561 238 537T184 474T154 390T144 300ZM44 292Q44 417 122 506T321 595T520 506T598 292T520 79T321 -10Q199 -10 122 78T44 292Z" />
<glyph unicode="&#xd7;" glyph-name="multiply" horiz-adv-x="420" d="M241 318L369 190L338 159L210 287L82 159L51 190L179 318L51 446L82 477L210 349L338 477L369 446L241 318Z" />
<glyph unicode="&#xd8;" glyph-name="Oslash" horiz-adv-x="641" d="M432 501Q384 561 317 561Q272 561 238 537T184 474T154 390T144 300Q144 191 189 113L432 501ZM453 470L210 82Q256 24 325 24Q384 24 424 66T481 164T498 284Q498 392 453 470ZM44 292Q44
417 122 506T321 595Q400 595 465 554L501 612L530 594L492 533Q542 491 570 428T598 292Q598 167 520 79T321 -10Q241 -10 178 30L141 -28L112 -10L150 51Q100 93 72 156T44 292Z" />
<glyph unicode="&#xd9;" glyph-name="Ugrave" horiz-adv-x="618" d="M288 782L362 620H336L182 782H288ZM338 24Q405 24 450 80T496 228V544Q487 564 433 564V585H593V564Q539 564 530 544V248Q530 118 473 54T328 -10Q88 -10 88 248V544Q79 564 25 564V585H243V564Q189
564 180 544V234Q180 135 224 80T338 24Z" />
<glyph unicode="&#xda;" glyph-name="Uacute" horiz-adv-x="618" d="M397 782H503L349 620H323L397 782ZM338 24Q405 24 450 80T496 228V544Q487 564 433 564V585H593V564Q539 564 530 544V248Q530 118 473 54T328 -10Q88 -10 88 248V544Q79 564 25 564V585H243V564Q189
564 180 544V234Q180 135 224 80T338 24Z" />
<glyph unicode="&#xdb;" glyph-name="Ucircumflex" horiz-adv-x="618" d="M361 782L455 620H429L336 707L243 620H217L311 782H361ZM338 24Q405 24 450 80T496 228V544Q487 564 433 564V585H593V564Q539 564 530 544V248Q530 118 473 54T328 -10Q88 -10 88 248V544Q79
564 25 564V585H243V564Q189 564 180 544V234Q180 135 224 80T338 24Z" />
<glyph unicode="&#xdc;" glyph-name="Udieresis" horiz-adv-x="618" d="M379 649T379 669T393 703T428 718T462 704T477 669T463 635T428 620T394 634ZM195 649T195 669T209 703T244 718T278 704T293 669T279 635T244 620T210 634ZM338 24Q405 24 450 80T496 228V544Q487
564 433 564V585H593V564Q539 564 530 544V248Q530 118 473 54T328 -10Q88 -10 88 248V544Q79 564 25 564V585H243V564Q189 564 180 544V234Q180 135 224 80T338 24Z" />
<glyph unicode="&#xdd;" glyph-name="Yacute" horiz-adv-x="563" d="M369 782H475L321 620H295L369 782ZM210 585V564Q163 564 152 552L307 281L467 546Q456 564 405 564V585H569V564Q527 564 512 551L332 252V41Q341 21 395 21V0H177V21Q231 21 240 41V220L55
544Q41 564 -9 564V585H210Z" />
<glyph unicode="&#xde;" glyph-name="Thorn" horiz-adv-x="522" d="M42 0V21Q96 21 105 41V544Q96 564 42 564V585H260V564Q206 564 197 544V460H249Q376 460 438 417T501 308Q501 233 441 187T261 141H197V41Q206 21 260 21V0H42ZM197 426V175H261Q338 175 369
205T401 307Q401 366 368 396T249 426H197Z" />
<glyph unicode="&#xdf;" glyph-name="germandbls" horiz-adv-x="514" d="M237 368Q264 378 290 419T317 499Q317 530 299 565T244 600Q217 600 196 571T174 488V0H21V21Q75 21 84 41V474Q84 555 127 592T230 630Q323 630 360 597T397 500Q397 458 370 419T300
359Q374 346 429 296T485 190Q485 98 443 44T323 -10Q263 -10 233 19T203 72Q203 102 210 114T239 126Q251 126 256 110T263 73T278 37T317 20Q350 20 376 62T402 170Q402 232 352 288T239 344H237Q221 344 221 354Q221 363 237 368Z" />
<glyph unicode="&#xe0;" glyph-name="agrave" horiz-adv-x="483" d="M174 677L248 515H222L68 677H174ZM112 366Q126 366 136 356T147 325Q147 308 134 299T102 290Q83 290 71 303T59 340Q59 392 102 421T224 450Q317 450 360 404T404 282V84Q404 52 414 37T440
22Q453 22 463 29T474 46H492Q492 18 472 5T400 -8Q350 -8 329 33Q270 -10 182 -10Q32 -10 32 112Q32 138 50 159T104 194T170 216T247 235T314 252Q314 336 292 375T214 414Q124 414 112 366ZM320 58Q314 80 314 112V230Q303 226 277 219T234 207T194 192T158
172T135 146T125 110Q125 62 143 43T199 24Q265 24 320 58Z" />
<glyph unicode="&#xe1;" glyph-name="aacute" horiz-adv-x="483" d="M283 677H389L235 515H209L283 677ZM112 366Q126 366 136 356T147 325Q147 308 134 299T102 290Q83 290 71 303T59 340Q59 392 102 421T224 450Q317 450 360 404T404 282V84Q404 52 414 37T440
22Q453 22 463 29T474 46H492Q492 18 472 5T400 -8Q350 -8 329 33Q270 -10 182 -10Q32 -10 32 112Q32 138 50 159T104 194T170 216T247 235T314 252Q314 336 292 375T214 414Q124 414 112 366ZM320 58Q314 80 314 112V230Q303 226 277 219T234 207T194 192T158
172T135 146T125 110Q125 62 143 43T199 24Q265 24 320 58Z" />
<glyph unicode="&#xe2;" glyph-name="acircumflex" horiz-adv-x="483" d="M247 677L341 515H315L222 602L129 515H103L197 677H247ZM112 366Q126 366 136 356T147 325Q147 308 134 299T102 290Q83 290 71 303T59 340Q59 392 102 421T224 450Q317 450 360 404T404
282V84Q404 52 414 37T440 22Q453 22 463 29T474 46H492Q492 18 472 5T400 -8Q350 -8 329 33Q270 -10 182 -10Q32 -10 32 112Q32 138 50 159T104 194T170 216T247 235T314 252Q314 336 292 375T214 414Q124 414 112 366ZM320 58Q314 80 314 112V230Q303 226 277
219T234 207T194 192T158 172T135 146T125 110Q125 62 143 43T199 24Q265 24 320 58Z" />
<glyph unicode="&#xe3;" glyph-name="atilde" horiz-adv-x="483" d="M297 515Q275 515 216 544T142 574Q114 574 103 560T92 515H73Q73 627 149 627Q171 627 231 598T305 568Q333 568 344 582T355 627H374Q374 515 297 515ZM112 366Q126 366 136 356T147 325Q147
308 134 299T102 290Q83 290 71 303T59 340Q59 392 102 421T224 450Q317 450 360 404T404 282V84Q404 52 414 37T440 22Q453 22 463 29T474 46H492Q492 18 472 5T400 -8Q350 -8 329 33Q270 -10 182 -10Q32 -10 32 112Q32 138 50 159T104 194T170 216T247 235T314
252Q314 336 292 375T214 414Q124 414 112 366ZM320 58Q314 80 314 112V230Q303 226 277 219T234 207T194 192T158 172T135 146T125 110Q125 62 143 43T199 24Q265 24 320 58Z" />
<glyph unicode="&#xe4;" glyph-name="adieresis" horiz-adv-x="483" d="M265 544T265 564T279 598T314 613T348 599T363 564T349 530T314 515T280 529ZM81 544T81 564T95 598T130 613T164 599T179 564T165 530T130 515T96 529ZM112 366Q126 366 136 356T147 325Q147
308 134 299T102 290Q83 290 71 303T59 340Q59 392 102 421T224 450Q317 450 360 404T404 282V84Q404 52 414 37T440 22Q453 22 463 29T474 46H492Q492 18 472 5T400 -8Q350 -8 329 33Q270 -10 182 -10Q32 -10 32 112Q32 138 50 159T104 194T170 216T247 235T314
252Q314 336 292 375T214 414Q124 414 112 366ZM320 58Q314 80 314 112V230Q303 226 277 219T234 207T194 192T158 172T135 146T125 110Q125 62 143 43T199 24Q265 24 320 58Z" />
<glyph unicode="&#xe5;" glyph-name="aring" horiz-adv-x="483" d="M175 603T175 584T188 551T222 537T255 551T269 584T256 617T222 631T189 617ZM132 546T132 584T158 648T222 674T286 648T312 584T286 520T222 494T158 520ZM112 366Q126 366 136 356T147 325Q147
308 134 299T102 290Q83 290 71 303T59 340Q59 392 102 421T224 450Q317 450 360 404T404 282V84Q404 52 414 37T440 22Q453 22 463 29T474 46H492Q492 18 472 5T400 -8Q350 -8 329 33Q270 -10 182 -10Q32 -10 32 112Q32 138 50 159T104 194T170 216T247 235T314
252Q314 336 292 375T214 414Q124 414 112 366ZM320 58Q314 80 314 112V230Q303 226 277 219T234 207T194 192T158 172T135 146T125 110Q125 62 143 43T199 24Q265 24 320 58Z" />
<glyph unicode="&#xe6;" glyph-name="ae" horiz-adv-x="708" d="M298 247Q298 336 280 375T214 414Q124 414 112 366Q126 366 136 356T147 325Q147 308 134 299T102 290Q83 290 71 303T59 340Q59 392 102 421T224 450Q313 450 355 395Q404 450 482 450Q579 450
624 391T670 241H392V220Q392 28 526 28Q563 28 588 42T644 94L668 82Q638 33 600 12T492 -10Q398 -10 348 46Q279 -10 182 -10Q32 -10 32 112Q32 133 45 151T77 180T127 203T182 219T243 233T298 247ZM298 226Q294 225 274 220T247 212T222 204T196 194T174 183T154
169T139 153T128 133T125 110Q125 62 143 43T199 24Q229 24 268 36T334 65Q298 123 298 216V226ZM395 272H572Q566 347 548 383T477 420Q451 420 427 380T395 272Z" />
<glyph unicode="&#xe7;" glyph-name="ccedilla" horiz-adv-x="479" d="M272 420Q210 420 172 373T134 246Q134 161 181 95T289 28Q376 28 429 94L453 82Q400 -4 279 -9L267 -55Q299 -55 333 -71T367 -122Q367 -199 257 -199Q224 -199 183 -192V-175Q201 -177 208
-177Q246 -177 263 -163T280 -130Q280 -86 219 -86L241 -10Q204 -8 171 5T107 45T58 123T39 242Q39 329 100 389T262 450Q341 450 384 423T427 344Q427 321 415 308T384 294Q366 294 353 303T339 329Q339 350 349 360T374 370Q361 420 272 420Z" />
<glyph unicode="&#xe8;" glyph-name="egrave" horiz-adv-x="493" d="M196 677L270 515H244L90 677H196ZM134 241Q135 157 182 93T289 28Q376 28 429 94L453 82Q424 34 378 12T255 -10Q217 -10 182 1T113 39T59 118T39 242Q39 330 93 390T245 450Q351 450 403 391T455
241H134ZM135 272H357Q351 344 327 382T241 420Q206 420 174 379T135 272Z" />
<glyph unicode="&#xe9;" glyph-name="eacute" horiz-adv-x="493" d="M305 677H411L257 515H231L305 677ZM134 241Q135 157 182 93T289 28Q376 28 429 94L453 82Q424 34 378 12T255 -10Q217 -10 182 1T113 39T59 118T39 242Q39 330 93 390T245 450Q351 450 403
391T455 241H134ZM135 272H357Q351 344 327 382T241 420Q206 420 174 379T135 272Z" />
<glyph unicode="&#xea;" glyph-name="ecircumflex" horiz-adv-x="493" d="M269 677L363 515H337L244 602L151 515H125L219 677H269ZM134 241Q135 157 182 93T289 28Q376 28 429 94L453 82Q424 34 378 12T255 -10Q217 -10 182 1T113 39T59 118T39 242Q39 330 93
390T245 450Q351 450 403 391T455 241H134ZM135 272H357Q351 344 327 382T241 420Q206 420 174 379T135 272Z" />
<glyph unicode="&#xeb;" glyph-name="edieresis" horiz-adv-x="493" d="M287 544T287 564T301 598T336 613T370 599T385 564T371 530T336 515T302 529ZM103 544T103 564T117 598T152 613T186 599T201 564T187 530T152 515T118 529ZM134 241Q135 157 182 93T289
28Q376 28 429 94L453 82Q424 34 378 12T255 -10Q217 -10 182 1T113 39T59 118T39 242Q39 330 93 390T245 450Q351 450 403 391T455 241H134ZM135 272H357Q351 344 327 382T241 420Q206 420 174 379T135 272Z" />
<glyph unicode="&#xec;" glyph-name="igrave" horiz-adv-x="268" d="M349 677L423 515H397L243 677H349ZM31 0V21Q85 21 94 41V379Q32 384 31 384V407Q50 407 105 428T184 450V41Q193 21 247 21V0H31Z" />
<glyph unicode="&#xed;" glyph-name="iacute" horiz-adv-x="268" d="M202 677H308L154 515H128L202 677ZM31 0V21Q85 21 94 41V379Q32 384 31 384V407Q50 407 105 428T184 450V41Q193 21 247 21V0H31Z" />
<glyph unicode="&#xee;" glyph-name="icircumflex" horiz-adv-x="268" d="M422 677L516 515H490L397 602L304 515H278L372 677H422ZM31 0V21Q85 21 94 41V379Q32 384 31 384V407Q50 407 105 428T184 450V41Q193 21 247 21V0H31Z" />
<glyph unicode="&#xef;" glyph-name="idieresis" horiz-adv-x="268" d="M440 544T440 564T454 598T489 613T523 599T538 564T524 530T489 515T455 529ZM256 544T256 564T270 598T305 613T339 599T354 564T340 530T305 515T271 529ZM31 0V21Q85 21 94 41V379Q32
384 31 384V407Q50 407 105 428T184 450V41Q193 21 247 21V0H31Z" />
<glyph unicode="&#xf0;" glyph-name="eth" horiz-adv-x="527" d="M267 -10Q156 -10 98 54T39 228Q39 326 91 388T260 450Q296 450 326 444Q297 490 255 532L171 484L154 513L229 556Q209 573 190 587T160 606L150 612L161 630Q207 613 265 577L353 628L370 599L297
556Q486 420 486 216Q486 117 434 54T267 -10ZM135 248Q135 133 174 77T280 20Q333 20 361 67T390 193Q390 311 355 365T243 419Q191 419 163 370T135 248Z" />
<glyph unicode="&#xf1;" glyph-name="ntilde" horiz-adv-x="559" d="M363 516Q341 516 282 545T208 575Q180 575 169 561T158 516H139Q139 628 215 628Q237 628 297 599T371 569Q399 569 410 583T421 628H440Q440 516 363 516ZM31 0V21Q85 21 94 41V379Q32 384
31 384V407Q50 407 105 428T184 450V404Q238 450 303 450Q396 450 437 416T479 308V41Q488 21 542 21V0H326V21Q380 21 389 41V315Q389 416 297 416Q234 416 184 372V41Q193 21 247 21V0H31Z" />
<glyph unicode="&#xf2;" glyph-name="ograve" horiz-adv-x="545" d="M226 677L300 515H274L120 677H226ZM135 248Q135 134 178 77T290 20Q344 20 377 68T410 193Q410 419 253 419Q200 419 168 369T135 248ZM277 -10Q165 -10 102 55T39 228Q39 325 96 387T270 450Q388
450 447 388T506 216Q506 119 450 55T277 -10Z" />
<glyph unicode="&#xf3;" glyph-name="oacute" horiz-adv-x="545" d="M335 677H441L287 515H261L335 677ZM135 248Q135 134 178 77T290 20Q344 20 377 68T410 193Q410 419 253 419Q200 419 168 369T135 248ZM277 -10Q165 -10 102 55T39 228Q39 325 96 387T270 450Q388
450 447 388T506 216Q506 119 450 55T277 -10Z" />
<glyph unicode="&#xf4;" glyph-name="ocircumflex" horiz-adv-x="545" d="M299 677L393 515H367L274 602L181 515H155L249 677H299ZM135 248Q135 134 178 77T290 20Q344 20 377 68T410 193Q410 419 253 419Q200 419 168 369T135 248ZM277 -10Q165 -10 102 55T39
228Q39 325 96 387T270 450Q388 450 447 388T506 216Q506 119 450 55T277 -10Z" />
<glyph unicode="&#xf5;" glyph-name="otilde" horiz-adv-x="545" d="M349 515Q327 515 268 544T194 574Q166 574 155 560T144 515H125Q125 627 201 627Q223 627 283 598T357 568Q385 568 396 582T407 627H426Q426 515 349 515ZM135 248Q135 134 178 77T290 20Q344
20 377 68T410 193Q410 419 253 419Q200 419 168 369T135 248ZM277 -10Q165 -10 102 55T39 228Q39 325 96 387T270 450Q388 450 447 388T506 216Q506 119 450 55T277 -10Z" />
<glyph unicode="&#xf6;" glyph-name="odieresis" horiz-adv-x="545" d="M317 544T317 564T331 598T366 613T400 599T415 564T401 530T366 515T332 529ZM133 544T133 564T147 598T182 613T216 599T231 564T217 530T182 515T148 529ZM135 248Q135 134 178 77T290
20Q344 20 377 68T410 193Q410 419 253 419Q200 419 168 369T135 248ZM277 -10Q165 -10 102 55T39 228Q39 325 96 387T270 450Q388 450 447 388T506 216Q506 119 450 55T277 -10Z" />
<glyph unicode="&#xf7;" glyph-name="divide" horiz-adv-x="482" d="M184 434T184 457T199 498T240 517Q262 517 280 500T298 460T282 418T241 399Q220 399 202 416ZM184 154T184 177T199 218T240 237Q262 237 280 220T298 180T282 138T241 119Q220 119 202 136ZM44
340H438V296H44V340Z" />
<glyph unicode="&#xf8;" glyph-name="oslash" horiz-adv-x="545" d="M360 377Q322 419 253 419Q200 419 168 369T135 248Q135 156 165 99L360 377ZM380 348L185 69Q227 20 290 20Q344 20 377 68T410 193Q410 294 380 348ZM422 408Q506 349 506 216Q506 119 450
55T277 -10Q203 -10 150 19L112 -35L85 -15L122 37Q39 102 39 228Q39 325 96 387T270 450Q341 450 393 425L428 475L455 455L422 408Z" />
<glyph unicode="&#xf9;" glyph-name="ugrave" horiz-adv-x="550" d="M223 677L297 515H271L117 677H223ZM465 61Q465 61 528 56V33Q509 33 454 12T375 -10V36Q321 -10 256 -10Q163 -10 122 24T80 132V399Q71 419 17 419V440H170V125Q170 24 262 24Q325 24 375
68V399Q366 419 312 419V440H465V61Z" />
<glyph unicode="&#xfa;" glyph-name="uacute" horiz-adv-x="550" d="M332 677H438L284 515H258L332 677ZM465 61Q465 61 528 56V33Q509 33 454 12T375 -10V36Q321 -10 256 -10Q163 -10 122 24T80 132V399Q71 419 17 419V440H170V125Q170 24 262 24Q325 24 375
68V399Q366 419 312 419V440H465V61Z" />
<glyph unicode="&#xfb;" glyph-name="ucircumflex" horiz-adv-x="550" d="M296 677L390 515H364L271 602L178 515H152L246 677H296ZM465 61Q465 61 528 56V33Q509 33 454 12T375 -10V36Q321 -10 256 -10Q163 -10 122 24T80 132V399Q71 419 17 419V440H170V125Q170
24 262 24Q325 24 375 68V399Q366 419 312 419V440H465V61Z" />
<glyph unicode="&#xfc;" glyph-name="udieresis" horiz-adv-x="550" d="M314 544T314 564T328 598T363 613T397 599T412 564T398 530T363 515T329 529ZM130 544T130 564T144 598T179 613T213 599T228 564T214 530T179 515T145 529ZM465 61Q465 61 528 56V33Q509
33 454 12T375 -10V36Q321 -10 256 -10Q163 -10 122 24T80 132V399Q71 419 17 419V440H170V125Q170 24 262 24Q325 24 375 68V399Q366 419 312 419V440H465V61Z" />
<glyph unicode="&#xfd;" glyph-name="yacute" horiz-adv-x="483" d="M321 677H427L273 515H247L321 677ZM189 440V419Q160 419 147 415L266 122L380 408Q366 419 324 419V440H488V419Q434 419 426 401L225 -102Q206 -149 177 -170T120 -192Q95 -192 81 -179T66
-148Q66 -133 76 -121T105 -109Q116 -109 128 -117T146 -126Q167 -126 174 -108L217 0L58 399Q49 419 -5 419V440H189Z" />
<glyph unicode="&#xfe;" glyph-name="thorn" horiz-adv-x="519" d="M5 -192V-171Q59 -171 68 -151V559Q6 564 5 564V587Q24 587 79 608T158 630V390Q214 450 296 450Q384 450 432 395T480 267Q480 125 396 57T158 -12V-151Q167 -171 221 -171V-192H5ZM158 354V17Q385
21 385 242Q385 321 358 368T286 416Q208 416 158 354Z" />
<glyph unicode="&#xff;" glyph-name="ydieresis" horiz-adv-x="483" d="M303 544T303 564T317 598T352 613T386 599T401 564T387 530T352 515T318 529ZM119 544T119 564T133 598T168 613T202 599T217 564T203 530T168 515T134 529ZM189 440V419Q160 419 147 415L266
122L380 408Q366 419 324 419V440H488V419Q434 419 426 401L225 -102Q206 -149 177 -170T120 -192Q95 -192 81 -179T66 -148Q66 -133 76 -121T105 -109Q116 -109 128 -117T146 -126Q167 -126 174 -108L217 0L58 399Q49 419 -5 419V440H189Z" />
<glyph unicode="&#x2013;" glyph-name="endash" horiz-adv-x="518" d="M62 340H456V296H62V340Z" />
<glyph unicode="&#x2014;" glyph-name="emdash" horiz-adv-x="688" d="M62 340H626V296H62V340Z" />
<glyph unicode="&#x2018;" glyph-name="quoteleft" horiz-adv-x="224" d="M129 542Q180 542 180 498Q180 480 170 470T150 457T134 455Q96 455 69 478T42 542Q42 626 166 665V637Q141 634 115 610T88 554Q88 536 90 533T98 529Q101 529 109 535T129 542Z" />
<glyph unicode="&#x2019;" glyph-name="quoteright" horiz-adv-x="208" d="M90 578Q39 578 39 622Q39 640 49 650T69 663T85 665Q123 665 150 642T177 578Q177 494 53 455V483Q78 486 104 510T131 566Q131 584 130 587T121 591Q118 591 110 585T90 578Z" />
<glyph unicode="&#x201a;" glyph-name="quotesinglbase" horiz-adv-x="233" d="M104 -6Q53 -6 53 38Q53 56 63 66T83 79T99 81Q137 81 164 58T191 -6Q191 -90 67 -129V-101Q92 -98 118 -74T145 -18Q145 0 144 3T135 7Q132 7 124 1T104 -6Z" />
<glyph unicode="&#x201c;" glyph-name="quotedblleft" horiz-adv-x="404" d="M129 542Q180 542 180 498Q180 480 170 470T150 457T134 455Q96 455 69 478T42 542Q42 626 166 665V637Q141 634 115 610T88 554Q88 536 90 533T98 529Q101 529 109 535T129 542ZM309
542Q360 542 360 498Q360 480 350 470T330 457T314 455Q276 455 249 478T222 542Q222 626 346 665V637Q321 634 295 610T268 554Q268 536 270 533T278 529Q281 529 289 535T309 542Z" />
<glyph unicode="&#x201d;" glyph-name="quotedblright" horiz-adv-x="388" d="M90 578Q39 578 39 622Q39 640 49 650T69 663T85 665Q123 665 150 642T177 578Q177 494 53 455V483Q78 486 104 510T131 566Q131 584 130 587T121 591Q118 591 110 585T90 578ZM270
578Q219 578 219 622Q219 640 229 650T249 663T265 665Q303 665 330 642T357 578Q357 494 233 455V483Q258 486 284 510T311 566Q311 584 310 587T301 591Q298 591 290 585T270 578Z" />
<glyph unicode="&#x201e;" glyph-name="quotedblbase" horiz-adv-x="413" d="M284 -6Q233 -6 233 38Q233 56 243 66T263 79T279 81Q317 81 344 58T371 -6Q371 -90 247 -129V-101Q272 -98 298 -74T325 -18Q325 0 324 3T315 7Q312 7 304 1T284 -6ZM104 -6Q53 -6
53 38Q53 56 63 66T83 79T99 81Q137 81 164 58T191 -6Q191 -90 67 -129V-101Q92 -98 118 -74T145 -18Q145 0 144 3T135 7Q132 7 124 1T104 -6Z" />
<glyph unicode="&#x2022;" glyph-name="bullet" horiz-adv-x="334" d="M45 300Q45 345 78 381T165 418Q212 418 250 385T289 306T255 224T167 186Q120 186 83 220T45 300Z" />
<glyph unicode="&#x2039;" glyph-name="guilsinglleft" horiz-adv-x="277" d="M52 324L214 418V392L127 299L214 206V180L52 274Q39 281 39 299T52 324Z" />
<glyph unicode="&#x203a;" glyph-name="guilsinglright" horiz-adv-x="277" d="M225 274L63 180V206L150 299L63 392V418L225 324Q238 317 238 299T225 274Z" />
</font>
</defs>
</svg>
