<?xml version="1.0" standalone="no"?>
<!DOCTYPE svg PUBLIC "-//W3C//DTD SVG 1.1//EN" "http://www.w3.org/Graphics/SVG/1.1/DTD/svg11.dtd">
<svg xmlns="http://www.w3.org/2000/svg">
<defs >
<font id="Quando" horiz-adv-x="1363" ><font-face
    font-family="Quando"
    units-per-em="2048"
    panose-1="2 2 6 3 6 0 0 6 7 4"
    ascent="2030"
    descent="-530"
    alphabetic="0" />
<glyph unicode=" " glyph-name="space" horiz-adv-x="720" />
<glyph unicode="!" glyph-name="exclam" horiz-adv-x="664" d="M405 526Q403 505 331 505T258 529T254 609Q242 800 235 898L198 1435Q187 1600 187 1642Q187 1672 358 1708Q422 1721 458 1721T494 1712T490 1656L414 640Q408 569 405 526ZM165 147Q165 219 212
266T330 314Q444 314 487 214Q500 183 500 147Q500 77 452 28Q404 -19 330 -19Q260 -19 213 28T165 147Z" />
<glyph unicode="&quot;" glyph-name="quotedbl" horiz-adv-x="1132" d="M328 1726Q365 1729 415 1729T465 1713Q460 1650 454 1588Q422 1260 417 1198L406 1077Q406 1056 307 1056Q239 1056 237 1080Q234 1113 229 1163L206 1387Q199 1447 194 1503L185 1608Q181
1656 180 1687Q180 1714 328 1726ZM816 1726Q853 1729 903 1729T953 1713Q948 1650 942 1588Q910 1260 905 1198L894 1077Q894 1056 795 1056Q727 1056 725 1080Q722 1113 717 1163L694 1387Q687 1447 682 1503L673 1608Q669 1656 668 1687Q668 1714 816 1726Z"
/>
<glyph unicode="#" glyph-name="numbersign" horiz-adv-x="1651" d="M228 965Q217 991 217 1023T220 1077T232 1115Q248 1153 273 1153H548L624 1484Q650 1497 683 1497T737 1494T773 1482Q807 1466 801 1438L735 1153H1089L1165 1484Q1191 1497 1224 1497T1278
1494T1314 1482Q1348 1466 1342 1438L1277 1153H1528Q1541 1127 1541 1096T1538 1043T1526 1004Q1509 965 1481 965H1234L1131 516H1421Q1434 490 1434 458T1431 405T1420 366Q1403 328 1374 328H1088L1013 0Q964 -18 922 -11T864 4Q830 20 835 45L900 328H546L471
0Q444 -11 411 -11T358 -8T322 4Q289 20 294 45L359 328H121Q110 354 110 386T113 440T124 478Q141 516 166 516H402L505 965H228ZM943 516L1046 965H692L589 516H943Z" />
<glyph unicode="$" glyph-name="dollar" horiz-adv-x="1322" d="M971 1111Q971 1235 924 1310T770 1408L753 876L866 822Q1058 725 1132 616Q1194 523 1194 418T1157 240T1056 115Q927 7 724 -14L720 -159Q698 -167 679 -167T641 -162T610 -146Q580 -124 580 -95L582
-18Q406 -11 277 49Q126 119 126 249Q126 366 182 463Q201 486 234 486Q298 486 308 448Q319 298 389 220T587 123L604 665L576 677Q382 759 287 852Q163 974 163 1153Q163 1321 296 1428Q424 1532 633 1548L638 1710Q656 1719 676 1719T714 1714T746 1698Q778
1677 778 1644L775 1550Q1034 1537 1112 1418Q1140 1376 1140 1306T1127 1182T1100 1112Q1078 1085 1025 1085T971 1111ZM628 1416Q452 1401 400 1279Q385 1242 385 1197T403 1115T452 1047Q505 994 613 941L628 1416ZM729 120Q889 137 940 254Q958 295 958 342T942
424T898 490Q844 547 744 599L729 120Z" />
<glyph unicode="%" glyph-name="percent" horiz-adv-x="1969" d="M437 673T397 679T317 700T238 744T171 817Q107 916 107 1075Q107 1368 320 1456Q392 1486 450 1486T548 1481T629 1460T708 1416T776 1342Q840 1243 840 1075Q840 797 626 706Q550 673 494 673ZM641
1075Q641 1352 474 1352T306 1075Q306 869 406 820Q437 805 473 805T540 820T594 868Q641 936 641 1075ZM1146 219Q1129 282 1129 368T1147 519T1195 628T1263 703T1342 750Q1414 780 1472 780T1571 775T1652 754T1730 710T1798 636Q1862 535 1862 369Q1862 90
1649 0Q1573 -33 1493 -33Q1216 -33 1146 219ZM1664 369Q1664 646 1496 646T1328 369Q1328 163 1429 114Q1460 99 1496 99T1563 114T1616 162Q1664 230 1664 369ZM1345 1448Q1393 1453 1429 1426Q1496 1376 1474 1342L610 3Q556 5 523 31Q461 77 480 109L1345 1448Z"
/>
<glyph unicode="&amp;" glyph-name="ampersand" horiz-adv-x="1712" d="M1171 170Q922 -19 624 -19Q428 -19 282 84Q117 201 117 404Q117 620 300 767Q353 809 408 839Q284 1009 284 1143Q284 1321 416 1435Q540 1541 707 1541Q855 1541 952 1482Q1061 1416 1061
1297Q1061 1167 942 1115Q918 1107 899 1107T859 1124Q866 1154 866 1196V1219Q857 1293 805 1336T662 1380Q541 1380 496 1294Q479 1262 479 1211T508 1099T587 971T705 836T850 698Q1055 525 1171 436Q1293 627 1321 904Q1354 910 1389 910Q1543 910 1543 764Q1543
633 1421 441Q1381 378 1328 317L1412 256Q1521 178 1596 178Q1636 178 1663 196T1696 217T1711 216T1728 208Q1747 194 1747 173T1728 116T1678 50Q1605 -21 1522 -21Q1442 -21 1338 52L1171 170ZM498 730Q352 624 352 472Q352 318 448 230Q535 149 656 149Q875
149 1028 273Q747 487 650 578T498 730Z" />
<glyph unicode="&apos;" glyph-name="quotesingle" horiz-adv-x="644" d="M328 1725Q365 1728 415 1728T465 1712Q460 1649 454 1587Q422 1259 417 1197L406 1076Q406 1055 307 1055Q239 1055 237 1079Q234 1112 229 1162L206 1386Q199 1446 194 1502L185 1607Q181
1655 180 1686Q180 1713 328 1725Z" />
<glyph unicode="(" glyph-name="parenleft" horiz-adv-x="960" d="M210 191T159 373T107 719T130 1009T196 1251T300 1473T436 1670Q586 1852 779 1964Q829 1934 844 1861Q468 1602 378 1080Q351 920 351 752Q351 225 634 -122Q731 -240 863 -331Q855 -380 804
-430Q791 -444 779 -451Q482 -281 300 35Q210 191 159 373Z" />
<glyph unicode=")" glyph-name="parenright" horiz-adv-x="960" d="M750 191T801 373T853 719T830 1009T764 1251T660 1473T524 1670Q374 1852 181 1964Q131 1934 116 1861Q492 1602 582 1080Q609 920 609 752Q609 225 326 -122Q229 -240 97 -331Q105 -380 156
-430Q169 -444 181 -451Q478 -281 660 35Q750 191 801 373Z" />
<glyph unicode="*" glyph-name="asterisk" horiz-adv-x="1290" d="M498 1049Q472 1012 423 1012T339 1039Q276 1088 276 1151Q276 1197 308 1224Q342 1251 380 1280Q380 1280 446 1331Q510 1380 556 1426Q487 1442 411 1446T290 1454Q236 1458 213 1466T170 1502T151
1563T163 1630T206 1689T260 1715Q294 1715 307 1710L339 1692L467 1603Q533 1559 591 1530Q578 1626 558 1704L527 1825Q522 1840 522 1862T532 1904T561 1938Q599 1969 640 1969T706 1960T748 1934Q781 1903 781 1862Q781 1838 768 1792L732 1672Q709 1600 698
1528Q769 1566 811 1594L952 1692Q992 1715 1022 1715T1083 1690T1127 1631T1139 1564T1120 1503T1082 1468Q1050 1457 1002 1454L879 1446Q803 1442 734 1426Q780 1380 826 1345L967 1236Q991 1216 1002 1201T1014 1154Q1014 1088 960 1046Q917 1012 881 1012Q803
1012 771 1083L712 1226Q683 1295 646 1358Q610 1295 580 1226L519 1083Q511 1066 498 1049Z" />
<glyph unicode="+" glyph-name="plus" horiz-adv-x="1157" d="M486 664H151Q140 694 140 723T143 774T154 812Q172 849 196 849H486V1203Q512 1216 543 1216T596 1213T635 1202Q674 1184 674 1156V849H1004Q1017 823 1017 791T1014 739T1002 702Q985 664 957 664H674V311Q644
300 614 300T563 303T524 314Q486 331 486 356V664Z" />
<glyph unicode="," glyph-name="comma" horiz-adv-x="664" d="M316 319Q501 319 501 108Q501 -137 338 -312Q294 -360 261 -376Q224 -376 194 -339Q185 -328 185 -316Q191 -307 207 -285T242 -230Q286 -144 286 -52Q286 72 165 81Q151 114 151 149T162 214T196
267Q244 319 316 319Z" />
<glyph unicode="-" glyph-name="hyphen" horiz-adv-x="1002" d="M849 849Q862 823 862 792T859 739T848 702Q830 664 802 664H151Q140 694 140 723T143 774T154 812Q172 849 196 849H849Z" />
<glyph unicode="." glyph-name="period" horiz-adv-x="664" d="M165 147Q165 219 212 266T330 314Q444 314 487 214Q500 183 500 147Q500 77 452 28Q404 -19 330 -19Q260 -19 213 28T165 147Z" />
<glyph unicode="/" glyph-name="slash" horiz-adv-x="921" d="M732 1814Q762 1827 795 1827T850 1824T888 1812Q926 1796 920 1767L188 -165Q159 -176 126 -176T71 -173T32 -162Q-4 -145 1 -120L732 1814Z" />
<glyph unicode="0" glyph-name="zero" horiz-adv-x="1527" d="M758 -19Q530 -19 358 130Q222 249 166 476Q136 594 136 751T166 1029T247 1237T363 1383T498 1477Q628 1542 764 1542Q1001 1542 1168 1396Q1305 1276 1362 1040Q1391 917 1391 761T1361 489T1280
289T1164 144T1028 49Q894 -19 758 -19ZM612 178Q681 145 764 145T917 178T1036 284Q1141 437 1141 752Q1141 1248 916 1346Q846 1377 763 1377T609 1347T490 1243Q386 1090 386 752Q386 285 612 178Z" />
<glyph unicode="1" glyph-name="one" horiz-adv-x="1022" d="M886 -8Q862 0 787 0H282Q197 0 176 50Q168 68 168 88Q168 130 183 147Q218 137 277 137T361 149T402 183Q428 221 428 305L429 1161Q409 1273 306 1273Q277 1273 246 1268Q246 1268 187 1257Q168 1253
156 1289Q132 1355 148 1367Q408 1444 566 1538Q570 1542 581 1542T606 1534T633 1514Q661 1486 661 1466V255Q661 198 674 180Q695 153 731 147T796 134T850 116Q901 93 901 47Q901 13 886 -8Z" />
<glyph unicode="2" glyph-name="two" horiz-adv-x="1406" d="M466 185Q564 183 661 183T843 187T988 213Q1113 259 1122 415Q1142 420 1157 420Q1196 420 1209 399T1230 350T1240 292Q1247 236 1247 193T1238 116T1208 56Q1164 0 1076 0H201Q172 14 159 47T145
104Q145 148 162 163Q490 371 707 634Q932 905 932 1120Q932 1231 867 1302Q798 1377 680 1377Q559 1377 480 1308Q394 1233 394 1096Q394 1078 396 1060Q348 1034 314 1034T257 1044T215 1075Q175 1122 175 1200T208 1338T308 1444Q449 1542 695 1542Q925 1542
1055 1430T1185 1125Q1185 812 740 410Q610 292 466 185Z" />
<glyph unicode="3" glyph-name="three" horiz-adv-x="1452" d="M1217 1186Q1217 924 923 795Q1080 766 1178 669Q1283 565 1283 419Q1283 233 1124 110Q959 -19 698 -19Q463 -19 315 62Q165 143 165 273Q165 367 232 418Q272 450 302 450T372 440Q372 212 589
158Q641 145 714 145T848 166T950 227Q1035 306 1035 437Q1035 543 948 620Q845 710 660 710Q630 710 572 705Q539 705 523 781Q519 800 519 823T534 846Q746 850 866 943Q975 1027 975 1148Q975 1248 902 1312Q830 1377 728 1377T570 1359T482 1306Q426 1243 430
1115Q396 1091 364 1091T307 1101T263 1132Q221 1178 221 1243T255 1359T354 1450Q504 1542 729 1542Q937 1542 1072 1450Q1217 1351 1217 1186Z" />
<glyph unicode="4" glyph-name="four" horiz-adv-x="1484" d="M988 -28Q960 -32 921 -32T861 -18V349H175Q131 349 92 417Q54 483 73 511Q216 722 280 828L402 1034Q600 1385 652 1585Q778 1585 844 1542Q895 1509 872 1426Q839 1301 677 1046Q545 847 484 766L375
625Q327 565 287 520H861V855Q861 897 928 935Q991 970 1041 970T1092 940V520H1355Q1374 520 1374 494T1368 444T1352 399Q1326 349 1299 349H1092V21Q1092 -11 988 -28Z" />
<glyph unicode="5" glyph-name="five" horiz-adv-x="1478" d="M467 924Q612 973 756 973T998 942T1162 852Q1302 731 1302 520Q1302 288 1122 134Q942 -19 667 -19Q451 -19 312 65Q173 149 173 280Q173 386 240 436Q284 469 323 463T370 448Q374 251 537 175Q601
145 682 145T827 165T941 226Q1054 317 1054 467Q1054 626 948 724Q848 815 700 815Q530 815 386 740L341 716Q312 723 292 742Q255 778 260 812L320 1439Q320 1473 348 1496Q398 1540 459 1535Q597 1524 682 1524T821 1526T933 1532L1054 1540Q1117 1545 1191
1551Q1218 1524 1218 1461Q1218 1373 1173 1342Q1130 1314 1037 1314T880 1320T750 1334T622 1353L511 1371L467 924Z" />
<glyph unicode="6" glyph-name="six" horiz-adv-x="1483" d="M1029 1177Q1029 1397 801 1397Q658 1397 548 1256Q420 1091 398 792Q527 909 706 952Q774 969 862 969T1034 939T1180 850Q1312 728 1312 521Q1312 292 1144 136Q978 -19 740 -19Q512 -19 348 138Q151
326 159 693Q165 1003 290 1216Q393 1393 568 1486Q712 1562 858 1562Q1026 1562 1128 1500Q1234 1435 1234 1319Q1234 1255 1206 1223Q1157 1166 1103 1166T1029 1177ZM395 637Q406 373 530 246Q627 146 772 146Q988 146 1061 328Q1086 390 1086 467T1062 603T996
702Q906 790 766 790Q592 790 460 688L395 637Z" />
<glyph unicode="7" glyph-name="seven" horiz-adv-x="1281" d="M145 1541Q324 1524 671 1524T1115 1539Q1173 1502 1184 1446Q1187 1427 1180 1408Q970 1144 815 740Q657 328 639 0Q613 -6 581 -6Q518 -6 481 0T421 21T400 53Q411 461 724 1012Q842 1219 949 1346Q678
1289 399 1289Q185 1289 152 1334Q124 1375 124 1443T145 1541Z" />
<glyph unicode="8" glyph-name="eight" horiz-adv-x="1483" d="M1244 1174Q1244 945 992 798Q1167 702 1215 645T1280 533T1298 405T1267 257T1168 120Q1018 -19 747 -19Q512 -19 358 84Q184 199 184 412Q184 585 370 736Q421 778 474 808Q255 946 255 1152Q255
1345 416 1451Q555 1542 755 1542Q970 1542 1108 1436Q1244 1332 1244 1174ZM1025 1144Q1025 1379 742 1379Q540 1379 486 1265Q470 1230 470 1179T506 1083T599 1001T726 930L866 864Q1025 976 1025 1144ZM413 420Q413 352 446 292T532 197Q622 138 769 138Q915
138 998 203Q1076 263 1076 360Q1076 445 990 514Q946 550 876 589L709 680L590 741Q413 610 413 420Z" />
<glyph unicode="9" glyph-name="nine" horiz-adv-x="1483" d="M1080 692Q931 554 688 554Q462 554 327 675Q188 799 188 1012Q188 1240 346 1390Q507 1542 770 1542Q1005 1542 1156 1376Q1328 1186 1322 807Q1316 489 1202 285Q1110 119 953 41Q833 -19 717 -19T521
-4T386 43Q271 107 271 223Q271 286 308 326T401 367T475 356Q475 200 590 154Q630 138 668 138T752 142T857 173T964 260Q1069 394 1080 692ZM726 725Q794 725 847 734T943 760Q1010 787 1081 843Q1067 1273 876 1352Q817 1376 747 1376T615 1357T507 1299Q409
1216 409 1058Q409 913 500 818Q589 725 726 725Z" />
<glyph unicode=":" glyph-name="colon" horiz-adv-x="664" d="M165 147Q165 219 212 266T330 314Q444 314 487 214Q500 183 500 147Q500 77 452 28Q404 -19 330 -19Q260 -19 213 28T165 147ZM165 996Q165 1068 212 1115T330 1163Q444 1163 487 1063Q500 1032 500
996Q500 926 452 877Q404 830 330 830Q260 830 213 877T165 996Z" />
<glyph unicode=";" glyph-name="semicolon" horiz-adv-x="664" d="M165 996Q165 1068 212 1115T330 1163Q444 1163 487 1063Q500 1032 500 996Q500 926 452 877Q404 830 330 830Q260 830 213 877T165 996ZM316 319Q501 319 501 108Q501 -137 338 -312Q294 -360
261 -376Q224 -376 194 -339Q185 -328 185 -316Q191 -307 207 -285T242 -230Q286 -144 286 -52Q286 72 165 81Q151 114 151 149T162 214T196 267Q244 319 316 319Z" />
<glyph unicode="&lt;" glyph-name="less" horiz-adv-x="1398" d="M1128 1335Q1185 1335 1185 1190Q1185 1154 1137 1126L440 749L1129 355Q1186 324 1186 272T1169 186T1127 151T1084 162L279 608Q210 649 210 740Q210 785 229 826T279 886L1084 1320Q1111 1335
1128 1335Z" />
<glyph unicode="=" glyph-name="equal" horiz-adv-x="1118" d="M965 1048Q978 1026 978 992T975 938T964 900Q946 863 919 863H151Q140 893 140 922T143 973T154 1010Q172 1048 196 1048H965ZM965 652Q978 630 978 596T975 542T964 504Q947 468 919 468H151Q140
498 140 527T143 578T154 616Q171 652 196 652H965Z" />
<glyph unicode="&gt;" glyph-name="greater" horiz-adv-x="1398" d="M269 1307Q212 1307 212 1162Q212 1126 260 1098L957 721L268 327Q211 296 211 244T228 158T270 123T313 134L1118 580Q1187 621 1187 712Q1187 757 1168 798T1118 858L313 1292Q286 1307 269 1307Z" />
<glyph unicode="?" glyph-name="question" horiz-adv-x="1268" d="M688 542L689 506Q683 489 651 477T610 465T594 464T577 466Q557 471 545 488Q519 531 499 576T478 675T499 769T554 839T632 896L721 947Q838 1013 880 1060Q964 1154 964 1274Q964 1400 877
1487Q788 1576 652 1576Q399 1576 358 1378Q341 1299 341 1274V1241Q341 1211 344 1199Q292 1173 253 1173T190 1187T148 1224Q113 1271 113 1334T137 1449T202 1543T299 1619T417 1674Q545 1721 664 1721T879 1700T1046 1628Q1197 1520 1197 1281Q1197 1072 1012
932Q961 894 912 864L822 810Q751 768 731 734T702 672Q688 623 688 542ZM466 147Q466 218 513 266Q559 314 630 314Q744 314 787 214Q800 183 800 147Q800 77 752 28Q704 -19 630 -19Q559 -19 513 28Q466 77 466 147Z" />
<glyph unicode="@" glyph-name="at" horiz-adv-x="2433" d="M1704 -223L1708 -222Q1721 -222 1732 -240T1743 -283T1732 -326T1686 -373T1581 -430Q1411 -498 1161 -498T731 -438T425 -260Q160 -14 160 430Q160 1009 584 1362Q855 1587 1212 1649Q1321 1668 1457
1668T1722 1635T1948 1543T2109 1406T2215 1236Q2290 1067 2290 872T2247 542T2134 311T1978 153T1805 55Q1652 -9 1518 -9Q1397 -9 1363 114Q1353 150 1353 192Q1187 -10 1018 -10Q890 -10 800 100Q696 230 696 464Q696 662 790 838Q881 1010 1031 1112Q1187 1219
1362 1219Q1472 1219 1564 1168Q1623 1218 1677 1217T1752 1192T1778 1133Q1706 1103 1680 950Q1671 901 1664 843T1644 708L1620 554Q1580 308 1580 231T1611 154Q1765 154 1886 266Q2048 416 2096 688Q2111 768 2111 844Q2111 1174 1913 1353Q1722 1526 1385
1526Q1101 1526 862 1386Q626 1248 489 1010Q346 760 346 459Q346 74 557 -136Q775 -352 1182 -352Q1471 -352 1634 -261L1704 -223ZM1477 988Q1425 1057 1320 1057Q1120 1057 1010 864Q915 700 915 488Q915 182 1120 182Q1219 182 1326 306Q1355 339 1377 372L1477
988Z" />
<glyph unicode="A" glyph-name="A" horiz-adv-x="1658" d="M1060 118Q1102 111 1123 111T1164 115T1201 130Q1237 152 1237 199Q1237 238 1213 286L1119 519H486L374 235Q358 196 358 179T363 153T380 138T409 128L450 117Q516 106 535 97Q574 78 574 41Q574 14
559 -5Q540 0 524 0H117Q-16 0 -16 73Q-16 107 -1 128Q36 118 61 118T104 126T138 153Q165 186 201 285L695 1481Q716 1529 814 1547Q841 1552 871 1552Q932 1552 946 1519L1046 1269Q1335 587 1380 473L1470 237Q1497 160 1515 142T1554 117T1597 106T1637 94Q1675
77 1675 42Q1675 15 1660 -4Q1641 1 1626 1H1149Q1098 1 1070 13T1041 52Q1041 97 1060 118ZM1061 661L799 1309L542 661H1061Z" />
<glyph unicode="B" glyph-name="B" horiz-adv-x="1540" d="M786 -10L454 1H201Q149 1 114 18T79 62Q79 110 94 129Q128 119 166 119T228 124T272 145Q316 181 316 270V1289Q316 1382 203 1405Q131 1420 111 1437T90 1476Q90 1522 106 1538Q124 1533 140 1533Q140
1533 437 1533Q483 1533 561 1538T780 1543T1032 1517T1216 1444Q1354 1353 1354 1188Q1354 1000 1196 884Q1137 841 1045 810Q1340 786 1424 584Q1450 519 1450 430T1409 257T1285 114Q1113 -10 786 -10ZM549 850L700 849Q745 849 807 849T930 871T1030 932Q1112
1010 1112 1132Q1112 1271 1044 1336Q964 1415 767 1415Q633 1415 601 1390T559 1332T549 1244V850ZM790 717Q627 717 549 715V241Q549 140 681 128Q722 125 795 125T948 140T1086 191Q1207 267 1207 432Q1207 717 790 717Z" />
<glyph unicode="C" glyph-name="C" horiz-adv-x="1457" d="M1138 1100Q1142 1128 1142 1182T1121 1280T1064 1350Q1001 1393 875 1393T652 1348T490 1220Q359 1055 359 771Q359 502 492 342Q630 175 865 175Q1096 175 1225 276Q1264 306 1296 341Q1326 332 1345
288Q1351 273 1351 249T1316 177T1212 85Q1050 -21 824 -21Q500 -21 308 176Q118 369 118 693Q118 891 181 1050T353 1320T607 1492T890 1552T1111 1529T1249 1466Q1359 1384 1359 1248Q1359 1144 1282 1101Q1256 1086 1226 1086Q1164 1086 1138 1100Z" />
<glyph unicode="D" glyph-name="D" horiz-adv-x="1725" d="M739 -10L454 1H196Q144 1 109 18T74 62Q74 110 89 129Q125 119 162 119T224 124T270 145Q316 181 316 270V1289Q316 1382 200 1405Q128 1420 107 1437T85 1476Q85 1522 101 1538Q119 1533 134 1533Q134
1533 437 1533Q460 1533 498 1535Q498 1535 583 1540Q708 1546 839 1546T1095 1515T1309 1429T1460 1304T1558 1152Q1624 1005 1624 822Q1624 490 1452 270Q1317 97 1055 26Q919 -10 739 -10ZM552 241Q552 166 599 144Q639 126 790 126T1060 176T1248 311Q1374
464 1374 742Q1374 1219 1037 1365Q915 1418 736 1418Q617 1418 591 1395T559 1337T552 1244V241Z" />
<glyph unicode="E" glyph-name="E" horiz-adv-x="1443" d="M1209 445Q1236 468 1266 468Q1312 468 1319 455Q1358 377 1358 197Q1358 72 1330 16Q1321 0 1311 0H207Q88 0 88 71Q88 109 104 129Q138 119 170 119T225 124T268 145Q316 182 316 270V1283Q316 1370
246 1394Q226 1401 205 1406T164 1417T129 1430Q95 1448 95 1479Q95 1520 111 1538Q129 1533 147 1533H1170Q1262 1533 1285 1516Q1327 1486 1327 1384Q1327 1286 1311 1224T1287 1150Q1277 1132 1248 1132Q1206 1132 1191 1142T1174 1158Q1161 1301 1129 1340T1054
1394T940 1409H717Q611 1409 588 1388T558 1340T552 1269V843L611 842Q832 842 1021 881Q1035 874 1046 842T1057 777Q1057 723 1039 683Q973 677 887 677T552 705V254Q552 179 592 153Q626 131 714 131L865 135Q1084 143 1150 196Q1187 226 1199 275T1211 373T1209
445Z" />
<glyph unicode="F" glyph-name="F" horiz-adv-x="1314" d="M855 -8Q831 0 756 0H203Q151 0 120 16T88 77Q88 108 104 128Q140 118 175 118T234 125T275 152Q316 195 316 285V1283Q316 1370 246 1394Q226 1401 205 1406T164 1417T129 1430Q95 1448 95 1479Q95 1520
111 1538Q128 1533 146 1533H1158Q1248 1533 1269 1516Q1306 1488 1306 1384Q1306 1284 1290 1225T1266 1152Q1253 1130 1228 1130Q1187 1130 1170 1144T1152 1164Q1142 1306 1100 1355Q1055 1409 919 1409H727Q620 1409 594 1391T560 1348T552 1285V824H599Q840
824 1021 862Q1057 847 1057 754Q1057 706 1039 664Q974 658 899 658T737 667L552 687V236Q552 150 687 134Q799 120 826 107T862 81T870 50Q870 13 855 -8Z" />
<glyph unicode="G" glyph-name="G" horiz-adv-x="1644" d="M1568 728Q1580 694 1580 669T1573 634T1553 619T1525 611T1486 595Q1442 570 1442 463V230Q1429 203 1387 160T1273 77Q1097 -21 887 -21T538 34T307 187Q120 384 120 712Q120 914 184 1071T359 1334Q584
1552 923 1552Q1194 1552 1328 1454Q1434 1376 1434 1257Q1434 1183 1391 1138Q1350 1095 1284 1095Q1226 1095 1202 1110Q1207 1142 1207 1189T1187 1280T1126 1351Q1057 1397 918 1397T681 1361T514 1250Q373 1096 373 796Q373 137 935 137Q1068 137 1164 178Q1195
191 1212 207L1211 493Q1211 565 1117 592Q1094 598 1070 603T1023 613T983 628Q951 644 951 681T966 736Q989 728 1065 728H1568Z" />
<glyph unicode="H" glyph-name="H" horiz-adv-x="1892" d="M732 -8Q709 0 633 0H216Q164 0 133 16T102 77Q102 109 117 128Q157 118 191 118T245 125T280 152Q310 192 310 285V1308Q307 1378 264 1397Q251 1403 228 1408L180 1418Q131 1430 120 1447T109 1483Q109
1520 124 1541Q147 1533 223 1533H630Q682 1533 713 1517T745 1456Q745 1423 729 1405Q691 1415 646 1415Q549 1415 546 1257V815H1346V1308Q1343 1378 1300 1397Q1287 1403 1264 1408L1216 1418Q1167 1430 1156 1447T1145 1483Q1145 1523 1160 1541Q1183 1533
1259 1533H1666Q1718 1533 1749 1517T1781 1456Q1781 1423 1765 1405Q1727 1415 1682 1415Q1585 1415 1582 1257V236Q1582 180 1599 162Q1624 135 1661 128T1722 115T1762 101Q1794 85 1794 47Q1794 12 1778 -8Q1755 0 1679 0H1262Q1210 0 1179 16T1148 77Q1148
109 1163 128Q1201 118 1234 118T1285 125T1316 150Q1344 187 1346 275V677H546V236Q546 157 590 136Q604 130 628 125T675 115T715 101Q748 84 748 47Q748 12 732 -8Z" />
<glyph unicode="I" glyph-name="I" horiz-adv-x="858" d="M733 -8Q710 0 634 0H217Q165 0 134 16T103 77Q103 109 118 128Q158 118 191 118T244 125T278 150Q309 188 311 275V1297Q311 1376 267 1396Q253 1403 229 1408T182 1418T142 1432Q110 1448 110 1486Q110
1523 125 1541Q148 1533 224 1533H631Q683 1533 714 1517T746 1456Q746 1423 730 1405Q692 1415 647 1415Q550 1415 547 1257V236Q547 157 591 136Q605 130 629 125T676 115T716 101Q749 84 749 47Q749 12 733 -8Z" />
<glyph unicode="J" glyph-name="J" horiz-adv-x="1139" d="M1001 1415Q901 1415 901 1243V440Q901 112 644 14Q556 -19 445 -19T256 5T124 69Q15 151 15 268Q15 356 56 407T169 459Q229 459 249 431Q237 383 237 338Q237 133 449 133Q553 133 609 193T665 365V1298Q663
1351 645 1368Q617 1393 579 1400T516 1414T472 1429Q438 1447 438 1486Q438 1523 454 1541Q477 1533 553 1533H986Q1100 1533 1100 1456Q1100 1423 1084 1405Q1048 1415 1001 1415Z" />
<glyph unicode="K" glyph-name="K" horiz-adv-x="1617" d="M748 -8Q725 0 649 0H232Q180 0 149 16T117 77Q117 108 133 128Q171 118 204 118T255 125T286 150Q314 187 316 275V1308Q313 1378 270 1397Q257 1403 234 1408L186 1418Q136 1430 125 1447T114 1483Q114
1521 130 1541Q153 1533 229 1533H646Q698 1533 729 1517T760 1456Q760 1422 745 1405Q707 1415 673 1415T619 1408T584 1382Q554 1344 552 1257V224Q554 175 571 158Q596 135 632 128T691 115T731 101Q763 85 763 47Q763 10 748 -8ZM1576 1408Q1552 1416 1523
1416T1477 1406T1440 1377T1396 1332L868 785Q1051 734 1185 539Q1223 484 1256 430L1317 326Q1416 155 1500 160Q1541 160 1564 170T1598 180T1619 165T1631 129T1614 82T1566 32Q1496 -19 1412 -19T1277 3T1185 72T1108 178T1041 299L978 420Q867 631 736 673Q716
679 700 677T663 671Q651 675 645 699T639 739T651 766L1158 1328Q1183 1355 1183 1372Q1183 1408 1070 1423Q1021 1429 1011 1444T1000 1480Q1000 1518 1016 1538Q1034 1533 1050 1533H1439Q1547 1533 1578 1504Q1592 1491 1592 1472Q1592 1426 1576 1408Z" />
<glyph unicode="L" glyph-name="L" horiz-adv-x="1434" d="M1358 311Q1358 86 1298 0H207Q128 0 98 40Q88 54 88 71Q88 109 104 129Q138 119 193 119Q316 119 316 270V1297Q316 1366 258 1390Q241 1398 216 1405L166 1418Q118 1430 107 1447T95 1483Q95 1521 111
1541Q134 1533 210 1533H646Q698 1533 729 1517T760 1456Q760 1422 745 1405Q707 1415 673 1415T619 1408T584 1382Q554 1344 552 1257V246Q554 176 593 152Q626 131 714 131L789 132L875 133Q1093 133 1160 230Q1193 278 1204 350T1225 519Q1241 529 1268 529Q1319
529 1337 517Q1358 435 1358 311Z" />
<glyph unicode="M" glyph-name="M" horiz-adv-x="2133" d="M195 0Q61 0 61 74Q61 107 77 127Q106 119 136 119T187 121T226 138Q263 172 272 289L375 1351Q377 1376 358 1390T311 1410T263 1420T227 1432Q196 1447 196 1483T210 1538Q229 1533 244 1533H540Q689
1533 723 1460L1095 587L1479 1465Q1498 1509 1536 1521T1633 1533H1827Q1962 1533 1962 1462Q1962 1424 1947 1407Q1907 1418 1882 1418T1836 1414T1804 1399Q1779 1378 1785 1315L1893 221Q1900 151 1968 133Q1987 128 2008 121L2047 108Q2084 96 2092 77T2100
39Q2100 14 2085 -5Q2062 0 2038 0H1582Q1460 0 1460 73Q1460 85 1467 103T1478 127Q1508 119 1533 119T1586 123T1633 142Q1674 176 1668 271L1603 1129L1594 1296L1134 277Q1121 269 1094 269T1039 288T987 337Q950 384 916 457L544 1329L463 240Q459 183 479
163Q504 138 545 127T609 111T649 96Q686 78 686 36Q686 15 670 -5Q652 0 636 0H195Z" />
<glyph unicode="N" glyph-name="N" horiz-adv-x="1795" d="M215 0Q81 0 81 77Q81 112 97 126Q126 118 157 118T212 126T254 149Q290 180 290 236V1325Q288 1365 273 1385T228 1413T179 1426T143 1436Q108 1451 108 1473Q108 1519 123 1538Q144 1533 187 1533H382Q470
1533 540 1444L1381 378V1311Q1380 1351 1365 1378T1313 1414T1248 1427T1198 1440Q1151 1456 1151 1492Q1151 1522 1167 1538Q1188 1533 1231 1533H1634Q1768 1533 1768 1476Q1768 1428 1753 1411Q1728 1418 1696 1418T1639 1417T1596 1404Q1554 1381 1552 1310V28Q1552
-1 1536 -7T1478 -14Q1407 -14 1326 91L461 1179V222Q466 136 542 116Q571 110 599 106T650 96Q701 83 701 50Q701 14 686 -5Q665 0 622 0H215Z" />
<glyph unicode="O" glyph-name="O" horiz-adv-x="1697" d="M216 273T163 407T109 692T139 958T222 1166T348 1332T507 1453Q681 1552 884 1552Q1192 1552 1386 1356Q1589 1152 1589 819Q1589 568 1476 368Q1373 186 1192 82Q1018 -19 842 -19T536 32T311 178ZM420
1141T392 1023T364 770T390 522T473 324Q597 139 841 139Q1087 139 1214 300Q1336 457 1336 747Q1336 1192 1072 1344Q978 1397 849 1397T629 1352T479 1224Z" />
<glyph unicode="P" glyph-name="P" horiz-adv-x="1434" d="M835 -8Q812 0 736 0H222Q170 0 139 16T108 77Q108 109 123 128Q161 118 196 118T251 125T286 152Q316 192 316 285V1289Q316 1382 206 1405Q137 1419 116 1437T95 1476Q95 1522 111 1538Q129 1533 144
1533H392L748 1543Q1216 1543 1340 1288Q1385 1196 1385 1104T1372 947T1328 821T1244 705T1114 609Q945 521 682 521H644Q616 521 616 557Q616 636 659 646Q1035 638 1114 870Q1138 943 1138 1026T1120 1178T1055 1302Q951 1420 711 1420Q614 1420 582 1378Q552
1341 552 1228V229Q557 151 676 134Q783 119 809 106T843 81T851 50Q851 12 835 -8Z" />
<glyph unicode="Q" glyph-name="Q" horiz-adv-x="1711" d="M444 -306Q356 -306 356 -220Q356 -131 519 -85Q955 35 1142 210Q1346 402 1346 739Q1346 921 1313 1025T1242 1191T1149 1300Q1032 1396 853 1396Q504 1396 402 1041Q368 920 368 754Q368 364 570 242Q619
212 686 202Q707 196 717 173Q735 132 723 119Q698 92 621 94T475 120T350 184T249 280T174 402Q111 538 111 693T143 968T232 1183T365 1347T530 1462Q703 1552 875 1552T1174 1502T1396 1356Q1600 1151 1600 814Q1600 324 1236 68Q1085 -37 877 -100L972 -138Q1153
-208 1250 -208Q1479 -208 1568 -96Q1602 -94 1619 -118T1636 -183T1609 -268T1533 -348Q1427 -423 1269 -423Q1169 -423 1073 -387T922 -324L814 -277Q695 -226 643 -226T560 -233T509 -251Q482 -265 444 -306Z" />
<glyph unicode="R" glyph-name="R" horiz-adv-x="1585" d="M728 -8Q705 0 630 0H222Q170 0 139 16T108 77Q108 109 123 128Q161 118 196 118T251 125T286 152Q316 192 316 285V1308Q313 1378 270 1397Q257 1403 235 1408T191 1418T154 1432Q124 1448 124 1474Q124
1521 140 1541Q163 1533 239 1533H369L720 1543L763 1544Q1071 1544 1224 1435T1377 1126Q1377 977 1280 852Q1172 713 982 664Q1034 628 1100 532L1206 377Q1355 160 1453 160Q1490 160 1509 167L1534 177Q1542 180 1552 180T1573 165T1584 129T1567 82T1519 32Q1449
-19 1366 -19T1230 9T1132 82T1051 186T982 305L923 424Q860 554 823 591T754 629H653Q628 629 628 665Q628 715 666 743Q679 752 744 753T890 781T1025 852Q1128 941 1128 1102Q1128 1237 1038 1323Q936 1420 754 1422Q634 1422 594 1386Q554 1352 552 1257V236Q552
157 596 136Q610 130 633 125T677 115T714 101Q744 85 744 58Q744 12 728 -8Z" />
<glyph unicode="S" glyph-name="S" horiz-adv-x="1322" d="M971 1111Q971 1340 808 1398Q752 1418 677 1418T548 1401T458 1355Q385 1296 385 1199Q385 1052 601 948L726 889Q817 847 901 804T1051 704Q1194 582 1194 402Q1194 209 1026 91Q869 -19 632 -19Q444
-19 300 40Q194 82 149 159Q126 198 126 254Q126 366 182 463Q201 486 234 486Q298 486 308 448Q321 275 414 196T676 117Q869 117 935 243Q958 287 958 346T926 453T841 540Q760 600 627 656T419 754T287 852Q163 974 163 1153Q163 1336 320 1446Q471 1552 710
1552Q1013 1552 1106 1427Q1140 1382 1140 1309T1127 1182T1100 1112Q1078 1085 1025 1085T971 1111Z" />
<glyph unicode="T" glyph-name="T" horiz-adv-x="1524" d="M1163 -8Q1140 0 1064 0H492Q440 0 409 16T377 77Q377 108 393 128Q431 118 465 118T529 125T586 150Q650 191 654 275V1387H524Q379 1387 335 1374T268 1339T231 1282Q206 1220 192 1068Q170 1063 152
1063Q112 1063 101 1084T86 1127T80 1177Q76 1231 76 1292Q76 1459 102 1504Q128 1552 206 1552Q221 1552 250 1549T334 1542Q483 1533 691 1533H860Q1150 1533 1248 1542T1370 1552T1414 1545T1446 1525Q1465 1503 1465 1470Q1465 1420 1462 1390T1456 1319T1446
1234Q1432 1130 1411 1091Q1391 1063 1363 1063T1312 1068L1313 1131Q1313 1220 1303 1271T1261 1348T1169 1380T1009 1387H889V236Q889 164 1004 136Q1032 130 1057 125T1107 115T1147 101Q1179 85 1179 47Q1179 12 1163 -8Z" />
<glyph unicode="U" glyph-name="U" horiz-adv-x="1633" d="M1516 1416Q1440 1416 1437 1258V658Q1437 328 1274 154Q1114 -19 817 -19Q565 -19 404 108Q200 267 200 636V1324Q199 1367 191 1384T152 1407T99 1418T59 1432Q27 1448 27 1486Q27 1521 43 1541Q66
1533 142 1533H530Q644 1533 644 1456Q644 1422 629 1405Q592 1415 560 1415T508 1408T472 1381Q436 1338 436 1248V706Q436 397 560 262Q656 159 826 159Q1256 159 1256 695V1297Q1256 1376 1212 1396Q1198 1403 1174 1408T1126 1418T1086 1432Q1054 1448 1054
1486Q1054 1523 1070 1541Q1093 1533 1169 1533H1501Q1552 1533 1583 1517T1615 1457Q1615 1423 1600 1406Q1560 1416 1516 1416Z" />
<glyph unicode="V" glyph-name="V" horiz-adv-x="1553" d="M1545 1405Q1524 1415 1487 1415T1432 1400T1397 1356T1366 1289L953 168Q886 -19 730 -19Q681 -19 670 9L177 1264Q169 1284 162 1307T146 1353Q124 1404 85 1416Q62 1424 45 1429T16 1442Q-7 1457 -7
1480Q-7 1516 9 1541Q32 1533 88 1533H502Q569 1533 593 1524Q639 1506 639 1456Q639 1422 624 1405Q602 1415 537 1415Q419 1415 419 1317Q419 1305 426 1282L438 1247Q443 1234 447 1224L806 236L1177 1297Q1183 1319 1183 1336T1175 1366T1154 1388Q1140 1398
1104 1405T1045 1419T1005 1434Q973 1452 971 1494Q971 1522 981 1541Q1004 1533 1080 1533H1427Q1561 1533 1561 1456Q1561 1423 1545 1405Z" />
<glyph unicode="W" glyph-name="W" horiz-adv-x="2310" d="M2344 1405Q2306 1415 2279 1415T2232 1396T2194 1346Q2166 1296 2139 1204L2018 818L1802 168Q1772 80 1698 27Q1632 -19 1577 -19Q1535 -19 1517 -13L1197 814L1166 914Q901 230 879 176T828 86T768
28Q704 -19 649 -19Q600 -19 589 -13L182 1264Q174 1286 167 1310T151 1356Q130 1406 106 1412T64 1423T32 1435Q1 1450 1 1476Q1 1520 16 1541Q40 1533 115 1533H533Q647 1533 647 1456Q647 1423 631 1405Q595 1415 548 1415Q427 1415 427 1317Q427 1285 437 1249L731
233Q810 433 851 545L1096 1245Q1109 1287 1160 1312Q1204 1335 1263 1333L1651 233Q1777 625 1811 745L1919 1130Q1961 1288 1961 1323T1939 1379T1885 1406T1830 1418T1790 1432Q1758 1448 1758 1486Q1758 1520 1773 1541Q1796 1533 1872 1533H2246Q2360 1533
2360 1456Q2360 1423 2344 1405Z" />
<glyph unicode="X" glyph-name="X" horiz-adv-x="1583" d="M125 0Q0 0 0 83Q0 114 16 130Q38 121 77 121T143 129T197 156Q249 192 313 276L681 735L253 1282Q238 1298 222 1317T190 1353Q150 1394 123 1402T73 1415T34 1430Q1 1447 1 1490Q1 1518 16 1540Q41
1533 115 1533H546Q644 1533 670 1498Q681 1483 681 1464Q681 1421 665 1405Q616 1416 568 1416Q490 1416 490 1374Q490 1352 528 1301L827 886L1100 1277Q1130 1322 1130 1342T1122 1373T1100 1392T1071 1402T1035 1410T995 1420T963 1433Q937 1449 937 1476Q937
1518 953 1539Q973 1533 1051 1533H1439Q1538 1533 1564 1498Q1575 1483 1575 1464Q1575 1420 1562 1405Q1539 1414 1503 1414T1437 1397T1376 1351Q1315 1296 1260 1221L919 767L1334 252L1366 216Q1429 143 1465 133T1524 117T1564 104Q1600 85 1600 44Q1600
18 1585 -6Q1565 0 1486 0H1050Q959 0 936 39Q926 55 926 73Q926 112 942 130L963 126Q999 118 1032 118T1082 123T1098 144Q1098 174 1055 233L771 613L492 229Q466 197 466 174T489 140T540 124L588 114Q637 105 650 87T664 50Q664 18 649 -6Q629 0 550 0H125Z"
/>
<glyph unicode="Y" glyph-name="Y" horiz-adv-x="1488" d="M514 0Q400 0 400 75Q400 109 415 128Q453 118 490 118T552 123T596 144Q635 180 637 274V526L155 1326Q115 1391 88 1404T46 1423T18 1436Q-10 1452 -10 1480Q-10 1521 6 1541Q29 1533 105 1533H466Q564
1533 590 1501Q603 1486 603 1456T584 1404Q550 1414 508 1414Q425 1414 425 1350Q425 1304 466 1238L787 684Q910 889 966 991L1060 1167Q1125 1293 1130 1314T1135 1349T1128 1372T1108 1388T1081 1398T1045 1407T1000 1417T958 1430Q918 1447 918 1486T933 1541Q956
1533 1032 1533H1378Q1469 1533 1494 1500Q1505 1485 1505 1464Q1505 1424 1487 1404Q1453 1414 1429 1414T1386 1399T1350 1358T1314 1298Q1258 1188 1226 1131Q908 591 898 572L873 530V236Q873 150 968 134Q1082 116 1103 103Q1139 83 1139 46Q1139 12 1123
-8Q1100 0 1024 0H514Z" />
<glyph unicode="Z" glyph-name="Z" horiz-adv-x="1413" d="M92 133Q92 133 603 834Q787 1094 852 1194L976 1391L560 1376Q489 1373 445 1366T376 1336Q333 1299 321 1164Q321 1144 274 1133Q262 1130 243 1130T214 1148T195 1197T181 1263Q171 1331 171 1380T175
1459T190 1505Q209 1533 271 1533H1185Q1222 1533 1262 1487Q1301 1442 1289 1416L397 146L915 166Q1051 172 1100 230Q1142 280 1155 426Q1156 436 1176 445T1223 454T1260 435T1279 380T1294 305Q1306 227 1306 171T1291 81T1246 30Q1196 0 1071 0H188Q148 0
112 56Q76 110 92 133Z" />
<glyph unicode="[" glyph-name="bracketleft" horiz-adv-x="867" d="M710 -259Q721 -285 721 -319T707 -381T665 -408H190Q157 -408 148 -374Q145 -366 145 -360V1883Q145 1910 161 1920T190 1931H665Q692 1931 706 1904T721 1843T710 1782H353V-259H710Z" />
<glyph unicode="\" glyph-name="backslash" horiz-adv-x="921" d="M189 1814Q159 1827 126 1827T71 1824T33 1812Q-5 1796 1 1767L733 -165Q762 -176 795 -176T850 -173T889 -162Q925 -145 920 -120L189 1814Z" />
<glyph unicode="]" glyph-name="bracketright" horiz-adv-x="867" d="M157 -259Q146 -285 146 -319T160 -381T202 -408H677Q710 -408 719 -374Q722 -366 722 -360V1883Q722 1910 706 1920T677 1931H202Q175 1931 161 1904T146 1843T157 1782H514V-259H157Z" />
<glyph unicode="^" glyph-name="asciicircum" horiz-adv-x="1656" d="M396 380Q268 380 268 447Q268 457 278 482L705 1465Q736 1534 827 1534Q873 1534 911 1516T963 1465Q1383 471 1388 460T1393 438Q1393 381 1248 381Q1220 381 1194 430L837 1309L462 437Q428
380 396 380Z" />
<glyph unicode="_" glyph-name="underscore" horiz-adv-x="1380" d="M-101 -330Q-112 -304 -112 -268T-98 -203T-56 -175H1480Q1493 -197 1493 -236Q1493 -298 1460 -322Q1449 -330 1434 -330H-101Z" />
<glyph unicode="`" glyph-name="grave" horiz-adv-x="582" d="M20 1568Q0 1578 0 1600T16 1652T58 1708Q120 1769 175 1769Q205 1769 227 1747L546 1428Q553 1421 553 1411T547 1391T530 1370Q505 1347 476 1347L20 1568Z" />
<glyph unicode="a" glyph-name="a" horiz-adv-x="1247" d="M815 127Q669 -19 462 -19Q302 -19 206 73Q109 166 109 314Q109 498 273 590Q421 674 690 674H815Q816 712 816 748V823Q816 957 777 1012Q733 1074 627 1074Q384 1074 377 900Q376 873 378 855Q358 839
311 839T242 850T204 880Q170 919 170 979T205 1085T302 1160Q421 1219 583 1219T826 1188T956 1104Q1041 1012 1041 857L1031 377Q1031 246 1043 211T1073 164T1116 152T1158 160L1186 173Q1200 178 1210 162T1221 133T1211 100T1172 58T1107 18Q908 -76 836 62Q821
89 815 127ZM812 258Q812 402 814 544Q606 536 532 518T424 482T372 442Q341 404 341 328T395 206T550 160Q693 160 812 258Z" />
<glyph unicode="b" glyph-name="b" horiz-adv-x="1328" d="M415 1079Q565 1219 750 1219Q954 1219 1082 1078Q1222 926 1222 654Q1222 348 1030 158Q849 -19 602 -19Q441 -19 281 54Q229 77 192 107V1475Q192 1544 178 1564Q157 1596 104 1596Q80 1596 59 1592T30
1591T16 1604Q-5 1636 66 1688Q176 1769 283 1769Q397 1769 411 1646Q415 1609 415 1568V1079ZM415 920V219Q509 141 640 141Q795 141 892 256Q995 378 995 591Q995 815 904 928Q823 1031 678 1031T415 920Z" />
<glyph unicode="c" glyph-name="c" horiz-adv-x="1134" d="M826 854L827 890Q827 909 818 954T761 1029T638 1058T506 1021T412 920Q344 800 344 599Q344 409 436 290Q530 168 684 168Q824 168 952 245Q983 264 1000 278Q1010 278 1023 262Q1048 233 1048 216T1034
176T994 128T930 76T847 29Q742 -19 632 -19T427 18T262 129Q114 284 114 555Q114 863 302 1050Q473 1219 697 1219Q844 1219 942 1156Q1045 1090 1045 982Q1045 923 1019 893Q974 840 915 840T826 854Z" />
<glyph unicode="d" glyph-name="d" horiz-adv-x="1378" d="M919 125Q764 -20 578 -20Q373 -20 244 120Q104 274 104 545Q104 850 298 1041Q479 1219 726 1219Q825 1219 916 1186V1475Q916 1545 902 1564Q879 1596 827 1596Q805 1596 784 1592T754 1591T740 1604Q720
1637 790 1688Q900 1769 1007 1769Q1120 1769 1136 1646Q1140 1609 1140 1568V407Q1140 253 1152 215T1180 166T1222 154T1263 162L1293 175Q1306 178 1316 163Q1337 132 1322 107T1277 59T1210 19Q1048 -54 968 16Q929 50 919 125ZM916 983Q818 1058 688 1058Q532
1058 435 943Q331 820 331 608Q331 271 523 192Q583 168 639 168T734 177T805 201Q871 231 916 274V983Z" />
<glyph unicode="e" glyph-name="e" horiz-adv-x="1209" d="M108 538Q108 659 133 753T200 921T300 1052T424 1145Q554 1219 680 1219T882 1175T1006 1056Q1095 915 1095 681Q1095 594 1022 592L324 577Q330 360 436 256Q526 168 669 168Q882 168 1015 257Q1024
257 1037 242Q1062 212 1062 190Q1062 142 942 67Q804 -19 620 -19Q380 -19 243 134Q108 284 108 538ZM330 706Q618 720 857 743Q868 1061 637 1061Q508 1061 426 961Q351 869 330 706Z" />
<glyph unicode="f" glyph-name="f" horiz-adv-x="861" d="M264 0Q111 0 111 70Q111 107 126 126Q150 118 171 118Q263 118 261 236V1027H242Q134 1027 102 1024Q85 1063 85 1097T111 1152T178 1174H261V1210Q261 1584 519 1718Q617 1769 725 1769T881 1720T929
1590Q929 1499 865 1449Q846 1436 808 1436T770 1455Q770 1602 660 1602Q587 1602 551 1568Q482 1501 482 1365Q482 1344 484 1320V1174H801Q814 1151 814 1115T807 1062T778 1031Q732 999 659 999T484 1011V208Q484 131 582 120Q668 111 686 98Q711 79 711 50Q711
15 695 -5Q675 0 631 0H264Z" />
<glyph unicode="g" glyph-name="g" horiz-adv-x="1249" d="M493 399Q455 361 455 325T476 271T531 242Q583 228 646 228H732Q1058 228 1161 72Q1199 14 1199 -69T1171 -216T1096 -327T987 -411T856 -468Q721 -513 604 -513T400 -495T244 -437Q97 -352 97 -193Q97
-58 232 49Q273 81 319 106Q265 151 265 227Q265 346 383 427Q210 493 156 663Q139 719 139 788T160 918T219 1027T307 1111T414 1171Q526 1219 649 1219Q852 1219 973 1117Q986 1167 986 1220T963 1306Q1002 1352 1079 1352Q1123 1352 1149 1328Q1199 1285 1199
1243T1186 1169T1152 1109Q1115 1057 1056 1015Q1096 940 1096 842T1053 659T936 515Q786 394 566 394Q536 394 493 399ZM480 577T526 560T624 543T723 558T804 602Q877 664 877 778Q877 904 812 988Q738 1081 604 1081Q435 1081 385 943Q368 896 368 827T388 703T444
613ZM445 47Q314 -42 314 -155Q314 -253 428 -304Q519 -346 652 -346Q773 -346 876 -306Q1011 -253 1011 -133Q1011 28 750 28L661 27Q525 27 445 47Z" />
<glyph unicode="h" glyph-name="h" horiz-adv-x="1461" d="M630 -5Q610 0 566 0H247Q151 0 124 34Q113 47 113 64Q113 106 129 126Q153 118 184 118T230 143T244 236V1475Q244 1544 230 1564Q209 1596 156 1596H136Q127 1596 116 1594T96 1595T82 1608Q61 1639
130 1692Q231 1769 336 1769Q450 1769 464 1646Q468 1609 468 1568V1023Q619 1150 791 1200Q854 1219 918 1219T1041 1202T1142 1147Q1234 1065 1234 897V226Q1234 143 1290 124Q1306 118 1328 114T1367 105T1395 92Q1412 79 1412 50Q1412 14 1397 -5Q1376 0 1333
0H1014Q918 0 891 34Q880 47 880 64Q880 107 895 126Q920 118 949 118T993 139T1011 216V826Q1011 996 910 1016Q879 1022 833 1022T731 1008T626 972Q529 928 468 867V226Q468 143 524 124Q540 118 562 114T601 105T629 92Q646 79 646 50Q646 15 630 -5Z" />
<glyph unicode="i" glyph-name="i" horiz-adv-x="717" d="M334 1405Q300 1405 272 1415T222 1446Q178 1488 178 1559Q178 1627 230 1674Q280 1721 350 1721T462 1679T504 1565Q504 1497 454 1450Q405 1405 334 1405ZM273 0Q119 0 119 70Q119 106 135 126Q159 118
179 118Q272 118 270 236V906Q270 976 251 1003T181 1031Q144 1031 114 1022Q96 1020 88 1050Q81 1077 96 1097T142 1140T212 1180Q294 1219 349 1219T430 1203T471 1160Q493 1116 493 1018V219Q496 140 550 123Q565 118 587 114T626 105T654 92Q671 79 671 50Q671
14 656 -5Q635 0 592 0H273Z" />
<glyph unicode="j" glyph-name="j" horiz-adv-x="717" d="M265 1405T222 1446T178 1559Q178 1627 230 1674Q280 1721 349 1721T461 1679T503 1565Q503 1497 453 1450Q404 1405 335 1405ZM10 -250Q14 -282 37 -307T104 -332T177 -323T228 -290Q270 -239 270 -108V906Q270
976 251 1003T181 1031Q155 1031 134 1022Q115 1020 107 1050Q100 1076 115 1096T159 1140T222 1180Q298 1219 351 1219T430 1203T471 1160Q493 1116 493 1018V37Q493 -225 368 -376Q254 -514 86 -514Q-72 -514 -122 -424Q-136 -397 -136 -353T-102 -278T-36 -247T10
-250Z" />
<glyph unicode="k" glyph-name="k" horiz-adv-x="1325" d="M611 -5Q591 0 547 0H247Q151 0 124 34Q113 47 113 64Q113 106 129 126Q153 118 184 118T230 143T244 236V1475Q244 1544 230 1564Q209 1596 156 1596Q140 1596 124 1593T99 1593T85 1606Q72 1626 87
1646T132 1690T196 1730Q271 1769 325 1769T406 1753T446 1710Q468 1666 468 1568V226Q468 143 518 124Q532 118 551 114T587 105T612 92Q627 79 627 50Q627 15 611 -5ZM1034 1219Q1190 1219 1190 1123Q1190 1002 947 789Q853 706 758 647Q822 588 889 494L994
346Q1126 157 1193 157Q1248 157 1265 168T1291 180T1312 173T1325 146T1310 99T1266 44Q1198 -19 1119 -19T986 18T885 115T796 248L713 390Q612 564 540 616Q498 645 512 653L541 669L702 784Q805 861 844 905Q920 990 920 1047Q920 1087 840 1093Q830 1109 830
1127T849 1162T899 1192Q963 1219 1034 1219Z" />
<glyph unicode="l" glyph-name="l" horiz-adv-x="715" d="M263 0Q110 0 110 70Q110 107 125 126Q149 118 170 118Q257 118 260 223V1475Q260 1545 246 1564Q223 1596 172 1596Q149 1596 128 1592T98 1591T84 1604Q64 1637 134 1688Q244 1769 351 1769Q465 1769
479 1646Q483 1609 483 1568V219Q486 141 540 123Q556 118 577 114T617 105T645 92Q662 79 662 50Q662 15 646 -5Q626 0 582 0H263Z" />
<glyph unicode="m" glyph-name="m" horiz-adv-x="2190" d="M646 -5Q626 0 582 0H263Q167 0 140 34Q129 47 129 64Q129 106 145 126Q169 118 199 118T245 143T260 236V890Q260 984 225 1007Q211 1016 188 1016Q165 1016 152 1009T130 999T115 999T103 1010Q88 1026
88 1043T100 1080T141 1125T205 1172Q286 1219 367 1219Q456 1219 474 1106Q480 1072 482 1036Q632 1155 796 1202Q856 1219 912 1219Q1150 1219 1213 1031Q1369 1155 1530 1202Q1591 1219 1654 1219T1775 1202T1876 1147Q1968 1065 1968 897V226Q1968 144 2024
124Q2040 118 2062 114T2102 105T2130 92Q2147 79 2147 50Q2147 15 2131 -5Q2111 0 2067 0H1748Q1652 0 1625 34Q1614 47 1614 64Q1614 106 1630 126Q1654 118 1683 118T1727 137T1745 210V826Q1745 996 1644 1016Q1613 1022 1571 1022T1479 1012T1384 983Q1297
948 1232 894V226Q1232 143 1288 124Q1304 118 1326 114T1365 105T1393 92Q1410 79 1410 50Q1410 14 1395 -5Q1375 0 1331 0H1012Q916 0 889 34Q878 47 878 64Q878 107 893 126Q918 118 947 118T991 139T1009 216V826Q1009 996 908 1016Q877 1022 833 1022T737
1010T638 978Q548 941 483 884V226Q483 144 540 124Q555 118 577 114T617 105T645 92Q662 79 662 50Q662 15 646 -5Z" />
<glyph unicode="n" glyph-name="n" horiz-adv-x="1472" d="M646 -5Q626 0 582 0H263Q167 0 140 34Q129 47 129 64Q129 106 145 126Q169 118 199 118T245 143T260 236V890Q260 984 225 1007Q211 1016 188 1016Q165 1016 152 1009T130 999T115 999T103 1010Q88 1026
88 1043T100 1080T141 1125T205 1172Q286 1219 367 1219Q460 1219 477 1096Q482 1060 483 1022Q632 1147 807 1200Q870 1219 934 1219T1057 1202T1159 1147Q1250 1067 1250 897V219Q1253 141 1308 123Q1323 118 1345 114T1384 105T1412 92Q1429 79 1429 50Q1429
15 1413 -5Q1393 0 1349 0H1030Q934 0 907 34Q896 47 896 64Q896 106 912 126Q936 118 956 118T991 123T1013 142Q1027 166 1027 236V826Q1027 996 926 1016Q895 1022 849 1022T746 1008T641 972Q547 930 483 866V219Q486 141 540 123Q556 118 577 114T617 105T645
92Q662 79 662 50Q662 15 646 -5Z" />
<glyph unicode="o" glyph-name="o" horiz-adv-x="1270" d="M99 552Q99 674 123 771T189 942T288 1068T410 1154Q537 1219 689 1219Q884 1219 1020 1077Q1171 921 1171 665Q1171 329 988 142Q829 -19 607 -19Q375 -19 235 144Q99 301 99 552ZM666 144Q733 144 786
175T876 262Q950 376 950 558Q950 758 872 898Q784 1059 619 1059Q486 1059 406 957Q321 849 321 655Q321 412 428 271Q524 144 666 144Z" />
<glyph unicode="p" glyph-name="p" horiz-adv-x="1369" d="M620 -374Q633 -391 633 -417T610 -461T554 -492Q491 -514 433 -514T337 -506T274 -478Q226 -438 226 -343V890Q226 984 191 1007Q177 1016 154 1016Q131 1016 118 1009T96 999T81 999T69 1010Q54 1028
54 1044T66 1080T107 1125T171 1172Q252 1219 333 1219Q431 1219 446 1072Q603 1219 788 1219Q992 1219 1122 1078Q1263 926 1263 654Q1263 451 1171 291Q1087 145 940 62Q799 -19 640 -19Q551 -19 449 9V-130Q449 -292 467 -329T505 -374T550 -381T620 -374ZM449
916V222Q544 141 678 141Q834 141 932 256Q1036 379 1036 591Q1036 814 944 928Q862 1031 716 1031T449 916Z" />
<glyph unicode="q" glyph-name="q" horiz-adv-x="1354" d="M929 132Q772 -20 581 -20Q376 -20 248 120Q107 274 107 545Q107 849 300 1040Q388 1127 499 1172T731 1218T966 1178Q1007 1221 1065 1221Q1111 1221 1130 1184Q1152 1143 1152 1042V-130Q1152 -253
1163 -286T1190 -330T1227 -342Q1258 -342 1277 -335T1303 -328T1314 -333Q1329 -344 1329 -362T1318 -401T1282 -443T1223 -480Q1152 -514 1083 -514T972 -468T929 -323V132ZM929 968Q830 1058 691 1058Q535 1058 438 943Q334 820 334 608Q334 384 425 270Q507
168 656 168T929 292V968Z" />
<glyph unicode="r" glyph-name="r" horiz-adv-x="1052" d="M661 -5Q640 0 597 0H258Q162 0 135 34Q124 47 124 64Q124 106 140 126Q164 118 184 118T219 123T241 142Q255 166 255 236V890Q255 984 220 1007Q206 1016 183 1016Q160 1016 147 1009T125 999T110 999T98
1010Q83 1028 83 1044T95 1080T136 1125T200 1172Q281 1219 362 1219Q454 1219 471 1099Q476 1064 477 1026Q623 1155 778 1203Q830 1219 872 1219T942 1207T986 1174Q1016 1133 1016 1069T1010 967T995 900Q977 841 961 825Q933 796 886 796Q838 796 838 824Q838
931 829 961Q812 1016 765 1016T680 1006T606 977Q533 941 478 884V219Q481 140 547 123Q566 118 590 114T631 105T659 92Q676 79 676 50Q676 14 661 -5Z" />
<glyph unicode="s" glyph-name="s" horiz-adv-x="1114" d="M794 864Q794 1018 666 1068Q625 1084 578 1084T490 1076T418 1051Q348 1013 348 942Q348 874 406 824Q470 771 644 694T912 525T1007 314Q1007 180 897 88Q768 -19 540 -19Q261 -19 154 100Q117 142
117 207Q117 364 194 390Q213 396 230 396Q277 396 281 367Q303 117 561 117Q716 117 768 204Q785 232 785 272T760 345T689 406T582 462L449 522Q143 662 143 894Q143 1044 276 1134Q402 1219 601 1219Q871 1219 937 1102Q954 1072 954 1036T950 972T940 920Q930
876 917 858Q891 839 843 839T794 864Z" />
<glyph unicode="t" glyph-name="t" horiz-adv-x="887" d="M452 682L451 419Q451 254 468 221T508 181T567 174T632 179T688 194T738 214L787 235Q804 241 825 200Q831 189 831 175T819 137T773 85T692 32Q592 -19 513 -19T383 -10T298 26Q226 82 226 231V1018H127Q96
1018 82 1038Q58 1069 58 1090Q58 1125 75 1129Q234 1156 300 1365Q319 1428 330 1514Q378 1522 402 1522T445 1497T463 1439T461 1377T459 1314L455 1174H801Q814 1151 814 1125V1094Q814 1052 769 1026T670 999T592 1000T546 1004L502 1010Q479 1012 453 1014V1003L452
682Z" />
<glyph unicode="u" glyph-name="u" horiz-adv-x="1370" d="M193 890Q193 947 185 981T150 1016Q131 1016 120 1012L96 1002Q89 1000 79 1010Q60 1031 60 1048T71 1085T106 1130T160 1174Q228 1219 283 1219T361 1200T396 1150Q416 1100 416 999V373Q416 204 518
184Q549 178 591 178T682 189T775 218Q860 253 925 307V890Q925 985 891 1007Q877 1016 854 1016Q831 1016 818 1009T796 999T781 999T768 1010Q753 1027 753 1044T765 1080T806 1125T870 1172Q951 1219 1032 1219Q1130 1219 1144 1080Q1148 1041 1148 999V407Q1148
253 1160 215T1189 166T1231 154T1272 162L1302 175Q1315 178 1325 163Q1346 132 1331 107T1285 59T1214 19Q1041 -57 968 22Q930 63 925 152Q778 39 624 -4Q568 -19 507 -19T387 -2T285 53Q193 134 193 303V890Z" />
<glyph unicode="v" glyph-name="v" horiz-adv-x="1231" d="M477 49Q143 921 133 949T112 1002Q87 1058 67 1058Q54 1058 38 1055T12 1066T2 1101T21 1144T70 1182Q133 1219 170 1219T229 1217T270 1202Q310 1176 337 1090L630 216Q700 357 734 432L796 578Q908
854 908 966V979Q908 1029 886 1058T806 1093Q796 1109 796 1126T815 1161T865 1192Q927 1219 1000 1219T1114 1197T1155 1108Q1155 968 965 551L874 360Q780 170 732 102Q646 -19 581 -19Q534 -19 497 18Q484 31 477 49Z" />
<glyph unicode="w" glyph-name="w" horiz-adv-x="1869" d="M446 49L125 956Q89 1058 62 1058Q50 1058 34 1055T8 1066T-2 1101T15 1144T58 1182Q116 1219 159 1219T224 1217T264 1203Q302 1178 328 1090L585 220Q680 500 708 590Q807 924 840 1084Q847 1120 906
1145Q952 1164 984 1164T1026 1160T1042 1143Q1054 1119 1060 1085L1326 213Q1401 396 1428 470L1480 616Q1563 855 1563 989Q1563 1084 1471 1095Q1461 1111 1461 1128T1478 1163T1522 1194Q1576 1219 1631 1219T1717 1213T1765 1192Q1799 1162 1799 1103T1786
983T1751 850T1700 699Q1591 409 1541 301L1468 149Q1446 105 1434 85L1409 46Q1367 -19 1310 -19Q1248 -19 1208 14Q1192 28 1185 49L937 765Q837 452 810 373Q728 143 711 109T681 53T652 16Q616 -19 573 -19Q513 -19 470 16Q454 29 446 49Z" />
<glyph unicode="x" glyph-name="x" horiz-adv-x="1247" d="M93 94Q93 131 127 186T218 309T354 455L518 622L313 922Q239 1033 175 1033Q148 1033 129 1025T98 1016T79 1021T67 1034Q47 1064 72 1101T128 1162Q201 1219 290 1219Q349 1219 377 1202Q427 1173 465
1104L677 709Q810 845 878 962Q901 1007 901 1038Q901 1091 799 1103Q790 1118 790 1135T809 1168T858 1196Q916 1219 988 1219T1102 1187T1145 1114T1127 1033T1078 948T1007 855T923 760Q804 637 750 589L963 282Q1003 226 1035 192T1100 157T1152 165Q1196 183
1208 166Q1229 135 1207 98T1158 36Q1094 -19 1019 -19Q870 -19 807 108L589 500Q414 313 368 194Q359 173 359 151T388 113T461 92Q471 82 471 62T453 27T407 2Q317 -30 214 -14Q93 5 93 94Z" />
<glyph unicode="y" glyph-name="y" horiz-adv-x="1203" d="M60 1058L39 1054Q17 1054 8 1084Q5 1092 5 1107T22 1144T66 1182Q126 1219 193 1219Q246 1219 269 1204Q314 1176 339 1090L644 205Q738 414 773 501L834 656Q919 884 919 953T895 1055T812 1093Q801
1105 801 1125T819 1163T868 1194Q929 1219 993 1219T1085 1213T1128 1191Q1159 1163 1159 1087Q1159 1019 1052 728Q952 468 902 351Q718 -59 625 -223T449 -450T274 -514T135 -475T88 -366Q88 -314 114 -288Q163 -239 218 -250Q227 -325 308 -325Q381 -325 439
-230Q466 -185 492 -125L550 4L570 45Q512 53 472 102Q456 121 446 150L166 885L142 944Q96 1058 60 1058Z" />
<glyph unicode="z" glyph-name="z" horiz-adv-x="1173" d="M939 345Q941 367 999 367Q1026 367 1034 357T1052 323T1070 268Q1088 198 1088 130T1053 31T939 0H244Q180 0 145 53Q112 86 112 142Q112 173 125 186Q515 664 593 767T712 932T772 1018L811 1068L486
1057Q397 1053 353 1016T310 893Q308 872 256 872Q229 872 221 882T202 910T180 952Q157 1006 157 1072T189 1169T301 1200H986Q1032 1200 1054 1104Q1060 1080 1060 1063T1052 1035L895 826L570 410Q490 307 449 247T392 168L363 131L763 146Q853 151 896 205T939
345Z" />
<glyph unicode="{" glyph-name="braceleft" horiz-adv-x="1026" d="M372 -231T346 -165T320 -27T327 104T343 220Q366 364 366 421T353 513T317 574T266 621T209 654Q157 679 105 689Q97 701 97 738Q97 776 105 788Q265 820 336 930Q366 976 366 1034T359 1147T343
1258Q320 1402 320 1488T346 1640T415 1759T514 1848T628 1910Q741 1958 844 1958Q891 1958 914 1920Q933 1889 928 1859Q764 1859 664 1763Q556 1661 556 1479Q556 1398 573 1295Q605 1101 605 1044T577 934T504 843Q428 776 313 741V735Q503 677 576 541Q605
488 605 436T598 334T580 227Q556 80 556 -8T584 -167T664 -286Q766 -383 928 -383Q933 -412 919 -435Q891 -482 845 -482T743 -471T628 -435T514 -373T416 -283Z" />
<glyph unicode="|" glyph-name="bar" horiz-adv-x="825" d="M318 1860Q340 1873 374 1873T430 1870T468 1858Q506 1842 506 1814V-210Q476 -221 446 -221T395 -218T356 -206Q318 -190 318 -165V1860Z" />
<glyph unicode="}" glyph-name="braceright" horiz-adv-x="1026" d="M654 -231T680 -165T706 -27T699 104T683 220Q660 364 660 421T673 513T709 574T760 621T817 654Q869 679 921 689Q929 701 929 738Q929 776 921 788Q761 820 690 930Q660 976 660 1034T667
1147T683 1258Q706 1402 706 1488T680 1640T611 1759T512 1848T398 1910Q285 1958 182 1958Q135 1958 112 1920Q93 1889 98 1859Q262 1859 362 1763Q470 1661 470 1479Q470 1398 453 1295Q421 1101 421 1044T449 934T522 843Q598 776 713 741V735Q523 677 450 541Q421
488 421 436T428 334T446 227Q470 80 470 -8T442 -167T362 -286Q260 -383 98 -383Q93 -412 107 -435Q135 -482 181 -482T283 -471T398 -435T512 -373T610 -283Z" />
<glyph unicode="~" glyph-name="asciitilde" horiz-adv-x="1192" d="M378 1029Q264 1029 183 902Q122 919 122 977Q122 1038 212 1130Q312 1231 426 1231Q493 1231 542 1205T619 1160T678 1125Q749 1088 820 1088Q921 1088 1009 1217Q1047 1217 1065 1168Q1070
1155 1070 1133T1044 1068T976 985Q874 889 766 889Q699 889 650 915T572 959T514 992Q443 1029 378 1029Z" />
<glyph unicode="&#xa1;" glyph-name="exclamdown" horiz-adv-x="664" d="M405 1103Q403 1124 331 1124T258 1100T254 1020Q242 829 235 731L198 194Q187 29 187 -13Q187 -43 358 -79Q422 -92 458 -92T494 -83T490 -27L414 989Q408 1060 405 1103ZM165 1482Q165
1410 212 1363T330 1315Q444 1315 487 1415Q500 1446 500 1482Q500 1552 452 1601Q404 1648 330 1648Q260 1648 213 1601T165 1482Z" />
<glyph unicode="&#xa2;" glyph-name="cent" horiz-adv-x="1164" d="M865 854L866 886Q866 977 814 1015Q778 1041 727 1052L680 169Q686 168 692 168H703Q842 168 970 244Q1002 262 1019 276Q1039 276 1061 234Q1067 222 1067 206T1037 153T954 79Q823 -13 670
-18L663 -159Q641 -167 621 -167T584 -162T552 -146Q523 -124 523 -95L527 -7Q338 30 228 173Q114 322 114 555Q114 819 259 999Q388 1159 591 1205L600 1368Q618 1377 638 1377T676 1372T708 1356Q740 1335 740 1302L735 1219Q875 1215 967 1152Q1064 1087 1064
982Q1064 922 1038 892Q993 840 941 840T865 854ZM583 1047Q461 1015 399 886Q344 772 344 618Q344 315 539 208L583 1047Z" />
<glyph unicode="&#xa3;" glyph-name="sterling" horiz-adv-x="1650" d="M1135 182Q1286 182 1364 294Q1437 287 1456 253Q1460 233 1460 203T1445 132T1394 58Q1313 -19 1155 -19Q1009 -19 812 46Q739 71 669 91T542 112T456 109T403 98T356 79T306 54L248 20Q215
2 172 -19Q153 -8 139 17T124 65T128 100L169 140Q249 217 367 248Q485 393 485 608Q485 634 482 663H252Q244 685 244 706T249 746T265 780Q287 812 316 812H457Q429 949 429 1032T453 1188T517 1319T612 1421T726 1494Q844 1552 968 1552Q1197 1552 1284 1436Q1316
1395 1316 1347T1304 1266T1274 1208Q1239 1159 1195 1135Q1158 1132 1135 1155Q1136 1163 1136 1170V1183Q1136 1281 1074 1336Q1015 1386 915 1386Q796 1386 733 1323Q654 1244 654 1062Q654 1012 669 950T695 812H1047Q1056 794 1056 773T1051 733T1036 698Q1014
663 981 663H706Q702 417 563 274Q577 275 592 275H625Q704 275 824 243T1009 197T1135 182Z" />
<glyph unicode="&#xa4;" glyph-name="currency" horiz-adv-x="1320" d="M927 306Q806 225 661 225T392 308L174 82Q89 116 46 212L272 428Q187 548 187 700T274 974L49 1195Q93 1271 176 1323L396 1092Q516 1174 661 1174Q804 1174 927 1092L1148 1323Q1209 1301
1257 1231Q1270 1212 1277 1195L1049 973Q1136 853 1136 700T1048 424L1275 203Q1232 128 1148 75L927 306ZM660 395Q722 395 776 419T872 484Q959 574 959 699Q959 824 872 913T661 1003Q537 1003 451 914Q364 823 364 699Q364 575 451 484Q537 395 660 395Z"
/>
<glyph unicode="&#xa5;" glyph-name="yen" horiz-adv-x="1647" d="M643 122Q753 122 753 226V356L378 353Q370 375 370 396T375 436T391 470Q413 502 442 502L753 499V674L386 671Q378 693 378 714T383 754T399 788Q421 821 450 821L715 818L303 1309Q236 1388
195 1403T132 1434T110 1478Q110 1520 126 1540Q149 1532 225 1532H605Q672 1532 696 1523Q743 1505 743 1455Q743 1425 724 1404Q688 1414 660 1414T618 1410T592 1397Q562 1376 562 1347Q562 1304 616 1238L890 889Q1001 1012 1054 1076Q1228 1293 1231 1310T1235
1349Q1235 1388 1158 1406L1104 1418Q1056 1428 1045 1448T1034 1496T1050 1540Q1073 1532 1139 1532H1485Q1554 1532 1578 1523Q1628 1505 1628 1454Q1628 1425 1609 1404Q1578 1413 1555 1413T1504 1388T1444 1325L1383 1248Q1352 1207 1324 1174L1024 817L1358
821Q1367 803 1367 782T1362 741T1346 706Q1325 671 1292 671L986 674V499L1350 502Q1359 484 1359 463T1354 423T1338 388Q1317 353 1284 353L986 356V226Q986 163 1044 142Q1070 132 1099 128T1154 116Q1212 98 1212 50Q1212 15 1197 -8Q1174 0 1098 0H678Q580
0 555 37Q544 53 544 72Q544 112 560 132Q594 122 643 122Z" />
<glyph unicode="&#xa6;" glyph-name="brokenbar" horiz-adv-x="825" d="M318 1860Q340 1873 374 1873T430 1870T468 1858Q506 1842 506 1814V953Q477 941 446 941T394 944T356 956Q318 972 318 997V1860ZM318 695Q340 708 374 708T430 705T468 694Q506 677 506
649V-210Q476 -221 446 -221T395 -218T356 -206Q318 -190 318 -165V695Z" />
<glyph unicode="&#xa7;" glyph-name="section" horiz-adv-x="1486" d="M1050 1450Q1050 1762 748 1762Q615 1762 535 1698Q459 1638 459 1547Q459 1404 687 1283Q841 1197 898 1168T1007 1108T1105 1040T1188 958Q1268 862 1268 739Q1268 523 1086 416Q1030 384
965 364Q1101 288 1158 223T1242 99T1268 -53T1222 -222T1100 -350Q952 -445 718 -445Q419 -445 284 -330Q200 -260 200 -151Q200 -47 256 37Q271 56 303 56Q369 56 377 22Q383 -42 394 -93T434 -184T509 -254Q602 -314 744 -314Q940 -314 1008 -182Q1032 -137
1032 -77T998 30T909 116T782 191L640 263Q469 344 390 417T271 564T230 718T251 855T313 956Q392 1043 533 1084Q230 1263 230 1506Q230 1690 386 1794Q533 1891 775 1891Q1083 1891 1178 1752Q1213 1701 1213 1647T1207 1563T1190 1510Q1172 1464 1158 1449Q1135
1424 1093 1424T1050 1450ZM476 850Q459 812 459 762T491 667T574 585T687 516L809 450L814 447Q965 480 1015 606Q1032 649 1032 700T1005 793T931 869T824 936L700 998Q532 977 476 850Z" />
<glyph unicode="&#xa8;" glyph-name="dieresis" horiz-adv-x="1052" d="M769 1401Q735 1401 707 1411T657 1442Q613 1484 613 1555Q613 1623 664 1670Q715 1717 785 1717T897 1675T939 1561Q939 1493 888 1446Q839 1401 769 1401ZM262 1401Q228 1401 200 1411T150
1442Q106 1484 106 1555Q106 1623 158 1670Q208 1717 278 1717T390 1675T432 1561Q432 1493 382 1446Q332 1401 262 1401Z" />
<glyph unicode="&#xa9;" glyph-name="copyright" horiz-adv-x="2614" d="M194 619Q194 922 346 1181Q493 1433 745 1580Q1006 1733 1307 1733Q1609 1733 1868 1580Q2120 1433 2268 1181Q2420 920 2420 619Q2420 316 2268 56Q2119 -196 1868 -342Q1609 -493 1307
-493Q1005 -493 745 -342Q494 -196 346 56Q194 315 194 619ZM356 616Q356 353 484 126Q608 -96 822 -224Q1044 -358 1307 -358Q1570 -358 1792 -224Q2006 -96 2130 126Q2257 351 2257 616Q2257 882 2130 1109Q2005 1333 1792 1462Q1569 1597 1307 1597Q1045 1597
822 1462Q609 1333 484 1109Q356 880 356 616ZM1559 885L1560 917Q1560 989 1536 1017T1486 1060Q1433 1089 1349 1089T1198 1052T1089 950Q1009 830 1009 630Q1009 440 1114 322Q1221 199 1397 199Q1546 199 1681 274Q1714 293 1732 307Q1753 307 1774 265Q1780
253 1780 237T1748 183T1657 106Q1514 12 1369 12T1120 49T940 160Q779 315 779 586Q779 895 980 1081Q1162 1250 1410 1250Q1564 1250 1668 1188Q1777 1121 1777 1013Q1777 953 1751 923Q1706 871 1647 871T1559 885Z" />
<glyph unicode="&#xaa;" glyph-name="ordfeminine" horiz-adv-x="998" d="M630 917Q521 813 394 813Q266 813 189 878Q111 945 111 1051Q111 1303 486 1303H630V1398Q630 1560 479 1560Q422 1560 384 1538T337 1483Q329 1463 332 1435Q302 1423 259 1423T189 1447T161
1512T187 1590T256 1649Q342 1694 481 1694Q706 1694 792 1567Q826 1517 826 1439L821 1117Q821 1024 830 1002Q843 966 886 966Q905 966 917 972T934 974T943 961Q954 939 954 926T946 898T917 867T872 839Q818 813 771 813T683 838T630 917ZM302 1086Q302 956
444 956Q541 956 627 1024Q627 1111 629 1195L519 1188Q357 1178 318 1132Q302 1114 302 1086Z" />
<glyph unicode="&#xab;" glyph-name="guillemotleft" horiz-adv-x="2227" d="M1029 1169Q1086 1169 1086 1024Q1086 991 1038 960L465 579L1030 189Q1087 151 1087 113Q1087 54 1070 20T1029 -15T986 -4L248 442Q179 485 179 574Q179 619 198 660T248 720L986
1154Q1011 1169 1029 1169ZM1934 1169Q1991 1169 1991 1024Q1991 991 1943 960L1370 579L1935 189Q1992 151 1992 113Q1992 54 1975 20T1934 -15T1891 -4L1153 442Q1084 485 1084 574Q1084 619 1103 660T1153 720L1891 1154Q1916 1169 1934 1169Z" />
<glyph unicode="&#xac;" glyph-name="logicalnot" horiz-adv-x="1393" d="M151 661Q140 691 140 721T143 772T154 811Q171 849 196 849H1065Q1169 849 1199 842Q1253 828 1253 787V311Q1223 300 1193 300T1142 303T1103 314Q1065 331 1065 356V661H151Z" />
<glyph unicode="&#xad;" glyph-name="uni00AD" horiz-adv-x="1656" />
<glyph unicode="&#xae;" glyph-name="registered" horiz-adv-x="2021" d="M91 1005Q91 1257 216 1473Q336 1682 545 1806Q758 1932 1011 1932Q1263 1932 1476 1806Q1684 1682 1804 1473Q1929 1257 1929 1005Q1929 754 1804 538Q1684 329 1476 207Q1262 81 1011
81Q759 81 545 207Q336 330 216 538Q91 754 91 1005ZM241 1004Q241 789 344 606Q499 329 803 242Q902 213 1011 213Q1223 213 1404 322Q1577 425 1678 606Q1781 789 1781 1004Q1781 1218 1678 1403Q1523 1682 1219 1770Q1120 1798 1011 1798Q798 1798 618 1689Q445
1584 344 1403Q241 1218 241 1004ZM661 630Q587 630 587 695Q587 714 597 724Q609 718 640 718T691 731T713 783V1305Q713 1361 644 1376Q601 1386 588 1395T575 1420Q575 1455 584 1468Q600 1465 622 1465H745L973 1471H1003Q1303 1471 1365 1341Q1385 1299 1385
1256T1373 1179T1336 1114Q1283 1045 1185 1011Q1214 989 1252 938L1312 858Q1392 750 1449 750Q1471 750 1498 760Q1529 760 1529 717Q1529 694 1494 668Q1427 617 1373 617T1279 643T1206 709T1146 796L1094 882Q1035 974 996 974H888V782Q888 750 906 739T957
721T1012 706T1034 668T1024 625Q1012 630 965 630H661ZM981 1378Q911 1379 888 1361V1061Q900 1060 911 1060T933 1060Q1060 1060 1126 1101T1193 1221Q1193 1377 981 1378Z" />
<glyph unicode="&#xaf;" glyph-name="overscore" horiz-adv-x="1044" d="M94 1456Q86 1478 86 1500T91 1542T107 1579Q130 1615 158 1615H889Q898 1597 898 1575T893 1532T878 1494Q855 1456 823 1456H94Z" />
<glyph unicode="&#xb0;" glyph-name="degree" horiz-adv-x="1149" d="M548 1002Q469 1002 401 1027T286 1096Q189 1188 189 1335Q189 1535 324 1640Q437 1727 613 1727Q756 1727 852 1645Q960 1554 960 1402Q960 1206 829 1096Q716 1002 548 1002ZM474 1172T512
1157T593 1141T669 1156T726 1198Q771 1253 771 1342Q771 1507 660 1568Q621 1590 573 1590T490 1578T430 1542Q378 1489 378 1409T396 1281T444 1203Z" />
<glyph unicode="&#xb1;" glyph-name="plusminus" horiz-adv-x="1157" d="M168 210Q157 236 157 267T160 320T171 358Q186 394 212 394H486V664H151Q140 694 140 723T143 774T154 812Q172 849 196 849H486V1203Q512 1216 543 1216T596 1213T635 1202Q674 1184 674
1156V849H1004Q1017 823 1017 791T1014 739T1002 702Q985 664 957 664H674V394H982Q995 368 995 337T992 286T980 248Q964 210 935 210H168Z" />
<glyph unicode="&#xb2;" glyph-name="twosuperior" horiz-adv-x="1057" d="M784 1141L806 1143Q862 1143 869 1131T880 1096T886 1047Q890 1011 890 977T885 926T867 894Q841 865 787 865H200Q186 875 179 900T171 937Q167 986 178 994L366 1146Q544 1295 608
1414Q643 1477 643 1542Q643 1700 494 1700Q440 1700 400 1650Q355 1592 361 1495Q334 1482 308 1482T258 1487T216 1504Q173 1532 173 1580T196 1671T262 1746Q358 1818 509 1818Q678 1818 769 1736Q852 1662 852 1550Q852 1352 564 1124Q480 1058 387 999H516Q659
999 702 1019T763 1068T784 1141Z" />
<glyph unicode="&#xb3;" glyph-name="threesuperior" horiz-adv-x="1057" d="M855 1588Q855 1451 712 1364Q839 1323 879 1214Q892 1179 892 1126T863 1020T781 931Q676 858 504 858Q381 858 286 914Q184 975 184 1066Q184 1148 255 1168Q267 1171 287 1171Q335
1171 350 1165Q350 1088 370 1055Q410 986 506 986Q693 986 693 1150Q693 1235 592 1268Q552 1280 508 1280T432 1276Q413 1276 402 1318Q381 1397 398 1397Q517 1397 590 1452Q656 1502 656 1568T620 1666T525 1698T444 1688T408 1662Q383 1633 383 1585Q356 1573
327 1573T279 1580T247 1600Q215 1630 215 1665T236 1727T298 1774Q385 1817 528 1817Q752 1817 829 1690Q855 1647 855 1588Z" />
<glyph unicode="&#xb4;" glyph-name="acute" horiz-adv-x="582" d="M219 1347Q191 1347 173 1364Q143 1391 143 1401Q143 1420 149 1428L469 1747Q491 1769 520 1769T581 1752T638 1708Q695 1649 695 1602Q695 1578 675 1568L219 1347Z" />
<glyph unicode="&#xb5;" glyph-name="mu" horiz-adv-x="1398" d="M248 -446Q206 -446 178 -420L215 301V890Q215 946 205 981T167 1016T127 1009T105 999T90 999T78 1010Q63 1026 63 1043T75 1080T112 1125T170 1172Q242 1219 322 1219Q420 1219 434 1080Q438
1041 438 999V373Q438 204 540 184Q570 178 612 178T704 189T798 218Q885 253 951 308L952 890Q952 984 917 1007Q903 1016 880 1016Q857 1016 844 1009T822 999T807 999T795 1010Q780 1026 780 1044T792 1081T832 1125T896 1172Q977 1219 1058 1219Q1157 1219
1171 1080Q1175 1041 1175 999V407Q1175 253 1187 215T1215 166T1257 154T1298 162L1328 175Q1341 178 1351 163Q1372 132 1357 107T1312 59T1244 19Q1076 -57 997 22Q956 63 951 152Q805 40 646 -4Q589 -19 520 -19T390 4Q399 -180 422 -363Q386 -446 248 -446Z"
/>
<glyph unicode="&#xb6;" glyph-name="paragraph" horiz-adv-x="1825" d="M922 -290Q897 -295 863 -295T807 -283V523Q388 536 263 801Q221 890 221 1012T266 1232T395 1398Q567 1537 873 1537Q998 1537 1015 1523V-217Q1015 -274 922 -290ZM1389 -290Q1364 -295
1331 -295T1275 -283V1465Q1275 1516 1371 1534Q1397 1539 1428 1539T1482 1529V-217Q1482 -274 1389 -290Z" />
<glyph unicode="&#xb7;" glyph-name="middot" horiz-adv-x="664" d="M330 656Q295 656 265 668T212 704Q165 751 165 823Q165 894 212 941T330 989Q444 989 487 889Q500 859 500 823Q500 752 452 704Q404 656 330 656Z" />
<glyph unicode="&#xb8;" glyph-name="cedilla" horiz-adv-x="582" d="M329 -111Q559 -116 559 -268Q559 -425 300 -482Q207 -503 134 -501Q115 -489 115 -450Q115 -408 143 -404T207 -393T272 -374Q345 -345 345 -296Q345 -229 207 -224Q196 -224 190 -203T183
-178L227 15H349L329 -111Z" />
<glyph unicode="&#xb9;" glyph-name="onesuperior" horiz-adv-x="1019" d="M816 861Q796 865 733 865H347Q305 865 278 889T251 951Q251 972 265 983Q295 977 346 977T416 984T442 1006Q453 1025 453 1085V1530Q453 1602 391 1602H358Q324 1602 277 1595Q262 1595
252 1629Q233 1694 246 1700Q426 1742 567 1809Q570 1811 579 1811T601 1806T624 1792Q648 1775 648 1761V1068Q648 998 673 988Q683 984 704 982T749 975T790 963Q829 948 829 918Q829 874 816 861Z" />
<glyph unicode="&#xba;" glyph-name="ordmasculine" horiz-adv-x="998" d="M464 813Q380 813 310 846T192 936Q93 1052 93 1232Q93 1470 230 1592Q346 1694 528 1694Q701 1694 805 1571Q904 1453 904 1275Q904 1037 766 916Q651 813 464 813ZM379 978T417 963T501
947T582 965T644 1018Q699 1090 699 1202T685 1382T644 1488Q597 1560 491 1562Q406 1562 353 1490Q297 1415 297 1304T311 1125T352 1018Z" />
<glyph unicode="&#xbb;" glyph-name="guillemotright" horiz-adv-x="2227" d="M1198 -7Q1141 -7 1141 138Q1141 171 1189 202L1762 583L1197 973Q1140 1011 1140 1049Q1140 1108 1157 1142T1198 1177T1241 1166L1979 720Q2048 677 2048 588Q2048 543 2029 502T1979
442L1241 8Q1216 -7 1198 -7ZM293 -7Q236 -7 236 138Q236 171 284 202L857 583L292 973Q235 1011 235 1049Q235 1108 252 1142T293 1177T336 1166L1074 720Q1143 677 1143 588Q1143 543 1124 502T1074 442L336 8Q311 -7 293 -7Z" />
<glyph unicode="&#xbc;" glyph-name="onequarter" horiz-adv-x="2182" d="M1659 -163Q1614 -163 1614 -148V102H1217Q1191 102 1170 143Q1148 184 1160 198Q1211 264 1267 364L1358 529Q1468 741 1507 873Q1540 873 1586 854Q1671 818 1678 793Q1695 742 1576
546L1504 432Q1435 328 1356 232H1614V372Q1614 403 1706 436Q1759 455 1779 453T1799 442V232H1991Q2013 232 1997 167T1958 102H1799V-129Q1799 -163 1659 -163ZM745 759Q725 763 662 763H276Q234 763 207 787T180 849Q180 870 194 881Q224 875 275 875T345 882T371
904Q382 923 382 983V1428Q382 1500 320 1500H287Q253 1500 206 1493Q191 1493 181 1527Q162 1592 175 1598Q355 1640 496 1707Q499 1709 508 1709T530 1704T552 1690Q577 1673 577 1659V966Q577 896 602 886Q612 882 633 880T678 873T720 861Q758 846 758 816Q758
772 745 759ZM1379 1441Q1427 1446 1463 1419Q1530 1369 1508 1335L644 -4Q590 -2 557 24Q495 70 514 102L1379 1441Z" />
<glyph unicode="&#xbd;" glyph-name="onehalf" horiz-adv-x="2182" d="M1002 1016Q982 1020 919 1020H533Q491 1020 464 1044T437 1106Q437 1127 451 1138Q481 1132 532 1132T602 1139T628 1161Q639 1180 639 1240V1685Q639 1757 577 1757H544Q510 1757 463 1750Q448
1750 438 1784Q419 1849 432 1855Q612 1897 753 1964Q756 1966 765 1966T787 1961T810 1947Q834 1930 834 1916V1223Q834 1153 859 1143Q869 1139 890 1137T935 1130T976 1118Q1015 1103 1015 1073Q1015 1029 1002 1016ZM1924 111L1946 113Q2002 113 2009 101T2020
66T2026 17Q2030 -19 2030 -53T2025 -104T2007 -136Q1981 -165 1927 -165H1340Q1326 -155 1319 -130T1311 -93Q1307 -44 1318 -36L1506 116Q1684 265 1748 384Q1783 447 1783 512Q1783 670 1634 670Q1580 670 1540 620Q1495 562 1501 465Q1474 452 1448 452T1398
457T1356 474Q1313 502 1313 550T1336 641T1402 716Q1498 788 1649 788Q1818 788 1909 706Q1992 632 1992 520Q1992 322 1704 94Q1620 28 1527 -31H1656Q1799 -31 1842 -11T1903 38T1924 111ZM1379 1442Q1427 1447 1463 1420Q1530 1370 1508 1336L644 -3Q590 -1
557 25Q495 71 514 103L1379 1442Z" />
<glyph unicode="&#xbe;" glyph-name="threequarters" horiz-adv-x="2182" d="M1659 -163Q1614 -163 1614 -148V102H1217Q1191 102 1170 143Q1148 184 1160 198Q1211 264 1267 364L1358 529Q1468 741 1507 873Q1540 873 1586 854Q1671 818 1678 793Q1695 742 1576
546L1504 432Q1435 328 1356 232H1614V372Q1614 403 1706 436Q1759 455 1779 453T1799 442V232H1991Q2013 232 1997 167T1958 102H1799V-129Q1799 -163 1659 -163ZM1379 1441Q1427 1446 1463 1419Q1530 1369 1508 1335L644 -4Q590 -2 557 24Q495 70 514 102L1379
1441ZM806 1472Q806 1335 663 1248Q790 1207 830 1098Q843 1063 843 1010T814 904T732 815Q627 742 455 742Q332 742 238 798Q135 859 135 950Q135 1032 206 1052Q218 1055 238 1055Q286 1055 301 1049Q301 972 320 939Q361 870 457 870Q644 870 644 1034Q644 1119
542 1152Q503 1164 459 1164T383 1160Q364 1160 353 1202Q332 1281 349 1281Q468 1281 542 1336Q607 1386 607 1452T571 1550T476 1582T395 1572T358 1546Q334 1517 334 1469Q307 1457 278 1457T230 1464T198 1484Q166 1514 166 1549T187 1611T248 1658Q336 1701
479 1701Q703 1701 780 1574Q806 1531 806 1472Z" />
<glyph unicode="&#xbf;" glyph-name="questiondown" horiz-adv-x="1268" d="M638 1087L639 1123Q633 1140 601 1152T560 1164T544 1165T527 1163Q507 1158 495 1141Q469 1098 449 1053T428 954T449 860T504 790T582 733L671 682Q788 616 830 569Q914 475 914 355Q914
229 827 142Q738 53 602 53Q349 53 308 251Q291 330 291 355V388Q291 418 294 430Q242 456 203 456T140 442T98 405Q63 358 63 295T87 180T152 86T249 10T367 -45Q495 -92 614 -92T829 -71T996 1Q1147 109 1147 348Q1147 557 962 697Q911 735 862 765L772 819Q701
861 681 895T652 957Q638 1006 638 1087ZM416 1482Q416 1411 463 1363Q509 1315 580 1315Q694 1315 737 1415Q750 1446 750 1482Q750 1552 702 1601Q654 1648 580 1648Q509 1648 463 1601Q416 1552 416 1482Z" />
<glyph unicode="&#xc0;" glyph-name="Agrave" horiz-adv-x="1658" d="M1060 118Q1102 111 1123 111T1164 115T1201 130Q1237 152 1237 199Q1237 238 1213 286L1119 519H486L374 235Q358 196 358 179T363 153T380 138T409 128L450 117Q516 106 535 97Q574 78 574
41Q574 14 559 -5Q540 0 524 0H117Q-16 0 -16 73Q-16 107 -1 128Q36 118 61 118T104 126T138 153Q165 186 201 285L695 1481Q716 1529 814 1547Q841 1552 871 1552Q932 1552 946 1519L1046 1269Q1335 587 1380 473L1470 237Q1497 160 1515 142T1554 117T1597 106T1637
94Q1675 77 1675 42Q1675 15 1660 -4Q1641 1 1626 1H1149Q1098 1 1070 13T1041 52Q1041 97 1060 118ZM1061 661L799 1309L542 661H1061ZM558 1765Q529 1775 529 1804T539 1861T568 1912Q610 1966 657 1966Q680 1966 702 1950L1049 1737Q1055 1730 1055 1721T1051
1700T1039 1678Q1022 1653 1002 1653L558 1765Z" />
<glyph unicode="&#xc1;" glyph-name="Aacute" horiz-adv-x="1658" d="M1060 118Q1102 111 1123 111T1164 115T1201 130Q1237 152 1237 199Q1237 238 1213 286L1119 519H486L374 235Q358 196 358 179T363 153T380 138T409 128L450 117Q516 106 535 97Q574 78 574
41Q574 14 559 -5Q540 0 524 0H117Q-16 0 -16 73Q-16 107 -1 128Q36 118 61 118T104 126T138 153Q165 186 201 285L695 1481Q716 1529 814 1547Q841 1552 871 1552Q932 1552 946 1519L1046 1269Q1335 587 1380 473L1470 237Q1497 160 1515 142T1554 117T1597 106T1637
94Q1675 77 1675 42Q1675 15 1660 -4Q1641 1 1626 1H1149Q1098 1 1070 13T1041 52Q1041 97 1060 118ZM1061 661L799 1309L542 661H1061ZM723 1653Q693 1653 673 1700Q669 1711 669 1716Q669 1730 676 1737L1023 1950Q1045 1966 1069 1966T1116 1951T1157 1912Q1196
1861 1196 1812Q1196 1775 1167 1765L723 1653Z" />
<glyph unicode="&#xc2;" glyph-name="Acircumflex" horiz-adv-x="1658" d="M1060 118Q1102 111 1123 111T1164 115T1201 130Q1237 152 1237 199Q1237 238 1213 286L1119 519H486L374 235Q358 196 358 179T363 153T380 138T409 128L450 117Q516 106 535 97Q574
78 574 41Q574 14 559 -5Q540 0 524 0H117Q-16 0 -16 73Q-16 107 -1 128Q36 118 61 118T104 126T138 153Q165 186 201 285L695 1481Q716 1529 814 1547Q841 1552 871 1552Q932 1552 946 1519L1046 1269Q1335 587 1380 473L1470 237Q1497 160 1515 142T1554 117T1597
106T1637 94Q1675 77 1675 42Q1675 15 1660 -4Q1641 1 1626 1H1149Q1098 1 1070 13T1041 52Q1041 97 1060 118ZM1061 661L799 1309L542 661H1061ZM561 1609T546 1609T521 1616T504 1634Q488 1658 488 1668Q488 1687 495 1694L745 1924Q788 1969 830 1969Q896 1969
941 1924L1191 1694Q1198 1687 1198 1677T1194 1656T1182 1634Q1163 1609 1144 1609T1101 1622L842 1766Q605 1635 583 1622Z" />
<glyph unicode="&#xc3;" glyph-name="Atilde" horiz-adv-x="1658" d="M1060 118Q1102 111 1123 111T1164 115T1201 130Q1237 152 1237 199Q1237 238 1213 286L1119 519H486L374 235Q358 196 358 179T363 153T380 138T409 128L450 117Q516 106 535 97Q574 78 574
41Q574 14 559 -5Q540 0 524 0H117Q-16 0 -16 73Q-16 107 -1 128Q36 118 61 118T104 126T138 153Q165 186 201 285L695 1481Q716 1529 814 1547Q841 1552 871 1552Q932 1552 946 1519L1046 1269Q1335 587 1380 473L1470 237Q1497 160 1515 142T1554 117T1597 106T1637
94Q1675 77 1675 42Q1675 15 1660 -4Q1641 1 1626 1H1149Q1098 1 1070 13T1041 52Q1041 97 1060 118ZM1061 661L799 1309L542 661H1061ZM677 1777Q560 1777 492 1682Q450 1694 428 1736Q420 1751 420 1769T440 1821T499 1888Q592 1969 708 1969Q751 1969 791 1948T869
1901T944 1854T1019 1832Q1107 1832 1196 1923Q1238 1923 1266 1869Q1273 1854 1273 1834T1252 1781T1194 1718Q1107 1646 1002 1646Q948 1646 871 1691T754 1756T677 1777Z" />
<glyph unicode="&#xc4;" glyph-name="Adieresis" horiz-adv-x="1658" d="M1060 118Q1102 111 1123 111T1164 115T1201 130Q1237 152 1237 199Q1237 238 1213 286L1119 519H486L374 235Q358 196 358 179T363 153T380 138T409 128L450 117Q516 106 535 97Q574 78
574 41Q574 14 559 -5Q540 0 524 0H117Q-16 0 -16 73Q-16 107 -1 128Q36 118 61 118T104 126T138 153Q165 186 201 285L695 1481Q716 1529 814 1547Q841 1552 871 1552Q932 1552 946 1519L1046 1269Q1335 587 1380 473L1470 237Q1497 160 1515 142T1554 117T1597
106T1637 94Q1675 77 1675 42Q1675 15 1660 -4Q1641 1 1626 1H1149Q1098 1 1070 13T1041 52Q1041 97 1060 118ZM1061 661L799 1309L542 661H1061ZM1103 1642Q1069 1642 1041 1652T991 1683Q947 1725 947 1796Q947 1864 999 1912Q1048 1958 1118 1958T1230 1916T1273
1802Q1273 1734 1223 1688Q1173 1642 1103 1642ZM586 1642Q552 1642 524 1652T474 1683Q430 1725 430 1796Q430 1864 481 1912Q531 1958 601 1958T713 1916T755 1802Q755 1734 705 1688Q656 1642 586 1642Z" />
<glyph unicode="&#xc5;" glyph-name="Aring" horiz-adv-x="1658" d="M1060 118Q1102 111 1123 111T1164 115T1201 130Q1237 152 1237 199Q1237 238 1213 286L1119 519H486L374 235Q358 196 358 179T363 153T380 138T409 128L450 117Q516 106 535 97Q574 78 574
41Q574 14 559 -5Q540 0 524 0H117Q-16 0 -16 73Q-16 107 -1 128Q36 118 61 118T104 126T138 153Q165 186 201 285L695 1481Q716 1529 814 1547Q841 1552 871 1552Q932 1552 946 1519L1046 1269Q1335 587 1380 473L1470 237Q1497 160 1515 142T1554 117T1597 106T1637
94Q1675 77 1675 42Q1675 15 1660 -4Q1641 1 1626 1H1149Q1098 1 1070 13T1041 52Q1041 97 1060 118ZM1061 661L799 1309L542 661H1061ZM994 1522T940 1503T819 1484T697 1501T603 1550Q524 1615 524 1724Q524 1824 610 1892Q696 1959 825 1959Q1045 1959 1106
1822Q1125 1779 1125 1728T1101 1632T1036 1555ZM697 1725Q697 1597 829 1597Q883 1597 919 1627T955 1724T920 1824T842 1856T776 1849T735 1826Q697 1792 697 1725Z" />
<glyph unicode="&#xc6;" glyph-name="AE" horiz-adv-x="2280" d="M927 129Q963 119 1000 119T1062 124T1108 145Q1153 181 1153 270V589H649L442 254Q417 214 417 187T424 152T446 137Q463 129 503 120T565 106T601 92Q633 73 633 48Q633 14 618 -5Q600 0 589
0H154Q88 0 61 22T34 75T49 129L74 122Q87 119 103 119T141 130T185 165Q221 202 282 303L979 1424Q932 1442 932 1479Q932 1520 948 1538Q966 1533 984 1533H2007Q2099 1533 2122 1516Q2164 1486 2164 1384Q2164 1284 2148 1225T2124 1152Q2111 1130 2093 1130T2063
1133T2040 1141Q2014 1153 2014 1164Q2001 1310 1969 1347T1894 1396T1780 1409H1554Q1448 1409 1425 1388T1395 1340T1389 1269V732L1447 731Q1713 731 1883 770Q1919 755 1919 662Q1919 610 1900 572Q1852 567 1769 567T1586 577L1389 598V254Q1389 179 1429
153Q1463 131 1551 131L1706 135Q1926 143 1991 194Q2028 224 2040 272T2052 370T2050 442Q2073 459 2103 459Q2146 459 2156 452Q2195 376 2195 197Q2195 72 2166 16Q2158 0 2149 0H1034Q982 0 947 18T912 62Q912 110 927 129ZM1153 731V1283Q1153 1338 1128 1365L736
731H1153Z" />
<glyph unicode="&#xc7;" glyph-name="Ccedilla" horiz-adv-x="1457" d="M827 -111Q1057 -116 1057 -268Q1057 -425 798 -482Q705 -503 632 -501Q613 -489 613 -450Q613 -408 641 -404T705 -393T770 -374Q843 -345 843 -296Q843 -229 705 -224Q694 -224 688 -203T681
-178L718 -15Q438 17 278 208Q118 397 118 693Q118 891 181 1050T353 1320T607 1492T890 1552T1111 1529T1249 1466Q1359 1384 1359 1248Q1359 1144 1282 1101Q1256 1086 1226 1086Q1164 1086 1138 1100Q1142 1128 1142 1182T1121 1280T1064 1350Q1001 1393 875
1393T652 1348T490 1220Q359 1055 359 771Q359 502 492 342Q630 175 865 175Q1096 175 1225 276Q1264 306 1296 341Q1326 332 1345 288Q1351 273 1351 254T1336 207T1290 148T1217 89T1116 36Q987 -18 841 -20L827 -111Z" />
<glyph unicode="&#xc8;" glyph-name="Egrave" horiz-adv-x="1443" d="M1209 445Q1236 468 1266 468Q1312 468 1319 455Q1358 377 1358 197Q1358 72 1330 16Q1321 0 1311 0H207Q88 0 88 71Q88 109 104 129Q138 119 170 119T225 124T268 145Q316 182 316 270V1283Q316
1370 246 1394Q226 1401 205 1406T164 1417T129 1430Q95 1448 95 1479Q95 1520 111 1538Q129 1533 147 1533H1170Q1262 1533 1285 1516Q1327 1486 1327 1384Q1327 1286 1311 1224T1287 1150Q1277 1132 1248 1132Q1206 1132 1191 1142T1174 1158Q1161 1301 1129
1340T1054 1394T940 1409H717Q611 1409 588 1388T558 1340T552 1269V843L611 842Q832 842 1021 881Q1035 874 1046 842T1057 777Q1057 723 1039 683Q973 677 887 677T552 705V254Q552 179 592 153Q626 131 714 131L865 135Q1084 143 1150 196Q1187 226 1199 275T1211
373T1209 445ZM493 1765Q464 1775 464 1804T474 1861T503 1912Q545 1966 592 1966Q615 1966 637 1950L984 1737Q990 1730 990 1721T986 1700T974 1678Q957 1653 937 1653L493 1765Z" />
<glyph unicode="&#xc9;" glyph-name="Eacute" horiz-adv-x="1443" d="M1209 445Q1236 468 1266 468Q1312 468 1319 455Q1358 377 1358 197Q1358 72 1330 16Q1321 0 1311 0H207Q88 0 88 71Q88 109 104 129Q138 119 170 119T225 124T268 145Q316 182 316 270V1283Q316
1370 246 1394Q226 1401 205 1406T164 1417T129 1430Q95 1448 95 1479Q95 1520 111 1538Q129 1533 147 1533H1170Q1262 1533 1285 1516Q1327 1486 1327 1384Q1327 1286 1311 1224T1287 1150Q1277 1132 1248 1132Q1206 1132 1191 1142T1174 1158Q1161 1301 1129
1340T1054 1394T940 1409H717Q611 1409 588 1388T558 1340T552 1269V843L611 842Q832 842 1021 881Q1035 874 1046 842T1057 777Q1057 723 1039 683Q973 677 887 677T552 705V254Q552 179 592 153Q626 131 714 131L865 135Q1084 143 1150 196Q1187 226 1199 275T1211
373T1209 445ZM658 1653Q628 1653 608 1700Q604 1711 604 1716Q604 1730 611 1737L958 1950Q980 1966 1004 1966T1051 1951T1092 1912Q1131 1861 1131 1812Q1131 1775 1102 1765L658 1653Z" />
<glyph unicode="&#xca;" glyph-name="Ecircumflex" horiz-adv-x="1443" d="M1209 445Q1236 468 1266 468Q1312 468 1319 455Q1358 377 1358 197Q1358 72 1330 16Q1321 0 1311 0H207Q88 0 88 71Q88 109 104 129Q138 119 170 119T225 124T268 145Q316 182 316 270V1283Q316
1370 246 1394Q226 1401 205 1406T164 1417T129 1430Q95 1448 95 1479Q95 1520 111 1538Q129 1533 147 1533H1170Q1262 1533 1285 1516Q1327 1486 1327 1384Q1327 1286 1311 1224T1287 1150Q1277 1132 1248 1132Q1206 1132 1191 1142T1174 1158Q1161 1301 1129
1340T1054 1394T940 1409H717Q611 1409 588 1388T558 1340T552 1269V843L611 842Q832 842 1021 881Q1035 874 1046 842T1057 777Q1057 723 1039 683Q973 677 887 677T552 705V254Q552 179 592 153Q626 131 714 131L865 135Q1084 143 1150 196Q1187 226 1199 275T1211
373T1209 445ZM496 1609T481 1609T456 1616T439 1634Q423 1658 423 1668Q423 1687 430 1694L680 1924Q723 1969 765 1969Q831 1969 876 1924L1126 1694Q1133 1687 1133 1677T1129 1656T1117 1634Q1098 1609 1079 1609T1036 1622L777 1766Q540 1635 518 1622Z" />
<glyph unicode="&#xcb;" glyph-name="Edieresis" horiz-adv-x="1443" d="M1209 445Q1236 468 1266 468Q1312 468 1319 455Q1358 377 1358 197Q1358 72 1330 16Q1321 0 1311 0H207Q88 0 88 71Q88 109 104 129Q138 119 170 119T225 124T268 145Q316 182 316 270V1283Q316
1370 246 1394Q226 1401 205 1406T164 1417T129 1430Q95 1448 95 1479Q95 1520 111 1538Q129 1533 147 1533H1170Q1262 1533 1285 1516Q1327 1486 1327 1384Q1327 1286 1311 1224T1287 1150Q1277 1132 1248 1132Q1206 1132 1191 1142T1174 1158Q1161 1301 1129
1340T1054 1394T940 1409H717Q611 1409 588 1388T558 1340T552 1269V843L611 842Q832 842 1021 881Q1035 874 1046 842T1057 777Q1057 723 1039 683Q973 677 887 677T552 705V254Q552 179 592 153Q626 131 714 131L865 135Q1084 143 1150 196Q1187 226 1199 275T1211
373T1209 445ZM1038 1642Q1004 1642 976 1652T926 1683Q882 1725 882 1796Q882 1864 934 1912Q983 1958 1053 1958T1165 1916T1208 1802Q1208 1734 1158 1688Q1108 1642 1038 1642ZM521 1642Q487 1642 459 1652T409 1683Q365 1725 365 1796Q365 1864 416 1912Q466
1958 536 1958T648 1916T690 1802Q690 1734 640 1688Q591 1642 521 1642Z" />
<glyph unicode="&#xcc;" glyph-name="Igrave" horiz-adv-x="858" d="M733 -8Q710 0 634 0H217Q165 0 134 16T103 77Q103 109 118 128Q158 118 191 118T244 125T278 150Q309 188 311 275V1297Q311 1376 267 1396Q253 1403 229 1408T182 1418T142 1432Q110 1448
110 1486Q110 1523 125 1541Q148 1533 224 1533H631Q683 1533 714 1517T746 1456Q746 1423 730 1405Q692 1415 647 1415Q550 1415 547 1257V236Q547 157 591 136Q605 130 629 125T676 115T716 101Q749 84 749 47Q749 12 733 -8ZM130 1765Q101 1775 101 1804T111
1861T140 1912Q182 1966 229 1966Q252 1966 274 1950L621 1737Q627 1730 627 1721T623 1700T611 1678Q594 1653 574 1653L130 1765Z" />
<glyph unicode="&#xcd;" glyph-name="Iacute" horiz-adv-x="858" d="M733 -8Q710 0 634 0H217Q165 0 134 16T103 77Q103 109 118 128Q158 118 191 118T244 125T278 150Q309 188 311 275V1297Q311 1376 267 1396Q253 1403 229 1408T182 1418T142 1432Q110 1448
110 1486Q110 1523 125 1541Q148 1533 224 1533H631Q683 1533 714 1517T746 1456Q746 1423 730 1405Q692 1415 647 1415Q550 1415 547 1257V236Q547 157 591 136Q605 130 629 125T676 115T716 101Q749 84 749 47Q749 12 733 -8ZM295 1653Q265 1653 245 1700Q241
1711 241 1716Q241 1730 248 1737L595 1950Q617 1966 641 1966T688 1951T729 1912Q768 1861 768 1812Q768 1775 739 1765L295 1653Z" />
<glyph unicode="&#xce;" glyph-name="Icircumflex" horiz-adv-x="858" d="M733 -8Q710 0 634 0H217Q165 0 134 16T103 77Q103 109 118 128Q158 118 191 118T244 125T278 150Q309 188 311 275V1297Q311 1376 267 1396Q253 1403 229 1408T182 1418T142 1432Q110
1448 110 1486Q110 1523 125 1541Q148 1533 224 1533H631Q683 1533 714 1517T746 1456Q746 1423 730 1405Q692 1415 647 1415Q550 1415 547 1257V236Q547 157 591 136Q605 130 629 125T676 115T716 101Q749 84 749 47Q749 12 733 -8ZM390 1609T375 1609T350 1616T333
1634Q317 1658 317 1668Q317 1687 324 1694L574 1924Q617 1969 659 1969Q725 1969 770 1924L1020 1694Q1027 1687 1027 1677T1023 1656T1011 1634Q992 1609 973 1609T930 1622L671 1766Q434 1635 412 1622Z" />
<glyph unicode="&#xcf;" glyph-name="Idieresis" horiz-adv-x="858" d="M733 -8Q710 0 634 0H217Q165 0 134 16T103 77Q103 109 118 128Q158 118 191 118T244 125T278 150Q309 188 311 275V1297Q311 1376 267 1396Q253 1403 229 1408T182 1418T142 1432Q110 1448
110 1486Q110 1523 125 1541Q148 1533 224 1533H631Q683 1533 714 1517T746 1456Q746 1423 730 1405Q692 1415 647 1415Q550 1415 547 1257V236Q547 157 591 136Q605 130 629 125T676 115T716 101Q749 84 749 47Q749 12 733 -8ZM932 1642Q898 1642 870 1652T820
1683Q776 1725 776 1796Q776 1864 828 1912Q877 1958 947 1958T1059 1916T1102 1802Q1102 1734 1052 1688Q1002 1642 932 1642ZM415 1642Q381 1642 353 1652T303 1683Q259 1725 259 1796Q259 1864 310 1912Q360 1958 430 1958T542 1916T584 1802Q584 1734 534 1688Q485
1642 415 1642Z" />
<glyph unicode="&#xd0;" glyph-name="Eth" horiz-adv-x="1725" d="M739 -10L454 1H196Q144 1 109 18T74 62Q74 110 89 129Q125 119 162 119T224 124T270 145Q316 181 316 270V694H133Q122 720 122 748T125 794T136 826Q153 857 178 857H316V1289Q316 1382 200
1405Q128 1420 107 1437T85 1476Q85 1522 101 1538Q119 1533 134 1533H437Q460 1533 498 1535L583 1540Q708 1546 839 1546T1095 1515T1309 1429T1460 1304T1558 1152Q1624 1005 1624 822Q1624 490 1452 270Q1317 97 1055 26Q919 -10 739 -10ZM859 857Q872 835
872 794Q872 728 839 702Q828 694 813 694H552V241Q552 166 599 144Q639 126 790 126T1060 176T1248 311Q1374 464 1374 742Q1374 1219 1037 1365Q915 1418 736 1418Q617 1418 591 1395T559 1337T552 1244V857H859Z" />
<glyph unicode="&#xd1;" glyph-name="Ntilde" horiz-adv-x="1795" d="M215 0Q81 0 81 77Q81 112 97 126Q126 118 157 118T212 126T254 149Q290 180 290 236V1325Q288 1365 273 1385T228 1413T179 1426T143 1436Q108 1451 108 1473Q108 1519 123 1538Q144 1533
187 1533H382Q470 1533 540 1444L1381 378V1311Q1380 1351 1365 1378T1313 1414T1248 1427T1198 1440Q1151 1456 1151 1492Q1151 1522 1167 1538Q1188 1533 1231 1533H1634Q1768 1533 1768 1476Q1768 1428 1753 1411Q1728 1418 1696 1418T1639 1417T1596 1404Q1554
1381 1552 1310V28Q1552 -1 1536 -7T1478 -14Q1407 -14 1326 91L461 1179V222Q466 136 542 116Q571 110 599 106T650 96Q701 83 701 50Q701 14 686 -5Q665 0 622 0H215ZM748 1777Q631 1777 563 1682Q521 1694 499 1736Q491 1751 491 1769T511 1821T570 1888Q663
1969 779 1969Q822 1969 862 1948T940 1901T1015 1854T1090 1832Q1178 1832 1267 1923Q1309 1923 1337 1869Q1344 1854 1344 1834T1323 1781T1265 1718Q1178 1646 1073 1646Q1019 1646 942 1691T825 1756T748 1777Z" />
<glyph unicode="&#xd2;" glyph-name="Ograve" horiz-adv-x="1697" d="M216 273T163 407T109 692T139 958T222 1166T348 1332T507 1453Q681 1552 884 1552Q1192 1552 1386 1356Q1589 1152 1589 819Q1589 568 1476 368Q1373 186 1192 82Q1018 -19 842 -19T536 32T311
178ZM420 1141T392 1023T364 770T390 522T473 324Q597 139 841 139Q1087 139 1214 300Q1336 457 1336 747Q1336 1192 1072 1344Q978 1397 849 1397T629 1352T479 1224ZM572 1765Q543 1775 543 1804T553 1861T582 1912Q624 1966 671 1966Q694 1966 716 1950L1063
1737Q1069 1730 1069 1721T1065 1700T1053 1678Q1036 1653 1016 1653L572 1765Z" />
<glyph unicode="&#xd3;" glyph-name="Oacute" horiz-adv-x="1697" d="M216 273T163 407T109 692T139 958T222 1166T348 1332T507 1453Q681 1552 884 1552Q1192 1552 1386 1356Q1589 1152 1589 819Q1589 568 1476 368Q1373 186 1192 82Q1018 -19 842 -19T536 32T311
178ZM420 1141T392 1023T364 770T390 522T473 324Q597 139 841 139Q1087 139 1214 300Q1336 457 1336 747Q1336 1192 1072 1344Q978 1397 849 1397T629 1352T479 1224ZM736 1653Q706 1653 686 1700Q682 1711 682 1716Q682 1730 689 1737L1036 1950Q1058 1966 1082
1966T1129 1951T1170 1912Q1209 1861 1209 1812Q1209 1775 1180 1765L736 1653Z" />
<glyph unicode="&#xd4;" glyph-name="Ocircumflex" horiz-adv-x="1697" d="M216 273T163 407T109 692T139 958T222 1166T348 1332T507 1453Q681 1552 884 1552Q1192 1552 1386 1356Q1589 1152 1589 819Q1589 568 1476 368Q1373 186 1192 82Q1018 -19 842 -19T536
32T311 178ZM420 1141T392 1023T364 770T390 522T473 324Q597 139 841 139Q1087 139 1214 300Q1336 457 1336 747Q1336 1192 1072 1344Q978 1397 849 1397T629 1352T479 1224ZM575 1609T560 1609T535 1616T518 1634Q502 1658 502 1668Q502 1687 509 1694L759 1924Q802
1969 844 1969Q910 1969 955 1924L1205 1694Q1212 1687 1212 1677T1208 1656T1196 1634Q1177 1609 1158 1609T1115 1622L856 1766Q619 1635 597 1622Z" />
<glyph unicode="&#xd5;" glyph-name="Otilde" horiz-adv-x="1697" d="M216 273T163 407T109 692T139 958T222 1166T348 1332T507 1453Q681 1552 884 1552Q1192 1552 1386 1356Q1589 1152 1589 819Q1589 568 1476 368Q1373 186 1192 82Q1018 -19 842 -19T536 32T311
178ZM420 1141T392 1023T364 770T390 522T473 324Q597 139 841 139Q1087 139 1214 300Q1336 457 1336 747Q1336 1192 1072 1344Q978 1397 849 1397T629 1352T479 1224ZM691 1777Q574 1777 506 1682Q464 1694 442 1736Q434 1751 434 1769T454 1821T513 1888Q606
1969 722 1969Q765 1969 805 1948T883 1901T958 1854T1033 1832Q1121 1832 1210 1923Q1252 1923 1280 1869Q1287 1854 1287 1834T1266 1781T1208 1718Q1121 1646 1016 1646Q962 1646 885 1691T768 1756T691 1777Z" />
<glyph unicode="&#xd6;" glyph-name="Odieresis" horiz-adv-x="1697" d="M216 273T163 407T109 692T139 958T222 1166T348 1332T507 1453Q681 1552 884 1552Q1192 1552 1386 1356Q1589 1152 1589 819Q1589 568 1476 368Q1373 186 1192 82Q1018 -19 842 -19T536
32T311 178ZM420 1141T392 1023T364 770T390 522T473 324Q597 139 841 139Q1087 139 1214 300Q1336 457 1336 747Q1336 1192 1072 1344Q978 1397 849 1397T629 1352T479 1224ZM1117 1642Q1083 1642 1055 1652T1005 1683Q961 1725 961 1796Q961 1864 1013 1912Q1062
1958 1132 1958T1244 1916T1287 1802Q1287 1734 1237 1688Q1187 1642 1117 1642ZM600 1642Q566 1642 538 1652T488 1683Q444 1725 444 1796Q444 1864 495 1912Q545 1958 615 1958T727 1916T769 1802Q769 1734 719 1688Q670 1642 600 1642Z" />
<glyph unicode="&#xd7;" glyph-name="multiply" horiz-adv-x="1101" d="M267 336Q217 355 178 412Q139 470 165 496L420 752L170 1004Q159 1017 159 1033T170 1071T198 1112Q235 1155 271 1165L550 884L830 1165Q866 1154 893 1123Q942 1067 942 1042T931 1004L681
752L936 496Q961 469 922 412Q884 355 834 336L550 621L267 336Z" />
<glyph unicode="&#xd8;" glyph-name="Oslash" horiz-adv-x="1697" d="M1217 1477L1299 1613Q1317 1639 1348 1639Q1408 1639 1441 1594L1328 1407Q1449 1313 1519 1164T1589 852T1559 575T1476 369T1350 203T1192 82Q1018 -19 833 -19T505 45L425 -88Q404 -115
372 -115Q307 -115 281 -70L390 111Q186 258 128 520Q109 609 109 726T139 958T222 1166T348 1332T507 1453Q681 1552 873 1552T1217 1477ZM1118 1314Q1003 1397 862 1397T629 1352T479 1224Q364 1062 364 760Q364 454 498 290L1118 1314ZM600 201Q701 139 833
139T1059 180T1214 300Q1336 457 1336 747Q1336 1044 1213 1216L600 201Z" />
<glyph unicode="&#xd9;" glyph-name="Ugrave" horiz-adv-x="1633" d="M1516 1416Q1440 1416 1437 1258V658Q1437 328 1274 154Q1114 -19 817 -19Q565 -19 404 108Q200 267 200 636V1324Q199 1367 191 1384T152 1407T99 1418T59 1432Q27 1448 27 1486Q27 1521 43
1541Q66 1533 142 1533H530Q644 1533 644 1456Q644 1422 629 1405Q592 1415 560 1415T508 1408T472 1381Q436 1338 436 1248V706Q436 397 560 262Q656 159 826 159Q1256 159 1256 695V1297Q1256 1376 1212 1396Q1198 1403 1174 1408T1126 1418T1086 1432Q1054 1448
1054 1486Q1054 1523 1070 1541Q1093 1533 1169 1533H1501Q1552 1533 1583 1517T1615 1457Q1615 1423 1600 1406Q1560 1416 1516 1416ZM559 1765Q530 1775 530 1804T540 1861T569 1912Q611 1966 658 1966Q681 1966 703 1950L1050 1737Q1056 1730 1056 1721T1052
1700T1040 1678Q1023 1653 1003 1653L559 1765Z" />
<glyph unicode="&#xda;" glyph-name="Uacute" horiz-adv-x="1633" d="M1516 1416Q1440 1416 1437 1258V658Q1437 328 1274 154Q1114 -19 817 -19Q565 -19 404 108Q200 267 200 636V1324Q199 1367 191 1384T152 1407T99 1418T59 1432Q27 1448 27 1486Q27 1521 43
1541Q66 1533 142 1533H530Q644 1533 644 1456Q644 1422 629 1405Q592 1415 560 1415T508 1408T472 1381Q436 1338 436 1248V706Q436 397 560 262Q656 159 826 159Q1256 159 1256 695V1297Q1256 1376 1212 1396Q1198 1403 1174 1408T1126 1418T1086 1432Q1054 1448
1054 1486Q1054 1523 1070 1541Q1093 1533 1169 1533H1501Q1552 1533 1583 1517T1615 1457Q1615 1423 1600 1406Q1560 1416 1516 1416ZM724 1653Q694 1653 674 1700Q670 1711 670 1716Q670 1730 677 1737L1024 1950Q1046 1966 1070 1966T1117 1951T1158 1912Q1197
1861 1197 1812Q1197 1775 1168 1765L724 1653Z" />
<glyph unicode="&#xdb;" glyph-name="Ucircumflex" horiz-adv-x="1633" d="M1516 1416Q1440 1416 1437 1258V658Q1437 328 1274 154Q1114 -19 817 -19Q565 -19 404 108Q200 267 200 636V1324Q199 1367 191 1384T152 1407T99 1418T59 1432Q27 1448 27 1486Q27 1521
43 1541Q66 1533 142 1533H530Q644 1533 644 1456Q644 1422 629 1405Q592 1415 560 1415T508 1408T472 1381Q436 1338 436 1248V706Q436 397 560 262Q656 159 826 159Q1256 159 1256 695V1297Q1256 1376 1212 1396Q1198 1403 1174 1408T1126 1418T1086 1432Q1054
1448 1054 1486Q1054 1523 1070 1541Q1093 1533 1169 1533H1501Q1552 1533 1583 1517T1615 1457Q1615 1423 1600 1406Q1560 1416 1516 1416ZM562 1609T547 1609T522 1616T505 1634Q489 1658 489 1668Q489 1687 496 1694L746 1924Q789 1969 831 1969Q897 1969 942
1924L1192 1694Q1199 1687 1199 1677T1195 1656T1183 1634Q1164 1609 1145 1609T1102 1622L843 1766Q606 1635 584 1622Z" />
<glyph unicode="&#xdc;" glyph-name="Udieresis" horiz-adv-x="1633" d="M1516 1416Q1440 1416 1437 1258V658Q1437 328 1274 154Q1114 -19 817 -19Q565 -19 404 108Q200 267 200 636V1324Q199 1367 191 1384T152 1407T99 1418T59 1432Q27 1448 27 1486Q27 1521
43 1541Q66 1533 142 1533H530Q644 1533 644 1456Q644 1422 629 1405Q592 1415 560 1415T508 1408T472 1381Q436 1338 436 1248V706Q436 397 560 262Q656 159 826 159Q1256 159 1256 695V1297Q1256 1376 1212 1396Q1198 1403 1174 1408T1126 1418T1086 1432Q1054
1448 1054 1486Q1054 1523 1070 1541Q1093 1533 1169 1533H1501Q1552 1533 1583 1517T1615 1457Q1615 1423 1600 1406Q1560 1416 1516 1416ZM1104 1642Q1070 1642 1042 1652T992 1683Q948 1725 948 1796Q948 1864 1000 1912Q1049 1958 1119 1958T1231 1916T1274
1802Q1274 1734 1224 1688Q1174 1642 1104 1642ZM587 1642Q553 1642 525 1652T475 1683Q431 1725 431 1796Q431 1864 482 1912Q532 1958 602 1958T714 1916T756 1802Q756 1734 706 1688Q657 1642 587 1642Z" />
<glyph unicode="&#xdd;" glyph-name="Yacute" horiz-adv-x="1488" d="M514 0Q400 0 400 75Q400 109 415 128Q453 118 490 118T552 123T596 144Q635 180 637 274V526L155 1326Q115 1391 88 1404T46 1423T18 1436Q-10 1452 -10 1480Q-10 1521 6 1541Q29 1533 105
1533H466Q564 1533 590 1501Q603 1486 603 1456T584 1404Q550 1414 508 1414Q425 1414 425 1350Q425 1304 466 1238L787 684Q910 889 966 991L1060 1167Q1125 1293 1130 1314T1135 1349T1128 1372T1108 1388T1081 1398T1045 1407T1000 1417T958 1430Q918 1447 918
1486T933 1541Q956 1533 1032 1533H1378Q1469 1533 1494 1500Q1505 1485 1505 1464Q1505 1424 1487 1404Q1453 1414 1429 1414T1386 1399T1350 1358T1314 1298Q1258 1188 1226 1131Q908 591 898 572L873 530V236Q873 150 968 134Q1082 116 1103 103Q1139 83 1139
46Q1139 12 1123 -8Q1100 0 1024 0H514ZM639 1653Q609 1653 589 1700Q585 1711 585 1716Q585 1730 592 1737L939 1950Q961 1966 985 1966T1032 1951T1073 1912Q1112 1861 1112 1812Q1112 1775 1083 1765L639 1653Z" />
<glyph unicode="&#xde;" glyph-name="Thorn" horiz-adv-x="1429" d="M731 -8Q708 0 632 0H225Q173 0 142 16T111 77Q111 109 126 128Q164 118 199 118T254 125T288 152Q319 192 319 285V1297Q319 1352 298 1371Q269 1399 231 1407L169 1420Q120 1430 108 1447T95
1483Q95 1518 111 1538Q126 1532 164 1532L210 1533H630Q744 1533 744 1456Q744 1423 728 1405Q690 1415 656 1415T606 1408T578 1384Q557 1351 555 1266V1233L782 1234Q1233 1234 1346 978Q1380 899 1380 818T1364 681T1313 572T1221 475T1082 396Q909 325 646
325H555V236Q555 177 566 160Q582 134 617 127T675 115T715 101Q747 85 747 47Q747 12 731 -8ZM654 454Q1019 454 1108 636Q1135 692 1135 745T1128 837T1102 915T1054 989T980 1052Q881 1110 735 1110H555V454H654Z" />
<glyph unicode="&#xdf;" glyph-name="germandbls" horiz-adv-x="1328" d="M464 45Q396 -19 308 -19T188 26T155 172V1088Q155 1434 342 1611Q500 1761 733 1761Q1043 1761 1146 1559Q1180 1492 1180 1410T1153 1270T1086 1168T999 1090L912 1026Q872 995 845 966T818
905T826 849T856 802Q895 758 987 703T1135 606T1224 524Q1289 447 1289 351T1249 188T1144 74Q1013 -19 835 -19Q667 -19 598 44Q567 71 567 105T575 160T596 202Q621 242 649 258Q769 132 881 132Q961 132 1016 174Q1072 218 1072 283Q1072 342 1017 392Q973
433 875 493T728 597T652 681Q604 753 604 832T629 961T691 1053T772 1131T853 1206Q940 1298 940 1394Q940 1598 709 1598Q559 1598 474 1466T388 1109V432Q388 233 441 94Q454 60 464 45Z" />
<glyph unicode="&#xe0;" glyph-name="agrave" horiz-adv-x="1247" d="M815 127Q669 -19 462 -19Q302 -19 206 73Q109 166 109 314Q109 498 273 590Q421 674 690 674H815Q816 712 816 748V823Q816 957 777 1012Q733 1074 627 1074Q384 1074 377 900Q376 873 378
855Q358 839 311 839T242 850T204 880Q170 919 170 979T205 1085T302 1160Q421 1219 583 1219T826 1188T956 1104Q1041 1012 1041 857L1031 377Q1031 246 1043 211T1073 164T1116 152T1158 160L1186 173Q1200 178 1210 162T1221 133T1211 100T1172 58T1107 18Q908
-76 836 62Q821 89 815 127ZM812 258Q812 402 814 544Q606 536 532 518T424 482T372 442Q341 404 341 328T395 206T550 160Q693 160 812 258ZM191 1568Q171 1578 171 1600T187 1652T229 1708Q291 1769 346 1769Q376 1769 398 1747L717 1428Q724 1421 724 1411T718
1391T701 1370Q676 1347 647 1347L191 1568Z" />
<glyph unicode="&#xe1;" glyph-name="aacute" horiz-adv-x="1247" d="M815 127Q669 -19 462 -19Q302 -19 206 73Q109 166 109 314Q109 498 273 590Q421 674 690 674H815Q816 712 816 748V823Q816 957 777 1012Q733 1074 627 1074Q384 1074 377 900Q376 873 378
855Q358 839 311 839T242 850T204 880Q170 919 170 979T205 1085T302 1160Q421 1219 583 1219T826 1188T956 1104Q1041 1012 1041 857L1031 377Q1031 246 1043 211T1073 164T1116 152T1158 160L1186 173Q1200 178 1210 162T1221 133T1211 100T1172 58T1107 18Q908
-76 836 62Q821 89 815 127ZM812 258Q812 402 814 544Q606 536 532 518T424 482T372 442Q341 404 341 328T395 206T550 160Q693 160 812 258ZM567 1347Q539 1347 521 1364Q491 1391 491 1401Q491 1420 497 1428L817 1747Q839 1769 868 1769T929 1752T986 1708Q1043
1649 1043 1602Q1043 1578 1023 1568L567 1347Z" />
<glyph unicode="&#xe2;" glyph-name="acircumflex" horiz-adv-x="1247" d="M815 127Q669 -19 462 -19Q302 -19 206 73Q109 166 109 314Q109 498 273 590Q421 674 690 674H815Q816 712 816 748V823Q816 957 777 1012Q733 1074 627 1074Q384 1074 377 900Q376 873
378 855Q358 839 311 839T242 850T204 880Q170 919 170 979T205 1085T302 1160Q421 1219 583 1219T826 1188T956 1104Q1041 1012 1041 857L1031 377Q1031 246 1043 211T1073 164T1116 152T1158 160L1186 173Q1200 178 1210 162T1221 133T1211 100T1172 58T1107
18Q908 -76 836 62Q821 89 815 127ZM812 258Q812 402 814 544Q606 536 532 518T424 482T372 442Q341 404 341 328T395 206T550 160Q693 160 812 258ZM415 1389Q366 1351 338 1351T293 1368T275 1394Q275 1412 282 1419L513 1724Q538 1769 611 1769Q682 1769 717
1724L947 1419Q954 1411 954 1398T937 1368T895 1351T852 1363T814 1389L614 1549L415 1389Z" />
<glyph unicode="&#xe3;" glyph-name="atilde" horiz-adv-x="1247" d="M815 127Q669 -19 462 -19Q302 -19 206 73Q109 166 109 314Q109 498 273 590Q421 674 690 674H815Q816 712 816 748V823Q816 957 777 1012Q733 1074 627 1074Q384 1074 377 900Q376 873 378
855Q358 839 311 839T242 850T204 880Q170 919 170 979T205 1085T302 1160Q421 1219 583 1219T826 1188T956 1104Q1041 1012 1041 857L1031 377Q1031 246 1043 211T1073 164T1116 152T1158 160L1186 173Q1200 178 1210 162T1221 133T1211 100T1172 58T1107 18Q908
-76 836 62Q821 89 815 127ZM812 258Q812 402 814 544Q606 536 532 518T424 482T372 442Q341 404 341 328T395 206T550 160Q693 160 812 258ZM658 1528Q544 1528 463 1401Q402 1418 402 1475Q402 1538 492 1628Q594 1730 706 1730Q766 1730 810 1704T880 1659T933
1624Q995 1587 1061 1587Q1164 1587 1250 1716Q1288 1716 1306 1667Q1311 1653 1311 1636T1299 1593T1267 1539T1217 1484T1154 1434Q1080 1387 1026 1387T942 1397T885 1423T833 1457T780 1492Q718 1528 658 1528Z" />
<glyph unicode="&#xe4;" glyph-name="adieresis" horiz-adv-x="1247" d="M815 127Q669 -19 462 -19Q302 -19 206 73Q109 166 109 314Q109 498 273 590Q421 674 690 674H815Q816 712 816 748V823Q816 957 777 1012Q733 1074 627 1074Q384 1074 377 900Q376 873
378 855Q358 839 311 839T242 850T204 880Q170 919 170 979T205 1085T302 1160Q421 1219 583 1219T826 1188T956 1104Q1041 1012 1041 857L1031 377Q1031 246 1043 211T1073 164T1116 152T1158 160L1186 173Q1200 178 1210 162T1221 133T1211 100T1172 58T1107
18Q908 -76 836 62Q821 89 815 127ZM812 258Q812 402 814 544Q606 536 532 518T424 482T372 442Q341 404 341 328T395 206T550 160Q693 160 812 258ZM850 1401Q816 1401 788 1411T738 1442Q694 1484 694 1555Q694 1623 745 1670Q796 1717 866 1717T978 1675T1020
1561Q1020 1493 969 1446Q920 1401 850 1401ZM343 1401Q309 1401 281 1411T231 1442Q187 1484 187 1555Q187 1623 239 1670Q289 1717 359 1717T471 1675T513 1561Q513 1493 463 1446Q413 1401 343 1401Z" />
<glyph unicode="&#xe5;" glyph-name="aring" horiz-adv-x="1247" d="M815 127Q669 -19 462 -19Q302 -19 206 73Q109 166 109 314Q109 498 273 590Q421 674 690 674H815Q816 712 816 748V823Q816 957 777 1012Q733 1074 627 1074Q384 1074 377 900Q376 873 378
855Q358 839 311 839T242 850T204 880Q170 919 170 979T205 1085T302 1160Q421 1219 583 1219T826 1188T956 1104Q1041 1012 1041 857L1031 377Q1031 246 1043 211T1073 164T1116 152T1158 160L1186 173Q1200 178 1210 162T1221 133T1211 100T1172 58T1107 18Q908
-76 836 62Q821 89 815 127ZM812 258Q812 402 814 544Q606 536 532 518T424 482T372 442Q341 404 341 328T395 206T550 160Q693 160 812 258ZM716 1341T640 1409T564 1599Q564 1706 650 1780Q735 1854 865 1854Q1086 1854 1146 1705Q1165 1658 1165 1601Q1165 1488
1077 1414Q992 1341 854 1341ZM737 1600Q737 1452 869 1452Q995 1452 995 1601Q995 1676 960 1713T882 1750T816 1742T775 1715Q737 1676 737 1600Z" />
<glyph unicode="&#xe6;" glyph-name="ae" horiz-adv-x="1920" d="M915 179Q730 -19 462 -19Q302 -19 206 73Q109 166 109 314Q109 499 264 590Q405 674 670 674H816V828Q816 969 770 1023Q726 1074 616 1074Q471 1074 410 998Q368 945 378 855Q358 839 311 839T242
850T204 880Q170 919 170 980T205 1087T300 1162Q418 1219 610 1219Q907 1219 1000 1043Q1087 1131 1193 1175T1407 1219T1591 1175T1714 1056Q1803 914 1803 681Q1803 594 1730 592L1034 577L1033 550Q1044 349 1150 250Q1239 168 1377 168Q1590 168 1723 257Q1732
257 1745 242Q1770 212 1770 190Q1770 141 1650 67Q1513 -19 1328 -19Q1051 -19 915 179ZM1038 706Q1326 720 1565 743Q1576 1061 1345 1061Q1216 1061 1134 961Q1059 869 1038 706ZM818 236L817 512Q816 520 816 528V543Q524 534 424 484Q374 458 358 422T341
321T395 208T568 160T818 236Z" />
<glyph unicode="&#xe7;" glyph-name="ccedilla" horiz-adv-x="1134" d="M655 -110Q885 -115 885 -267Q885 -424 626 -482Q533 -502 460 -500Q441 -488 441 -449Q441 -407 469 -403T533 -392T598 -373Q671 -344 671 -295Q671 -228 533 -223Q522 -223 516 -202T509
-177L546 -13Q351 14 235 160Q114 313 114 555Q114 863 302 1050Q473 1219 697 1219Q844 1219 942 1156Q1045 1090 1045 982Q1045 923 1019 893Q974 840 915 840T826 854L827 890Q827 909 818 954T761 1029T638 1058T506 1021T412 920Q344 800 344 599Q344 409
436 290Q530 168 684 168Q824 168 952 245Q983 264 1000 278Q1010 278 1023 262Q1048 233 1048 216T1035 178T999 133T941 84T865 38Q770 -10 669 -17L655 -110Z" />
<glyph unicode="&#xe8;" glyph-name="egrave" horiz-adv-x="1209" d="M108 538Q108 659 133 753T200 921T300 1052T424 1145Q554 1219 680 1219T882 1175T1006 1056Q1095 915 1095 681Q1095 594 1022 592L324 577Q330 360 436 256Q526 168 669 168Q882 168 1015
257Q1024 257 1037 242Q1062 212 1062 190Q1062 142 942 67Q804 -19 620 -19Q380 -19 243 134Q108 284 108 538ZM330 706Q618 720 857 743Q868 1061 637 1061Q508 1061 426 961Q351 869 330 706ZM233 1568Q213 1578 213 1600T229 1652T271 1708Q333 1769 388 1769Q418
1769 440 1747L759 1428Q766 1421 766 1411T760 1391T743 1370Q718 1347 689 1347L233 1568Z" />
<glyph unicode="&#xe9;" glyph-name="eacute" horiz-adv-x="1209" d="M108 538Q108 659 133 753T200 921T300 1052T424 1145Q554 1219 680 1219T882 1175T1006 1056Q1095 915 1095 681Q1095 594 1022 592L324 577Q330 360 436 256Q526 168 669 168Q882 168 1015
257Q1024 257 1037 242Q1062 212 1062 190Q1062 142 942 67Q804 -19 620 -19Q380 -19 243 134Q108 284 108 538ZM330 706Q618 720 857 743Q868 1061 637 1061Q508 1061 426 961Q351 869 330 706ZM610 1347Q582 1347 564 1364Q534 1391 534 1401Q534 1420 540 1428L860
1747Q882 1769 911 1769T972 1752T1029 1708Q1086 1649 1086 1602Q1086 1578 1066 1568L610 1347Z" />
<glyph unicode="&#xea;" glyph-name="ecircumflex" horiz-adv-x="1209" d="M108 538Q108 659 133 753T200 921T300 1052T424 1145Q554 1219 680 1219T882 1175T1006 1056Q1095 915 1095 681Q1095 594 1022 592L324 577Q330 360 436 256Q526 168 669 168Q882 168
1015 257Q1024 257 1037 242Q1062 212 1062 190Q1062 142 942 67Q804 -19 620 -19Q380 -19 243 134Q108 284 108 538ZM330 706Q618 720 857 743Q868 1061 637 1061Q508 1061 426 961Q351 869 330 706ZM458 1389Q409 1351 381 1351T336 1368T318 1394Q318 1412 325
1419L556 1724Q581 1769 654 1769Q725 1769 760 1724L990 1419Q997 1411 997 1398T980 1368T938 1351T895 1363T857 1389L657 1549L458 1389Z" />
<glyph unicode="&#xeb;" glyph-name="edieresis" horiz-adv-x="1209" d="M108 538Q108 659 133 753T200 921T300 1052T424 1145Q554 1219 680 1219T882 1175T1006 1056Q1095 915 1095 681Q1095 594 1022 592L324 577Q330 360 436 256Q526 168 669 168Q882 168
1015 257Q1024 257 1037 242Q1062 212 1062 190Q1062 142 942 67Q804 -19 620 -19Q380 -19 243 134Q108 284 108 538ZM330 706Q618 720 857 743Q868 1061 637 1061Q508 1061 426 961Q351 869 330 706ZM892 1401Q858 1401 830 1411T780 1442Q736 1484 736 1555Q736
1623 787 1670Q838 1717 908 1717T1020 1675T1062 1561Q1062 1493 1011 1446Q962 1401 892 1401ZM385 1401Q351 1401 323 1411T273 1442Q229 1484 229 1555Q229 1623 281 1670Q331 1717 401 1717T513 1675T555 1561Q555 1493 505 1446Q455 1401 385 1401Z" />
<glyph unicode="&#xec;" glyph-name="igrave" horiz-adv-x="717" d="M273 0Q119 0 119 70Q119 106 135 126Q159 118 189 118T243 140T270 223V906Q270 976 251 1003T181 1031Q144 1031 114 1022Q96 1020 88 1050Q81 1077 96 1097T142 1140T212 1180Q294 1219 349
1219T430 1203T471 1160Q493 1116 493 1018V219Q496 140 550 123Q565 118 587 114T626 105T654 92Q671 79 671 50Q671 14 656 -5Q635 0 592 0H273ZM183 1568Q163 1578 163 1600T179 1652T221 1708Q283 1769 338 1769Q368 1769 390 1747L709 1428Q716 1421 716 1411T710
1391T693 1370Q668 1347 639 1347L183 1568Z" />
<glyph unicode="&#xed;" glyph-name="iacute" horiz-adv-x="717" d="M273 0Q119 0 119 70Q119 106 135 126Q159 118 189 118T243 140T270 223V906Q270 976 251 1003T181 1031Q144 1031 114 1022Q96 1020 88 1050Q81 1077 96 1097T142 1140T212 1180Q294 1219 349
1219T430 1203T471 1160Q493 1116 493 1018V219Q496 140 550 123Q565 118 587 114T626 105T654 92Q671 79 671 50Q671 14 656 -5Q635 0 592 0H273ZM302 1347Q274 1347 256 1364Q226 1391 226 1401Q226 1420 232 1428L552 1747Q574 1769 603 1769T664 1752T721 1708Q778
1649 778 1602Q778 1578 758 1568L302 1347Z" />
<glyph unicode="&#xee;" glyph-name="icircumflex" horiz-adv-x="717" d="M273 0Q119 0 119 70Q119 106 135 126Q159 118 189 118T243 140T270 223V906Q270 976 251 1003T181 1031Q144 1031 114 1022Q96 1020 88 1050Q81 1077 96 1097T142 1140T212 1180Q294 1219
349 1219T430 1203T471 1160Q493 1116 493 1018V219Q496 140 550 123Q565 118 587 114T626 105T654 92Q671 79 671 50Q671 14 656 -5Q635 0 592 0H273ZM408 1389Q359 1351 331 1351T286 1368T268 1394Q268 1412 275 1419L506 1724Q531 1769 604 1769Q675 1769 710
1724L940 1419Q947 1411 947 1398T930 1368T888 1351T845 1363T807 1389L607 1549L408 1389Z" />
<glyph unicode="&#xef;" glyph-name="idieresis" horiz-adv-x="717" d="M273 0Q119 0 119 70Q119 106 135 126Q159 118 189 118T243 140T270 223V906Q270 976 251 1003T181 1031Q144 1031 114 1022Q96 1020 88 1050Q81 1077 96 1097T142 1140T212 1180Q294 1219
349 1219T430 1203T471 1160Q493 1116 493 1018V219Q496 140 550 123Q565 118 587 114T626 105T654 92Q671 79 671 50Q671 14 656 -5Q635 0 592 0H273ZM586 1401Q552 1401 524 1411T474 1442Q430 1484 430 1555Q430 1623 481 1670Q532 1717 602 1717T714 1675T756
1561Q756 1493 705 1446Q656 1401 586 1401ZM79 1401Q45 1401 17 1411T-33 1442Q-77 1484 -77 1555Q-77 1623 -25 1670Q25 1717 95 1717T207 1675T249 1561Q249 1493 199 1446Q149 1401 79 1401Z" />
<glyph unicode="&#xf0;" glyph-name="eth" horiz-adv-x="1288" d="M320 1828Q470 1828 640 1738L760 1861Q781 1879 802 1879T840 1873T872 1856Q903 1835 917 1801L771 1655Q1061 1431 1155 1042Q1189 902 1189 721T1145 396T1023 161Q870 -19 606 -19Q350 -19
211 162Q89 321 89 571Q89 886 270 1062Q425 1212 624 1212Q804 1212 913 1094Q848 1380 654 1537L525 1414Q502 1394 479 1394T438 1401T406 1419Q375 1443 369 1472L525 1620Q431 1668 309 1702L245 1719Q235 1722 235 1739T243 1776Q266 1828 320 1828ZM630
144Q708 144 772 178T877 282Q953 413 953 694Q953 806 943 908Q897 976 847 1004Q759 1052 674 1052T529 1020T426 928Q331 797 331 577Q331 386 411 264Q491 144 630 144Z" />
<glyph unicode="&#xf1;" glyph-name="ntilde" horiz-adv-x="1472" d="M646 -5Q626 0 582 0H263Q167 0 140 34Q129 47 129 64Q129 106 145 126Q169 118 199 118T245 143T260 236V890Q260 984 225 1007Q211 1016 188 1016Q165 1016 152 1009T130 999T115 999T103
1010Q88 1026 88 1043T100 1080T141 1125T205 1172Q286 1219 367 1219Q460 1219 477 1096Q482 1060 483 1022Q632 1147 807 1200Q870 1219 934 1219T1057 1202T1159 1147Q1250 1067 1250 897V219Q1253 141 1308 123Q1323 118 1345 114T1384 105T1412 92Q1429 79
1429 50Q1429 15 1413 -5Q1393 0 1349 0H1030Q934 0 907 34Q896 47 896 64Q896 106 912 126Q936 118 956 118T991 123T1013 142Q1027 166 1027 236V826Q1027 996 926 1016Q895 1022 849 1022T746 1008T641 972Q547 930 483 866V219Q486 141 540 123Q556 118 577
114T617 105T645 92Q662 79 662 50Q662 15 646 -5ZM526 1528Q412 1528 331 1401Q270 1418 270 1475Q270 1538 360 1628Q462 1730 574 1730Q634 1730 678 1704T748 1659T801 1624Q863 1587 929 1587Q1032 1587 1118 1716Q1156 1716 1174 1667Q1179 1653 1179 1636T1167
1593T1135 1539T1085 1484T1022 1434Q948 1387 894 1387T810 1397T753 1423T701 1457T648 1492Q586 1528 526 1528Z" />
<glyph unicode="&#xf2;" glyph-name="ograve" horiz-adv-x="1270" d="M99 552Q99 674 123 771T189 942T288 1068T410 1154Q537 1219 689 1219Q884 1219 1020 1077Q1171 921 1171 665Q1171 329 988 142Q829 -19 607 -19Q375 -19 235 144Q99 301 99 552ZM666 144Q733
144 786 175T876 262Q950 376 950 558Q950 758 872 898Q784 1059 619 1059Q486 1059 406 957Q321 849 321 655Q321 412 428 271Q524 144 666 144ZM213 1568Q193 1578 193 1600T209 1652T251 1708Q313 1769 368 1769Q398 1769 420 1747L739 1428Q746 1421 746 1411T740
1391T723 1370Q698 1347 669 1347L213 1568Z" />
<glyph unicode="&#xf3;" glyph-name="oacute" horiz-adv-x="1270" d="M99 552Q99 674 123 771T189 942T288 1068T410 1154Q537 1219 689 1219Q884 1219 1020 1077Q1171 921 1171 665Q1171 329 988 142Q829 -19 607 -19Q375 -19 235 144Q99 301 99 552ZM666 144Q733
144 786 175T876 262Q950 376 950 558Q950 758 872 898Q784 1059 619 1059Q486 1059 406 957Q321 849 321 655Q321 412 428 271Q524 144 666 144ZM590 1347Q562 1347 544 1364Q514 1391 514 1401Q514 1420 520 1428L840 1747Q862 1769 891 1769T952 1752T1009 1708Q1066
1649 1066 1602Q1066 1578 1046 1568L590 1347Z" />
<glyph unicode="&#xf4;" glyph-name="ocircumflex" horiz-adv-x="1270" d="M99 552Q99 674 123 771T189 942T288 1068T410 1154Q537 1219 689 1219Q884 1219 1020 1077Q1171 921 1171 665Q1171 329 988 142Q829 -19 607 -19Q375 -19 235 144Q99 301 99 552ZM666
144Q733 144 786 175T876 262Q950 376 950 558Q950 758 872 898Q784 1059 619 1059Q486 1059 406 957Q321 849 321 655Q321 412 428 271Q524 144 666 144ZM438 1389Q389 1351 361 1351T316 1368T298 1394Q298 1412 305 1419L536 1724Q561 1769 634 1769Q705 1769
740 1724L970 1419Q977 1411 977 1398T960 1368T918 1351T875 1363T837 1389L637 1549L438 1389Z" />
<glyph unicode="&#xf5;" glyph-name="otilde" horiz-adv-x="1270" d="M99 552Q99 674 123 771T189 942T288 1068T410 1154Q537 1219 689 1219Q884 1219 1020 1077Q1171 921 1171 665Q1171 329 988 142Q829 -19 607 -19Q375 -19 235 144Q99 301 99 552ZM666 144Q733
144 786 175T876 262Q950 376 950 558Q950 758 872 898Q784 1059 619 1059Q486 1059 406 957Q321 849 321 655Q321 412 428 271Q524 144 666 144ZM424 1528Q310 1528 229 1401Q168 1418 168 1475Q168 1538 258 1628Q360 1730 472 1730Q532 1730 576 1704T646 1659T699
1624Q761 1587 827 1587Q930 1587 1016 1716Q1054 1716 1072 1667Q1077 1653 1077 1636T1065 1593T1033 1539T983 1484T920 1434Q846 1387 792 1387T708 1397T651 1423T599 1457T546 1492Q484 1528 424 1528Z" />
<glyph unicode="&#xf6;" glyph-name="odieresis" horiz-adv-x="1270" d="M99 552Q99 674 123 771T189 942T288 1068T410 1154Q537 1219 689 1219Q884 1219 1020 1077Q1171 921 1171 665Q1171 329 988 142Q829 -19 607 -19Q375 -19 235 144Q99 301 99 552ZM666
144Q733 144 786 175T876 262Q950 376 950 558Q950 758 872 898Q784 1059 619 1059Q486 1059 406 957Q321 849 321 655Q321 412 428 271Q524 144 666 144ZM872 1401Q838 1401 810 1411T760 1442Q716 1484 716 1555Q716 1623 767 1670Q818 1717 888 1717T1000 1675T1042
1561Q1042 1493 991 1446Q942 1401 872 1401ZM365 1401Q331 1401 303 1411T253 1442Q209 1484 209 1555Q209 1623 261 1670Q311 1717 381 1717T493 1675T535 1561Q535 1493 485 1446Q435 1401 365 1401Z" />
<glyph unicode="&#xf7;" glyph-name="divide" horiz-adv-x="1177" d="M648 1042Q619 1030 586 1030T524 1042T474 1075Q429 1120 429 1188Q429 1256 474 1301T569 1346T648 1334T700 1301Q746 1257 746 1188Q746 1082 648 1042ZM1023 850Q1036 828 1036 794T1033
740T1022 702Q1004 665 977 665H151Q140 695 140 724T143 775T154 812Q172 850 196 850H1023ZM429 339Q429 406 474 452Q518 498 585 498Q653 498 700 452Q746 408 746 339Q746 233 648 193Q619 181 586 181T524 193T474 226Q429 271 429 339Z" />
<glyph unicode="&#xf8;" glyph-name="oslash" horiz-adv-x="1270" d="M607 -19Q458 -19 343 51L259 -78Q239 -104 216 -104Q170 -104 145 -59L260 116Q99 277 99 553Q99 995 410 1154Q537 1219 677 1219T935 1147L1026 1286Q1044 1312 1066 1312Q1107 1312 1140
1267L1017 1080Q1171 922 1171 665Q1171 329 988 142Q829 -19 607 -19ZM819 971Q737 1059 619 1059Q486 1059 406 957Q321 849 321 655Q321 455 394 322L819 971ZM462 231Q551 144 666 144Q798 144 876 262Q950 376 950 558Q950 742 884 876L462 231Z" />
<glyph unicode="&#xf9;" glyph-name="ugrave" horiz-adv-x="1370" d="M193 890Q193 947 185 981T150 1016Q131 1016 120 1012L96 1002Q89 1000 79 1010Q60 1031 60 1048T71 1085T106 1130T160 1174Q228 1219 283 1219T361 1200T396 1150Q416 1100 416 999V373Q416
204 518 184Q549 178 591 178T682 189T775 218Q860 253 925 307V890Q925 985 891 1007Q877 1016 854 1016Q831 1016 818 1009T796 999T781 999T768 1010Q753 1027 753 1044T765 1080T806 1125T870 1172Q951 1219 1032 1219Q1130 1219 1144 1080Q1148 1041 1148
999V407Q1148 253 1160 215T1189 166T1231 154T1272 162L1302 175Q1315 178 1325 163Q1346 132 1331 107T1285 59T1214 19Q1041 -57 968 22Q930 63 925 152Q778 39 624 -4Q568 -19 507 -19T387 -2T285 53Q193 134 193 303V890ZM205 1568Q185 1578 185 1600T201
1652T243 1708Q305 1769 360 1769Q390 1769 412 1747L731 1428Q738 1421 738 1411T732 1391T715 1370Q690 1347 661 1347L205 1568Z" />
<glyph unicode="&#xfa;" glyph-name="uacute" horiz-adv-x="1370" d="M193 890Q193 947 185 981T150 1016Q131 1016 120 1012L96 1002Q89 1000 79 1010Q60 1031 60 1048T71 1085T106 1130T160 1174Q228 1219 283 1219T361 1200T396 1150Q416 1100 416 999V373Q416
204 518 184Q549 178 591 178T682 189T775 218Q860 253 925 307V890Q925 985 891 1007Q877 1016 854 1016Q831 1016 818 1009T796 999T781 999T768 1010Q753 1027 753 1044T765 1080T806 1125T870 1172Q951 1219 1032 1219Q1130 1219 1144 1080Q1148 1041 1148
999V407Q1148 253 1160 215T1189 166T1231 154T1272 162L1302 175Q1315 178 1325 163Q1346 132 1331 107T1285 59T1214 19Q1041 -57 968 22Q930 63 925 152Q778 39 624 -4Q568 -19 507 -19T387 -2T285 53Q193 134 193 303V890ZM582 1347Q554 1347 536 1364Q506
1391 506 1401Q506 1420 512 1428L832 1747Q854 1769 883 1769T944 1752T1001 1708Q1058 1649 1058 1602Q1058 1578 1038 1568L582 1347Z" />
<glyph unicode="&#xfb;" glyph-name="ucircumflex" horiz-adv-x="1370" d="M193 890Q193 947 185 981T150 1016Q131 1016 120 1012L96 1002Q89 1000 79 1010Q60 1031 60 1048T71 1085T106 1130T160 1174Q228 1219 283 1219T361 1200T396 1150Q416 1100 416 999V373Q416
204 518 184Q549 178 591 178T682 189T775 218Q860 253 925 307V890Q925 985 891 1007Q877 1016 854 1016Q831 1016 818 1009T796 999T781 999T768 1010Q753 1027 753 1044T765 1080T806 1125T870 1172Q951 1219 1032 1219Q1130 1219 1144 1080Q1148 1041 1148
999V407Q1148 253 1160 215T1189 166T1231 154T1272 162L1302 175Q1315 178 1325 163Q1346 132 1331 107T1285 59T1214 19Q1041 -57 968 22Q930 63 925 152Q778 39 624 -4Q568 -19 507 -19T387 -2T285 53Q193 134 193 303V890ZM430 1389Q381 1351 353 1351T308
1368T290 1394Q290 1412 297 1419L528 1724Q553 1769 626 1769Q697 1769 732 1724L962 1419Q969 1411 969 1398T952 1368T910 1351T867 1363T829 1389L629 1549L430 1389Z" />
<glyph unicode="&#xfc;" glyph-name="udieresis" horiz-adv-x="1370" d="M193 890Q193 947 185 981T150 1016Q131 1016 120 1012L96 1002Q89 1000 79 1010Q60 1031 60 1048T71 1085T106 1130T160 1174Q228 1219 283 1219T361 1200T396 1150Q416 1100 416 999V373Q416
204 518 184Q549 178 591 178T682 189T775 218Q860 253 925 307V890Q925 985 891 1007Q877 1016 854 1016Q831 1016 818 1009T796 999T781 999T768 1010Q753 1027 753 1044T765 1080T806 1125T870 1172Q951 1219 1032 1219Q1130 1219 1144 1080Q1148 1041 1148
999V407Q1148 253 1160 215T1189 166T1231 154T1272 162L1302 175Q1315 178 1325 163Q1346 132 1331 107T1285 59T1214 19Q1041 -57 968 22Q930 63 925 152Q778 39 624 -4Q568 -19 507 -19T387 -2T285 53Q193 134 193 303V890ZM864 1401Q830 1401 802 1411T752
1442Q708 1484 708 1555Q708 1623 759 1670Q810 1717 880 1717T992 1675T1034 1561Q1034 1493 983 1446Q934 1401 864 1401ZM357 1401Q323 1401 295 1411T245 1442Q201 1484 201 1555Q201 1623 253 1670Q303 1717 373 1717T485 1675T527 1561Q527 1493 477 1446Q427
1401 357 1401Z" />
<glyph unicode="&#xfd;" glyph-name="yacute" horiz-adv-x="1203" d="M60 1058L39 1054Q17 1054 8 1084Q5 1092 5 1107T22 1144T66 1182Q126 1219 193 1219Q246 1219 269 1204Q314 1176 339 1090L644 205Q738 414 773 501L834 656Q919 884 919 953T895 1055T812
1093Q801 1105 801 1125T819 1163T868 1194Q929 1219 993 1219T1085 1213T1128 1191Q1159 1163 1159 1087Q1159 1019 1052 728Q952 468 902 351Q718 -59 625 -223T449 -450T274 -514T135 -475T88 -366Q88 -314 114 -288Q163 -239 218 -250Q227 -325 308 -325Q381
-325 439 -230Q466 -185 492 -125L550 4L570 45Q512 53 472 102Q456 121 446 150L166 885L142 944Q96 1058 60 1058ZM552 1347Q524 1347 506 1364Q476 1391 476 1401Q476 1420 482 1428L802 1747Q824 1769 853 1769T914 1752T971 1708Q1028 1649 1028 1602Q1028
1578 1008 1568L552 1347Z" />
<glyph unicode="&#xfe;" glyph-name="thorn" horiz-adv-x="1364" d="M603 -374Q617 -393 617 -418T594 -461T538 -492Q473 -514 390 -514T258 -469T210 -323V1475Q210 1545 196 1564Q173 1596 121 1596Q97 1596 77 1592T48 1591T34 1604Q13 1637 83 1688Q193 1769
301 1769Q415 1769 429 1646Q433 1609 433 1568V1076Q591 1219 771 1219Q976 1219 1104 1078Q1245 925 1245 654Q1245 350 1052 158Q964 72 853 27T640 -19T433 8V-130Q433 -282 452 -323T490 -372T534 -381T603 -374ZM433 917V221Q527 141 662 141Q817 141 914
256Q1018 380 1018 591Q1018 815 927 928Q845 1031 699 1031T433 917Z" />
<glyph unicode="&#xff;" glyph-name="ydieresis" horiz-adv-x="1203" d="M60 1058L39 1054Q17 1054 8 1084Q5 1092 5 1107T22 1144T66 1182Q126 1219 193 1219Q246 1219 269 1204Q314 1176 339 1090L644 205Q738 414 773 501L834 656Q919 884 919 953T895 1055T812
1093Q801 1105 801 1125T819 1163T868 1194Q929 1219 993 1219T1085 1213T1128 1191Q1159 1163 1159 1087Q1159 1019 1052 728Q952 468 902 351Q718 -59 625 -223T449 -450T274 -514T135 -475T88 -366Q88 -314 114 -288Q163 -239 218 -250Q227 -325 308 -325Q381
-325 439 -230Q466 -185 492 -125L550 4L570 45Q512 53 472 102Q456 121 446 150L166 885L142 944Q96 1058 60 1058ZM834 1401Q800 1401 772 1411T722 1442Q678 1484 678 1555Q678 1623 729 1670Q780 1717 850 1717T962 1675T1004 1561Q1004 1493 953 1446Q904
1401 834 1401ZM327 1401Q293 1401 265 1411T215 1442Q171 1484 171 1555Q171 1623 223 1670Q273 1717 343 1717T455 1675T497 1561Q497 1493 447 1446Q397 1401 327 1401Z" />
<glyph unicode="&#x2013;" glyph-name="endash" horiz-adv-x="1380" d="M151 664Q140 694 140 723T143 774T154 812Q172 849 196 849H1227Q1240 823 1240 791T1237 739T1226 702Q1208 664 1180 664H151Z" />
<glyph unicode="&#x2014;" glyph-name="emdash" horiz-adv-x="1991" d="M1838 849Q1851 827 1851 793T1848 739T1836 702Q1819 664 1792 664H151Q140 694 140 723T143 774T154 812Q172 849 196 849H1838Z" />
<glyph unicode="&#x2018;" glyph-name="quoteleft" horiz-adv-x="702" d="M460 1021T427 1008T348 995T265 1021T205 1085Q161 1158 161 1253T190 1431T261 1575T346 1676T419 1728Q438 1728 462 1710Q503 1680 509 1655Q436 1582 402 1483Q388 1440 388 1399T396
1330T422 1279Q458 1231 513 1227Q536 1192 536 1157T522 1094T484 1043Z" />
<glyph unicode="&#x2019;" glyph-name="quoteright" horiz-adv-x="702" d="M242 1702T275 1715T354 1728T437 1702T497 1638Q541 1565 541 1470T512 1292T441 1148T356 1047T283 995Q264 995 240 1013Q199 1043 193 1068Q266 1141 300 1240Q314 1283 314 1324T306
1393T280 1444Q244 1492 189 1496Q166 1531 166 1566T180 1629T218 1680Z" />
<glyph unicode="&#x201a;" glyph-name="quotesinglbase" horiz-adv-x="702" d="M242 326T275 339T354 352T437 326T497 262Q541 189 541 94T512 -84T441 -228T356 -329T283 -381Q264 -381 240 -363Q199 -333 193 -308Q266 -235 300 -136Q314 -93 314 -52T306 17T280
68Q244 116 189 120Q166 155 166 190T180 253T218 304Z" />
<glyph unicode="&#x201c;" glyph-name="quotedblleft" horiz-adv-x="1220" d="M460 1021T427 1008T348 995T265 1021T205 1085Q161 1158 161 1253T190 1431T261 1575T346 1676T419 1728Q438 1728 462 1710Q503 1680 509 1655Q436 1582 402 1483Q388 1440 388 1399T396
1330T422 1279Q458 1231 513 1227Q536 1192 536 1157T522 1094T484 1043ZM978 1021T945 1008T866 995T783 1021T723 1085Q679 1158 679 1253T708 1431T779 1575T864 1676T937 1728Q956 1728 980 1710Q1021 1680 1027 1655Q954 1582 920 1483Q906 1440 906 1399T914
1330T940 1279Q976 1231 1031 1227Q1054 1192 1054 1157T1040 1094T1002 1043Z" />
<glyph unicode="&#x201d;" glyph-name="quotedblright" horiz-adv-x="1220" d="M242 1703T275 1716T354 1729T437 1703T497 1639Q541 1566 541 1471T512 1293T441 1149T356 1048T283 996Q264 996 240 1014Q199 1044 193 1069Q266 1142 300 1241Q314 1284 314 1325T306
1394T280 1445Q244 1493 189 1497Q166 1532 166 1567T180 1630T218 1681ZM760 1703T793 1716T872 1729T955 1703T1015 1639Q1059 1566 1059 1471T1030 1293T959 1149T874 1048T801 996Q782 996 758 1014Q717 1044 711 1069Q784 1142 818 1241Q832 1284 832 1325T824
1394T798 1445Q762 1493 707 1497Q684 1532 684 1567T698 1630T736 1681Z" />
<glyph unicode="&#x201e;" glyph-name="quotedblbase" horiz-adv-x="1220" d="M242 327T275 340T354 353T437 327T497 263Q541 190 541 95T512 -83T441 -227T356 -328T283 -380Q264 -380 240 -362Q199 -332 193 -307Q266 -234 300 -135Q314 -92 314 -51T306 18T280
69Q244 117 189 121Q166 156 166 191T180 254T218 305ZM760 327T793 340T872 353T955 327T1015 263Q1059 190 1059 95T1030 -83T959 -227T874 -328T801 -380Q782 -380 758 -362Q717 -332 711 -307Q784 -234 818 -135Q832 -92 832 -51T824 18T798 69Q762 117 707
121Q684 156 684 191T698 254T736 305Z" />
<glyph unicode="&#x2022;" glyph-name="bullet" horiz-adv-x="828" d="M414 265Q358 265 311 285T228 340Q151 417 151 527Q151 639 227 715T413 792Q525 792 602 716Q677 640 677 527Q677 416 602 341T414 265Z" />
<glyph unicode="&#x2039;" glyph-name="guilsinglleft" horiz-adv-x="1322" d="M1029 1169Q1086 1169 1086 1024Q1086 991 1038 960L465 579L1030 189Q1087 151 1087 113Q1087 54 1070 20T1029 -15T986 -4L248 442Q179 485 179 574Q179 619 198 660T248 720L986
1154Q1011 1169 1029 1169Z" />
<glyph unicode="&#x203a;" glyph-name="guilsinglright" horiz-adv-x="1322" d="M293 -7Q236 -7 236 138Q236 171 284 202L857 583L292 973Q235 1011 235 1049Q235 1108 252 1142T293 1177T336 1166L1074 720Q1143 677 1143 588Q1143 543 1124 502T1074 442L336
8Q311 -7 293 -7Z" />
</font>
</defs>
</svg>
