<?xml version="1.0" encoding="UTF-8"?><svg xmlns="http://www.w3.org/2000/svg" viewBox="0 0 3364.26 1478.94"><g id="a"><g><path d="M969.08,721.49l-69.34-322.52c74.09,35.35,134.32,94.14,171.86,166.15l-102.52,156.37Z"/><path d="M756.02,971.03l321.75-69.52c-35.27,74.27-93.92,134.65-165.75,172.29l-156-102.77Z"/><path d="M587.44,915.92l276.55,178.9c-77.35,27.52-161.39,28.64-238.73,4.33l-37.82-183.23Z"/><path d="M507.12,757.46l69.34,322.53c-74.09-35.36-134.31-94.15-171.86-166.15l102.52-156.38Z"/><path d="M562.09,588.47l-178.47,277.22c-27.45-77.54-28.56-161.78-4.32-239.32l182.8-37.9Z"/><path d="M720.16,507.94l-321.73,69.51c35.29-74.28,93.91-134.66,165.76-172.3l155.98,102.79Z"/><path d="M888.73,563.02l-276.53-178.9c77.34-27.52,161.38-28.65,238.72-4.35l37.8,183.25Z"/></g></g><g id="b"/><g id="c"><g><path d="M1173.82,589.86l52.27,267.04h-68.53l-10.1-59.47h-117.29l-39.53,59.47h-72.48l184.93-267.04h70.72Zm-32.51,163.81l-15.37-106.22h-.88l-67.65,106.22h83.9Z"/><path d="M1441.78,589.86c15.81,0,30.38,1.31,43.71,3.93,13.32,2.62,24.82,6.92,34.48,12.9s17.2,13.97,22.62,23.94c5.42,9.98,8.13,22.32,8.13,37.03s-3.29,27.86-9.88,39.46c-6.59,11.59-15.53,21.38-26.8,29.36-11.28,7.98-24.24,14.09-38.88,18.33-14.65,4.24-30.17,6.36-46.56,6.36h-85.22l-23.72,95.74h-68.53l65.01-267.04h125.63Zm-16.69,125.66c17.57,0,31.41-3.8,41.51-11.41,10.1-7.6,15.15-19.38,15.15-35.34,0-6.73-1.39-12.28-4.17-16.64-2.79-4.36-6.52-7.73-11.2-10.1-4.69-2.37-9.88-4.05-15.59-5.05-5.71-.99-11.64-1.5-17.79-1.5h-58.86l-19.33,80.04h70.28Z"/><path d="M1848.98,589.86l-11.86,49.37h-170.44l-14.06,57.22h157.7l-11.42,45.63h-157.7l-16.25,65.45h173.07l-12.3,49.37h-241.6l65.45-267.04h239.4Z"/><path d="M2052.36,589.86c14.06-.25,26.87,.81,38.44,3.18,11.56,2.37,21.45,6.36,29.65,11.97,8.2,5.61,14.5,12.9,18.89,21.88,4.39,8.98,6.59,19.95,6.59,32.91,0,8.98-1.76,17.58-5.27,25.81-3.51,8.23-8.5,15.52-14.94,21.88-6.45,6.36-14.06,11.66-22.84,15.89-8.79,4.24-18.45,6.98-28.99,8.23v.75c12.88,3.49,21.52,9.54,25.92,18.14,4.39,8.6,6.59,18.27,6.59,28.99,0,5.98-.37,13.15-1.1,21.5-.73,8.36-1.1,16.64-1.1,24.87,0,5.98,.29,11.66,.88,17.02,.58,5.36,1.76,10.04,3.51,14.02h-67.21c-.88-3.24-1.61-6.29-2.2-9.16-.59-2.86-.88-5.8-.88-8.79,0-8.98,.58-18.01,1.76-27.12,1.17-9.1,1.76-18.14,1.76-27.12,0-6.48-1.1-11.78-3.29-15.89-2.2-4.11-5.27-7.42-9.23-9.91-3.95-2.49-8.72-4.17-14.28-5.05-5.57-.87-11.72-1.31-18.45-1.31h-65.01l-25.92,104.35h-68.53l65.45-267.04h149.79Zm-46.56,120.8c9.37,0,18.3-.81,26.79-2.43,8.49-1.62,16.04-4.11,22.62-7.48,6.59-3.37,11.86-7.72,15.81-13.09,3.95-5.36,5.93-11.78,5.93-19.26s-1.39-13.03-4.17-17.39c-2.79-4.36-6.52-7.67-11.2-9.91-4.69-2.24-10.11-3.74-16.25-4.49-6.15-.75-12.6-1.12-19.33-1.12h-65.45l-18.45,75.17h63.7Z"/><path d="M2291.32,589.86l85.22,189.99h.88l44.81-189.99h63.26l-66.33,267.04h-68.97l-86.1-187.37h-.88l-44.81,187.37h-64.13l65.89-267.04h71.16Z"/><path d="M2784.62,589.86l-11.86,49.37h-170.44l-14.06,57.22h157.7l-11.42,45.63h-157.7l-16.25,65.45h173.07l-12.3,49.37h-241.6l65.45-267.04h239.4Z"/><path d="M2797.8,639.23l12.3-49.37h261.81l-12.3,49.37h-94l-53.59,217.67h-69.4l53.59-217.67h-98.4Z"/></g></g></svg>