<?xml version="1.0" encoding="UTF-8" standalone="no"?>
<svg
   width="1500"
   height="500"
   viewBox="0 0 396.875 132.29167"
   version="1.1"
   id="svg8"
   inkscape:version="1.1.2 (0a00cf5339, 2022-02-04)"
   sodipodi:docname="ecurium-for-nonprofits.svg"
   inkscape:export-filename="/home/dmccartney/Temporary/publicgood/ecurium-header4.png"
   inkscape:export-xdpi="96"
   inkscape:export-ydpi="96"
   xmlns:inkscape="http://www.inkscape.org/namespaces/inkscape"
   xmlns:sodipodi="http://sodipodi.sourceforge.net/DTD/sodipodi-0.dtd"
   xmlns="http://www.w3.org/2000/svg"
   xmlns:svg="http://www.w3.org/2000/svg"
   xmlns:rdf="http://www.w3.org/1999/02/22-rdf-syntax-ns#"
   xmlns:cc="http://creativecommons.org/ns#"
   xmlns:dc="http://purl.org/dc/elements/1.1/">
  <defs
     id="defs2">
    <filter
       inkscape:collect="always"
       style="color-interpolation-filters:sRGB"
       id="filter1644"
       x="-0.15586129"
       width="1.3039298"
       y="-0.1460692"
       height="1.2921384">
      <feGaussianBlur
         inkscape:collect="always"
         stdDeviation="5.072165"
         id="feGaussianBlur1646" />
    </filter>
  </defs>
  <sodipodi:namedview
     id="base"
     pagecolor="#ffffff"
     bordercolor="#666666"
     borderopacity="1.0"
     inkscape:pageopacity="0"
     inkscape:pageshadow="2"
     inkscape:zoom="0.98994949"
     inkscape:cx="943.98756"
     inkscape:cy="212.63711"
     inkscape:document-units="mm"
     inkscape:current-layer="layer2"
     inkscape:document-rotation="0"
     showgrid="true"
     units="px"
     inkscape:window-width="1686"
     inkscape:window-height="1376"
     inkscape:window-x="1754"
     inkscape:window-y="27"
     inkscape:window-maximized="0"
     inkscape:pagecheckerboard="1">
    <inkscape:grid
       type="xygrid"
       id="grid833"
       originx="0"
       originy="0"
       spacingx="0"
       spacingy="0"
       empspacing="8" />
  </sodipodi:namedview>
  <metadata
     id="metadata5">
    <rdf:RDF>
      <cc:Work
         rdf:about="">
        <dc:format>image/svg+xml</dc:format>
        <dc:type
           rdf:resource="http://purl.org/dc/dcmitype/StillImage" />
      </cc:Work>
    </rdf:RDF>
  </metadata>
  <g
     style="display:inline"
     inkscape:label="Text"
     inkscape:groupmode="layer"
     id="layer1">
    <path
       style="fill:#666666;stroke:#545454;stroke-width:2.11667;stroke-linecap:round;stroke-linejoin:miter;stroke-miterlimit:4;stroke-dasharray:none;stroke-opacity:1"
       d="m 143.93331,14.287496 v 59.266666 0"
       id="path904"
       inkscape:connector-curvature="0"
       inkscape:export-filename="/home/dmccartney/Temporary/ecurium_mastodon.png"
       inkscape:export-xdpi="198.19"
       inkscape:export-ydpi="198.19" />
    <text
       xml:space="preserve"
       style="font-size:10.5833px;font-family:'Dancing Script';-inkscape-font-specification:'Dancing Script';fill:#666666;stroke-width:0.264583"
       x="158.38841"
       y="60.917435"
       id="text908"
       inkscape:export-filename="/home/dmccartney/Temporary/ecurium_mastodon.png"
       inkscape:export-xdpi="198.19"
       inkscape:export-ydpi="198.19"><tspan
         sodipodi:role="line"
         id="tspan906"
         x="158.38841"
         y="60.917435"
         style="font-style:normal;font-variant:normal;font-weight:normal;font-stretch:normal;font-size:50.8px;font-family:Georgia;-inkscape-font-specification:Georgia;fill:#666666;stroke-width:0.264583">ecurium</tspan></text>
  </g>
  <g
     style="display:inline"
     inkscape:label="jimdo_logo"
     id="layer2"
     inkscape:groupmode="layer">
    <g
       transform="translate(60.324999,12.170837)"
       style="display:inline"
       id="g1497"
       inkscape:export-filename="/home/dmccartney/Temporary/ecurium_mastodon.png"
       inkscape:export-xdpi="198.19"
       inkscape:export-ydpi="198.19">
      <circle
         style="fill:#b4a4a4;fill-opacity:1;stroke:none;stroke-width:3.175;stroke-miterlimit:5;paint-order:stroke markers fill"
         id="path835"
         cx="24.341667"
         cy="24.341667"
         r="20.108334" />
      <rect
         ry="6.3500009"
         style="fill:#ffffff;fill-opacity:1;stroke:none;stroke-width:2.91042;stroke-miterlimit:5;paint-order:stroke markers fill"
         id="rect857"
         width="46.566666"
         height="46.566666"
         x="19.049999"
         y="19.049999" />
      <rect
         ry="4.2333341"
         y="23.283333"
         x="23.283333"
         height="38.099998"
         width="38.099998"
         id="rect859"
         style="fill:#b4a4a4;fill-opacity:1;stroke:none;stroke-width:2.38124;stroke-miterlimit:5;paint-order:stroke markers fill" />
      <path
         transform="scale(0.26458333)"
         id="circle855"
         style="fill:#b4a4a4;fill-opacity:1;stroke:none;stroke-width:14.5263;stroke-miterlimit:5;paint-order:stroke markers fill"
         d="M 91.861328,0 A 92.000001,92.000001 0 0 0 0,92 92.000001,92.000001 0 0 0 92,184 92.000001,92.000001 0 0 0 184,92 92.000001,92.000001 0 0 0 92,0 92.000001,92.000001 0 0 0 91.861328,0 Z M 92,16 A 76.000003,76.000003 0 0 1 168,92 76.000003,76.000003 0 0 1 92,168 76.000003,76.000003 0 0 1 16,92 76.000003,76.000003 0 0 1 92,16 Z"
         inkscape:connector-curvature="0" />
      <path
         inkscape:connector-curvature="0"
         d="M 24.308167,2.116673 A 22.225001,22.224997 0 0 0 2.1166667,24.34167 22.225001,22.224997 0 0 0 24.341667,46.566667 a 22.225001,22.224997 0 0 0 22.225,-22.224997 22.225001,22.224997 0 0 0 -22.225,-22.224997 22.225001,22.224997 0 0 0 -0.0335,0 z m 0.0335,3.8652168 A 18.359784,18.359781 0 0 1 42.70145,24.34167 18.359784,18.359781 0 0 1 24.341667,42.701449 18.359784,18.359781 0 0 1 5.9818841,24.34167 18.359784,18.359781 0 0 1 24.341667,5.9818898 Z"
         style="fill:#ffffff;fill-opacity:1;stroke:none;stroke-width:3.50921;stroke-miterlimit:5;paint-order:stroke markers fill"
         id="path839" />
      <rect
         style="fill:#b4a4a4;fill-opacity:1;stroke:none;stroke-width:0.916537;stroke-miterlimit:5;paint-order:stroke markers fill"
         id="rect879"
         width="25.4"
         height="8.4666662"
         x="29.633333"
         y="23.283333" />
    </g>
    <text
       xml:space="preserve"
       style="font-size:15.3008px;line-height:1.25;font-family:Georgia;-inkscape-font-specification:Georgia;stroke-width:0.382521"
       x="76.693161"
       y="94.807816"
       id="text26029"
       inkscape:export-filename="/home/dmccartney/Temporary/ecurium_mastodon.png"
       inkscape:export-xdpi="198.19"
       inkscape:export-ydpi="198.19"><tspan
         sodipodi:role="line"
         id="tspan26027"
         style="fill:#666666;fill-opacity:1;stroke-width:0.382521"
         x="76.693161"
         y="94.807816">nonprofit consulting, advocacy, apps</tspan></text>
  </g>
  <g
     sodipodi:insensitive="true"
     style="display:none"
     inkscape:label="up_arrow_logo"
     id="layer3"
     inkscape:groupmode="layer">
    <path
       transform="matrix(0.36147584,0,0,0.36147584,4.2237386,4.2237385)"
       id="path1521"
       style="display:inline;fill:none;fill-opacity:1;stroke:#010000;stroke-width:6.036;stroke-linecap:round;stroke-miterlimit:4;stroke-dasharray:none;stroke-opacity:0.496193;filter:url(#filter1644)"
       d="m 80.000003,28.000005 a 52,52 0 0 0 -50.595703,40 h 66.595703 v 24 H 29.4043 A 52,52 0 0 0 80.000003,132 52,52 0 0 0 132,80.000005 a 52,52 0 0 0 -51.999997,-52 z"
       inkscape:connector-curvature="0" />
    <path
       inkscape:connector-curvature="0"
       d="M 33.844108,5.6696484 A 28.195116,28.195115 0 0 0 5.6696443,33.864764 28.195116,28.195115 0 0 0 33.864759,62.059879 28.195116,28.195115 0 0 0 62.059873,33.864764 a 28.195116,28.195115 0 0 0 -0.0055,-0.530035 c 7.23e-4,-0.03513 0.0055,-0.06932 0.0055,-0.104638 v -22.69651 c 0,-2.6944668 -2.169466,-4.8639326 -4.863932,-4.8639326 H 34.499424 c -0.03369,0 -0.0663,0.0041 -0.09982,0.00478 a 28.195116,28.195115 0 0 0 -0.534854,-0.00478 28.195116,28.195115 0 0 0 -0.02064,0 z"
       style="display:inline;fill:#d7cdcc;fill-opacity:1;stroke:#eae5e1;stroke-width:2.89181;stroke-linecap:round;stroke-miterlimit:4;stroke-dasharray:none;stroke-opacity:1"
       id="path841" />
    <rect
       style="display:inline;fill:#60646c;fill-opacity:1;stroke:none;stroke-width:4.33771;stroke-miterlimit:5;paint-order:stroke markers fill"
       id="rect858"
       width="15.904937"
       height="15.904937"
       x="40.371326"
       y="11.453257"
       ry="2.8918066" />
    <circle
       cy="33.864761"
       cx="33.864754"
       id="circle856"
       style="display:inline;fill:#d7cdcc;fill-opacity:1;stroke:none;stroke-width:3.27279;stroke-linecap:round;stroke-miterlimit:4;stroke-dasharray:none;stroke-opacity:0.993295"
       r="23.857405" />
    <circle
       r="18.796743"
       cy="33.141811"
       cx="33.141804"
       id="path855"
       style="display:inline;fill:#60646c;fill-opacity:1;stroke:none;stroke-width:2.57857;stroke-linecap:round;stroke-miterlimit:4;stroke-dasharray:none;stroke-opacity:0.993295" />
    <circle
       r="14.459033"
       style="display:inline;fill:#d7cdcc;fill-opacity:1;stroke:none;stroke-width:1.98352;stroke-linecap:round;stroke-miterlimit:4;stroke-dasharray:none;stroke-opacity:0.993295"
       id="circle857"
       cx="33.141804"
       cy="33.141811" />
    <rect
       y="25.912296"
       x="46.735889"
       height="21.688551"
       width="8.6754198"
       id="rect859-3"
       style="display:inline;fill:#d7cdcc;fill-opacity:1;stroke:none;stroke-width:1.3619;stroke-linecap:round;stroke-miterlimit:4;stroke-dasharray:none;stroke-opacity:0.993295" />
    <rect
       transform="matrix(0.68687332,-0.72677717,0.68687332,0.72677717,0,0)"
       style="display:inline;fill:#d7cdcc;fill-opacity:1;stroke:none;stroke-width:0.847951;stroke-linecap:round;stroke-miterlimit:4;stroke-dasharray:none;stroke-opacity:0.993295"
       id="rect1511"
       width="11.186164"
       height="13.246337"
       x="11.47182"
       y="49.559086" />
    <path
       sodipodi:nodetypes="ccc"
       inkscape:connector-curvature="0"
       id="path861"
       d="M 46.15494,20.12868 21.57458,44.709038 v 0"
       style="display:inline;fill:none;fill-opacity:1;stroke:#60646c;stroke-width:4.33771;stroke-linecap:butt;stroke-linejoin:miter;stroke-miterlimit:5;stroke-dasharray:none;stroke-opacity:1;paint-order:stroke markers fill" />
  </g>
</svg>
