<?xml version="1.0" encoding="UTF-8" standalone="no"?>
<svg
   width="793.75mm"
   height="105.26794mm"
   viewBox="0 0 2812.5 372.99666"
   version="1.1"
   id="svg6"
   sodipodi:docname="AA Logo.svg"
   inkscape:version="1.3.2 (091e20e, 2023-11-25)"
   xmlns:inkscape="http://www.inkscape.org/namespaces/inkscape"
   xmlns:sodipodi="http://sodipodi.sourceforge.net/DTD/sodipodi-0.dtd"
   xmlns="http://www.w3.org/2000/svg"
   xmlns:svg="http://www.w3.org/2000/svg"
   xmlns:rdf="http://www.w3.org/1999/02/22-rdf-syntax-ns#"
   xmlns:cc="http://creativecommons.org/ns#"
   xmlns:dc="http://purl.org/dc/elements/1.1/">
  <sodipodi:namedview
     pagecolor="#ffffff"
     bordercolor="#666666"
     borderopacity="1"
     objecttolerance="10"
     gridtolerance="10"
     guidetolerance="10"
     inkscape:pageopacity="0"
     inkscape:pageshadow="2"
     inkscape:window-width="1440"
     inkscape:window-height="847"
     id="namedview8"
     showgrid="false"
     inkscape:zoom="0.3"
     inkscape:cx="700"
     inkscape:cy="286.66667"
     inkscape:window-x="0"
     inkscape:window-y="25"
     inkscape:window-maximized="1"
     inkscape:current-layer="svg6"
     showborder="false"
     inkscape:pagecheckerboard="0"
     inkscape:document-units="mm"
     inkscape:snap-global="true"
     inkscape:object-paths="false"
     inkscape:object-nodes="false"
     inkscape:snap-nodes="true"
     inkscape:snap-others="true"
     inkscape:snap-bbox="true"
     inkscape:snap-intersection-paths="false"
     inkscape:snap-bbox-midpoints="false"
     inkscape:bbox-paths="false"
     inkscape:bbox-nodes="true"
     inkscape:showpageshadow="2"
     inkscape:deskcolor="#d1d1d1" />
  <metadata
     id="metadata12">
    <rdf:RDF>
      <cc:Work
         rdf:about="">
        <dc:format>image/svg+xml</dc:format>
        <dc:type
           rdf:resource="http://purl.org/dc/dcmitype/StillImage" />
      </cc:Work>
    </rdf:RDF>
  </metadata>
  <defs
     id="defs10">
    <clipPath
       clipPathUnits="userSpaceOnUse"
       id="clipPath4848">
      <rect
         id="rect4850"
         width="414"
         height="416"
         x="-551"
         y="-193.40768"
         style="opacity:1;fill:#282c37;fill-opacity:1;stroke-width:1.16573"
         ry="86"
         rx="95" />
    </clipPath>
    <clipPath
       id="clipPath1852"
       clipPathUnits="userSpaceOnUse">
      <rect
         rx="95"
         ry="86"
         style="opacity:1;fill:#2b90d9;fill-opacity:1;stroke-width:1.16573"
         y="259.59225"
         x="-1670.7662"
         height="416"
         width="414"
         id="rect1854" />
    </clipPath>
    <clipPath
       clipPathUnits="userSpaceOnUse"
       id="clipPath1899">
      <rect
         id="rect1901"
         width="199.99997"
         height="199.99997"
         x="1051.7336"
         y="-344.40771"
         style="opacity:1;fill:#2b90d9;fill-opacity:1;stroke-width:0.561798"
         ry="0"
         rx="0" />
    </clipPath>
    <clipPath
       clipPathUnits="userSpaceOnUse"
       id="clipPath4520">
      <path
         d="M 0,600 H 600 V 0 H 0 Z"
         id="path4518" />
    </clipPath>
    <linearGradient
       id="paint0_linear_549_34"
       x1="37.069199"
       y1="0"
       x2="37.069199"
       y2="79"
       gradientUnits="userSpaceOnUse"
       gradientTransform="matrix(4.3517213,0,0,4.6756316,-995.68996,-749.53132)">
      <stop
         stop-color="#6364FF"
         id="stop1844" />
      <stop
         offset="1"
         stop-color="#563ACC"
         id="stop1846" />
    </linearGradient>
  </defs>
  <g
     id="g2"
     transform="matrix(2.9254631,0,0,2.9254631,-2712.2533,737.05504)"
     inkscape:export-filename="fosstodon.png"
     inkscape:export-xdpi="96"
     inkscape:export-ydpi="96"
     style="stroke-width:0.341826">
    <path
       transform="matrix(0.94732258,0,0,0.94732258,1216.4505,-428.15966)"
       id="path911-3"
       style="font-style:normal;font-variant:normal;font-weight:900;font-stretch:normal;font-size:medium;line-height:1.25;font-family:Roboto;-inkscape-font-specification:'Roboto Heavy';letter-spacing:0px;word-spacing:0px;opacity:1;fill:#523bc4;fill-opacity:1;stroke:none;stroke-width:3.46875;stroke-miterlimit:4;stroke-dasharray:none;stroke-opacity:1"
       inkscape:original="M -156.42773 188.26758 C -167.25356 188.26758 -177.02443 190.86091 -185.59961 196.05273 A 1.813129 1.813129 0 0 0 -185.60352 196.05469 C -194.12968 201.25211 -200.72673 208.6833 -205.3125 218.20312 A 1.813129 1.813129 0 0 0 -205.31445 218.20703 C -209.84336 227.67123 -212.08594 238.5775 -212.08594 250.85742 L -212.08594 257.78906 A 1.813129 1.813129 0 0 0 -212.08594 257.82422 C -211.85614 269.65862 -209.43511 280.22696 -204.79102 289.45703 A 1.813129 1.813129 0 0 0 -204.78711 289.46484 C -200.08526 298.69439 -193.49083 305.88825 -185.08203 310.91016 A 1.813129 1.813129 0 0 0 -185.07422 310.91406 C -176.665 315.87786 -167.01559 318.34961 -156.25781 318.34961 C -145.49033 318.34961 -135.80316 315.78789 -127.33789 310.65039 A 1.813129 1.813129 0 0 0 -127.33594 310.64844 C -118.80992 305.451 -112.21279 298.01984 -107.62695 288.5 C -103.04186 278.9816 -100.76953 268.0731 -100.76953 255.8457 L -100.76953 250.18164 A 1.813129 1.813129 0 0 0 -100.76953 250.17383 C -100.82701 238.1137 -103.18717 227.34158 -107.88672 217.9375 L -107.89062 217.93164 C -112.53272 208.47621 -119.12254 201.10758 -127.58984 195.96875 C -136.05344 190.83222 -145.7148 188.26758 -156.42773 188.26758 z M -39.945312 188.26758 C -49.208875 188.26758 -57.615824 189.76597 -65.125 192.79102 C -72.639205 195.76176 -78.57937 200.01422 -82.804688 205.54883 A 1.813129 1.813129 0 0 0 -82.806641 205.55078 C -86.983298 211.04009 -89.09375 217.48578 -89.09375 224.6543 C -89.09375 239.05077 -80.482573 250.55106 -64.162109 258.56836 C -64.162109 258.56836 -64.160156 258.56836 -64.160156 258.56836 C -64.160156 258.56836 -64.158203 258.57031 -64.158203 258.57031 C -59.147298 261.04668 -52.770464 263.5765 -45 266.18555 C -37.373133 268.74639 -32.113492 271.25403 -29.408203 273.4082 A 1.813129 1.813129 0 0 0 -29.396484 273.41797 C -26.710989 275.51753 -25.443359 278.22701 -25.443359 282.13477 C -25.443359 285.51371 -26.566647 287.80863 -29.025391 289.64062 C -31.439074 291.42449 -34.879378 292.41016 -39.521484 292.41016 C -46.932686 292.41016 -52.005652 290.87984 -54.947266 288.23438 C -57.861157 285.50767 -59.433594 281.22469 -59.433594 274.94922 A 1.813129 1.813129 0 0 0 -61.246094 273.13672 L -91 273.13672 A 1.813129 1.813129 0 0 0 -92.8125 274.94922 C -92.8125 283.36623 -90.687782 290.93472 -86.435547 297.49023 A 1.813129 1.813129 0 0 0 -86.423828 297.50586 C -82.09806 304.02406 -75.703559 309.14931 -67.396484 312.86719 A 1.813129 1.813129 0 0 0 -67.382812 312.87305 C -59.017837 316.53272 -49.710979 318.34961 -39.521484 318.34961 C -25.114348 318.34961 -13.558039 315.218 -5.0390625 308.76953 C 3.4822146 302.31941 7.8515625 293.1839 7.8515625 281.96484 C 7.8515625 267.90015 0.69263362 256.58875 -13.003906 248.69531 L -13.005859 248.69531 C -18.627611 245.44994 -25.72237 242.48133 -34.3125 239.75 L -34.324219 239.74609 C -42.732053 237.0169 -48.561338 234.3689 -51.611328 232.08398 C -54.705147 229.70983 -55.96875 227.41424 -55.96875 224.9082 C -55.96875 221.81206 -54.800425 219.51036 -52.119141 217.47461 A 1.813129 1.813129 0 0 0 -52.115234 217.47266 C -49.411446 215.40795 -45.648172 214.29297 -40.621094 214.29297 C -35.698745 214.29297 -32.073671 215.55147 -29.414062 217.96484 A 1.813129 1.813129 0 0 0 -29.400391 217.97656 C -26.70797 220.37525 -25.357422 223.64735 -25.357422 228.28906 A 1.813129 1.813129 0 0 0 -23.544922 230.10156 L 6.0390625 230.10156 A 1.813129 1.813129 0 0 0 7.8515625 228.28906 C 7.8515625 220.48375 5.8027521 213.44044 1.7167969 207.33789 C -2.3667499 201.18305 -8.1343897 196.43821 -15.445312 193.16211 C -22.694596 189.88821 -30.882165 188.26758 -39.945312 188.26758 z M 68.591797 188.26758 C 59.328236 188.26758 50.921225 189.76597 43.412109 192.79102 C 35.898004 195.76172 29.956018 200.01401 25.730469 205.54883 A 1.813129 1.813129 0 0 0 25.728516 205.55078 C 21.551684 211.04032 19.443359 217.48613 19.443359 224.6543 C 19.443359 239.05076 28.054463 250.55106 44.375 258.56836 C 44.375 258.56836 44.376953 258.56836 44.376953 258.56836 C 44.376953 258.56836 44.378906 258.57031 44.378906 258.57031 C 49.389646 261.04659 55.764682 263.57647 63.535156 266.18555 C 71.162179 268.74642 76.424002 271.25429 79.128906 273.4082 A 1.813129 1.813129 0 0 0 79.140625 273.41797 C 81.826121 275.51753 83.09375 278.22701 83.09375 282.13477 C 83.09375 285.51371 81.970463 287.80863 79.511719 289.64062 C 77.098134 291.42447 73.657731 292.41016 69.015625 292.41016 C 61.604355 292.41016 56.531378 290.87982 53.589844 288.23438 C 50.675899 285.50768 49.103516 281.2247 49.103516 274.94922 A 1.813129 1.813129 0 0 0 47.291016 273.13672 L 17.535156 273.13672 A 1.813129 1.813129 0 0 0 15.722656 274.94922 C 15.722656 283.36653 17.849556 290.93496 22.101562 297.49023 A 1.813129 1.813129 0 0 0 22.113281 297.50586 C 26.43905 304.02406 32.83355 309.14931 41.140625 312.86719 A 1.813129 1.813129 0 0 0 41.154297 312.87305 C 49.51927 316.53272 58.826061 318.34961 69.015625 318.34961 C 83.422622 318.34961 94.978929 315.21799 103.49805 308.76953 C 112.01932 302.31941 116.38867 293.1839 116.38867 281.96484 C 116.38867 267.90015 109.22982 256.58875 95.533203 248.69531 L 95.53125 248.69531 C 89.909562 245.44993 82.814813 242.48133 74.224609 239.75 L 74.212891 239.74609 C 65.805057 237.0169 59.975771 234.3689 56.925781 232.08398 C 53.832018 229.70983 52.568359 227.41421 52.568359 224.9082 C 52.568359 221.81143 53.735084 219.51014 56.416016 217.47461 A 1.813129 1.813129 0 0 0 56.419922 217.47266 C 59.123418 215.40817 62.888937 214.29297 67.916016 214.29297 C 72.838363 214.29297 76.463346 215.55144 79.123047 217.96484 A 1.813129 1.813129 0 0 0 79.136719 217.97656 C 81.828859 220.375 83.177734 223.64688 83.177734 228.28906 A 1.813129 1.813129 0 0 0 84.990234 230.10156 L 114.57617 230.10156 A 1.813129 1.813129 0 0 0 116.38867 228.28906 C 116.38867 220.48376 114.33995 213.44046 110.25391 207.33789 C 106.17043 201.18303 100.40272 196.43821 93.091797 193.16211 C 85.842454 189.88822 77.654946 188.26758 68.591797 188.26758 z M -301.35352 188.39453 A 1.813129 1.813129 0 0 0 -303.16602 190.20703 L -303.16602 316.41016 A 1.813129 1.813129 0 0 0 -301.35352 318.22266 L -270.92969 318.22266 A 1.813129 1.813129 0 0 0 -269.11719 316.41016 L -269.11719 267.94922 L -221.86914 267.94922 A 1.813129 1.813129 0 0 0 -220.05664 266.13672 L -220.05664 242.73438 A 1.813129 1.813129 0 0 0 -221.86914 240.92188 L -269.11719 240.92188 L -269.11719 215.50977 L -216.92969 215.50977 A 1.813129 1.813129 0 0 0 -215.11719 213.69727 L -215.11719 190.20703 A 1.813129 1.813129 0 0 0 -216.92969 188.39453 L -301.35352 188.39453 z M -156.42773 215.13867 C -149.32602 215.13867 -144.24052 217.91861 -140.45898 223.85352 A 1.813129 1.813129 0 0 0 -140.44922 223.86914 C -136.62776 229.73212 -134.57031 238.66418 -134.57031 250.68945 L -134.57031 256.35156 C -134.62668 268.09051 -136.67641 276.91309 -140.45898 282.84961 C -144.24467 288.79101 -149.27643 291.56445 -156.25781 291.56445 C -163.65095 291.56445 -168.82948 288.73051 -172.55078 282.70312 C -176.28577 276.65335 -178.28111 267.71308 -178.2832 255.86328 L -178.2832 255.84961 L -178.2832 255.8457 L -178.19922 246.86914 C -177.78418 235.91218 -175.62055 227.87726 -172 222.73828 C -168.37945 217.5993 -163.41312 215.13867 -156.42773 215.13867 z "
       inkscape:radius="2.2540035"
       sodipodi:type="inkscape:offset"
       d="m -156.42773,186.01367 c -11.18171,0 -21.3928,2.69696 -30.33008,8.10547 -0.003,0.002 -0.007,0.004 -0.01,0.006 a 2.2542289,2.2542289 0 0 0 -0.01,0.006 c -8.89109,5.41987 -15.7977,13.21079 -20.55078,23.06445 -0.001,0.003 -0.002,0.005 -0.004,0.008 a 2.2542289,2.2542289 0 0 0 -0.004,0.006 c -0.003,0.005 -0.005,0.0103 -0.008,0.0156 a 2.2542289,2.2542289 0 0 0 -0.004,0.01 c -4.69488,9.81105 -6.99218,21.06872 -6.99218,33.62305 v 6.93164 c -9e-5,0.0191 -1.9e-4,0.0376 0,0.0566 a 2.2542289,2.2542289 0 0 0 0,0.0215 c 0.23526,12.11558 2.72194,23.03732 7.53515,32.60351 0.001,0.003 0.003,0.005 0.004,0.008 a 2.2542289,2.2542289 0 0 0 0.006,0.01 c 4.87374,9.56697 11.77969,17.11564 20.55664,22.35742 a 2.2542289,2.2542289 0 0 0 0.0176,0.01 c 0.002,0.001 0.004,0.003 0.006,0.004 8.77573,5.1786 18.85654,7.74415 29.95703,7.74415 11.12497,0 21.25668,-2.66462 30.08984,-8.0254 a 2.2542289,2.2542289 0 0 0 0.006,-0.006 c 0.006,-0.004 0.0115,-0.008 0.0176,-0.0117 8.89132,-5.42502 15.79846,-13.22065 20.54883,-23.08203 4.75093,-9.86268 7.080075,-21.12617 7.080075,-33.63282 v -5.66015 -0.004 c 5e-6,-0.004 9e-6,-0.007 0,-0.0117 a 2.2542289,2.2542289 0 0 0 0,-0.006 c -0.05884,-12.34451 -2.481825,-23.47859 -7.351565,-33.22656 l -0.002,-0.004 c -6.5e-4,-0.001 -0.001,-0.003 -0.002,-0.004 a 2.2542289,2.2542289 0 0 0 -0.13868,-0.24024 l -0.004,-0.006 c -4.80376,-9.6702 -11.64616,-17.32605 -20.40625,-22.64257 -8.82951,-5.3586 -18.93516,-8.02735 -30.00781,-8.02735 z m 116.482418,0 c -9.501075,0 -18.20059,1.53881 -26.007813,4.68164 -0.0033,0.001 -0.0064,0.003 -0.0098,0.004 -0.0013,5.3e-4 -0.0026,0.001 -0.0039,0.002 -7.813879,3.09163 -14.125939,7.58218 -18.628906,13.48047 a 2.2542289,2.2542289 0 0 0 -0.0039,0.004 c -4.46996,5.87479 -6.748047,12.85784 -6.748047,20.46875 0,15.17477 9.260397,27.47593 25.816406,35.73047 L -65.75,260.16602 a 2.2542289,2.2542289 0 0 0 0.59375,0.42578 2.2542289,2.2542289 0 0 0 0.994141,0.23047 h -0.470703 c 5.067272,2.46727 11.31694,4.94849 18.916015,7.5 7.502375,2.51904 12.645887,5.05128 14.904297,6.8496 a 2.2542289,2.2542289 0 0 0 0.02734,0.0215 c 2.215347,1.73199 3.08789,3.5211 3.08789,6.94141 0,2.87685 -0.676674,4.20724 -2.671875,5.69531 -1.909607,1.40998 -4.83164,2.32617 -9.152343,2.32617 -7.084537,0 -11.588652,-1.51841 -13.898438,-3.58398 -2.340692,-2.19955 -3.759765,-5.73643 -3.759765,-11.62305 -7.39e-4,-2.1286 -1.937804,-4.06567 -4.066407,-4.06641 H -91 c -2.128603,7.4e-4 -4.065668,1.93781 -4.066406,4.06641 0,8.79632 2.243518,16.83516 6.740234,23.76758 a 2.2542289,2.2542289 0 0 0 0.02344,0.0352 c 0.0026,0.004 0.0052,0.008 0.0078,0.0117 4.590527,6.91173 11.364968,12.30511 19.978516,16.16016 a 2.2542289,2.2542289 0 0 0 0.02344,0.0117 c 0.0018,7.9e-4 0.004,0.001 0.0059,0.002 8.676444,3.79594 18.308199,5.66602 28.765625,5.66602 14.733749,0 26.822651,-3.20856 35.8437496,-10.03711 9.0422382,-6.84446 13.7832034,-16.79729 13.7832034,-28.60157 0,-14.82953 -7.7751098,-27.03372 -21.984375,-35.22265 a 2.2542289,2.2542289 0 0 0 -0.0098,-0.002 c -5.808949,-3.35232 -13.031186,-6.36734 -21.710937,-9.1289 l -0.01172,-0.004 a 2.2542289,2.2542289 0 0 0 -0.01758,-0.006 c -8.282339,-2.68845 -13.99735,-5.35539 -16.617188,-7.31445 -2.76266,-2.12273 -3.46875,-3.63298 -3.46875,-5.37891 0,-2.5291 0.678247,-3.90703 2.958985,-5.63867 a 2.2542289,2.2542289 0 0 0 0.0078,-0.006 c 2.213075,-1.68998 5.433164,-2.7168 10.126953,-2.7168 4.538156,0 7.497837,1.09742 9.691407,3.0879 a 2.2542289,2.2542289 0 0 0 0.0293,0.0254 2.2542289,2.2542289 0 0 0 0.01172,0.008 c 0.01018,0.009 0.01903,0.0186 0.0293,0.0273 l -0.04102,-0.0352 c 2.211769,1.97047 3.289063,4.42441 3.289063,8.6289 7.38e-4,2.12861 1.937803,4.06567 4.066406,4.06641 H 6.0390625 c 2.1286029,-7.4e-4 4.0656675,-1.9378 4.0664065,-4.06641 0,-8.19631 -2.1751534,-15.71977 -6.5097659,-22.19726 l -0.00586,-0.008 C -0.73784218,199.5647 -6.8750567,194.53324 -14.517578,191.10742 l -0.0059,-0.002 c -7.573782,-3.41938 -16.092332,-5.0918 -25.421874,-5.0918 z m 108.537109,0 c -9.501072,0 -18.20064,1.53881 -26.007813,4.68164 -0.0033,0.001 -0.0064,0.003 -0.0098,0.004 -0.0013,5.3e-4 -0.0026,0.001 -0.0039,0.002 -7.813642,3.09153 -14.127475,7.58173 -18.630859,13.48047 a 2.2542289,2.2542289 0 0 0 -0.0039,0.004 c -4.470356,5.87531 -6.746094,12.85861 -6.746094,20.46875 0,15.17476 9.260324,27.47593 25.816406,35.73047 l -0.21875,-0.21875 a 2.2542289,2.2542289 0 0 0 0.59375,0.42578 2.2542289,2.2542289 0 0 0 0.994141,0.23047 h -0.470703 c 5.066826,2.46709 11.314919,4.94844 18.914062,7.5 7.502615,2.51909 12.648703,5.05192 14.90625,6.8496 a 2.2542289,2.2542289 0 0 0 0.02734,0.0215 c 2.215348,1.73199 3.087891,3.5211 3.087891,6.94141 0,2.87685 -0.676675,4.20724 -2.671875,5.69531 -1.909464,1.40992 -4.831647,2.32617 -9.152344,2.32617 -7.084604,0 -11.588748,-1.51845 -13.898438,-3.58398 -2.340721,-2.19953 -3.759765,-5.7364 -3.759765,-11.62305 -7.38e-4,-2.1286 -1.937803,-4.06567 -4.066406,-4.06641 h -29.75586 c -2.128603,7.4e-4 -4.065668,1.93781 -4.066406,4.06641 0,8.797 2.245894,16.83569 6.742187,23.76758 a 2.2542289,2.2542289 0 0 0 0.02344,0.0352 c 0.0026,0.004 0.0052,0.008 0.0078,0.0117 4.590529,6.91173 11.364968,12.30511 19.978516,16.16016 a 2.2542289,2.2542289 0 0 0 0.02344,0.0117 c 0.0018,7.9e-4 0.004,0.001 0.0059,0.002 8.676439,3.79594 18.308132,5.66602 28.765625,5.66602 14.733614,0 26.822521,-3.20859 35.843755,-10.03711 9.04223,-6.84446 13.7832,-16.79729 13.7832,-28.60157 0,-14.82952 -7.77503,-27.03372 -21.984377,-35.22265 a 2.2542289,2.2542289 0 0 0 -0.0098,-0.002 c -5.808895,-3.35234 -13.031111,-6.36734 -21.710937,-9.1289 l -0.01172,-0.004 a 2.2542289,2.2542289 0 0 0 -0.01758,-0.006 c -8.282338,-2.68845 -13.99735,-5.35539 -16.617187,-7.31445 -2.762613,-2.12273 -3.46875,-3.63305 -3.46875,-5.37891 0,-2.53063 0.676909,-3.90746 2.957031,-5.63867 a 2.2542289,2.2542289 0 0 0 0.0078,-0.006 c 2.212312,-1.6894 5.435182,-2.7168 10.128907,-2.7168 4.538163,0 7.497713,1.09735 9.691406,3.0879 a 2.2542289,2.2542289 0 0 0 0.0293,0.0254 2.2542289,2.2542289 0 0 0 0.01172,0.008 c 0.01018,0.009 0.01903,0.0186 0.0293,0.0273 l -0.04102,-0.0352 c 2.211142,1.96991 3.287109,4.42336 3.287109,8.6289 7.38e-4,2.12861 1.937803,4.06567 4.066406,4.06641 h 29.585936 c 2.1286,-7.4e-4 4.06567,-1.9378 4.06641,-4.06641 0,-8.19628 -2.17506,-15.71973 -6.50977,-22.19726 l -0.006,-0.008 c -4.32763,-6.51933 -10.4649,-11.55074 -18.107419,-14.97656 l -0.0059,-0.002 c -7.573829,-3.41936 -16.092329,-5.0918 -25.421875,-5.0918 z m -369.945317,0.12695 c -2.1286,7.4e-4 -4.06566,1.93781 -4.0664,4.06641 v 126.20313 c 7.4e-4,2.1286 1.9378,4.06566 4.0664,4.0664 h 30.42383 c 2.12861,-7.4e-4 4.06567,-1.9378 4.06641,-4.0664 v -46.20704 h 44.99414 c 2.1286,-7.3e-4 4.06567,-1.9378 4.06641,-4.0664 v -23.40235 c -7.4e-4,-2.1286 -1.93781,-4.06566 -4.06641,-4.0664 h -44.99414 v -20.9043 h 49.93359 c 2.12861,-7.4e-4 4.06567,-1.9378 4.06641,-4.0664 v -23.49024 c -7.4e-4,-2.1286 -1.9378,-4.06567 -4.06641,-4.06641 z m 144.92579,31.25196 c 6.5099,0 10.60288,2.23899 14.0625,7.66406 0.002,0.003 0.004,0.005 0.006,0.008 0.002,0.003 0.002,0.005 0.004,0.008 a 2.2542289,2.2542289 0 0 0 0.0176,0.0273 c 3.45171,5.2957 5.51367,13.82168 5.51367,25.58984 v 5.66211 c -0.0566,11.47559 -2.09938,19.89486 -5.53515,25.28711 -3.47013,5.44614 -7.51402,7.67188 -13.89844,7.67188 -6.81713,0 -10.97885,-2.29027 -14.375,-7.79102 -3.40205,-5.51048 -5.39444,-14.05929 -5.39649,-25.65625 v -0.008 -0.006 l 0.084,-8.91211 c 0.40723,-10.69256 2.56206,-18.32279 5.78711,-22.90039 3.25671,-4.62255 7.2744,-6.64453 13.73047,-6.64453 z" />
    <path
       inkscape:connector-curvature="0"
       id="path4874-6"
       d="m 1718.6538,-251.94471 c -16.2999,0.13322 -31.9788,1.89793 -41.1161,6.0946 0,0 -18.1213,8.10598 -18.1213,35.76535 0,6.33262 -0.125,13.90716 0.077,21.93799 0.6579,27.0486 4.9584,53.70535 29.9662,60.32523 11.5315,3.05121 21.4313,3.69117 29.4052,3.25257 14.4584,-0.8011 22.5755,-5.16047 22.5755,-5.16047 l -0.4778,-10.49252 c 0,0 -10.3321,3.25979 -21.9362,2.86286 -11.4972,-0.3942 -23.6344,-1.24134 -25.4939,-15.35649 -0.1713,-1.2397 -0.258,-2.56576 -0.258,-3.95861 0,0 11.2866,2.76101 25.5904,3.41618 8.7457,0.40054 16.946,-0.51325 25.2767,-1.50827 15.9755,-1.90757 29.8842,-11.74891 31.6332,-20.74307 0,-0.0121 0.011,-0.0245 0.011,-0.0367 v -31.40812 c 0,-6.85278 -2.8837,-10.32988 -8.651,-10.32988 -6.3751,0 -9.5713,4.12469 -9.5713,12.2824 v 17.79195 h -13.1897 v -17.79195 c 0,-8.15771 -3.197,-12.2824 -9.5722,-12.2824 -5.7672,0 -8.649,3.4771 -8.649,10.32988 v 32.50584 h -13.2682 v -33.49053 c 0,-6.84463 1.743,-12.28398 5.2436,-16.30847 3.6105,-4.02357 8.3375,-6.08567 14.2054,-6.08567 6.7902,0 11.9325,2.6092 15.3308,7.82898 l 3.3051,5.53927 3.3049,-5.53927 c 3.3992,-5.21978 8.5397,-7.82898 15.3309,-7.82898 1.7223,0 3.3444,0.18167 4.8709,0.53449 -5.3173,-12.02388 -14.2906,-16.05163 -14.2906,-16.05163 -9.1374,-4.19666 -24.8261,-5.96137 -41.126,-6.09459 z"
       style="fill:#150738;fill-opacity:1;stroke:none;stroke-width:0.248646;stroke-opacity:1" />
    <path
       transform="matrix(0.94732258,0,0,0.94732258,1216.4505,-428.42609)"
       id="path919-7"
       style="font-style:normal;font-variant:normal;font-weight:900;font-stretch:normal;font-size:medium;line-height:1.25;font-family:Roboto;-inkscape-font-specification:'Roboto Heavy';letter-spacing:0px;word-spacing:0px;opacity:1;fill:#150738;fill-opacity:1;stroke:none;stroke-width:3.46875;stroke-miterlimit:4;stroke-dasharray:none;stroke-opacity:1"
       inkscape:original="M 291.1875 190.08008 C 280.64941 190.08008 271.23714 192.58806 262.95312 197.60352 C 254.72557 202.61896 248.38746 209.74827 243.93555 218.99023 C 239.54003 228.17583 237.3418 238.7978 237.3418 250.85742 L 237.3418 257.78906 C 237.56715 269.39786 239.93311 279.68239 244.44141 288.64258 C 249.00596 297.60277 255.34602 304.50712 263.46094 309.35352 C 271.57585 314.14355 280.87369 316.53711 291.35547 316.53711 C 301.8371 316.53711 311.16463 314.0587 319.33594 309.09961 C 327.56349 304.08416 333.90348 296.95485 338.35547 287.71289 C 342.80738 278.47094 345.0332 267.84898 345.0332 255.8457 L 345.0332 250.18164 C 344.9768 238.34742 342.66618 227.86557 338.10156 218.73633 C 333.59334 209.55072 327.25334 202.47863 319.08203 197.51953 C 310.91079 192.56043 301.61281 190.08008 291.1875 190.08008 z M 127.83203 190.20703 L 127.83203 213.69727 L 165.01758 213.69727 L 165.01758 316.41016 L 195.44141 316.41016 L 195.44141 213.69727 L 233.32031 213.69727 L 233.32031 190.20703 L 127.83203 190.20703 z M 360.62891 190.20703 L 360.62891 316.41016 L 402.14648 316.41016 C 413.0678 316.35236 422.94984 313.75226 431.79102 308.60938 C 440.69 303.4087 447.56602 296.24335 452.41992 287.11328 C 457.33164 277.92543 459.78711 267.55315 459.78711 255.99609 L 459.78711 250.18945 C 459.72941 238.74797 457.18742 228.432 452.16016 219.24414 C 447.19056 209.99851 440.25634 202.86326 431.35742 197.83594 C 422.4585 192.75085 412.43382 190.20703 401.28125 190.20703 L 360.62891 190.20703 z M 600.24023 190.20703 L 600.24023 316.41016 L 630.66406 316.41016 L 630.66406 237.88086 L 675.39062 316.41016 L 705.64062 316.41016 L 705.64062 190.20703 L 675.30469 190.20703 L 675.30469 268.73828 L 630.66406 190.20703 L 600.24023 190.20703 z M 291.1875 213.32617 C 298.79511 213.32617 304.62809 216.51097 308.68555 222.87891 C 312.79939 229.19049 314.85547 238.46077 314.85547 250.68945 L 314.85547 256.35156 C 314.79907 268.29848 312.74301 277.45629 308.68555 283.82422 C 304.62809 290.19215 298.85037 293.37695 291.35547 293.37695 C 283.46598 293.37695 277.52066 290.13688 273.51953 283.65625 C 269.51846 277.17561 267.51953 267.90533 267.51953 255.8457 L 267.60352 246.80078 C 268.44882 224.48484 276.31013 213.32617 291.1875 213.32617 z M 391.05273 213.69727 L 401.28125 213.69727 C 410.23791 213.69727 417.05573 216.78964 421.73633 222.97266 C 426.41701 229.15567 428.75781 238.34247 428.75781 250.53516 L 428.75781 255.99609 C 428.75781 268.24657 426.41701 277.49162 421.73633 283.73242 C 417.05573 289.91545 410.35243 293.00781 401.62695 293.00781 L 391.05273 293.00781 L 391.05273 213.69727 z "
       inkscape:radius="3.7850056"
       sodipodi:type="inkscape:offset"
       d="m 291.1875,186.29492 c -11.13861,0 -21.30294,2.68654 -30.19531,8.07031 a 3.7853841,3.7853841 0 0 0 -0.01,0.006 c -8.85103,5.39552 -15.72585,13.15485 -20.45703,22.97657 a 3.7853841,3.7853841 0 0 0 -0.004,0.008 c -4.67383,9.76721 -6.96484,20.98239 -6.96484,33.50195 v 6.93164 a 3.7853841,3.7853841 0 0 0 0,0.0742 c 0.23449,12.0794 2.71192,22.95646 7.50391,32.48047 a 3.7853841,3.7853841 0 0 0 0.008,0.0176 c 4.85104,9.52256 11.72272,17.02937 20.45117,22.24219 a 3.7853841,3.7853841 0 0 0 0.0176,0.01 c 8.72947,5.15279 18.76037,7.70899 29.81836,7.70899 11.07827,0 21.15807,-2.65463 29.94336,-7.98633 a 3.7853841,3.7853841 0 0 0 0.008,-0.004 c 8.85082,-5.39539 15.72755,-13.15449 20.45898,-22.97656 4.72993,-9.81911 7.05274,-21.03859 7.05274,-33.50977 v -5.66406 a 3.7853841,3.7853841 0 0 0 0,-0.0176 c -0.0587,-12.3139 -2.47752,-23.40776 -7.33008,-33.11523 -4.78761,-9.7459 -11.65624,-17.4328 -20.44336,-22.76563 -8.78139,-5.3294 -18.83178,-7.98828 -29.85742,-7.98828 z m -163.35547,0.12695 a 3.7853841,3.7853841 0 0 0 -3.78515,3.78516 v 23.49024 a 3.7853841,3.7853841 0 0 0 3.78515,3.78515 h 33.40039 v 98.92774 a 3.7853841,3.7853841 0 0 0 3.78516,3.78515 h 30.42383 a 3.7853841,3.7853841 0 0 0 3.78515,-3.78515 v -98.92774 h 34.09375 a 3.7853841,3.7853841 0 0 0 3.78516,-3.78515 v -23.49024 a 3.7853841,3.7853841 0 0 0 -3.78516,-3.78516 z m 232.79688,0 a 3.7853841,3.7853841 0 0 0 -3.78516,3.78516 v 126.20313 a 3.7853841,3.7853841 0 0 0 3.78516,3.78515 h 41.51757 a 3.7853841,3.7853841 0 0 0 0.0195,0 c 11.50994,-0.0609 22.10585,-2.83401 31.52734,-8.31445 a 3.7853841,3.7853841 0 0 0 0.008,-0.004 c 9.47071,-5.5348 16.89273,-13.26865 22.05664,-22.97851 l 0.002,-0.006 c 5.22088,-9.76846 7.8125,-20.80556 7.8125,-32.89649 v -5.80664 a 3.7853841,3.7853841 0 0 0 0,-0.0195 c -0.0605,-11.98808 -2.7481,-22.97474 -8.0879,-32.73633 -5.27947,-9.81455 -12.769,-17.52835 -22.26367,-22.89257 h -0.002 c -9.4862,-5.41701 -20.21566,-8.11914 -31.9375,-8.11915 z m 239.61132,0 a 3.7853841,3.7853841 0 0 0 -3.78515,3.78516 v 126.20313 a 3.7853841,3.7853841 0 0 0 3.78515,3.78515 h 30.42383 a 3.7853841,3.7853841 0 0 0 3.78516,-3.78515 v -64.23633 l 37.65234,66.10937 a 3.7853841,3.7853841 0 0 0 3.28906,1.91211 h 30.25 a 3.7853841,3.7853841 0 0 0 3.78516,-3.78515 V 190.20703 a 3.7853841,3.7853841 0 0 0 -3.78516,-3.78516 h -30.33593 a 3.7853841,3.7853841 0 0 0 -3.78516,3.78516 v 64.21094 l -37.56445,-66.08203 a 3.7853841,3.7853841 0 0 0 -3.29102,-1.91407 z M 291.1875,217.11133 c 6.55125,0 10.82525,2.33694 14.30664,7.80078 a 3.7853841,3.7853841 0 0 0 0.0195,0.0332 c 3.50309,5.37455 5.55664,13.93974 5.55664,25.74414 v 5.66211 c -0.0565,11.51221 -2.09293,19.97273 -5.57617,25.43946 -3.48976,5.47696 -7.71602,7.80078 -14.13867,7.80078 -6.8532,0 -11.19834,-2.38949 -14.61524,-7.92383 -3.44887,-5.58623 -5.43483,-14.17822 -5.43554,-25.81641 0,-0.002 0,-0.004 0,-0.006 l 0.082,-8.90234 c 1.9e-4,-0.005 0.002,-0.009 0.002,-0.0137 0.40817,-10.73056 2.55815,-18.39667 5.83985,-23.05469 3.2832,-4.66016 7.46661,-6.76367 13.95898,-6.76367 z m 103.65039,0.37109 h 6.44336 c 8.08545,0 13.45792,2.51842 17.4375,7.77539 3.95821,5.22866 6.25391,13.56911 6.25391,25.27735 v 5.46093 c 0,11.7629 -2.29364,20.16664 -6.25782,25.45703 -3.99697,5.2767 -9.25957,7.76954 -17.08789,7.76954 h -6.78906 z" />
  </g>
</svg>
