<svg width="160" height="40" viewBox="0 0 160 40" fill="none" xmlns="http://www.w3.org/2000/svg">
<path d="M77.4847 16.2868C78.0938 15.3331 78.9218 14.5385 79.8999 13.9691C80.8733 13.3874 81.9889 13.0865 83.123 13.1V18.9273H81.6066C80.233 18.9273 79.2025 19.2276 78.5149 19.8283C77.8273 20.4085 77.4839 21.4388 77.4847 22.9193V31.2593H71.9766V13.2928H77.4847V16.2868Z" fill="#220059"/>
<path d="M104.429 13.293L94.2943 37.1211H88.4375L91.3536 30.647L84.043 13.293H90.1945L94.352 24.5301L98.4714 13.293H104.429Z" fill="#220059"/>
<path d="M112.123 31.5166C110.557 31.5166 109.161 31.2485 107.938 30.7125C106.714 30.1765 105.748 29.4465 105.039 28.5225C104.342 27.6097 103.928 26.513 103.848 25.3677H109.289C109.317 25.668 109.409 25.9589 109.559 26.2205C109.709 26.4822 109.913 26.7084 110.159 26.8837C110.674 27.2692 111.308 27.4623 112.059 27.4632C112.746 27.4632 113.272 27.3343 113.637 27.0765C113.815 26.962 113.961 26.8046 114.063 26.6189C114.164 26.4331 114.217 26.2249 114.217 26.0134C114.217 25.4995 113.948 25.1238 113.411 24.8865C112.875 24.6295 112.006 24.3505 110.803 24.0493C109.711 23.8067 108.636 23.4951 107.583 23.1164C106.727 22.7749 105.965 22.2341 105.36 21.539C104.737 20.809 104.426 19.8322 104.427 18.6088C104.417 17.6119 104.709 16.6352 105.265 15.8075C105.844 14.9498 106.681 14.2739 107.776 13.7796C108.893 13.2885 110.214 13.043 111.738 13.043C113.992 13.043 115.763 13.6012 117.051 14.7174C118.36 15.8329 119.112 17.3141 119.305 19.1612H114.217C114.185 18.8701 114.094 18.5885 113.95 18.3335C113.806 18.0784 113.612 17.8551 113.379 17.6771C112.929 17.3121 112.328 17.1296 111.576 17.1296C110.932 17.1296 110.439 17.2585 110.095 17.5162C109.93 17.624 109.796 17.7725 109.706 17.9474C109.615 18.1223 109.572 18.3176 109.579 18.5143C109.579 19.0298 109.848 19.4161 110.385 19.6731C110.942 19.9309 111.802 20.1886 112.963 20.4464C114.069 20.7176 115.155 21.0616 116.216 21.4764C117.072 21.8112 117.826 22.3633 118.404 23.0783C119.047 23.8075 119.38 24.7949 119.402 26.0404C119.413 27.0572 119.096 28.0505 118.499 28.8736C117.917 29.6912 117.069 30.3373 115.955 30.8119C114.859 31.2825 113.582 31.5174 112.123 31.5166Z" fill="#220059"/>
<path d="M131.819 26.5907V31.2554H129.018C127.023 31.2554 125.468 30.773 124.352 29.8081C123.236 28.8212 122.678 27.2221 122.676 25.0108V17.864H120.484V13.2938H122.674V10.3833L128.157 8.91016H128.183V13.2938H131.788V17.864H128.185V25.0784C128.185 25.6124 128.308 26.0003 128.57 26.2347C128.831 26.4692 129.257 26.5907 129.858 26.5907H131.819Z" fill="#220059"/>
<path d="M159.998 7.48633V31.312H154.488V8.96185L159.995 7.48633H159.998Z" fill="#220059"/>
<path d="M70.6352 31.2587H63.9041L58.2818 23.8725L56.3063 26.3706V31.2587H50.7969V8.6582H56.3063V18.5744L63.8415 8.6582H70.3135L61.5528 19.7344L70.6352 31.2587Z" fill="#220059"/>
<path d="M132.828 22.2449C132.828 20.3986 133.171 18.7778 133.858 17.3825C134.566 15.9913 135.522 14.918 136.724 14.1626C137.931 13.4101 139.328 13.0191 140.75 13.0357C142.017 13.0357 143.122 13.2935 144.065 13.8091C144.976 14.2723 145.743 14.973 146.288 15.837V13.2935H151.795V31.2601H146.288V28.7166C145.725 29.5768 144.948 30.2758 144.033 30.7445C143.09 31.2601 141.985 31.5174 140.718 31.5166C139.307 31.5302 137.92 31.1391 136.724 30.3897C135.522 29.6172 134.567 28.5332 133.858 27.1379C133.171 25.7213 132.827 24.0903 132.828 22.2449ZM146.289 22.2768C146.289 20.9036 145.903 19.8196 145.13 19.025C144.779 18.6412 144.351 18.3364 143.873 18.1309C143.396 17.9253 142.88 17.8238 142.36 17.833C141.821 17.8256 141.285 17.9277 140.787 18.133C140.288 18.3383 139.836 18.6426 139.458 19.0274C138.707 19.8 138.331 20.8733 138.331 22.2473C138.331 23.6214 138.707 24.7168 139.458 25.5335C139.836 25.9178 140.288 26.2214 140.787 26.4261C141.286 26.6307 141.821 26.7322 142.36 26.7242C142.88 26.7338 143.396 26.6325 143.874 26.4272C144.352 26.2219 144.78 25.9172 145.131 25.5335C145.903 24.7364 146.289 23.6508 146.289 22.2768Z" fill="#220059"/>
<path d="M39.591 8.61132L19.7969 13.6676L0.0078125 8.61255L9.2952 0H30.306L39.591 8.61132Z" fill="#220059"/>
<path d="M39.6021 12.6973L21.7812 39.9994V17.2478L39.6021 12.6973Z" fill="#220059"/>
<path d="M17.8197 17.251V40.0001L0 12.6992L17.8197 17.251Z" fill="#220059"/>
</svg>
