<?xml version="1.0" encoding="UTF-8"?>
<svg id="Layer_2" data-name="Layer 2" xmlns="http://www.w3.org/2000/svg" viewBox="0 0 1720 340.05">
  <defs>
    <style>
      .cls-1 {
        fill: #f0021d;
        stroke-width: 0px;
      }
    </style>
  </defs>
  <g id="Layer_1-2" data-name="Layer 1">
    <g>
      <g>
        <path class="cls-1" d="M150.51,48.03V6.84c0-3.78-3.06-6.84-6.84-6.84s-6.84,3.06-6.84,6.84v41.19c0,3.78,3.06,6.84,6.84,6.84s6.84-3.06,6.84-6.84Z"/>
        <path class="cls-1" d="M280.51,137.17h-41.01c-3.79,0-6.86,3.07-6.86,6.86s3.07,6.86,6.86,6.86h41.01c3.79,0,6.86-3.07,6.86-6.86s-3.07-6.86-6.86-6.86Z"/>
        <path class="cls-1" d="M47.87,137.17H6.86c-3.79,0-6.86,3.07-6.86,6.86s3.07,6.86,6.86,6.86h41.01c3.79,0,6.86-3.07,6.86-6.86s-3.07-6.86-6.86-6.86Z"/>
        <path class="cls-1" d="M206.2,21.8l-20.53,35.65c-1.89,3.28-.76,7.47,2.51,9.36,3.27,1.89,7.45.77,9.34-2.5l20.53-35.65c1.89-3.28.76-7.47-2.51-9.36-3.27-1.89-7.45-.77-9.34,2.5Z"/>
        <path class="cls-1" d="M220.17,189.34c-1.61,2.91-.59,6.58,2.29,8.24l5.09,2.95c3.33,1.93,5.46,5.6,4.46,9.32-6.53,24.48-44.32,43.95-88.35,43.95s-81.82-19.48-88.35-43.95c-.99-3.72,1.13-7.39,4.46-9.32l4.36-2.52c3.27-1.89,4.39-6.07,2.5-9.35-1.89-3.28-6.09-4.4-9.36-2.51l-35.56,20.58c-3.27,1.89-4.39,6.07-2.5,9.35,1.89,3.28,6.09,4.4,9.36,2.5l1.97-1.14c5.39-3.12,12.35.02,15.19,5.56,12.65,24.72,47.58,42.5,90.53,44.33,4.4.19,8.32,2.95,9.76,7.1l5.64,16.34c6.77,19.58,25.14,31.93,44.74,31.93,5.13,0,10.33-.86,15.43-2.61,11.9-4.12,21.52-12.69,27.02-24.11,5.54-11.42,6.33-24.28,2.19-36.21l-6.36-18.42c-1.24-3.59-.35-7.53,1.94-10.57,1.89-2.52,3.53-5.13,4.91-7.83,2.83-5.55,9.79-8.69,15.18-5.56l1.97,1.14c3.28,1.9,7.47.78,9.36-2.5,1.89-3.27.77-7.45-2.5-9.35l-34.82-20.15c-3.69-2.13-8.4-.88-10.55,2.8ZM226.63,290s-.02.03-.03.04c-3.94,8.12-10.77,14.18-19.18,17.12-17.51,6.07-36.7-3.26-42.76-20.85l-2.37-6.87c-2.2-6.36,2.19-13.07,8.83-14.18,1.41-.24,2.82-.49,4.2-.77,5.32-1.05,10.76,1.79,12.53,6.92l2.79,8.07c1.24,3.58,5.14,5.47,8.72,4.23,3.57-1.24,5.46-5.13,4.22-8.7l-2.59-7.5c-1.82-5.26.89-10.95,5.9-13.38.99-.48,1.97-.98,2.94-1.48,6.14-3.21,14.14-.69,16.4,5.86l1.98,5.75c2.9,8.46,2.36,17.58-1.56,25.7,0,.02-.02.03-.03.04Z"/>
        <path class="cls-1" d="M64.15,90.05l-35.53-20.57c-3.28-1.9-7.46-.77-9.35,2.51-1.89,3.28-.76,7.48,2.51,9.37l35.53,20.57c3.28,1.9,7.46.77,9.35-2.51,1.89-3.28.76-7.48-2.51-9.37Z"/>
        <path class="cls-1" d="M101.71,57.46l-20.53-35.65c-1.89-3.28-6.07-4.4-9.34-2.5-3.27,1.89-4.4,6.09-2.51,9.36l20.53,35.65c1.89,3.28,6.07,4.4,9.34,2.5,3.27-1.89,4.39-6.09,2.51-9.36Z"/>
        <path class="cls-1" d="M258.74,69.53l-35.53,20.57c-3.28,1.9-4.4,6.09-2.51,9.37,1.89,3.28,6.08,4.4,9.35,2.51l35.53-20.57c3.28-1.9,4.4-6.09,2.51-9.37-1.89-3.28-6.08-4.4-9.35-2.51Z"/>
      </g>
      <g>
        <path class="cls-1" d="M1613.23,340.05c-4.15,0-7-4.18-5.49-8.04l25.67-65.61c.55-1.42.53-3-.05-4.41l-60.78-146.44c-1.61-3.88,1.24-8.15,5.45-8.15h19.17c2.43,0,4.61,1.49,5.49,3.75l40.96,105.13c1.99,5.1,9.25,4.97,11.1-.18.59-1.64,1.18-3.26,1.77-4.86l34.38-99.87c.81-2.38,3.05-3.98,5.57-3.98h17.63c4.12,0,6.97,4.11,5.52,7.97l-82.9,220.86c-.87,2.3-3.07,3.82-5.52,3.82h-17.97Z"/>
        <path class="cls-1" d="M1549.36,272.61c-24.28,0-46.2-11.8-46.2-47.88v-87.5c0-3.26-2.63-5.89-5.89-5.89h-18.56c-3.25,0-5.89-2.64-5.89-5.9v-12.15c0-3.25,2.64-5.89,5.89-5.89h18.56c3.26,0,5.89-2.64,5.89-5.89v-41.82c0-3.26,2.64-5.89,5.9-5.89h17.21c3.25,0,5.89,2.64,5.89,5.89v41.82c0,3.25,2.64,5.89,5.9,5.89h21.92c3.26,0,5.9,2.64,5.9,5.89v12.15c0,3.26-2.64,5.9-5.9,5.9h-21.92c-3.26,0-5.9,2.64-5.9,5.89v84.47c0,18.88,9.44,24.95,23.94,24.95,1.87,0,3.6-.07,5.39-.22,3.57-.29,6.75,2.41,6.75,6v13.42c0,2.76-1.92,5.18-4.64,5.63-4.56.75-9.21,1.12-14.24,1.12Z"/>
        <path class="cls-1" d="M1435.43,269.91c-3.26,0-5.9-2.64-5.9-5.9V113.29c0-3.25,2.64-5.89,5.9-5.89h17.21c3.25,0,5.89,2.64,5.89,5.89v150.73c0,3.26-2.64,5.9-5.89,5.9h-17.21ZM1432.73,76.72c-3.25,0-5.89-2.64-5.89-5.89v-22.94c0-3.26,2.64-5.89,5.89-5.89h21.93c3.26,0,5.89,2.64,5.89,5.89v22.94c0,3.26-2.63,5.89-5.89,5.89h-21.93Z"/>
        <path class="cls-1" d="M1373.26,269.91c-3.25,0-5.89-2.64-5.89-5.9V39.79c0-3.26,2.64-5.89,5.89-5.89h17.21c3.26,0,5.89,2.64,5.89,5.89v224.23c0,3.26-2.63,5.9-5.89,5.9h-17.21Z"/>
        <path class="cls-1" d="M1311.1,269.91c-3.26,0-5.9-2.64-5.9-5.9V113.29c0-3.25,2.64-5.89,5.9-5.89h17.2c3.26,0,5.9,2.64,5.9,5.89v150.73c0,3.26-2.64,5.9-5.9,5.9h-17.2ZM1308.4,76.72c-3.26,0-5.9-2.64-5.9-5.89v-22.94c0-3.26,2.64-5.89,5.9-5.89h21.93c3.25,0,5.89,2.64,5.89,5.89v22.94c0,3.26-2.64,5.89-5.89,5.89h-21.93Z"/>
        <path class="cls-1" d="M1207.42,274.97c-17.28,0-33.18-6.51-44.23-16.96-2.85-2.7-8.71-.79-8.71,3.14v2.87c0,3.26-2.63,5.9-5.89,5.9h-17.21c-3.25,0-5.89-2.64-5.89-5.9V39.79c0-3.26,2.64-5.89,5.89-5.89h17.21c3.26,0,5.89,2.64,5.89,5.89v76.37c0,4.12,5.69,6.13,8.71,3.33,10.82-10,26.09-17.49,44.9-17.49,47.21,0,74.86,37.09,74.86,86.65s-29.67,86.31-75.53,86.31ZM1152.8,188.32c0,38.1,20.57,64.06,49.9,64.06s49.9-25.96,49.9-63.72-19.55-63.73-49.9-63.73-49.9,23.94-49.9,63.39Z"/>
        <path class="cls-1" d="M1022.32,274.97c-31.02,0-55.97-18.88-55.97-49.56s24.95-46.19,53.95-50.58l34.73-5.4c12.47-2.02,16.52-6.41,16.52-16.18,0-17.87-13.83-28.32-32.71-28.32-22.53,0-35.16,10.73-37.9,27.71-.5,3.14-3.06,5.67-6.23,5.67h-17.2c-3.33,0-6.03-2.77-5.58-6.07,3.77-27.14,26.56-50.23,64.55-50.23,40.46,0,63.39,23.94,63.39,61.36v100.65c0,3.26-2.64,5.9-5.89,5.9h-15.86c-3.26,0-5.9-2.64-5.9-5.9v-2.2c0-3.35-5.5-4.91-7.81-2.49-9.48,9.95-23.89,15.64-42.09,15.64ZM996.36,225.41c0,16.86,13.49,26.97,30.01,26.97,25.96,0,45.18-17.53,45.18-43.83v-4.47c0-5.83-12.12-13.38-17.87-12.39l-23.6,4.38c-19.22,3.71-33.72,12.14-33.72,29.33Z"/>
        <path class="cls-1" d="M835.9,269.91c-3.26,0-5.89-2.64-5.89-5.9V39.79c0-3.26,2.64-5.89,5.89-5.89h17.21c3.25,0,5.89,2.64,5.89,5.89v121.65c0,5.37,6.7,8.04,10.59,4.35.74-.7,1.48-1.4,2.22-2.08l53.56-54.54c1.11-1.13,2.62-1.76,4.21-1.76h19.46c5.29,0,7.9,6.42,4.12,10.11l-56.49,55.14c-2.23,2.17-2.38,5.7-.35,8.06l68.28,79.46c3.29,3.82.57,9.74-4.47,9.74h-23.83c-1.76,0-3.43-.79-4.55-2.15l-54.85-66.73c-2.19-2.67-6.2-2.89-8.67-.48l-7.45,7.27c-1.14,1.11-1.78,2.63-1.78,4.22v51.97c0,3.26-2.64,5.9-5.89,5.9h-17.21Z"/>
        <path class="cls-1" d="M736.55,274.97c-44.17,0-80.58-29-80.58-86.65,0-51.25,35.74-86.32,81.93-86.32,36.16,0,63.96,20.58,69.94,53.61.62,3.41-2.12,6.4-5.59,6.4h-18.35c-2.97,0-5.44-2.22-6.1-5.12-4.24-18.62-18.29-31.97-40.57-31.97-31.02,0-51.25,27.31-51.25,63.39,0,38.77,20.57,64.06,51.92,64.06,22.14,0,37.64-11.82,42.25-31.99.66-2.89,3.12-5.1,6.08-5.1h17.06c3.45,0,6.19,2.96,5.61,6.37-5.43,31.91-30.57,53.31-72.36,53.31Z"/>
        <path class="cls-1" d="M610.15,269.91c-3.26,0-5.9-2.64-5.9-5.9V113.29c0-3.25,2.64-5.89,5.9-5.89h17.21c3.26,0,5.9,2.64,5.9,5.89v150.73c0,3.26-2.64,5.9-5.9,5.9h-17.21ZM607.45,76.72c-3.26,0-5.9-2.64-5.9-5.89v-22.94c0-3.26,2.64-5.89,5.9-5.89h21.93c3.26,0,5.9,2.64,5.9,5.89v22.94c0,3.26-2.64,5.89-5.9,5.89h-21.93Z"/>
        <path class="cls-1" d="M445.05,269.91c-3.26,0-5.89-2.64-5.89-5.9V39.79c0-3.26,2.64-5.89,5.89-5.89h18.89c3.26,0,5.89,2.64,5.89,5.89v198.27c0,3.25,2.64,5.89,5.89,5.89h111.28c3.26,0,5.89,2.64,5.89,5.9v14.17c0,3.26-2.64,5.9-5.89,5.9h-141.96Z"/>
      </g>
    </g>
  </g>
</svg>