<svg width="120" height="54" viewBox="0 0 120 54" fill="none" xmlns="http://www.w3.org/2000/svg">
<path d="M70.7 44.8H70.5C68.1 50.8 62.1 53.5 55.9 53.5C47.9 53.5 42 49.5 42 41C42 29.9 54.3 29.2 62.4 29.2H70.8V26.3C70.8 19.3 66.9 15.9 59.8 15.9C53.8 15.9 49.2 18.3 48.4 24.3H43.5C44.5 15.7 51.1 12.5 59.4 12.5C69.4 12.5 75.1 16 75.1 26.2V49.3H78.6V52.6H70.7V44.8V44.8ZM56.8 50.2C67.2 50.2 70.7 41.8 70.7 32.4H61.6C55.8 32.4 46.8 33.4 46.8 41.2C46.8 46.9 51.5 50.2 56.8 50.2V50.2ZM120 16.8V13.4H103.8V16.8H109L90.4 35.3V0H81.5V3.3H86.1V49.3H81.7V52.6H96.9V49.3H90.4V40L99.3 31.3L110.7 49.3H105.3V52.6H120V49.3H116L102.5 28.1L114 16.8H120ZM18.6 12.6C30 12.6 37.2 20.8 37.2 33.1C37.2 45.4 30 53.5 18.6 53.5C7.2 53.5 0 45.3 0 33C0 20.7 7.2 12.6 18.6 12.6ZM18.6 50.2C23 50.2 32.4 47.6 32.4 33C32.4 18.4 23 15.9 18.6 15.9C14.2 15.9 4.8 18.5 4.8 33.1C4.8 47.7 14.3 50.2 18.6 50.2V50.2Z" fill="#111111"/>
</svg>
