<?xml version="1.0" encoding="UTF-8" standalone="no"?>
<svg
   xmlns:dc="http://purl.org/dc/elements/1.1/"
   xmlns:cc="http://creativecommons.org/ns#"
   xmlns:rdf="http://www.w3.org/1999/02/22-rdf-syntax-ns#"
   xmlns:svg="http://www.w3.org/2000/svg"
   xmlns="http://www.w3.org/2000/svg"
   xmlns:sodipodi="http://sodipodi.sourceforge.net/DTD/sodipodi-0.dtd"
   xmlns:inkscape="http://www.inkscape.org/namespaces/inkscape"
   width="466.3363mm"
   height="121.51067mm"
   viewBox="0 0 466.3363 121.51067"
   version="1.1"
   id="svg8"
   sodipodi:docname="logo-dark.svg"
   inkscape:version="1.0.1 (3bc2e813f5, 2020-09-07, custom)">
  <defs
     id="defs2">
    <rect
       x="182.09003"
       y="101.91478"
       width="262.95331"
       height="103.04281"
       id="rect12" />
  </defs>
  <sodipodi:namedview
     id="base"
     pagecolor="#ffffff"
     bordercolor="#666666"
     borderopacity="1.0"
     inkscape:pageopacity="0.0"
     inkscape:pageshadow="2"
     inkscape:zoom="0.49497475"
     inkscape:cx="845.45669"
     inkscape:cy="247.36868"
     inkscape:document-units="mm"
     inkscape:current-layer="layer1"
     inkscape:document-rotation="0"
     showgrid="false"
     showguides="false"
     inkscape:guide-bbox="true"
     fit-margin-top="0"
     fit-margin-left="0"
     fit-margin-right="0"
     fit-margin-bottom="0"
     inkscape:window-width="1366"
     inkscape:window-height="704"
     inkscape:window-x="0"
     inkscape:window-y="0"
     inkscape:window-maximized="1">
    <sodipodi:guide
       position="54.287887,24.77817"
       orientation="0,-1"
       id="guide34" />
    <sodipodi:guide
       position="58.785807,121.23881"
       orientation="0,-1"
       id="guide36" />
  </sodipodi:namedview>
  <metadata
     id="metadata5">
    <rdf:RDF>
      <cc:Work
         rdf:about="">
        <dc:format>image/svg+xml</dc:format>
        <dc:type
           rdf:resource="http://purl.org/dc/dcmitype/StillImage" />
        <dc:title />
      </cc:Work>
    </rdf:RDF>
  </metadata>
  <g
     inkscape:label="Layer 1"
     inkscape:groupmode="layer"
     id="layer1"
     transform="translate(-38.089321,-51.317447)">
    <g
       aria-label="palstack"
       transform="matrix(2.5980046,0,0,2.5980046,-340.55995,-238.66677)"
       id="text10"
       style="font-style:normal;font-variant:normal;font-weight:normal;font-stretch:normal;font-size:50.8px;line-height:1.25;font-family:'PT Sans Narrow';-inkscape-font-specification:'PT Sans Narrow';letter-spacing:0px;word-spacing:0px;white-space:pre;shape-inside:url(#rect12);fill:#1f2937;fill-opacity:1;stroke:none">
      <path
         d="m 185.08704,122.82882 h 2.5908 l 0.5588,2.7432 h 0.2032 q 1.8796,-3.3528 5.8928,-3.3528 4.0132,0 5.9944,2.9972 2.032,2.9972 2.032,9.8044 0,3.2004 -0.6604,5.7912 -0.6604,2.54 -1.8796,4.3688 -1.2192,1.778 -2.9972,2.7432 -1.7272,0.9144 -3.8608,0.9144 -1.4732,0 -2.3368,-0.2032 -0.8636,-0.1524 -1.8796,-0.7112 v 10.4648 h -3.6576 z m 3.6576,21.3868 q 0.7112,0.6096 1.5748,0.9652 0.9144,0.3556 2.3876,0.3556 2.6924,0 4.2672,-2.7432 1.5748,-2.7432 1.5748,-7.8232 0,-2.1336 -0.3048,-3.8608 -0.254,-1.7272 -0.8636,-2.9464 -0.6096,-1.27 -1.5748,-1.9304 -0.9144,-0.7112 -2.286,-0.7112 -3.7084,0 -4.7752,4.5212 z"
         style="font-style:normal;font-variant:normal;font-weight:normal;font-stretch:normal;font-size:50.8px;line-height:1.25;font-family:'PT Sans Narrow';-inkscape-font-specification:'PT Sans Narrow';letter-spacing:0px;word-spacing:0px;white-space:pre;shape-inside:url(#rect12);fill:#1f2937;fill-opacity:1;stroke:none"
         id="path92" />
      <path
         d="m 206.93102,124.35282 q 1.4732,-0.9144 3.556,-1.4224 2.1336,-0.508 4.4704,-0.508 2.1336,0 3.4036,0.6604 1.3208,0.6096 2.032,1.7272 0.762,1.0668 0.9652,2.4892 0.254,1.3716 0.254,2.8956 0,3.048 -0.1524,5.9436 -0.1016,2.8956 -0.1016,5.4864 0,1.9304 0.1016,3.6068 0.1524,1.6256 0.508,3.0988 h -2.794 l -0.8636,-2.9972 h -0.2032 q -0.762,1.3208 -2.2352,2.286 -1.4732,0.9652 -3.9624,0.9652 -2.7432,0 -4.5212,-1.8796 -1.7272,-1.9304 -1.7272,-5.2832 0,-2.1844 0.7112,-3.6576 0.762,-1.4732 2.0828,-2.3876 1.3716,-0.9144 3.2004,-1.27 1.8796,-0.4064 4.1656,-0.4064 0.508,0 1.016,0 0.508,0 1.0668,0.0508 0.1524,-1.5748 0.1524,-2.794 0,-2.8956 -0.8636,-4.064 -0.8636,-1.1684 -3.1496,-1.1684 -1.4224,0 -3.0988,0.4572 -1.6764,0.4064 -2.794,1.0668 z m 11.0236,12.2936 q -0.508,-0.0508 -1.016,-0.0508 -0.508,-0.0508 -1.016,-0.0508 -1.2192,0 -2.3876,0.2032 -1.1684,0.2032 -2.0828,0.7112 -0.9144,0.508 -1.4732,1.3716 -0.508,0.8636 -0.508,2.1844 0,2.032 0.9652,3.1496 1.016,1.1176 2.5908,1.1176 2.1336,0 3.302,-1.016 1.1684,-1.016 1.6256,-2.2352 z"
         style="font-style:normal;font-variant:normal;font-weight:normal;font-stretch:normal;font-size:50.8px;line-height:1.25;font-family:'PT Sans Narrow';-inkscape-font-specification:'PT Sans Narrow';letter-spacing:0px;word-spacing:0px;white-space:pre;shape-inside:url(#rect12);fill:#1f2937;fill-opacity:1;stroke:none"
         id="path94" />
      <path
         d="m 231.4166,142.18362 q 0,1.778 0.4572,2.54 0.508,0.762 1.3716,0.762 1.0668,0 2.4892,-0.5588 l 0.3556,2.9464 q -0.6604,0.4064 -1.8796,0.6604 -1.1684,0.254 -2.1336,0.254 -1.9304,0 -3.1496,-1.1684 -1.1684,-1.2192 -1.1684,-4.2164 v -30.734 h 3.6576 z"
         style="font-style:normal;font-variant:normal;font-weight:normal;font-stretch:normal;font-size:50.8px;line-height:1.25;font-family:'PT Sans Narrow';-inkscape-font-specification:'PT Sans Narrow';letter-spacing:0px;word-spacing:0px;white-space:pre;shape-inside:url(#rect12);fill:#1f2937;fill-opacity:1;stroke:none"
         id="path96" />
      <path
         d="m 238.93498,144.06322 q 1.016,0.6096 2.3876,1.0668 1.4224,0.4064 2.8956,0.4064 1.6764,0 2.8448,-0.8128 1.1684,-0.8636 1.1684,-2.7432 0,-1.5748 -0.7112,-2.5908 -0.7112,-1.016 -1.8288,-1.8288 -1.0668,-0.8128 -2.3368,-1.4732 -1.27,-0.7112 -2.3876,-1.6764 -1.0668,-0.9652 -1.778,-2.286 -0.7112,-1.3208 -0.7112,-3.3528 0,-3.2512 1.7272,-4.8768 1.778,-1.6764 4.9784,-1.6764 2.0828,0 3.6068,0.4064 1.524,0.3556 2.6416,1.016 l -0.9652,3.048 q -0.9652,-0.508 -2.2352,-0.8128 -1.27,-0.3556 -2.5908,-0.3556 -1.8288,0 -2.6924,0.762 -0.8128,0.762 -0.8128,2.3876 0,1.27 0.7112,2.1844 0.7112,0.8636 1.778,1.6256 1.1176,0.7112 2.3876,1.4732 1.27,0.762 2.3368,1.8288 1.1176,1.016 1.8288,2.4892 0.7112,1.4224 0.7112,3.6068 0,1.4224 -0.4572,2.6924 -0.4572,1.27 -1.4224,2.2352 -0.9144,0.9144 -2.3368,1.4732 -1.3716,0.5588 -3.2512,0.5588 -2.2352,0 -3.8608,-0.4572 -1.6256,-0.4064 -2.7432,-1.1176 z"
         style="font-style:normal;font-variant:normal;font-weight:normal;font-stretch:normal;font-size:50.8px;line-height:1.25;font-family:'PT Sans Narrow';-inkscape-font-specification:'PT Sans Narrow';letter-spacing:0px;word-spacing:0px;white-space:pre;shape-inside:url(#rect12);fill:#1f2937;fill-opacity:1;stroke:none"
         id="path98" />
      <path
         d="m 253.97176,122.82882 h 3.0988 v -5.0292 l 3.6576,-1.1684 v 6.1976 h 5.4864 v 3.302 h -5.4864 v 15.1384 q 0,2.2352 0.508,3.2512 0.5588,0.9652 1.778,0.9652 1.016,0 1.7272,-0.2032 0.762,-0.254 1.6256,-0.6096 l 0.7112,2.8956 q -1.1176,0.5588 -2.4892,0.8636 -1.3208,0.3556 -2.794,0.3556 -2.54,0 -3.6576,-1.6256 -1.0668,-1.6764 -1.0668,-5.3848 v -15.6464 h -3.0988 z"
         style="font-style:normal;font-variant:normal;font-weight:normal;font-stretch:normal;font-size:50.8px;line-height:1.25;font-family:'PT Sans Narrow';-inkscape-font-specification:'PT Sans Narrow';letter-spacing:0px;word-spacing:0px;white-space:pre;shape-inside:url(#rect12);fill:#1f2937;fill-opacity:1;stroke:none"
         id="path100" />
      <path
         d="m 270.22774,124.35282 q 1.4732,-0.9144 3.556,-1.4224 2.1336,-0.508 4.4704,-0.508 2.1336,0 3.4036,0.6604 1.32079,0.6096 2.03199,1.7272 0.762,1.0668 0.9652,2.4892 0.254,1.3716 0.254,2.8956 0,3.048 -0.1524,5.9436 -0.1016,2.8956 -0.1016,5.4864 0,1.9304 0.1016,3.6068 0.1524,1.6256 0.508,3.0988 h -2.794 l -0.86359,-2.9972 h -0.2032 q -0.762,1.3208 -2.2352,2.286 -1.4732,0.9652 -3.9624,0.9652 -2.7432,0 -4.5212,-1.8796 -1.7272,-1.9304 -1.7272,-5.2832 0,-2.1844 0.7112,-3.6576 0.762,-1.4732 2.0828,-2.3876 1.3716,-0.9144 3.2004,-1.27 1.8796,-0.4064 4.1656,-0.4064 0.508,0 1.016,0 0.508,0 1.0668,0.0508 0.1524,-1.5748 0.1524,-2.794 0,-2.8956 -0.8636,-4.064 -0.8636,-1.1684 -3.1496,-1.1684 -1.4224,0 -3.0988,0.4572 -1.6764,0.4064 -2.794,1.0668 z m 11.0236,12.2936 q -0.508,-0.0508 -1.016,-0.0508 -0.508,-0.0508 -1.016,-0.0508 -1.2192,0 -2.3876,0.2032 -1.1684,0.2032 -2.0828,0.7112 -0.9144,0.508 -1.4732,1.3716 -0.508,0.8636 -0.508,2.1844 0,2.032 0.9652,3.1496 1.016,1.1176 2.5908,1.1176 2.1336,0 3.302,-1.016 1.1684,-1.016 1.6256,-2.2352 z"
         style="font-style:normal;font-variant:normal;font-weight:normal;font-stretch:normal;font-size:50.8px;line-height:1.25;font-family:'PT Sans Narrow';-inkscape-font-specification:'PT Sans Narrow';letter-spacing:0px;word-spacing:0px;white-space:pre;shape-inside:url(#rect12);fill:#1f2937;fill-opacity:1;stroke:none"
         id="path102" />
      <path
         d="m 304.82251,146.95882 q -1.27,0.9652 -2.8956,1.4224 -1.6256,0.4572 -3.4036,0.4572 -2.4384,0 -4.1148,-0.9144 -1.6764,-0.9652 -2.7432,-2.6924 -1.016,-1.778 -1.524,-4.2164 -0.4572,-2.4892 -0.4572,-5.4864 0,-6.5024 2.286,-9.906 2.3368,-3.4036 6.6548,-3.4036 1.9812,0 3.4036,0.3556 1.4224,0.3556 2.4384,0.9144 l -1.016,3.2004 q -2.032,-1.1684 -4.4196,-1.1684 -2.7432,0 -4.1656,2.4384 -1.3716,2.3876 -1.3716,7.5692 0,2.0828 0.3048,3.9116 0.3048,1.8288 1.016,3.2004 0.7112,1.3208 1.8288,2.1336 1.1176,0.762 2.794,0.762 1.3208,0 2.4384,-0.4572 1.1684,-0.4572 1.8796,-1.0668 z"
         style="font-style:normal;font-variant:normal;font-weight:normal;font-stretch:normal;font-size:50.8px;line-height:1.25;font-family:'PT Sans Narrow';-inkscape-font-specification:'PT Sans Narrow';letter-spacing:0px;word-spacing:0px;white-space:pre;shape-inside:url(#rect12);fill:#1f2937;fill-opacity:1;stroke:none"
         id="path104" />
      <path
         d="m 314.42367,136.79882 h -1.8796 v 11.43 h -3.6576 v -35.56 h 3.6576 v 21.6408 l 1.6764,-0.7112 5.9436,-10.7696 h 4.2164 l -5.9944,10.2616 -1.778,1.6256 2.0828,1.9812 6.5532,11.5316 h -4.4196 z"
         style="font-style:normal;font-variant:normal;font-weight:normal;font-stretch:normal;font-size:50.8px;line-height:1.25;font-family:'PT Sans Narrow';-inkscape-font-specification:'PT Sans Narrow';letter-spacing:0px;word-spacing:0px;white-space:pre;shape-inside:url(#rect12);fill:#1f2937;fill-opacity:1;stroke:none"
         id="path106" />
    </g>
    <path
       style="fill:#1f2937;stroke:none;stroke-width:0.264583"
       d="m 72.268881,148.31453 v -0.26458 c -2.65986,-0.20981 -5.43269,-0.71252 -7.9375,-1.64809 -18.30653,-6.83895 -20.6375,-30.3104 -20.6375,-47.035244 0,-3.27501 0.2667,-6.52913 0.50569,-9.78959 0.38373,-5.235042 1.21568,-10.606084 2.84658,-15.610413 3.6785,-11.288184 12.21634,-21.677843 24.95814,-22.225001 -2.15926,-0.906039 -5.68378,-0.136102 -7.9375,0.243549 -10.35579,1.74461 -17.50854,8.970037 -21.21667,18.541868 -5.90018,15.229682 -5.76099,34.178351 -2.59583,50.006251 1.4332,7.16677 4.18714,14.85556 9.54881,20.06336 6.25661,6.07748 14.0388,7.71789 22.46578,7.71789 m 10.05416,0 v -0.26458 c -2.87734,-0.22701 -5.7695,-0.83661 -8.46666,-1.86928 -17.89166,-6.8498 -20.10834,-30.46545 -20.10834,-46.814054 0,-3.84466 0.17463,-7.82796 0.68157,-11.64167 0.59584,-4.484423 1.28032,-8.868039 2.53074,-13.229167 3.30808,-11.537685 12.33143,-22.205924 25.09811,-22.754167 -2.19313,-0.920247 -5.65732,-0.09813 -7.9375,0.286015 -10.34574,1.742942 -17.50298,8.913548 -21.21667,18.499402 -6.08383,15.703815 -6.08278,36.185211 -2.03306,52.387501 1.97617,7.90681 5.54805,15.68609 12.40181,20.52135 5.6859,4.01161 12.27323,4.87865 19.05,4.87865 m 10.05417,0 v -0.26458 c -24.81527,-1.95845 -30.27654,-32.20032 -28.3554,-52.387504 0.25136,-2.63948 0.10266,-5.29749 0.46197,-7.9375 0.61065,-4.484687 1.28005,-8.866452 2.53074,-13.229167 3.30491,-11.526573 12.35075,-22.206744 25.09811,-22.754167 -2.19313,-0.920247 -5.65732,-0.09813 -7.9375,0.286015 -10.57196,1.781042 -17.43287,9.086585 -21.27224,18.763986 -2.9636,7.469981 -3.79016,15.601685 -4.13808,23.547913 -0.76068,17.369104 0.15107,43.971374 19.3249,51.738484 4.59661,1.86214 9.38662,2.23652 14.2875,2.23652 m 4.49792,-96.725212 c -7.6925,1.012984 -14.36847,3.465142 -19.18812,9.941878 -4.10845,5.52106 -6.15685,12.118446 -7.48188,18.785417 -0.8382,4.217723 -1.10729,8.430683 -1.39965,12.700003 -1.35096,19.731564 0.7829,51.066964 25.42381,54.917184 3.33375,0.52096 6.714859,0.45587 10.054169,0.0405 11.17812,-1.39092 18.83992,-9.71524 22.31311,-20.03266 3.67188,-10.90851 4.42092,-22.98753 3.63987,-34.395844 -0.53155,-7.759432 -1.30281,-15.379432 -4.00659,-22.754163 C 121.69913,58.434221 110.46413,49.799835 96.875131,51.589318 m 0.79375,9.223534 c 10.113689,-1.209411 16.300179,7.180263 19.137039,15.799594 3.14246,9.546167 3.52743,20.22739 2.84719,30.162504 -0.38391,5.60229 -0.77259,11.26887 -2.49608,16.66875 -2.47412,7.7515 -7.34854,14.72353 -16.04857,15.56544 -10.215829,0.98875 -16.084819,-7.43215 -18.961889,-16.09461 -3.19485,-9.62025 -3.44356,-20.41181 -2.75776,-30.427084 0.36672,-5.351462 0.81307,-10.710333 2.41168,-15.875 2.43708,-7.872677 7.1374,-14.755284 15.86839,-15.799594 z"
       id="path30" />
  </g>
</svg>
