<svg width="210" height="46" viewBox="0 0 210 46" fill="none" xmlns="http://www.w3.org/2000/svg">
<g opacity="0.2">
<path fill-rule="evenodd" clip-rule="evenodd" d="M68.305 18.4234C64.6488 21.9134 57.6272 24.2817 49.5253 24.2817C43.5008 24.2817 38.058 22.9521 34.1525 20.8332C29.6653 18.3819 23.4747 14.9749 15.3728 14.9749C9.34832 14.9749 3.90552 16.3044 0 18.4234V16.7615C3.90552 14.6425 9.34832 13.313 15.3728 13.313C23.4747 13.313 29.6653 16.7199 34.1525 19.1713C38.058 21.2902 43.5008 22.6198 49.5253 22.6198C57.6272 22.6198 64.6488 20.2515 68.305 16.7615V18.4234Z" fill="black"/>
<path fill-rule="evenodd" clip-rule="evenodd" d="M68.305 25.4866C64.6488 28.9766 57.6272 31.3448 49.5253 31.3448C43.5008 31.3448 38.058 30.0153 34.1525 27.8963C29.6653 25.445 23.4747 22.0381 15.3728 22.0381C9.34832 22.0381 3.90552 23.3676 0 25.4866V23.8246C3.90552 21.7057 9.34832 20.3761 15.3728 20.3761C23.4747 20.3761 29.6653 23.7831 34.1525 26.2344C38.058 28.3534 43.5008 29.6829 49.5253 29.6829C57.6272 29.6829 64.6488 27.3147 68.305 23.8246V25.4866Z" fill="black"/>
<path fill-rule="evenodd" clip-rule="evenodd" d="M68.305 32.5498C64.6488 36.0398 57.6272 38.408 49.5253 38.408C43.5008 38.408 38.058 37.0785 34.1525 34.9596C29.6653 32.5082 23.4747 29.1013 15.3728 29.1013C9.34832 29.1013 3.90552 30.4308 0 32.5498V30.8878C3.90552 28.7689 9.34832 27.4394 15.3728 27.4394C23.4747 27.4394 29.6653 30.8463 34.1525 33.2976C38.058 35.4166 43.5008 36.7461 49.5253 36.7461C57.6272 36.7461 64.6488 34.3779 68.305 30.8878V32.5498Z" fill="black"/>
<path fill-rule="evenodd" clip-rule="evenodd" d="M68.305 39.6129C64.6488 43.103 57.6272 45.4712 49.5253 45.4712C43.5008 45.4712 38.058 44.1417 34.1525 42.0227C29.6653 39.5714 23.4747 36.1644 15.3728 36.1644C9.34832 36.1644 3.90552 37.494 0 39.6129V37.951C3.90552 35.832 9.34832 34.5025 15.3728 34.5025C23.4747 34.5025 29.6653 37.9094 34.1525 40.3608C38.058 42.4797 43.5008 43.8093 49.5253 43.8093C57.6272 43.8093 64.6488 41.441 68.305 37.951V39.6129Z" fill="black"/>
</g>
<path d="M28.6943 38.0806H30.2275C30.398 38.0946 30.5696 38.0714 30.7302 38.0125C30.8909 37.9535 31.0368 37.8603 31.1578 37.7393C31.2788 37.6183 31.372 37.4724 31.4309 37.3118C31.4899 37.1511 31.5131 36.9796 31.4991 36.809V19.1571C31.5131 18.9866 31.4898 18.8151 31.4309 18.6544C31.3719 18.4938 31.2787 18.3479 31.1577 18.227C31.0367 18.106 30.8908 18.0128 30.7302 17.9539C30.5695 17.895 30.398 17.8717 30.2275 17.8858H28.6943V13.9587H39.8389C45.8228 13.9587 50.5724 16.988 50.5724 22.7846C50.5724 28.5813 45.8228 31.6481 39.8389 31.6481H36.0245V36.809C36.0116 36.9825 36.0369 37.1568 36.0986 37.3195C36.1603 37.4821 36.257 37.6293 36.3818 37.7505C36.5066 37.8718 36.6565 37.9642 36.8209 38.0212C36.9853 38.0782 37.1602 38.0985 37.3333 38.0806H40.4372V42.0074H28.6943V38.0806ZM39.5025 27.5343C43.4666 27.5343 45.7481 25.889 45.7481 22.8222C45.7481 19.7181 43.4666 18.1099 39.5025 18.1099H36.0245V27.5343H39.5025Z" fill="black"/>
<path d="M50.6843 31.7977C50.6843 25.7766 55.2469 20.9897 61.2308 20.9897C67.3267 20.9897 71.8515 25.7766 71.8515 31.7977C71.8515 37.9311 67.3267 42.6059 61.2308 42.6059C55.2096 42.6059 50.6843 37.9311 50.6843 31.7977ZM67.177 31.7977C67.177 27.9082 64.7462 24.9913 61.2308 24.9913C57.7901 24.9913 55.3593 27.908 55.3593 31.7977C55.3593 35.6873 57.7901 38.6042 61.2308 38.6042C64.7462 38.6042 67.177 35.6871 67.177 31.7977Z" fill="black"/>
<path d="M77.7231 39.9505L77.5735 42.0074H73.6841V35.2757H77.6855V35.3505C77.8153 36.146 78.1951 36.8796 78.7699 37.4447C79.2175 37.8841 79.7504 38.227 80.3358 38.4521C80.9212 38.6772 81.5466 38.7798 82.1733 38.7535C83.1176 38.8025 84.0436 38.4804 84.7538 37.856C85.2344 37.3673 85.5031 36.7089 85.5016 36.0235C85.517 35.7144 85.4684 35.4054 85.3591 35.1159C85.2497 34.8264 85.0818 34.5625 84.866 34.3408C84.292 33.8263 83.5743 33.5001 82.8093 33.4059L79.3313 32.7329C77.5736 32.3963 76.2647 31.7606 75.3672 30.9003C74.8936 30.4028 74.5239 29.8158 74.2799 29.1736C74.0358 28.5315 73.9223 27.8471 73.9459 27.1606C73.9395 25.547 74.5557 23.9931 75.6662 22.8224C76.9595 21.6069 78.6788 20.9487 80.4532 20.9899C82.4724 20.9899 84.268 21.7378 85.3898 23.3085L85.5394 21.551H89.2418V27.2726H85.3897V27.1978C85.2845 26.7985 85.0926 26.4272 84.8276 26.1105C84.5627 25.7937 84.2311 25.5393 83.8566 25.3653C83.1512 25.0004 82.3693 24.8082 81.5751 24.8044C80.6312 24.7585 79.7063 25.0802 78.9946 25.7018C78.7952 25.879 78.6379 26.0986 78.5345 26.3445C78.431 26.5904 78.3838 26.8563 78.3965 27.1228C78.3762 27.3632 78.4093 27.6052 78.4933 27.8314C78.5774 28.0577 78.7103 28.2626 78.8826 28.4315C79.353 28.8191 79.9236 29.0655 80.5283 29.142L84.0063 29.8151C85.9882 30.189 87.4465 30.8621 88.3819 31.7969C88.9114 32.354 89.3233 33.0119 89.5931 33.7316C89.8629 34.4512 89.9851 35.2178 89.9524 35.9856C89.9668 36.8702 89.8056 37.7488 89.4781 38.5706C89.1506 39.3924 88.6634 40.1411 88.0446 40.7733C86.8256 41.963 85.1853 42.6218 83.4821 42.6059C82.3811 42.6461 81.2861 42.4267 80.2857 41.9654C79.2852 41.5042 78.4074 40.8139 77.7231 39.9505Z" fill="black"/>
<path d="M95.4492 35.014V26.7863C95.4671 26.6133 95.4468 26.4384 95.3898 26.274C95.3328 26.1096 95.2404 25.9598 95.1192 25.835C94.9979 25.7102 94.8508 25.6135 94.6882 25.5518C94.5255 25.49 94.3513 25.4647 94.1778 25.4776H91.5977V21.5507H95.4492V15.5669H99.8624V21.5507H106.033V25.4774H101.171C100.995 25.4605 100.818 25.4828 100.651 25.5426C100.485 25.6024 100.334 25.6983 100.209 25.8234C100.083 25.9484 99.9876 26.0996 99.9278 26.266C99.868 26.4325 99.8457 26.6101 99.8626 26.7862V35.014C99.8626 37.0709 101.097 38.2676 103.303 38.2676C104.125 38.2676 105.472 38.0807 106.033 37.7441V41.8579C105.36 42.2319 103.976 42.4188 102.817 42.4188C98.2541 42.4188 95.4492 39.6512 95.4492 35.014Z" fill="black"/>
<path d="M109.361 38.0806H110.558C110.731 38.0985 110.906 38.0782 111.071 38.0212C111.235 37.9641 111.385 37.8717 111.51 37.7505C111.634 37.6292 111.731 37.4821 111.793 37.3194C111.855 37.1568 111.88 36.9825 111.867 36.809V26.7863C111.884 26.6103 111.862 26.4327 111.802 26.2663C111.742 26.0998 111.646 25.9487 111.521 25.8236C111.396 25.6985 111.245 25.6027 111.078 25.5429C110.912 25.483 110.734 25.4607 110.558 25.4776H109.361V21.5507H116.13V24.7294C117.29 22.4481 120.17 20.9897 122.899 20.9897C125.742 20.9897 128.135 22.4107 129.332 24.8792C130.147 23.7027 131.23 22.7366 132.491 22.0604C133.752 21.3842 135.156 21.0173 136.587 20.9897C141 20.9897 143.805 23.6075 143.805 27.796V36.809C143.792 36.9825 143.817 37.1568 143.879 37.3194C143.941 37.4821 144.037 37.6292 144.162 37.7505C144.287 37.8717 144.437 37.9641 144.601 38.0212C144.766 38.0782 144.941 38.0985 145.114 38.0806H146.273V42.0074H136.437V38.0806H138.046C138.216 38.0946 138.388 38.0713 138.548 38.0123C138.709 37.9534 138.855 37.8602 138.976 37.7392C139.097 37.6182 139.19 37.4723 139.249 37.3117C139.308 37.1511 139.331 36.9795 139.317 36.809V28.4694C139.317 26.1132 137.896 24.767 135.577 24.767C132.249 24.767 130.08 27.1604 130.08 30.601V36.809C130.066 36.9796 130.089 37.1511 130.148 37.3118C130.207 37.4724 130.3 37.6183 130.421 37.7393C130.542 37.8603 130.688 37.9535 130.848 38.0124C131.009 38.0714 131.181 38.0946 131.351 38.0806H132.997V42.0074H122.675V38.0806H124.321C124.491 38.0946 124.663 38.0714 124.823 38.0124C124.984 37.9535 125.13 37.8603 125.251 37.7393C125.372 37.6183 125.465 37.4724 125.524 37.3118C125.583 37.1511 125.606 36.9796 125.592 36.809V28.5067C125.592 26.1505 124.171 24.767 121.852 24.767C118.487 24.767 116.355 27.1604 116.355 30.6758V36.809C116.337 36.9803 116.359 37.1532 116.416 37.3153C116.474 37.4774 116.567 37.6247 116.689 37.7464C116.811 37.8681 116.958 37.9612 117.12 38.019C117.282 38.0768 117.455 38.0979 117.626 38.0806H119.234V42.0074H109.361V38.0806Z" fill="black"/>
<path d="M169.236 38.0806V42.0074H162.953V37.6318C162.645 38.4022 162.202 39.1114 161.645 39.7261C160.747 40.6505 159.671 41.3826 158.482 41.8777C157.292 42.3728 156.014 42.6205 154.726 42.6059C150.986 42.6059 148.406 40.2124 148.368 36.8839C148.368 32.5457 152.033 31.1245 156.559 30.2271C158.952 29.741 161.159 29.4415 162.131 28.4696C162.301 28.3133 162.436 28.1223 162.527 27.9094C162.617 27.6964 162.661 27.4666 162.655 27.2353C162.655 25.8518 161.607 24.7674 158.952 24.7674C155.848 24.7674 153.342 26.3005 153.006 28.0583V28.1331H149.341V21.5507H153.305V23.9068C154.838 21.9246 157.456 20.9897 159.924 20.9897C164.001 20.9897 166.768 23.4954 166.768 27.6092V36.809C166.751 36.9803 166.772 37.1532 166.83 37.3153C166.888 37.4774 166.981 37.6247 167.103 37.7464C167.224 37.8681 167.372 37.9612 167.534 38.019C167.696 38.0768 167.869 38.0979 168.04 38.0806H169.236ZM162.729 31.9474C161.832 32.6953 160.111 33.0318 158.466 33.3683C155.661 33.9666 152.968 34.5275 152.968 36.6593C152.968 38.0055 154.202 38.9406 155.848 38.9406C156.735 38.9136 157.608 38.7114 158.417 38.3455C159.226 37.9797 159.954 37.4574 160.56 36.8089C161.861 35.5135 162.634 33.7808 162.729 31.9474Z" fill="black"/>
<path d="M171.967 38.0806H173.537C173.708 38.0979 173.881 38.0768 174.043 38.019C174.205 37.9612 174.353 37.8681 174.474 37.7464C174.596 37.6247 174.689 37.4774 174.747 37.3153C174.805 37.1532 174.826 36.9803 174.809 36.809V26.7863C174.83 26.6126 174.812 26.4364 174.756 26.2705C174.7 26.1047 174.608 25.9535 174.486 25.828C174.364 25.7025 174.215 25.6058 174.051 25.5452C173.887 25.4846 173.711 25.4615 173.537 25.4776H171.967V21.5507H179.11V25.2904C179.662 24.021 180.571 22.9392 181.726 22.1759C182.881 21.4125 184.233 21.0005 185.617 20.9897C186.179 20.9846 186.738 21.0861 187.262 21.2889V25.5523C186.631 25.3655 185.975 25.2772 185.318 25.2905C181.839 25.2905 179.297 27.2728 179.297 31.1996V36.809C179.284 36.9825 179.309 37.1568 179.371 37.3195C179.433 37.4821 179.529 37.6293 179.654 37.7505C179.779 37.8718 179.929 37.9642 180.093 38.0212C180.258 38.0783 180.432 38.0985 180.605 38.0806H183.148V42.0074H171.967V38.0806Z" fill="black"/>
<path d="M188.234 38.0806H189.805C189.976 38.0979 190.149 38.0768 190.311 38.019C190.473 37.9612 190.621 37.8681 190.742 37.7464C190.864 37.6247 190.957 37.4775 191.015 37.3153C191.073 37.1532 191.094 36.9803 191.077 36.809V18.0353C191.094 17.864 191.073 17.6911 191.015 17.529C190.957 17.3669 190.864 17.2197 190.742 17.098C190.621 16.9764 190.473 16.8833 190.311 16.8255C190.149 16.7677 189.976 16.7467 189.805 16.7639H188.234V12.8369H195.565V30.8253L203.306 21.5507H209.364V25.4774H206.597C206.133 25.4552 205.67 25.5497 205.252 25.7522C204.834 25.9548 204.473 26.2589 204.203 26.6369L200.651 30.9751L206.148 36.9961C206.452 37.3506 206.831 37.6321 207.259 37.8198C207.686 38.0076 208.15 38.0967 208.616 38.0805H210V42.0074H204.615L195.565 31.4238V36.809C195.552 36.9825 195.577 37.1568 195.639 37.3195C195.7 37.4821 195.797 37.6293 195.922 37.7506C196.047 37.8718 196.197 37.9642 196.361 38.0212C196.525 38.0783 196.7 38.0985 196.873 38.0806H198.406V42.0074H188.234V38.0806Z" fill="black"/>
<path d="M61.4319 6.35629C61.2978 6.23024 61.0678 6.23024 60.9337 6.35629C60.4739 6.73443 59.9374 6.9325 59.3434 6.9325C58.2895 6.9325 57.3506 6.28426 57.3506 4.82574C57.3506 3.34921 58.232 2.71898 59.1901 2.71898C60.3781 2.71898 60.972 3.6193 60.9912 4.48361H58.5386C58.3278 4.48361 58.1554 4.64567 58.1554 4.84374V5.18587H61.4511C61.7193 5.18587 61.9301 4.96979 61.9301 4.7177C61.8726 3.00708 60.7229 1.92669 59.1901 1.92669C57.5614 1.92669 56.3543 3.16914 56.3543 4.82574C56.3543 6.48233 57.6189 7.72478 59.305 7.72478C60.3014 7.72478 61.087 7.36465 61.7768 6.64439L61.4319 6.35629Z" fill="black"/>
<path d="M71.6446 2.44888C72.1811 2.2148 72.8901 1.96271 73.829 1.96271C75.4576 1.96271 76.3582 2.75499 76.3582 4.21352V7.61674H75.8025C75.5918 7.61674 75.4193 7.45468 75.4193 7.25661V6.87848C75.0361 7.29263 74.4038 7.72478 73.3691 7.72478C72.2961 7.72478 71.1465 7.16658 71.1465 5.96015C71.1465 4.80773 72.1045 4.14149 73.6948 4.14149H74.6912V4.48361C74.6912 4.68169 74.5188 4.86175 74.2888 4.84374H73.7715C72.7368 4.84374 72.1237 5.25789 72.1237 5.94214C72.1237 6.6624 72.8518 6.98652 73.5416 6.98652C74.6146 6.98652 75.4385 6.3743 75.4385 5.564V4.24953C75.4385 3.31319 74.8445 2.80901 73.7523 2.80901C73.1967 2.80901 72.7176 2.93506 72.3153 3.07911C72.1237 3.15113 71.8937 3.0611 71.8362 2.86303L71.6446 2.44888Z" fill="black"/>
<path d="M48.9007 0.990642H48.3259C48.1151 0.990642 47.9427 0.828584 47.9427 0.630513V0.0903182H48.5175C48.7283 0.0903182 48.9007 0.252377 48.9007 0.450448V0.990642Z" fill="black"/>
<path d="M102.934 0.990642H102.359C102.149 0.990642 101.976 0.828584 101.976 0.630513V0.0903182H102.551C102.762 0.0903182 102.934 0.252377 102.934 0.450448V0.990642Z" fill="black"/>
<path d="M42.4627 2.93506C42.0028 2.46689 41.2747 1.90869 40.0675 1.90869C38.3622 1.90869 37.0401 3.18715 37.0401 4.82574C37.0401 6.44632 38.3814 7.72478 40.0675 7.72478C41.2938 7.72478 42.0411 7.11256 42.5201 6.60838L42.1561 6.28426C42.0028 6.15822 41.792 6.15822 41.6387 6.28426C41.1789 6.6804 40.6615 6.89648 40.1059 6.89648C38.9371 6.89648 38.0173 5.97815 38.0173 4.80773C38.0173 3.63731 38.9179 2.73699 40.0484 2.73699C40.6999 2.73699 41.1597 3.00708 41.5621 3.34921C41.7154 3.47525 41.9453 3.47525 42.0794 3.3312L42.4627 2.93506Z" fill="black"/>
<path d="M52.9628 7.61674C53.2119 7.61674 53.4418 7.47269 53.5376 7.25661L55.9519 2.05274H55.4346C55.1088 2.05274 54.8214 2.2328 54.7064 2.5029L52.982 6.3743L51.2575 2.5029C51.1425 2.2328 50.8551 2.05274 50.5294 2.05274H49.9929L52.388 7.25661C52.4838 7.47269 52.7137 7.61674 52.9628 7.61674Z" fill="black"/>
<path d="M46.5248 6.64439C46.2373 6.77044 45.9116 6.86047 45.6242 6.86047C44.9919 6.86047 44.7045 6.57237 44.7045 5.99616V2.86303H46.5439V2.41287C46.5439 2.2148 46.3715 2.05274 46.1607 2.05274H44.7045V0.450448C44.7045 0.252377 44.532 0.0903182 44.3213 0.0903182H43.7464V6.14021C43.7464 6.98652 44.4362 7.72478 45.3751 7.72478C45.7966 7.72478 46.199 7.65275 46.5439 7.47269L46.5248 6.64439Z" fill="black"/>
<path d="M48.3259 7.61674H48.9007V2.41287C48.9007 2.2148 48.7283 2.05274 48.5175 2.05274H47.9427V7.25661C47.9235 7.45468 48.0959 7.61674 48.3259 7.61674Z" fill="black"/>
<path d="M70.3417 1.22444C69.6519 0.61222 68.7513 0 67.1993 0C64.9 0 63.1564 1.6746 63.1564 3.8894C63.1564 6.08619 64.8809 7.76079 67.161 7.76079C68.7513 7.76079 69.7094 7.05854 70.38 6.41031L69.9776 6.03217C69.8435 5.90613 69.6136 5.90613 69.4603 6.01417C68.828 6.53635 68.1382 6.87848 67.1802 6.87848C65.494 6.87848 64.1911 5.546 64.1911 3.85339C64.1911 2.14277 65.4748 0.864311 67.1802 0.864311C68.1574 0.864311 68.8855 1.27846 69.4028 1.6746C69.5561 1.80065 69.786 1.78264 69.9202 1.63859L70.3417 1.22444Z" fill="black"/>
<path d="M84.5974 1.92669C83.7351 1.92669 83.0645 2.26882 82.5472 2.97107C82.1639 2.30483 81.5125 1.92669 80.6694 1.92669C79.7305 1.92669 79.2132 2.37686 78.8491 2.84502V2.41287C78.8491 2.2148 78.6767 2.05274 78.4659 2.05274H77.8911V7.61674H78.4659C78.6767 7.61674 78.8491 7.45468 78.8491 7.25661V4.4476C78.8491 3.47525 79.5006 2.773 80.4203 2.773C81.3209 2.773 81.8574 3.36721 81.8574 4.35757V7.25661C81.8574 7.45468 82.0298 7.61674 82.2406 7.61674H82.8154V4.41159C82.8154 3.27718 83.601 2.773 84.3674 2.773C85.2872 2.773 85.8237 3.34921 85.8237 4.37558V7.25661C85.8237 7.45468 85.9961 7.61674 86.2069 7.61674H86.7817V4.1775C86.8009 2.791 85.9578 1.92669 84.5974 1.92669Z" fill="black"/>
<path d="M91.5336 1.92669C90.6522 1.92669 89.9432 2.28682 89.3493 3.0431V2.41287C89.3493 2.2148 89.1768 2.05274 88.966 2.05274H88.3912V8.96723C88.3912 9.1653 88.5637 9.32736 88.7744 9.32736H89.3493V6.6624C89.9049 7.36465 90.6522 7.72478 91.5336 7.72478C92.9132 7.72478 94.3694 6.69841 94.3694 4.82574C94.3694 2.93506 92.894 1.92669 91.5336 1.92669ZM93.373 4.82574C93.373 6.05018 92.5491 6.89648 91.3803 6.89648C90.3648 6.89648 89.3301 6.1222 89.3301 4.82574C89.3301 3.52927 90.3648 2.75499 91.3803 2.75499C92.53 2.75499 93.373 3.63731 93.373 4.82574Z" fill="black"/>
<path d="M102.34 7.61674H102.915V2.41287C102.915 2.2148 102.743 2.05274 102.532 2.05274H101.957V7.25661C101.957 7.45468 102.13 7.61674 102.34 7.61674Z" fill="black"/>
<path d="M104.505 8.53507C105.291 9.03925 106.23 9.32736 107.226 9.32736C109.142 9.32736 110.235 8.337 110.235 6.60838V2.05274H109.66C109.449 2.05274 109.277 2.2148 109.277 2.41287V2.93506C108.702 2.26882 107.954 1.92669 107.054 1.92669C105.674 1.92669 104.276 2.91705 104.276 4.57365C104.276 6.26626 105.713 7.18459 107.054 7.18459C107.935 7.18459 108.683 6.84246 109.277 6.1222V6.62639C109.277 7.83282 108.529 8.51707 107.207 8.51707C106.537 8.51707 105.866 8.337 105.272 7.99488C105.08 7.88684 104.85 7.94086 104.755 8.12092L104.505 8.53507ZM109.277 4.55564C109.277 5.69005 108.223 6.3743 107.188 6.3743C106.077 6.3743 105.234 5.60002 105.234 4.55564C105.234 3.51126 106.058 2.75499 107.188 2.75499C108.223 2.75499 109.277 3.42123 109.277 4.55564Z" fill="black"/>
<path d="M114.718 1.92669C113.894 1.92669 113.243 2.25081 112.783 2.88104V2.41287C112.783 2.2148 112.611 2.05274 112.4 2.05274H111.825V7.61674H112.4C112.611 7.61674 112.783 7.45468 112.783 7.25661V4.42959C112.783 3.45724 113.473 2.773 114.469 2.773C115.446 2.773 116.021 3.36721 116.021 4.37558V7.25661C116.021 7.45468 116.194 7.61674 116.404 7.61674H116.979V4.1595C116.998 2.80901 116.117 1.92669 114.718 1.92669Z" fill="black"/>
<path d="M126.253 4.69969L121.29 7.79681C121.06 7.94086 120.946 8.17494 120.946 8.40903V9.18331L126.962 5.47397C127.23 5.29391 127.403 5.0058 127.403 4.69969C127.403 4.39358 127.249 4.10548 126.962 3.92541L120.946 0.252091V0.97235C120.946 1.22444 121.08 1.45853 121.29 1.58457L126.253 4.69969Z" fill="black"/>
<path d="M123.264 4.95178C123.532 5.11384 123.877 5.11384 124.145 4.95178L124.567 4.68169L121.425 2.68297C121.233 2.55692 120.946 2.68297 120.946 2.91705V3.51126L122.574 4.53763L123.264 4.95178Z" fill="black"/>
<path d="M95.749 2.44888C96.2855 2.2148 96.9945 1.96271 97.9333 1.96271C99.562 1.96271 100.463 2.75499 100.463 4.21352V7.61674H99.9069C99.6961 7.61674 99.5237 7.45468 99.5237 7.25661V6.87848C99.1405 7.29263 98.5081 7.72478 97.4735 7.72478C96.4005 7.72478 95.2508 7.16658 95.2508 5.96015C95.2508 4.80773 96.2088 4.14149 97.7992 4.14149H98.7956V4.48361C98.7956 4.68169 98.6231 4.86175 98.3932 4.84374H97.8759C96.8412 4.84374 96.228 5.25789 96.228 5.94214C96.228 6.6624 96.9561 6.98652 97.6459 6.98652C98.7189 6.98652 99.5428 6.3743 99.5428 5.564V4.24953C99.5428 3.31319 98.9489 2.80901 97.8567 2.80901C97.301 2.80901 96.822 2.93506 96.4196 3.07911C96.228 3.15113 95.9981 3.0611 95.9406 2.86303L95.749 2.44888Z" fill="black"/>
<path d="M36.1587 7.61674H36.7144L33.2654 0.468169C33.093 0.144052 32.9014 0.0900324 32.614 0.0900324C32.3266 0.0900324 32.1158 0.144052 31.9817 0.450162L28.5327 7.61674H29.0501C29.3566 7.61674 29.644 7.43668 29.7782 7.18459L30.5063 5.67204H33.2463C33.4571 5.67204 33.6295 5.50998 33.6295 5.31191V4.82574H30.8895L32.614 1.22444L35.4306 7.16658C35.5456 7.43668 35.833 7.61674 36.1587 7.61674Z" fill="black"/>
</svg>
