<svg xmlns="http://www.w3.org/2000/svg" width="441.76208" height="83.177032pt" viewBox="0 0 331.32156 83.177032" version="1.2"><path fill="none" stroke="#fff" stroke-width="6.2249999" stroke-linecap="round" d="M13.1125 13.1125h94.326851v56.952034H13.1125z"/><g style="line-height:125%"><path d="M124.65805 18.47546h15.336q3.816 0 6.912.936t5.328 2.736q2.232 1.728 3.384 4.32 1.224 2.52 1.224 5.832 0 3.816-1.368 6.552-1.368 2.736-3.744 4.608-2.376 1.8-5.616 2.664-3.24.864-6.984.864h-5.688v16.848h-8.784zm8.784 21.672h4.032q2.16 0 4.032-.36 1.872-.36 3.24-1.224 1.44-.864 2.232-2.304.792-1.44.792-3.6 0-1.944-.72-3.312-.72-1.44-2.016-2.304-1.224-.936-2.88-1.368-1.656-.432-3.456-.432h-5.256zm50.08163-10.512h8.496v34.2h-6.408l-1.008-3.96h-.288q-1.656 1.728-4.392 3.24-2.736 1.44-6.84 1.44-5.4 0-8.64-3.024t-3.24-9.072v-22.824h8.496v21.96q0 3.528 1.584 5.04 1.656 1.44 4.176 1.44 2.664 0 4.608-1.08 2.016-1.152 3.456-2.808zm15.2955 34.2v-34.2h6.552l1.08 6.408q1.224-2.952 3.888-4.968 2.664-2.088 6.624-2.088 1.728 0 3.024.36t2.16.792l-1.44 6.912q-.792-.432-1.944-.72-1.152-.36-2.808-.36-3.672 0-6.192 2.52t-2.52 7.992v17.352zm26.31712 0v-34.2h8.496v34.2zm4.248-42.048q-2.232 0-3.528-1.296-1.224-1.296-1.224-3.24 0-1.872 1.296-3.168 1.296-1.368 3.456-1.368 2.088 0 3.384 1.296 1.296 1.296 1.296 3.24 0 1.944-1.296 3.24-1.296 1.296-3.384 1.296zm31.995 15.48q-4.248-2.016-8.28-2.016-2.664 0-4.104.936-1.368.936-1.368 2.592 0 1.368 1.152 2.376 1.152.936 4.608 1.944l2.16.648q4.608 1.368 6.912 3.744 2.376 2.376 2.376 6.264 0 4.968-3.744 7.92-3.744 2.88-10.224 2.88-6.984 0-11.592-2.304l1.872-6.336q2.088 1.008 4.392 1.656 2.376.648 4.896.648 5.976 0 5.976-3.816 0-1.728-1.44-2.592-1.368-.864-4.752-1.872l-2.232-.72q-4.464-1.44-6.624-3.744-2.088-2.376-2.088-6.192 0-2.232.936-4.104.936-1.944 2.592-3.312 1.728-1.368 4.104-2.088 2.448-.792 5.4-.792 2.952 0 5.688.576 2.808.504 5.184 1.584zm16.74225 26.568h-8.496v-34.2h6.552l1.08 4.536q2.376-2.376 5.112-3.744 2.736-1.44 6.336-1.44t6.048 1.44q2.448 1.368 3.672 3.96 2.448-2.52 5.4-3.96 2.952-1.44 6.48-1.44 5.4 0 8.208 2.952t2.808 8.424v23.472h-8.496v-22.32q0-2.736-1.296-4.32t-3.96-1.584q-2.088 0-4.176 1.008t-3.744 2.88q.072.504.072.936v23.4h-8.496v-22.32q0-2.736-1.296-4.32t-3.96-1.584q-2.088 0-4.176 1.152-2.016 1.08-3.672 3.024z" style="-inkscape-font-specification:'Ek Mukta Semi-Bold'" aria-label="Purism" font-weight="600" fill="#fff" font-size="72" font-family="Ek Mukta" letter-spacing="-2.25" word-spacing="0"/></g></svg>
