<?xml version="1.0" encoding="utf-8"?>
<!-- Generator: Adobe Illustrator 21.0.2, SVG Export Plug-In . SVG Version: 6.00 Build 0)  -->
<svg version="1.1" id="Layer_1" xmlns="http://www.w3.org/2000/svg" xmlns:xlink="http://www.w3.org/1999/xlink" x="0px" y="0px"
	 viewBox="0 0 1022 161.8" style="enable-background:new 0 0 1022 161.8;" xml:space="preserve">
<style type="text/css">
	.st0{opacity:0.62;enable-background:new    ;}
</style>
<title>Horizontal</title>
<g id="Layer_2">
	<g id="Layer_1-2">
		<path d="M632,88.2c-0.1,29.1-23.7,52.5-52.8,52.4s-52.5-23.7-52.4-52.8c0.1-29,23.6-52.4,52.6-52.5C608.5,35.4,632,59,632,88.2
			C632,88.2,632,88.2,632,88.2z M579.4,51c-20.5-0.1-37.2,16.5-37.3,37.1s16.5,37.2,37.1,37.3c20.5,0.1,37.2-16.5,37.3-37.1
			c0,0,0-0.1,0-0.1C616.5,67.7,599.9,51,579.4,51z"/>
		<path d="M903.6,88.2c-0.1,29.1-23.7,52.5-52.8,52.4c-29.1-0.1-52.5-23.7-52.4-52.8c0.1-29,23.7-52.5,52.7-52.4
			C880.1,35.4,903.6,59.1,903.6,88.2z M851,51c-20.5-0.1-37.3,16.5-37.4,37s16.5,37.3,37,37.4c20.5,0.1,37.3-16.5,37.4-37
			c0-0.1,0-0.1,0-0.2C888,67.7,871.5,51.1,851,51z"/>
		<path d="M729.6,38.2h-87.2v15.6h35.8v84.3h15.6V53.8h35.8V38.2z"/>
		<path d="M771.1,38.2h-15.6v100h15.6V38.2z"/>
		<path d="M233,101.2c16.7-7,24.6-26.3,17.5-43c-5.1-12.1-17-20-30.1-20.1H175v100h15.6v-34.4h25.1l21.3,34.4h18.9L233,101.2z
			 M190.6,88.2V53.8h29.8c9.5,0,17.2,7.7,17.2,17.2s-7.7,17.2-17.2,17.2H190.6z"/>
		<polygon points="486.1,38.2 486.1,38.2 448.6,103.7 411.1,38.2 411.1,38.2 395.5,38.2 395.5,38.2 395.5,138.1 411.1,138.1 
			411.1,69.5 448.6,135 486.1,69.5 486.1,138.1 501.7,138.1 501.7,38.2 501.7,38.2 		"/>
		<polygon points="1006.3,38.2 1006.3,105.9 928.3,35.1 928.3,35.1 928.3,138.1 943.9,138.1 943.9,70.5 1022,141.3 1022,141.3 
			1022,38.2 		"/>
		<path d="M323,35.1l-53.1,103.1h17.6l11.3-21.8h48.7l11.3,21.8h17.6L323,35.1z M306.7,100.7L323,69.1l16.3,31.6L306.7,100.7z"/>
		<path class="st0" d="M100,50L100,50L100,50c0-27.6-22.4-50-50-50l0,0C34.4,0,0,0,0,0v161.8h100l-39-63C83.8,93.7,100,73.4,100,50z
			"/>
		<polygon points="0,0 0,161.8 100,161.8 		"/>
	</g>
</g>
</svg>
