<svg width="697" height="106" viewBox="0 0 697 106" fill="none" xmlns="http://www.w3.org/2000/svg">
<g clip-path="url(#clip0_116_203)">
<path d="M35.6283 80.1276C31.059 83.8526 25.2462 85.7034 19.365 85.306H2.06776V76.0492H20.5847C21.9192 76.1061 23.2517 75.8987 24.5057 75.4387C25.7597 74.9787 26.9103 74.2753 27.8916 73.369C28.787 72.5509 29.4997 71.5529 29.9828 70.4403C30.4659 69.3276 30.7087 68.1255 30.6951 66.9125V54.2164C30.7949 52.0838 30.1256 49.9864 28.8093 48.3059C28.0975 47.5254 27.2177 46.9169 26.2363 46.5264C25.2549 46.1359 24.1976 45.9736 23.1442 46.0518H19.4889C16.8806 46.1878 14.2721 45.7882 11.8241 44.8776C9.37603 43.967 7.14028 42.5648 5.2546 40.7572C3.40155 38.6647 1.98413 36.2237 1.08523 33.5769C0.186332 30.9301 -0.176031 28.1306 0.019332 25.3421V20.6943C-0.197604 17.8509 0.195284 14.994 1.17162 12.3148C2.14795 9.63564 3.68522 7.19601 5.68054 5.15921C10.2506 1.4356 16.0628 -0.415083 21.9439 -0.0191972H39.3689V9.2376H20.7318C19.3974 9.18086 18.065 9.38843 16.8111 9.84839C15.5571 10.3083 14.4064 11.0116 13.425 11.9178C12.5299 12.7362 11.8176 13.7343 11.3345 14.8468C10.8514 15.9594 10.6084 17.1614 10.6215 18.3743V27.635C10.5852 28.7909 10.7821 29.9422 11.2006 31.0203C11.6191 32.0983 12.2505 33.0809 13.0571 33.9095C13.8822 34.7425 14.8714 35.3947 15.962 35.8248C17.0526 36.2549 18.2207 36.4534 19.3921 36.4076H23.0475C25.5145 36.2603 27.9853 36.6281 30.3025 37.4876C32.6198 38.3471 34.7328 39.6795 36.5073 41.4001C40.0192 45.615 41.7462 51.0352 41.3205 56.5053V64.546C41.5404 67.3992 41.1461 70.2665 40.1642 72.9544C39.1823 75.6423 37.6355 78.0883 35.6283 80.1276V80.1276Z" fill="#FF9933"/>
<path d="M88.5538 85.2865H84.4105C79.1003 85.7067 73.8355 84.0393 69.7348 80.6387C67.9702 78.6147 66.6339 76.254 65.8066 73.6991C64.9794 71.1442 64.6784 68.4481 64.9217 65.7736V24.3311H75.276V68.1943C75.1913 69.256 75.3381 70.3234 75.7061 71.3227C76.0741 72.3221 76.6547 73.2297 77.4076 73.9828C78.1605 74.7359 79.0678 75.3165 80.067 75.6846C81.0661 76.0527 82.1333 76.1995 83.1947 76.1149H89.7774C90.8226 76.2007 91.8742 76.0732 92.8687 75.7404C93.8631 75.4075 94.7796 74.876 95.5625 74.1783C96.7595 73.0062 97.5135 71.4555 97.6961 69.7901V24.3659H108.047V85.2865H98.3041V82.4862C95.4252 84.4132 92.0163 85.3923 88.5538 85.2865Z" fill="#FF9933"/>
<path d="M139.717 24.3659V27.2901C142.543 25.2431 145.978 24.2125 149.464 24.3659H153.847C159.47 23.8915 165.069 25.5199 169.561 28.9361C171.39 30.9371 172.779 33.2993 173.64 35.8703C174.5 38.4414 174.812 41.1641 174.556 43.8632V65.7775C174.802 68.4714 174.479 71.1869 173.608 73.7479C172.737 76.3088 171.337 78.6579 169.499 80.6425C165.043 84.0886 159.461 85.7461 153.847 85.2903H140.325V106.004H129.96V24.3659H139.717ZM142.277 35.6367C141.067 36.8554 140.374 38.4938 140.341 40.2109V76.1497H155.079C157.53 76.3282 159.961 75.5913 161.901 74.0814C162.693 73.335 163.311 72.4242 163.712 71.4131C164.114 70.402 164.289 69.3152 164.225 68.2291V41.427C164.288 40.3417 164.112 39.2557 163.711 38.2453C163.31 37.2349 162.692 36.3248 161.901 35.5786C159.962 34.0673 157.531 33.329 155.079 33.5065H148.256C147.165 33.4158 146.068 33.5589 145.037 33.9263C144.006 34.2936 143.065 34.8767 142.277 35.6367V35.6367Z" fill="#FF9933"/>
<path d="M201.596 80.7202C199.765 78.721 198.375 76.3596 197.514 73.789C196.654 71.2183 196.342 68.4956 196.6 65.797V43.8673C196.056 41.1913 196.182 38.422 196.969 35.8069C197.755 33.1917 199.177 30.8122 201.107 28.8809C203.038 26.9497 205.417 25.5269 208.031 24.7397C210.645 23.9525 213.414 23.8255 216.089 24.3699H221.812C224.212 24.1988 226.62 24.5395 228.878 25.3695C231.135 26.1995 233.191 27.4998 234.908 29.1842C238.127 33.1393 239.716 38.1727 239.354 43.2592V59.1003H206.955V68.2371C206.891 69.3231 207.066 70.4099 207.467 71.421C207.869 72.4321 208.487 73.3429 209.278 74.0894C211.218 75.5996 213.649 76.3365 216.101 76.1576H235.462V85.2982H217.309C211.685 85.7745 206.084 84.1429 201.596 80.7202ZM229.243 40.8269C229.274 39.8585 229.106 38.894 228.749 37.9932C228.393 37.0923 227.855 36.2742 227.17 35.5893C226.485 34.9043 225.667 34.3671 224.766 34.0109C223.865 33.6547 222.901 33.487 221.933 33.5182H214.87C213.76 33.3985 212.639 33.5162 211.578 33.8634C210.518 34.2107 209.544 34.7796 208.721 35.5323C207.43 37.2192 206.802 39.3203 206.955 41.4389V49.9597H229.243V40.8269Z" fill="#FF9933"/>
<path d="M272.004 76.1497V33.5065H263.098V24.3659H281.739V27.658C284.493 25.4366 287.949 24.2695 291.485 24.3659H304.031V34.1146H290.273C289.17 34.0373 288.065 34.2235 287.048 34.6579C286.032 35.0923 285.133 35.7624 284.426 36.6128C283.224 38.0405 282.501 39.8099 282.359 41.6711V76.142H295.636V85.2826H263.11V76.142L272.004 76.1497Z" fill="#FF9933"/>
<path d="M344.233 85.2864V9.24898H324.872V-0.0078125H374.208V9.24898H354.847V85.2786L344.233 85.2864Z" fill="#1A1A1A"/>
<path d="M470.312 59.2125V85.2864H459.958V0H470.312V46.0438L489.426 24.3543H502.463L481.267 48.3677L504.167 85.2864H491.389L473.484 55.5562L470.312 59.2125Z" fill="#1A1A1A"/>
<path d="M530.487 80.7202C528.656 78.721 527.266 76.3596 526.405 73.789C525.545 71.2183 525.233 68.4956 525.492 65.797V43.8673C524.947 41.1913 525.073 38.422 525.86 35.8069C526.646 33.1917 528.068 30.8122 529.998 28.8809C531.929 26.9497 534.308 25.5269 536.922 24.7397C539.536 23.9525 542.305 23.8255 544.98 24.3699H550.711C553.11 24.1986 555.518 24.5393 557.775 25.3693C560.032 26.1993 562.087 27.4997 563.803 29.1842C567.024 33.138 568.616 38.172 568.252 43.2592V59.1003H535.85V68.237C535.786 69.3231 535.961 70.4099 536.362 71.421C536.764 72.4321 537.382 73.3429 538.173 74.0894C540.113 75.5989 542.544 76.3358 544.996 76.1576H564.357V85.2982H546.208C540.581 85.7753 534.978 84.1437 530.487 80.7202V80.7202ZM558.138 40.8269C558.169 39.8588 558.001 38.8947 557.644 37.9941C557.288 37.0935 556.751 36.2755 556.066 35.5907C555.382 34.9058 554.564 34.3686 553.663 34.0121C552.763 33.6557 551.799 33.4876 550.831 33.5182H543.741C542.632 33.399 541.51 33.5169 540.45 33.8641C539.39 34.2114 538.416 34.78 537.592 35.5323C536.303 37.22 535.675 39.3205 535.826 41.4389V49.9597H558.119L558.138 40.8269Z" fill="#1A1A1A"/>
<path d="M600.156 24.366V27.2902C602.982 25.2438 606.417 24.2132 609.902 24.366H615.509C620.82 23.946 626.086 25.6132 630.189 29.0138C631.952 31.0385 633.287 33.3994 634.114 35.9541C634.94 38.5089 635.241 41.2047 634.998 43.8788V85.3214H624.644V41.4233C624.728 40.362 624.582 39.295 624.214 38.2959C623.846 37.2968 623.266 36.3894 622.513 35.6364C621.761 34.8834 620.854 34.3027 619.855 33.9343C618.857 33.5659 617.79 33.4187 616.729 33.5027H608.686C607.598 33.4143 606.504 33.5585 605.475 33.9258C604.447 34.2931 603.509 34.875 602.723 35.6329C601.513 36.8517 600.82 38.49 600.787 40.2071V85.2866H590.421V24.366H600.156Z" fill="#1A1A1A"/>
<path d="M692.311 81.5139C688.347 84.2835 683.555 85.6158 678.731 85.2901H660.578V76.1495H679.939C681.716 76.2737 683.481 75.7783 684.934 74.7475C685.514 74.2446 685.969 73.6144 686.265 72.9062C686.56 72.198 686.688 71.431 686.638 70.6652V64.228C686.638 60.5718 684.892 58.745 681.399 58.7476H676.892C672.337 59.1008 667.81 57.7802 664.16 55.0332C662.652 53.493 661.495 51.6444 660.77 49.6145C660.045 47.5846 659.768 45.4216 659.958 43.2744V39.7421C659.752 37.5545 660.065 35.349 660.872 33.3055C661.68 31.262 662.959 29.4384 664.605 27.9833C668.633 25.3157 673.428 24.051 678.247 24.3851H694.572V33.5257H677.031C675.296 33.4369 673.582 33.9304 672.16 34.9278C671.549 35.4096 671.063 36.0322 670.745 36.7424C670.427 37.4526 670.285 38.2293 670.332 39.0062V43.3944C670.27 44.1643 670.386 44.9381 670.67 45.6561C670.955 46.3741 671.401 47.0169 671.974 47.5348C673.173 48.4639 674.663 48.9387 676.179 48.8749H680.315C684.81 48.5581 689.256 49.9744 692.741 52.8332C694.239 54.382 695.394 56.2303 696.128 58.2569C696.862 60.2835 697.159 62.4425 697 64.5921V70.0377C697.165 72.1836 696.826 74.3383 696.012 76.3306C695.198 78.3228 693.931 80.0976 692.311 81.5139V81.5139Z" fill="#1A1A1A"/>
<path d="M402.587 93.9041C402.413 93.9041 402.231 93.9041 402.053 93.9041C399.746 93.719 397.531 92.9164 395.64 91.5803C395.102 91.2201 394.568 90.8289 394.045 90.4532L393.999 90.4183C392.915 89.5866 391.774 88.8333 390.583 88.1642C388.753 87.1995 386.716 86.6919 384.647 86.6846H384.345C383.564 86.6744 382.785 86.7536 382.022 86.9209C381.518 87.2411 381.106 87.6878 380.828 88.2164C380.551 88.7451 380.416 89.3373 380.438 89.9342C380.477 90.6475 380.652 91.3468 380.953 91.9947C381.164 92.3864 381.325 92.8027 381.433 93.2341V93.2341C381.375 93.2341 381.22 93.0443 380.93 92.688C378.888 89.7866 375.936 87.6495 372.543 86.6149C372.045 86.5152 371.579 86.2936 371.188 85.9701C370.796 85.6466 370.491 85.2311 370.299 84.7608C370.108 84.2905 370.035 83.7801 370.089 83.275C370.143 82.7699 370.32 82.286 370.606 81.8664C380.895 66.7264 382.181 61.3195 386.971 41.1985L387.385 39.4595C387.689 38.1684 388.01 36.8283 388.345 35.4392C388.458 34.9654 388.681 34.525 388.996 34.1535C389.311 33.782 389.709 33.49 390.157 33.3012L395.966 30.8843C396.335 30.7363 396.729 30.6613 397.127 30.6636C397.288 30.664 397.449 30.677 397.608 30.7023C400.534 29.671 403.626 29.1929 406.727 29.2925H410.742C413.843 29.1918 416.935 29.6685 419.861 30.6984C419.178 30.8041 418.549 31.1354 418.076 31.6396L400.612 32.9642L399.381 31.6396C398.911 31.1377 398.287 30.8065 397.608 30.6984C396.443 31.1465 395.37 31.8027 394.44 32.635C393.135 34.1687 392.157 35.9522 391.564 37.8767C390.972 39.8012 390.778 41.8263 390.994 43.8284V65.7C390.778 67.7026 390.972 69.7284 391.564 71.6535C392.157 73.5787 393.135 75.3629 394.44 76.8972C398 79.4521 402.364 80.6325 406.727 80.2204H410.742C415.104 80.6325 419.468 79.4521 423.029 76.8972C424.333 75.3625 425.311 73.5783 425.903 71.6532C426.496 69.7282 426.69 67.7026 426.475 65.7V43.8129C426.69 41.8108 426.496 39.7859 425.903 37.8615C425.311 35.9371 424.333 34.1535 423.029 32.6195C422.098 31.788 421.025 31.1319 419.861 30.6829C420.019 30.658 420.178 30.6451 420.337 30.6442C420.736 30.6463 421.131 30.7265 421.499 30.8805L427.307 33.2973C427.756 33.4866 428.153 33.7789 428.467 34.1503C428.781 34.5217 429.003 34.9619 429.116 35.4353C430.188 39.901 431.094 43.8865 431.757 46.7952C435.431 62.9384 436.791 68.9766 446.084 82.6333C446.37 83.0529 446.548 83.5368 446.601 84.0419C446.655 84.5469 446.583 85.0574 446.391 85.5277C446.199 85.998 445.894 86.4135 445.503 86.737C445.111 87.0605 444.646 87.2821 444.148 87.3818C440.949 88.2594 438.161 90.237 436.276 92.9668C436.086 93.2109 436.004 93.3116 435.981 93.3116C436.059 93.0139 436.172 92.7265 436.318 92.4556L436.527 91.9792C436.825 91.3305 436.999 90.6315 437.038 89.9187C437.058 89.4162 436.964 88.9157 436.763 88.4548C436.562 87.994 436.259 87.5847 435.877 87.2578C434.608 86.9533 433.309 86.7896 432.004 86.7698H431.59C430.65 86.7012 429.707 86.8504 428.834 87.2058C427.961 87.5611 427.181 88.1131 426.556 88.8187C426.368 89.0739 426.193 89.3389 426.033 89.6127L426.01 89.6514C425.821 89.9831 425.607 90.3003 425.371 90.6004C425.151 90.8937 424.865 91.1309 424.536 91.2925C424.207 91.454 423.844 91.5354 423.478 91.5299C422.339 91.4058 421.242 91.0329 420.264 90.4377C419.842 90.2247 419.489 90.0504 419.16 89.9071C417.932 89.3432 416.604 89.0324 415.253 88.993C414.877 88.9926 414.501 89.025 414.13 89.0898C412.377 89.531 410.731 90.3214 409.29 91.4137C408.953 91.6345 408.616 91.8553 408.279 92.0683C406.6 93.2194 404.622 93.8572 402.587 93.9041V93.9041Z" fill="#FF9933"/>
<path d="M411.629 89.9188L411.911 85.151L416.21 83.9077L417.968 89.4657C416.933 89.1203 415.841 88.9825 414.753 89.0602C413.665 89.138 412.604 89.4298 411.629 89.9188Z" fill="#DB902E"/>
<path d="M386.583 84.9106C386.583 85.023 386.583 86.6924 386.583 86.824C383.141 86.2121 380.33 87.343 380.419 89.9225H380.388V89.1866C380.853 84.4357 382.098 79.794 384.074 75.4486C385.205 71.6491 385.72 60.08 386.638 63.9028C387.256 67.1447 387.234 70.4763 386.572 73.7095C386.443 75.5703 386.443 77.4377 386.572 79.2984L386.583 84.9106Z" fill="#DB902E"/>
<path d="M430.893 84.9106C430.893 85.023 430.893 86.6924 430.893 86.824C433.906 86.9828 437.151 87.343 437.062 89.9225H437.093V89.1866C436.627 84.4357 435.382 79.7941 433.406 75.4486C432.276 71.6491 431.761 60.08 430.843 63.9028C430.223 67.1446 430.246 70.4764 430.909 73.7095C431.037 75.5703 431.037 77.4377 430.909 79.2984L430.893 84.9106Z" fill="#DB902E"/>
<path d="M410.738 34.2227C413.869 33.8224 417.042 34.5412 419.695 36.2523C421.192 38.4717 421.847 41.1529 421.542 43.8127V65.6959C421.849 68.3557 421.193 71.0376 419.695 73.2562C417.042 74.9682 413.869 75.6871 410.738 75.2858H406.727C403.594 75.6873 400.419 74.967 397.766 73.2524C396.271 71.0325 395.617 68.3512 395.923 65.692V43.832C395.618 41.1723 396.273 38.4911 397.77 36.2717C400.423 34.5609 403.595 33.8421 406.727 34.2421H410.738V34.2227ZM410.738 24.3811H406.727C401.127 23.9223 395.558 25.57 391.11 29.0018C389.278 30.9831 387.883 33.3278 387.016 35.8834C386.148 38.439 385.828 41.1485 386.076 43.8359V65.7191C385.828 68.4066 386.148 71.1161 387.016 73.6717C387.883 76.2273 389.278 78.5718 391.11 80.5532C395.558 83.9856 401.127 85.6334 406.727 85.1738H410.738C416.337 85.6338 421.907 83.986 426.355 80.5532C428.187 78.5718 429.582 76.2273 430.449 73.6717C431.316 71.1161 431.636 68.4066 431.389 65.7191V43.832C431.636 41.1446 431.316 38.4352 430.449 35.8796C429.582 33.3241 428.187 30.9794 426.355 28.9979C421.906 25.5658 416.337 23.918 410.738 24.3772V24.3811Z" fill="#1A1A1A"/>
<path d="M408.732 59.7043C411.091 59.7043 413.003 57.7916 413.003 55.4322C413.003 53.0728 411.091 51.1602 408.732 51.1602C406.374 51.1602 404.461 53.0728 404.461 55.4322C404.461 57.7916 406.374 59.7043 408.732 59.7043Z" fill="#1A1A1A"/>
<path d="M410.727 66.5403H406.734C406.608 66.5404 406.484 66.514 406.368 66.463C406.253 66.4119 406.15 66.3373 406.065 66.2438C405.981 66.1504 405.916 66.0403 405.877 65.9206C405.837 65.8008 405.824 65.6742 405.836 65.5487L406.657 57.0976C406.679 56.8747 406.783 56.668 406.949 56.5176C407.115 56.3673 407.331 56.284 407.555 56.2842H409.906C410.13 56.284 410.346 56.3673 410.512 56.5176C410.678 56.668 410.782 56.8747 410.804 57.0976L411.625 65.5487C411.637 65.6742 411.623 65.8008 411.584 65.9206C411.544 66.0403 411.48 66.1504 411.395 66.2438C411.311 66.3373 411.208 66.4119 411.092 66.463C410.977 66.514 410.853 66.5404 410.727 66.5403V66.5403Z" fill="#1A1A1A"/>
</g>
<defs>
<clipPath id="clip0_116_203">
<rect width="697" height="106" fill="white"/>
</clipPath>
</defs>
</svg>
