<?xml version="1.0" encoding="utf-8"?>
<!-- Generator: Adobe Illustrator 23.0.3, SVG Export Plug-In . SVG Version: 6.00 Build 0)  -->
<svg version="1.1" id="Ebene_1" xmlns="http://www.w3.org/2000/svg" xmlns:xlink="http://www.w3.org/1999/xlink" x="0px" y="0px"
	 viewBox="0 0 958.2 195.6" style="enable-background:new 0 0 958.2 195.6;" xml:space="preserve">
<style type="text/css">
	.st0{fill:#343A40;}
</style>
<g>
	<path class="st0" d="M78.8,59.4l-46.5,67.9h46.5v17.3H7.7v-17.3l46.7-67.9H7.7V42.1h71.1C78.8,42.1,78.8,59.4,78.8,59.4z"/>
	<path class="st0" d="M190,72.6h-22.9c-3.9-8-11.2-14.3-24.2-14.3c-15.6,0-27.7,10.2-29.2,27.2H192c0.6,3.5,0.7,6.9,0.7,10.4
		c0,30.1-20.6,50.4-49.8,50.4c-30.3,0-51.2-20.6-51.2-52.8s21.8-53,51.2-53C168,40.5,184.2,54.8,190,72.6z M142,128.4
		c15.8,0,28.3-10,28.6-25.9h-56.7C116.1,118.8,127.7,128.4,142,128.4z"/>
	<path class="st0" d="M284.1,87.3c0-18.8-10.2-28.5-25.7-28.5c-15.6,0-25.9,9.7-25.9,28.5v57.3h-21.2V42.1h21.2v11.7
		c6.9-8.4,18.2-13.4,30.5-13.4c24,0,42,15.1,42,43.7v60.5h-21V87.3H284.1z"/>
	<path class="st0" d="M367.1,146.3c-24.6,0-41.9-14.5-42.8-33.1h21.9c0.7,8.4,8.7,15.3,20.5,15.3c12.3,0,18.8-5.2,18.8-12.3
		c0-20.1-59.5-8.6-59.5-46.1c0-16.4,15.3-29.6,39.4-29.6c23.3,0,38.5,12.5,39.6,32.9h-21.2c-0.7-8.9-7.6-15.1-19.2-15.1
		c-11.3,0-17.3,4.7-17.3,11.5c0,20.6,57.8,9.1,59,46.1C406.3,133.3,391.2,146.3,367.1,146.3z"/>
	<path class="st0" d="M470.1,40.5c25.1,0,41.5,12.5,47.2,34h-22.9c-3.5-9.9-11.7-16.2-24.4-16.2c-17.1,0-28.5,12.6-28.5,35
		c0,22.5,11.3,35.2,28.5,35.2c12.6,0,20.5-5.6,24.4-16.2h22.9c-5.8,20.1-22.1,34-47.2,34c-29.4,0-50.2-20.8-50.2-53
		C419.9,61.3,440.7,40.5,470.1,40.5z"/>
	<path class="st0" d="M557.5,144.6h-21.2V42.1h21.2V57c6-10.2,16.2-16.6,30.7-16.6v21.9h-5.4c-15.6,0-25.3,6.5-25.3,28.3V144.6z"/>
	<path class="st0" d="M646.8,40.5c17.3,0,29.2,8.2,35.5,16.6v-15h21.4v102.5h-21.4v-15.3c-6.5,8.7-18.8,16.9-35.9,16.9
		c-26.6,0-48-21.8-48-53.4C598.4,61.3,619.8,40.5,646.8,40.5z M651.3,58.9c-15.8,0-31.1,11.9-31.1,34s15.3,35,31.1,35
		c16,0,31.1-12.5,31.1-34.6C682.3,71.3,667.3,58.9,651.3,58.9z"/>
	<path class="st0" d="M786.3,40.5c27,0,48.2,20.8,48.2,52.5c0,31.6-21.2,53.4-48.2,53.4c-16.9,0-29-8.6-35.7-16.6v63.6h-21.2V42.1
		h21.2v15.1C757.1,48.6,769.6,40.5,786.3,40.5z M781.6,58.9c-15.8,0-31.1,12.5-31.1,34.4c0,22.1,15.3,34.6,31.1,34.6
		c16,0,31.2-12.8,31.2-35C812.9,70.8,797.6,58.9,781.6,58.9z"/>
	<path class="st0" d="M897.3,146.3c-29.4,0-51.2-20.8-51.2-53s20.8-52.8,51.2-52.8c29.2,0,49.8,20.3,49.8,50.4
		c0,3.5-0.2,6.9-0.7,10.4h-78.3c1.5,16.9,13.6,27.2,29.2,27.2c13,0,20.3-6.3,24.2-14.3h22.9C938.6,132,922.4,146.3,897.3,146.3z
		 M868.3,84.2H925c-0.4-15.8-12.8-25.9-28.6-25.9C882.1,58.3,870.6,68,868.3,84.2z"/>
</g>
</svg>
