<?xml version="1.0" encoding="UTF-8"?>
<svg width="3789px" height="750px" viewBox="0 0 3789 750" version="1.1" xmlns="http://www.w3.org/2000/svg" xmlns:xlink="http://www.w3.org/1999/xlink">
    <!-- Generator: Sketch 52.5 (67469) - http://www.bohemiancoding.com/sketch -->
    <title>1024</title>
    <desc>Created with Sketch.</desc>
    <g id="1024" stroke="none" stroke-width="1" fill="none" fill-rule="evenodd">
        <path d="M440.195587,552.608826 C512.452823,548.568353 572.766409,537.834363 578.798746,521 C594.175072,478.089492 453.525377,118 377.298746,118 C301.072115,118 156.233783,474.815031 175.798746,521 C183.353314,538.833281 242.866332,549.292441 313.971502,552.943005 L377,679 L440.195587,552.608826 Z M376.5,741 C174.639924,741 11,577.360076 11,375.5 C11,173.639924 174.639924,10 376.5,10 C578.360076,10 742,173.639924 742,375.5 C742,577.360076 578.360076,741 376.5,741 Z" id="Combined-Shape" fill="#007BFF"></path>
        <circle id="Oval-2" fill="#007BFF" cx="377" cy="255" r="41"></circle>
        <path d="M1020.3125,186.234375 L1144.72656,186.234375 C1201.41955,186.234375 1242.57149,194.300701 1268.18359,210.433594 C1293.7957,226.566487 1306.60156,252.223782 1306.60156,287.40625 C1306.60156,311.286578 1300.99615,330.882736 1289.78516,346.195312 C1278.57416,361.507889 1263.67197,370.713526 1245.07812,373.8125 L1245.07812,376.546875 C1270.41679,382.197945 1288.69135,392.770756 1299.90234,408.265625 C1311.11334,423.760494 1316.71875,444.359246 1316.71875,470.0625 C1316.71875,506.521016 1303.54831,534.958231 1277.20703,555.375 C1250.86575,575.791769 1215.09137,586 1169.88281,586 L1020.3125,586 L1020.3125,186.234375 Z M1105.07812,344.554688 L1154.29688,344.554688 C1177.26574,344.554688 1193.89969,341.000036 1204.19922,333.890625 C1214.49875,326.781214 1219.64844,315.02352 1219.64844,298.617188 C1219.64844,283.304611 1214.04302,272.321648 1202.83203,265.667969 C1191.62104,259.01429 1173.89335,255.6875 1149.64844,255.6875 L1105.07812,255.6875 L1105.07812,344.554688 Z M1105.07812,411.820312 L1105.07812,516 L1160.3125,516 C1183.64595,516 1200.87234,511.533899 1211.99219,502.601562 C1223.11203,493.669226 1228.67188,479.997488 1228.67188,461.585938 C1228.67188,428.408688 1204.9742,411.820312 1157.57812,411.820312 L1105.07812,411.820312 Z M1386.44531,201.273438 C1386.44531,174.111843 1401.57537,160.53125 1431.83594,160.53125 C1462.09651,160.53125 1477.22656,174.111843 1477.22656,201.273438 C1477.22656,214.216211 1473.44405,224.287724 1465.87891,231.488281 C1458.31376,238.688838 1446.96622,242.289062 1431.83594,242.289062 C1401.57537,242.289062 1386.44531,228.617324 1386.44531,201.273438 Z M1473.39844,586 L1390,586 L1390,280.296875 L1473.39844,280.296875 L1473.39844,586 Z M1689.6875,525.023438 C1704.27091,525.023438 1721.77073,521.833365 1742.1875,515.453125 L1742.1875,577.523438 C1721.40615,586.820359 1695.88557,591.46875 1665.625,591.46875 C1632.26546,591.46875 1607.97534,583.037845 1592.75391,566.175781 C1577.53248,549.313718 1569.92188,524.021002 1569.92188,490.296875 L1569.92188,342.914062 L1530,342.914062 L1530,307.640625 L1575.9375,279.75 L1600,215.21875 L1653.32031,215.21875 L1653.32031,280.296875 L1738.90625,280.296875 L1738.90625,342.914062 L1653.32031,342.914062 L1653.32031,490.296875 C1653.32031,502.145893 1656.6471,510.895805 1663.30078,516.546875 C1669.95446,522.197945 1678.74995,525.023438 1689.6875,525.023438 Z M1810.54688,586 L1810.54688,186.234375 L1895.3125,186.234375 L1895.3125,516 L2057.46094,516 L2057.46094,586 L1810.54688,586 Z M2314.49219,586 L2298.35938,544.4375 L2296.17188,544.4375 C2282.13535,562.11988 2267.68888,574.378872 2252.83203,581.214844 C2237.97519,588.050815 2218.60689,591.46875 2194.72656,591.46875 C2165.37746,591.46875 2142.27222,583.083417 2125.41016,566.3125 C2108.54809,549.541583 2100.11719,525.661613 2100.11719,494.671875 C2100.11719,462.223796 2111.46473,438.298254 2134.16016,422.894531 C2156.85558,407.490808 2191.0805,398.968758 2236.83594,397.328125 L2289.88281,395.6875 L2289.88281,382.289062 C2289.88281,351.299324 2274.0236,335.804687 2242.30469,335.804687 C2217.87748,335.804687 2189.16683,343.187426 2156.17188,357.953125 L2128.55469,301.625 C2163.73716,283.21345 2202.74718,274.007812 2245.58594,274.007812 C2286.60177,274.007812 2318.04677,282.940015 2339.92188,300.804688 C2361.79698,318.66936 2372.73438,345.830547 2372.73438,382.289062 L2372.73438,586 L2314.49219,586 Z M2289.88281,444.359375 L2257.61719,445.453125 C2233.37227,446.182295 2215.32558,450.557252 2203.47656,458.578125 C2191.62754,466.598998 2185.70312,478.812418 2185.70312,495.21875 C2185.70312,518.734493 2199.19257,530.492188 2226.17188,530.492188 C2245.49489,530.492188 2260.94395,524.932347 2272.51953,513.8125 C2284.09511,502.692653 2289.88281,487.927175 2289.88281,469.515625 L2289.88281,444.359375 Z M2675.15625,586 L2663.94531,546.898438 L2659.57031,546.898438 C2650.63798,561.117259 2637.96883,572.100222 2621.5625,579.847656 C2605.15617,587.595091 2586.47146,591.46875 2565.50781,591.46875 C2529.59617,591.46875 2502.52613,581.852961 2484.29688,562.621094 C2466.06762,543.389227 2456.95312,515.726743 2456.95312,479.632812 L2456.95312,280.296875 L2540.35156,280.296875 L2540.35156,458.851562 C2540.35156,480.908964 2544.27079,497.451768 2552.10938,508.480469 C2559.94796,519.50917 2572.43481,525.023438 2589.57031,525.023438 C2612.90376,525.023438 2629.76557,517.230547 2640.15625,501.644531 C2650.54693,486.058516 2655.74219,460.21893 2655.74219,424.125 L2655.74219,280.296875 L2739.14062,280.296875 L2739.14062,586 L2675.15625,586 Z M3108.82812,586 L3025.42969,586 L3025.42969,407.445312 C3025.42969,385.387911 3021.51046,368.845107 3013.67188,357.816406 C3005.83329,346.787705 2993.34644,341.273438 2976.21094,341.273438 C2952.87749,341.273438 2936.01568,349.066328 2925.625,364.652344 C2915.23432,380.238359 2910.03906,406.077945 2910.03906,442.171875 L2910.03906,586 L2826.64062,586 L2826.64062,280.296875 L2890.35156,280.296875 L2901.5625,319.398438 L2906.21094,319.398438 C2915.50786,304.632739 2928.31372,293.467486 2944.62891,285.902344 C2960.94409,278.337202 2979.49208,274.554688 3000.27344,274.554688 C3035.82049,274.554688 3062.79939,284.170477 3081.21094,303.402344 C3099.62249,322.634211 3108.82812,350.387839 3108.82812,386.664062 L3108.82812,586 Z M3318.82812,591.46875 C3223.6714,591.46875 3176.09375,539.24271 3176.09375,434.789062 C3176.09375,382.835678 3189.03633,343.142064 3214.92188,315.707031 C3240.80742,288.271998 3277.9034,274.554688 3326.21094,274.554688 C3361.5757,274.554688 3393.29413,281.481702 3421.36719,295.335938 L3396.75781,359.867188 C3383.63275,354.580703 3371.41933,350.251319 3360.11719,346.878906 C3348.81505,343.506494 3337.51308,341.820312 3326.21094,341.820312 C3282.8253,341.820312 3261.13281,372.627296 3261.13281,434.242188 C3261.13281,494.034153 3282.8253,523.929688 3326.21094,523.929688 C3342.25268,523.929688 3357.10931,521.787782 3370.78125,517.503906 C3384.45319,513.220031 3398.12493,506.520879 3411.79688,497.40625 L3411.79688,568.773438 C3398.30722,577.341189 3384.68106,583.265609 3370.91797,586.546875 C3357.15488,589.828141 3339.79177,591.46875 3318.82812,591.46875 Z M3764.80469,586 L3681.40625,586 L3681.40625,407.445312 C3681.40625,363.330509 3665.00016,341.273438 3632.1875,341.273438 C3608.85405,341.273438 3591.99224,349.203046 3581.60156,365.0625 C3571.21089,380.921954 3566.01562,406.624822 3566.01562,442.171875 L3566.01562,586 L3482.61719,586 L3482.61719,160.53125 L3566.01562,160.53125 L3566.01562,247.210938 C3566.01562,253.955763 3565.37761,269.814979 3564.10156,294.789062 L3562.1875,319.398438 L3566.5625,319.398438 C3585.15634,289.502455 3614.6873,274.554688 3655.15625,274.554688 C3691.06789,274.554688 3718.32022,284.216049 3736.91406,303.539062 C3755.50791,322.862076 3764.80469,350.570132 3764.80469,386.664062 L3764.80469,586 Z" id="BitLaunch" fill="#007BFF"></path>
    </g>
</svg>