<svg width="121" height="21" viewBox="0 0 121 21" xmlns="http://www.w3.org/2000/svg"><title>017620E2-20D7-4B53-913A-4B9E45FA2245</title><path d="M28.34 7.14c-.666.757-.999 1.68-.999 2.815 0 1.134.333 2.057.999 2.856.665.798 1.537 1.176 2.618 1.176 1.745 0 3.409-1.345 4.947-4.032-1.538-2.604-3.16-3.907-4.864-3.907-1.08 0-1.953.378-2.701 1.093m21.697 5.628c.665-.714.997-1.639.997-2.814 0-1.177-.332-2.142-.997-2.899-.665-.755-1.538-1.134-2.619-1.134-.956 0-1.828.294-2.619.966-.79.672-1.538 1.64-2.285 2.982 1.496 2.647 3.117 3.949 4.821 3.949 1.122 0 1.996-.378 2.702-1.05M24.1 2.856c1.703-1.806 3.949-2.73 6.65-2.73 3.243 0 6.11 1.68 8.521 4.998C41.474 1.722 44.301 0 47.71 0c2.702 0 4.946.924 6.692 2.814 1.746 1.89 2.62 4.242 2.62 7.056 0 3.024-.874 5.419-2.62 7.225s-3.99 2.689-6.734 2.689c-1.538 0-3.033-.462-4.447-1.387-1.455-.882-2.702-2.1-3.865-3.612-2.37 3.445-5.28 5.167-8.688 5.167-2.618 0-4.821-.967-6.567-2.899-1.788-1.932-2.66-4.284-2.66-7.056 0-2.982.831-5.376 2.66-7.14M10.495 14.941H5.824v-2.45h4.67c.836 0 1.356.548 1.356 1.24 0 .72-.52 1.21-1.355 1.21zm-.173-7.294H5.824V5.398h4.498c.606 0 1.152.432 1.152 1.096 0 .692-.546 1.153-1.152 1.153zm1.759 12.138c3.863 0 5.679-2.537 5.679-5.218 0-2.48-1.585-4.382-3.661-4.7 1.873-.403 3.286-2.018 3.286-4.411 0-2.249-1.73-4.901-5.709-4.901H0v19.23h12.08zm57.947.345c5.16 0 8.303-2.45 8.303-6.688 0-7.15-10.696-5.593-10.696-7.41 0-.49.317-.864 1.47-.864 1.817 0 3.979.634 5.65 1.903l3.115-4.123C75.679 1.16 72.853.266 69.71.266c-5.275 0-7.986 3.115-7.986 6.372 0 7.583 10.725 5.708 10.725 7.555 0 .748-1.037 1.037-2.133 1.037a8.963 8.963 0 0 1-6.2-2.48l-3.026 4.325c2.046 1.845 4.844 3.056 8.938 3.056m23.078-.346V5.629h5.132V.555H82.12v5.074h5.16v14.156zm18.892-7.323h-3.806l1.903-6.199 1.903 6.199zm8.85 7.323L113.756.555h-7.324l-7.092 19.23h6.602l.692-2.248h6.92l.692 2.248h6.602z" fill="#ea1c2c" fill-rule="evenodd"/></svg>