<?xml version="1.0" encoding="UTF-8"?>
<svg width="3476px" height="800px" viewBox="0 0 3476 800" version="1.1" xmlns="http://www.w3.org/2000/svg" xmlns:xlink="http://www.w3.org/1999/xlink">
    <!-- Generator: Sketch 48.2 (47327) - http://www.bohemiancoding.com/sketch -->
    <title>Horizontal Logo - White</title>
    <desc>Created with Sketch.</desc>
    <defs></defs>
    <g id="Final-Logo" stroke="none" stroke-width="1" fill="none" fill-rule="evenodd">
        <g id="Horizontal-Logo---White">
            <g id="Group-7" transform="translate(84.000000, 100.000000)">
                <g id="Group-5">
                    <g id="Logo">
                        <path d="M1091.32997,413.557132 C1006.28474,413.557132 968.936843,355.837704 968.936843,307.300912 C968.936843,259.201388 1006.28474,201.48196 1091.32997,201.48196 C1134.52754,201.48196 1164.22587,223.782648 1164.22587,223.782648 L1200.22385,153.819705 C1200.22385,153.819705 1158.82617,120.587307 1078.2807,120.587307 C972.986616,120.587307 877.142001,204.542839 877.142001,308.175449 C877.142001,411.37079 973.43659,494.451786 1078.2807,494.451786 C1158.82617,494.451786 1200.22385,461.219388 1200.22385,461.219388 L1164.22587,391.256444 C1164.22587,391.256444 1134.52754,413.557132 1091.32997,413.557132 Z M1197.39977,307.849126 C1197.39977,202.467443 1285.17738,121.135521 1390.60339,121.135521 C1496.95826,121.135521 1583.34257,202.467443 1583.34257,307.849126 C1583.34257,413.23081 1500.67372,495 1390.60339,495 C1277.28204,495 1197.39977,413.23081 1197.39977,307.849126 Z M1291.67942,307.849126 C1291.67942,361.633139 1319.08089,415.417152 1390.60339,415.417152 C1460.26815,415.417152 1489.06292,361.633139 1489.06292,307.849126 C1489.06292,254.065113 1458.41042,200.281101 1390.60339,200.281101 C1323.26078,200.281101 1291.67942,254.065113 1291.67942,307.849126 Z M1548.50763,120.56776 L1650.20192,120.56776 L1727.59757,242.036975 L1804.99322,120.56776 L1906.68751,120.56776 L1769.89519,325.555239 L1769.89519,494.471332 L1685.29994,494.471332 L1685.29994,325.555239 L1548.50763,120.56776 Z M2198.81515,494.471332 L2139.41849,284.341063 L2080.02183,494.471332 L1985.97711,494.471332 L1880.23305,120.56776 L1974.27777,120.56776 L2037.7242,373.543816 L2039.97408,373.543816 L2107.47028,120.56776 L2171.36669,120.56776 L2238.8629,373.543816 L2241.11278,373.543816 L2304.55921,120.56776 L2398.15395,120.56776 L2292.40989,494.471332 L2198.81515,494.471332 Z M2400.85212,307.280702 C2400.85212,201.578947 2488.62973,120 2594.05574,120 C2700.41061,120 2786.79492,201.578947 2786.79492,307.280702 C2786.79492,412.982456 2704.12607,495 2594.05574,495 C2480.73439,495 2400.85212,412.982456 2400.85212,307.280702 Z M2495.13177,307.280702 C2495.13177,361.22807 2522.53325,415.175439 2594.05574,415.175439 C2663.7205,415.175439 2692.51527,361.22807 2692.51527,307.280702 C2692.51527,253.333333 2661.86278,199.385965 2594.05574,199.385965 C2526.71313,199.385965 2495.13177,253.333333 2495.13177,307.280702 Z M2917.01168,120.56776 L2832.41643,120.56776 L2832.41643,494.471332 L3044.8045,494.471332 L3044.8045,422.322046 L2917.01168,422.322046 L2917.01168,120.56776 Z M3304.65608,120.56776 L3090.01814,120.56776 L3090.01814,494.471332 L3174.61339,494.471332 L3174.61339,335.48192 L3287.9869,335.48192 L3289.11519,263.332634 L3174.61339,263.332634 L3174.61339,191.620617 L3304.65608,191.620617 L3304.65608,120.56776 Z" id="COYWOLF" stroke="#FFFFFF" stroke-width="21" fill="#FFFFFF"></path>
                        <g id="Group-3">
                            <g id="Group-2"></g>
                            <g id="Group" transform="translate(185.683588, 201.935813)"></g>
                            <path d="M578.177382,443.480463 C579.025448,442.033805 580.197125,438.644089 581.841428,432.32558 C590.477874,399.13861 608.287439,345.979384 613.954133,342.035876 C619.620828,338.092368 621.383442,340.632159 628.719993,341.318245 C636.056543,342.004331 645.765992,342.972389 649.609,340.40164 C658.038952,334.762493 662.468774,327.328178 658.819822,323.184828 C650.122624,313.30924 640.072979,303.350427 637.406098,300.732243 C630.113109,293.572424 631.86747,286.456923 630.804846,279.473634 C629.742222,272.490344 625.458076,261.876993 625.458076,261.876993 C625.458076,261.876993 644.33455,223.894476 630.497662,230.291233 C627.165563,231.831654 599.475048,247.383536 595.641114,247.383536 C587.643782,247.383536 585.240627,246.827433 578.031695,239.736307 C572.023174,233.825974 565.263295,217.192844 557.869659,204.333057 C553.408056,196.572968 545.795542,208.9506 540.950783,222.900813 C539.991914,225.661823 535.090829,245.365051 535.963244,252.65387 C536.83566,259.942689 519.660406,279.808791 512.11926,286.730561 C508.149669,290.374119 503.681386,294.116023 498.569034,297.575559 C482.070281,305.636037 457.791284,314.078921 412.526902,322.715651 C407.114463,323.748379 401.893775,324.735384 396.85612,325.681012 C396.753837,325.697103 396.651508,325.713224 396.549135,325.729376 C391.316731,326.55493 388.566917,327.051084 387.843351,327.365601 C266.508376,349.951385 257.900307,347.97187 222.77183,390.835431 C202.702896,415.323425 188.692521,484.460717 186.120484,522.689728 C183.082206,544.367138 186.245099,560.600413 189.317232,568.380798 C194.421217,581.306985 217.575606,577.379714 219.490593,588.545123 C221.40558,599.710532 224.38078,599.776971 187.141078,599.776971 C175.525329,599.776971 169.308501,599.334842 161.574319,595.540447 C153.840136,591.746052 151.346337,581.578056 148.848274,573.922238 C146.35021,566.26642 131.756585,512.71618 129.702172,488.263075 C128.232332,470.767982 132.539232,455.936907 139.243443,433.567116 C143.781501,418.425079 149.247253,398.539735 153.720117,371.511055 C152.505886,375.092765 151.744419,377.358477 151.744419,377.358477 C151.744419,377.358477 148.125191,389.030596 133.825769,432.638276 C132.788643,435.801109 131.681624,439.031095 130.396776,442.294685 C128.296892,447.862882 125.567568,453.51985 121.74667,459.10321 C115.49492,468.408353 106.333109,477.523971 91.7983916,485.684548 C84.8386176,489.592142 78.4625564,492.965454 72.6307897,495.845442 C-61.3336975,565.922919 28.4245857,455.446398 51.7897303,418.400561 C52.321406,417.55758 52.9703633,416.681897 53.7327759,415.774773 C85.4945433,364.68249 115.823526,314.214807 146.221964,291.705262 C177.156322,268.798879 182.841895,261.118642 259.626166,246.138752 C305.652793,237.159389 421.555113,221.212475 499.425442,196.172147 C490.666067,190.067187 487.384737,182.959934 486.749955,182.234822 C478.995344,173.376723 505.94554,153.349932 527.086893,139.52819 C527.881627,138.850354 528.418576,138.424399 528.723109,138.252808 C536.78372,133.710988 535.476165,122.649834 537.068053,112.263347 C538.837346,100.719368 543.025662,90.0088092 543.025662,90.0088092 C543.025662,90.0088092 512.530276,32.6598745 533.342968,42.1739918 C538.354929,44.4651121 580.005492,67.5959612 585.772286,67.5959612 C597.801437,67.5959612 601.416132,66.7688507 612.259414,56.2219741 C621.297104,47.4313331 631.464945,22.6923079 642.586049,3.5655034 C649.29695,-7.97634328 659.720232,10.4333342 669.061547,31.1819665 C670.826748,35.1027736 677.331394,55.199115 679.644669,65.4648967 C681.577685,74.043172 703.725103,113.573017 709.694013,158.172686 C720.018504,216.754192 712.061744,297.031235 659.339229,396.219204 C648.986102,421.15619 635.90827,450.009891 630.616665,472.651428 C623.094562,504.836744 612.721705,554.67324 617.826087,567.595024 C622.93047,580.516808 645.883636,578.156974 647.147134,587.752479 C647.808162,592.772589 649.350055,595.613149 645.337137,597.180668 C642.524301,599.047196 634.750565,599.673024 615.325025,599.673024 C602.942095,599.673024 593.071278,599.96106 585.844756,594.416132 C578.269886,588.603914 577.813362,583.138569 574.594849,573.818291 C572.647374,568.178727 570.968171,551.764868 570.421978,532.412323 C569.794383,519.608207 569.643155,505.468088 570.507431,492.287352 C571.328981,479.758215 573.680665,464.459563 577.692173,445.838654 C577.850716,445.058398 578.012435,444.272348 578.177382,443.480463 Z" id="Combined-Shape" fill="#FFFFFF"></path>
                        </g>
                    </g>
                </g>
            </g>
        </g>
    </g>
</svg>