<?xml version="1.0" encoding="utf-8"?>
<!-- Generator: Adobe Illustrator 23.0.1, SVG Export Plug-In . SVG Version: 6.00 Build 0)  -->
<svg version="1.1" id="Layer_1" xmlns="http://www.w3.org/2000/svg" xmlns:xlink="http://www.w3.org/1999/xlink" x="0px" y="0px"
	 viewBox="0 0 615 172.2" style="enable-background:new 0 0 615 172.2;" xml:space="preserve">
<style type="text/css">
	.st0{fill:#F8B400;}
	.st1{fill:#0445A5;}
</style>
<g>
	<circle class="st0" cx="244.1" cy="33" r="32"/>
	<path class="st1" d="M60.5,72.3H0v99.8h28.5V93.7h24.9c5.9,0,10.7,4.8,10.7,10.7l0,0l0,0v67.8h28.5v-67.8
		C92.7,86.6,78.3,72.3,60.5,72.3z"/>
	<path class="st1" d="M374.2,150.6h-18.7l0,0l0,0c-5.5-0.4-9.9-5-9.9-10.7l0,0l0,0V93.6h28.5V72.2h-28.5V36.5h-28.5v35.6h-12.5
		l-16,21.4h28.5V140c0,17.7,14.3,32,32,32l0,0H374v-11.9l0,0L374.2,150.6L374.2,150.6z"/>
	<polygon class="st1" points="297.6,72.3 265.5,72.3 244.2,100.8 222.8,72.3 190.6,72.3 228.1,122.1 190.6,172.1 222.8,172.1 
		244.2,143.5 265.5,172.1 297.6,172.1 260.2,122.1 	"/>
	<polygon class="st1" points="495.3,72.3 470.4,135.8 445.5,72.3 416.9,72.3 456.2,172.1 484.6,172.1 523.8,72.3 	"/>
	<g>
		<rect x="381.3" y="72.3" class="st1" width="28.5" height="99.8"/>
		<rect x="381.3" y="36.6" class="st1" width="28.5" height="28.5"/>
	</g>
	<path class="st1" d="M149.6,150.6c-9,0-16.6-7.4-19.8-17.8h68.6c0.7-3.4,1.2-7,1.2-10.7c0-27.6-22.4-49.9-49.9-49.9
		s-49.9,22.4-49.9,49.9s22.4,49.9,49.9,49.9l0,0h33.8l16-21.4H149.6z M149.6,93.7c9,0,16.6,7.4,19.8,17.8h-39.7
		C133,101,140.7,93.7,149.6,93.7z"/>
	<path class="st1" d="M582.9,72.3h-52l-8.4,21.4h53.2c5.9,0,10.7,4.8,10.7,10.7l0,0l0,0v7.1h-42.7v0.1c-15.9,1-28.5,14.1-28.5,30.2
		s12.6,29.3,28.5,30.2v0.1H615v-67.8C614.9,86.6,600.6,72.3,582.9,72.3z M550.8,133c0.5-0.1,1.1-0.1,1.5-0.2l0,0h34.1l0,0v17.8l0,0
		h-12h-22.1l0,0c-0.5,0-1.1-0.1-1.5-0.2c-4-0.8-7.1-4.5-7.1-8.7C543.9,137.5,546.7,133.9,550.8,133z"/>
</g>
</svg>
