<?xml version="1.0" encoding="UTF-8" standalone="no"?>
<!-- Created with Inkscape (http://www.inkscape.org/) -->
<svg xmlns:dc="http://purl.org/dc/elements/1.1/" xmlns:cc="http://creativecommons.org/ns#" xmlns:rdf="http://www.w3.org/1999/02/22-rdf-syntax-ns#" xmlns:svg="http://www.w3.org/2000/svg" xmlns="http://www.w3.org/2000/svg" xmlns:sodipodi="http://sodipodi.sourceforge.net/DTD/sodipodi-0.dtd" xmlns:inkscape="http://www.inkscape.org/namespaces/inkscape" id="svg2" version="1.1" inkscape:version="0.91 r13725" xml:space="preserve" width="929.0625" height="191.47501" viewBox="0 0 929.0625 191.47501" sodipodi:docname="write-as-logo-dark.svg"><metadata id="metadata8"><rdf:RDF><cc:Work rdf:about=""><dc:format>image/svg+xml</dc:format><dc:type rdf:resource="http://purl.org/dc/dcmitype/StillImage"/><dc:title/></cc:Work></rdf:RDF></metadata><defs id="defs6"/><sodipodi:namedview pagecolor="#ffffff" bordercolor="#666666" borderopacity="1" objecttolerance="10" gridtolerance="10" guidetolerance="10" inkscape:pageopacity="0" inkscape:pageshadow="2" inkscape:window-width="1177" inkscape:window-height="694" id="namedview4" showgrid="false" inkscape:zoom="0.39502186" inkscape:cx="464.53125" inkscape:cy="95.737503" inkscape:window-x="0" inkscape:window-y="24" inkscape:window-maximized="0" inkscape:current-layer="g10"/><g id="g10" inkscape:groupmode="layer" inkscape:label="ink_ext_XXXXXX" transform="matrix(1.25,0,0,-1.25,0,191.475)"><path inkscape:connector-curvature="0" id="path14" style="fill:#00b3e3;fill-opacity:1;fill-rule:nonzero;stroke:none" d="m 309.411,137.045 c 0,-8.91 -7.224,-16.133 -16.134,-16.133 -8.91,0 -16.134,7.223 -16.134,16.133 0,8.911 7.224,16.134 16.134,16.134 8.91,0 16.134,-7.223 16.134,-16.134"/><path inkscape:connector-curvature="0" id="path16" style="fill:#00b3e3;fill-opacity:1;fill-rule:nonzero;stroke:none" d="M 544.052,16.134 C 544.052,7.22305 536.829,0 527.919,0 c -8.911,0 -16.134,7.22305 -16.134,16.134 0,8.9101 7.223,16.1332 16.134,16.1332 8.91,0 16.133,-7.2231 16.133,-16.1332"/><path inkscape:connector-curvature="0" id="path18" style="fill:#ffffff;fill-opacity:1;fill-rule:nonzero;stroke:none" d="M 92.5797,101.511 108.33,47.25 c 0.768,-2.7531 1.583,-5.7301 2.447,-8.9309 0.864,-3.2019 1.647,-6.1472 2.355,-8.8359 l 0.192,0 c 0.384,2.6887 1.038,5.5848 1.967,8.693 0.928,3.1058 1.778,5.9367 2.546,8.4976 l 7.587,24.8739 c 0.577,1.7925 1.089,3.4109 1.537,4.8515 0.445,1.4406 0.911,2.7672 1.391,3.9836 0.48,1.2164 0.946,2.3692 1.394,3.4574 0.445,1.0883 0.96,2.177 1.537,3.2653 l 0,0.1922 -11.333,-0.7684 0,14.9817 37.359,0 0,-12.5809 c -2.629,0 -4.934,-0.8641 -6.915,-2.593 -1.985,-1.7285 -3.699,-3.7773 -5.14,-6.1461 -1.44,-2.3691 -2.625,-4.7379 -3.553,-7.107 -0.928,-2.3688 -1.619,-4.1934 -2.063,-5.4738 l -22.377,-65.01723 -20.8399,0 -13.541,41.96793 c -0.3844,1.025 -0.8645,2.4832 -1.4406,4.3723 -0.5762,1.8848 -1.1704,3.9367 -1.7786,6.1457 -0.6082,2.209 -1.2484,4.4961 -1.9207,6.8649 -0.6722,2.3691 -1.2949,4.6097 -1.8711,6.7226 l -0.1918,0 c -0.3843,-2.7531 -1.0101,-5.8441 -1.8746,-9.2656 -0.8644,-3.4254 -1.7605,-6.7727 -2.689,-10.0379 -0.9285,-3.2649 -1.7926,-6.2098 -2.593,-8.8348 -0.8004,-2.625 -1.3906,-4.482 -1.775,-5.5711 L 55.8938,2.59297 l -19.4958,0 -23.8171,68.18633 c -0.9,2.4969 -1.6008,4.5137 -2.1129,6.0504 -0.51566,1.5363 -0.94612,2.8668 -1.29808,3.9871 -0.35234,1.1172 -0.62265,2.127 -0.81484,3.0234 -0.1918,0.8965 -0.41953,1.9207 -0.67227,3.0735 L 0,86.5293 l 0,14.9817 47.1543,0 0,-12.5809 c -2.7531,-0.1918 -4.6918,-1.0242 -5.8121,-2.4969 -1.1203,-1.4727 -1.6789,-3.3613 -1.6789,-5.666 -0.0641,-1.0887 0.014,-2.241 0.2383,-3.4574 0.2242,-1.2164 0.53,-2.4649 0.914,-3.7453 l 6.6266,-24.0094 c 0.7683,-2.8813 1.5187,-5.9039 2.2551,-9.0742 0.7363,-3.1688 1.3304,-6.3879 1.7785,-9.6528 l 0.1922,0 c 0.3199,1.4078 0.6367,2.8489 0.9601,4.3207 0.3203,1.4731 0.6727,3.0594 1.0567,4.7563 0.384,1.6929 0.8289,3.5531 1.3445,5.5699 0.5121,2.0172 1.1168,4.2398 1.8246,6.673 l 14.4055,49.363 21.3203,0"/><path inkscape:connector-curvature="0" id="path20" style="fill:#ffffff;fill-opacity:1;fill-rule:nonzero;stroke:none" d="m 237.308,104.68 c 2.304,0 4.499,-0.32 6.58,-0.96 2.077,-0.64 3.902,-1.618 5.474,-2.927 1.569,-1.3129 2.817,-2.9953 3.745,-5.0442 0.925,-2.0488 1.391,-4.5136 1.391,-7.3949 0,-1.5363 -0.256,-3.1191 -0.768,-4.7519 -0.512,-1.6329 -1.313,-3.1231 -2.401,-4.4676 -1.089,-1.3446 -2.511,-2.4469 -4.272,-3.3114 -1.764,-0.8644 -3.891,-1.2984 -6.388,-1.2984 -1.345,0 -2.721,0.1777 -4.13,0.5301 -1.408,0.3484 -2.703,0.9601 -3.888,1.8246 -1.188,0.8645 -2.208,2.0312 -3.073,3.5035 -0.864,1.4727 -1.394,3.3613 -1.586,5.6664 -1.985,0 -3.984,-0.6582 -6.001,-1.9672 -2.016,-1.3125 -3.905,-2.9449 -5.666,-4.8976 -1.764,-1.9567 -3.315,-4.0516 -4.659,-6.2922 -1.345,-2.241 -2.305,-4.2578 -2.881,-6.0504 l 0,-32.077 c 0,-0.9597 -0.015,-2.1117 -0.047,-3.4566 -0.035,-1.3453 -0.082,-2.7852 -0.146,-4.3223 -0.064,-1.5359 -0.142,-3.1187 -0.238,-4.7519 -0.096,-1.632 -0.21,-3.1871 -0.338,-4.659 l 12.773,0.5762 0,-14.98206 -51.572,0 0,12.77306 c 2.753,0 4.912,0.416 6.485,1.2488 1.568,0.832 2.735,2.016 3.503,3.5531 0.768,1.5368 1.249,3.375 1.441,5.5239 0.192,2.1449 0.288,4.5281 0.288,7.1531 l 0,33.1324 c 0,2.3692 0.05,5.0082 0.146,7.925 0.096,2.9133 0.302,5.8403 0.622,8.7856 l -13.829,-0.5762 0,14.7894 c 4.545,0 8.561,0.1957 12.054,0.5872 3.49,0.3875 6.467,0.8785 8.932,1.4656 2.461,0.5829 4.449,1.2159 5.954,1.8989 1.501,0.687 2.607,1.352 3.311,2.003 l 9.7,0 0.864,-16.9027 0.289,0 c 1.28,1.7289 2.834,3.6492 4.659,5.7621 1.825,2.1129 3.938,4.0836 6.339,5.9082 2.401,1.8244 5.04,3.3614 7.921,4.6094 2.881,1.249 6.018,1.871 9.412,1.871"/><path inkscape:connector-curvature="0" id="path22" style="fill:#ffffff;fill-opacity:1;fill-rule:nonzero;stroke:none" d="m 305.369,34.7648 c 0,-0.9597 -0.014,-2.1117 -0.046,-3.4566 -0.035,-1.3453 -0.082,-2.7852 -0.146,-4.3223 -0.064,-1.5359 -0.142,-3.1187 -0.238,-4.7519 -0.096,-1.632 -0.21,-3.1871 -0.338,-4.659 l 12.773,0.5762 0,-14.98206 -51.572,0 0,12.77306 c 2.753,0 4.912,0.416 6.484,1.2488 1.569,0.832 2.736,2.016 3.504,3.5531 0.768,1.5368 1.248,3.375 1.44,5.5239 0.193,2.1449 0.289,4.5281 0.289,7.1531 l 0,32.6523 c 0,2.3688 0.049,5.0899 0.145,8.1633 0.096,3.0731 0.303,6.0821 0.623,9.0274 l -13.829,-0.5762 0,14.7894 c 4.545,0 8.561,0.1957 12.054,0.5872 3.489,0.3875 6.466,0.8785 8.931,1.4656 2.462,0.5829 4.45,1.2159 5.955,1.8989 1.501,0.687 2.607,1.352 3.311,2.003 l 10.66,0 0,-68.6672"/><path inkscape:connector-curvature="0" id="path24" style="fill:#ffffff;fill-opacity:1;fill-rule:nonzero;stroke:none" d="m 320.754,101.511 c 3.393,0.064 6.562,0.914 9.507,2.547 2.945,1.633 5.585,3.663 7.925,6.096 2.337,2.434 4.322,5.091 5.954,7.971 1.633,2.882 2.832,5.571 3.6,8.068 l 14.502,0 -0.096,-24.682 25.065,0 0,-15.1739 -25.065,-0.4801 c -0.064,-9.2976 -0.111,-17.0054 -0.143,-23.1308 -0.035,-6.1211 -0.064,-11.0262 -0.096,-14.7114 -0.035,-3.6886 -0.049,-6.3168 -0.049,-7.8886 0,-1.5731 0,-2.4832 0,-2.7391 0,-2.309 0.145,-4.6031 0.433,-6.8789 0.289,-2.2773 0.865,-4.3262 1.729,-6.1543 0.864,-1.8277 2.077,-3.3008 3.65,-4.425 1.568,-1.1199 3.599,-1.682 6.096,-1.682 0.832,0 1.875,0.132 3.123,0.3883 1.249,0.2589 2.654,0.7886 4.226,1.5968 1.568,0.8071 3.247,2.002 5.04,3.5821 1.793,1.582 3.617,3.6949 5.474,6.3418 l 9.508,-8.836 C 397.551,16.0699 393.966,12.0051 390.381,9.12305 386.795,6.24219 383.37,4.13008 380.105,2.78516 376.839,1.44102 373.862,0.639844 371.173,0.383984 368.484,0.132031 366.243,0 364.451,0 c -2.177,0 -4.432,0.178125 -6.769,0.530078 -2.341,0.351953 -4.646,1.007032 -6.915,1.966802 -2.273,0.96015 -4.418,2.31914 -6.434,4.0832 -2.017,1.76094 -3.81,4.04802 -5.379,6.86482 -1.572,2.8172 -2.802,6.2281 -3.699,10.2301 -0.896,3.998 -1.344,8.7211 -1.344,14.1641 l 0.288,47.4418 -13.445,-0.1922 0,16.4223"/><path inkscape:connector-curvature="0" id="path26" style="fill:#ffffff;fill-opacity:1;fill-rule:nonzero;stroke:none" d="m 455.981,90.8512 c -2.881,0 -5.46,-0.5446 -7.729,-1.6328 -2.277,-1.0883 -4.244,-2.593 -5.908,-4.5137 -1.665,-1.9207 -3.027,-4.2399 -4.08,-6.9609 -1.06,-2.7247 -1.811,-5.7161 -2.259,-8.9813 l 36.206,0 c -0.128,4.0336 -0.608,7.459 -1.44,10.2758 -0.833,2.8172 -1.967,5.1043 -3.411,6.8683 -1.437,1.761 -3.12,3.0235 -5.041,3.7918 -1.92,0.7684 -4.033,1.1528 -6.338,1.1528 z M 499.39,56.0855 434.757,54.9332 c 0,-5.3781 0.494,-10.3582 1.487,-14.932 0.992,-4.5782 2.578,-8.5153 4.755,-11.8121 2.177,-3.3012 5.026,-5.8942 8.547,-7.7789 3.522,-1.8891 7.843,-2.8352 12.965,-2.8352 1.985,0 4.194,0.2559 6.627,0.768 2.433,0.5121 4.912,1.3449 7.441,2.4968 2.529,1.1524 5.076,2.675 7.637,4.5641 2.561,1.8852 4.962,4.207 7.203,6.9602 l 8.835,-8.3551 C 496.733,18.9512 492.987,14.8539 489.018,11.716 485.048,8.57891 481.061,6.14609 477.063,4.41797 473.058,2.68906 469.12,1.52188 465.247,0.914063 461.373,0.305859 457.774,0 454.444,0 c -7.234,0 -13.829,1.21602 -19.783,3.64883 -5.955,2.4332 -11.077,5.92305 -15.366,10.46837 -4.29,4.5457 -7.605,10.0199 -9.942,16.4226 -2.337,6.4024 -3.503,13.6051 -3.503,21.6082 0,6.9149 1.166,13.527 3.503,19.8336 2.337,6.3028 5.652,11.8907 9.942,16.7567 4.289,4.8656 9.458,8.739 15.512,11.6207 6.046,2.881 12.787,4.321 20.214,4.321 3.649,0 7.281,-0.32 10.902,-0.96 3.613,-0.64 7.071,-1.715 10.372,-3.215 3.293,-1.505 6.366,-3.4757 9.219,-5.9085 2.846,-2.4328 5.296,-5.4422 7.345,-9.0277 2.049,-3.5852 3.664,-7.811 4.848,-12.6766 1.185,-4.866 1.747,-10.4684 1.683,-16.8067"/><path inkscape:connector-curvature="0" id="path28" style="fill:#ffffff;fill-opacity:1;fill-rule:nonzero;stroke:none" d="m 612.832,48.4988 c -3.713,-0.3847 -7.203,-1.0597 -10.468,-2.0238 -3.265,-0.9641 -6.097,-2.234 -8.501,-3.8059 -2.397,-1.5722 -4.29,-3.45 -5.663,-5.6339 -1.38,-2.1883 -2.066,-4.6922 -2.066,-7.5161 0.064,-1.864 0.416,-3.4402 1.056,-4.7242 0.64,-1.284 1.455,-2.3437 2.447,-3.1801 0.993,-0.8316 2.145,-1.4437 3.458,-1.8277 1.312,-0.3883 2.674,-0.5801 4.083,-0.5801 3.073,0 5.922,0.6442 8.547,1.9282 2.625,1.2839 4.962,3.0519 7.011,5.3 l 0.096,22.0636 z m -50.419,30.2516 c 0,3.8414 1.07,7.3629 3.215,10.5641 2.145,3.2011 5.094,5.9398 8.835,8.2128 3.749,2.2692 8.149,4.0337 13.207,5.2817 5.058,1.249 10.468,1.871 16.231,1.871 5.762,0 10.898,-0.736 15.415,-2.209 4.51,-1.472 8.32,-3.7448 11.425,-6.8183 3.105,-3.073 5.478,-6.9785 7.107,-11.7164 1.636,-4.7379 2.451,-10.3718 2.451,-16.9023 0,-3.3293 -0.018,-6.2567 -0.047,-8.786 -0.035,-2.5324 -0.049,-4.9617 -0.049,-7.2992 0,-2.3398 -0.018,-4.7867 -0.05,-7.3476 -0.032,-2.5614 -0.046,-5.5063 -0.046,-8.8364 0,-0.9597 -0.018,-2.1117 -0.047,-3.4566 -0.035,-1.3453 -0.067,-2.7852 -0.099,-4.3223 -0.032,-1.5359 -0.093,-3.1187 -0.192,-4.7519 -0.093,-1.632 -0.207,-3.1871 -0.335,-4.659 l 12.677,0.5762 0,-14.98206 -37.166,0 c -0.256,1.85703 -0.431,3.41094 -0.53,4.65977 -0.093,1.24804 -0.174,2.70309 -0.238,4.36799 l -0.193,0 C 609.503,7.71484 604.829,4.56289 599.963,2.73906 595.097,0.914063 590.071,0 584.885,0 c -4.225,0 -8.003,0.658203 -11.332,1.96992 -3.329,1.30899 -6.132,3.15196 -8.402,5.5211 -2.276,2.36914 -4.019,5.13988 -5.235,8.30898 -1.217,3.1691 -1.825,6.641 -1.825,10.418 0,4.1621 0.736,7.907 2.209,11.2359 1.472,3.3301 3.507,6.307 6.096,8.932 2.597,2.625 5.652,4.8981 9.174,6.8188 3.521,1.9207 7.313,3.5211 11.378,4.8016 4.066,1.2804 8.309,2.273 12.727,2.9773 4.418,0.7043 8.835,1.1523 13.253,1.3445 l 0,10.2758 c 0,2.625 -0.224,5.0438 -0.672,7.2527 -0.448,2.2086 -1.217,4.1118 -2.305,5.7122 -1.089,1.6007 -2.529,2.8492 -4.322,3.7457 -1.792,0.896 -4.033,1.3125 -6.722,1.2484 -2.689,-0.1281 -5.186,-0.6723 -7.491,-1.6328 -2.305,-0.9602 -4.29,-2.3047 -5.955,-4.0332 1.025,-1.0887 1.679,-2.3371 1.971,-3.7457 0.285,-1.4086 0.43,-2.593 0.43,-3.5532 0,-1.4085 -0.256,-2.8316 -0.768,-4.2718 -0.512,-1.4407 -1.312,-2.7532 -2.401,-3.9375 -1.088,-1.1883 -2.465,-2.1629 -4.129,-2.9313 -1.665,-0.7679 -3.65,-1.1523 -5.955,-1.1523 -1.92,0.064 -3.649,0.466 -5.186,1.2023 -1.536,0.7328 -2.817,1.693 -3.841,2.8813 -1.025,1.1843 -1.811,2.575 -2.351,4.1758 -0.548,1.6003 -0.818,3.3293 -0.818,5.1859"/><path inkscape:connector-curvature="0" id="path30" style="fill:#ffffff;fill-opacity:1;fill-rule:nonzero;stroke:none" d="m 675.737,35.6301 c 0.256,-3.009 1.216,-5.827 2.881,-8.452 1.665,-2.625 3.842,-4.8972 6.531,-6.8179 2.689,-1.9211 5.84,-3.4262 9.457,-4.5141 3.618,-1.0883 7.509,-1.6332 11.671,-1.6332 1.6,0 3.219,0.193 4.848,0.5769 1.636,0.384 3.091,0.9743 4.371,1.7782 1.281,0.8 2.319,1.807 3.12,3.023 0.8,1.2172 1.202,2.6899 1.202,4.418 0,1.857 -0.498,3.443 -1.487,4.7558 -0.996,1.309 -2.451,2.5293 -4.371,3.6493 -1.921,1.1168 -4.308,2.223 -7.153,3.3121 -2.853,1.0879 -6.132,2.3687 -9.846,3.841 -4.097,1.6008 -8.227,3.2508 -12.389,4.9476 -4.161,1.6934 -7.939,3.7602 -11.332,6.1922 -3.393,2.4328 -6.164,5.4285 -8.305,8.9817 -2.149,3.5535 -3.219,7.9851 -3.219,13.2996 0,3.7773 0.722,7.5547 2.159,11.332 1.444,3.7777 3.667,7.1707 6.676,10.1801 3.009,3.009 6.851,5.4598 11.524,7.3486 4.674,1.885 10.244,2.831 16.711,2.831 1.792,0 3.727,-0.128 5.808,-0.384 2.081,-0.256 4.18,-0.658 6.292,-1.198 2.113,-0.545 4.162,-1.235 6.147,-2.067 1.985,-0.833 3.777,-1.8247 5.378,-2.9775 l 0.192,0 -0.288,5.5705 14.982,0 0,-34.7654 -12.677,0 c -0.576,3.3934 -1.651,6.4484 -3.216,9.173 -1.572,2.7211 -3.539,5.0262 -5.908,6.9149 -2.369,1.8851 -5.075,3.3433 -8.113,4.368 -3.045,1.0242 -6.324,1.5367 -9.846,1.5367 -1.664,0 -3.283,-0.1922 -4.851,-0.5766 -1.569,-0.384 -2.96,-0.9922 -4.176,-1.8246 -1.217,-0.8324 -2.177,-1.9066 -2.881,-3.2152 -0.705,-1.3125 -1.057,-2.9313 -1.057,-4.852 0,-2.3047 0.609,-4.2113 1.825,-5.7121 1.217,-1.5047 2.913,-2.8031 5.09,-3.8914 2.177,-1.0887 4.72,-2.0988 7.637,-3.0234 2.909,-0.9286 6.064,-1.9707 9.458,-3.1231 4.994,-1.7285 9.603,-3.6172 13.829,-5.666 4.226,-2.0488 7.875,-4.432 10.948,-7.1527 3.073,-2.725 5.488,-5.827 7.253,-9.3161 1.757,-3.4929 2.639,-7.541 2.639,-12.15 0,-5.1218 -1.01,-9.5902 -3.023,-13.396 -2.021,-3.809 -4.692,-6.96411 -8.021,-9.46098 C 728.877,4.99414 725.068,3.12305 720.778,1.87383 716.489,0.626172 712.039,0 707.429,0 c -2.817,0 -5.634,0.192188 -8.451,0.576172 -2.817,0.383984 -5.506,0.913668 -8.067,1.586718 -2.561,0.67227 -4.916,1.48594 -7.061,2.44727 -2.145,0.95976 -3.983,2.01601 -5.52,3.16875 l -0.192,0 0.672,-5.95391 -14.982,0 -0.768,33.8051 12.677,0"/></g></svg>