<?xml version="1.0" encoding="UTF-8" standalone="no"?>
<svg width="404px" height="40px" viewBox="0 0 404 40" version="1.1" xmlns="http://www.w3.org/2000/svg" xmlns:xlink="http://www.w3.org/1999/xlink">
    <!-- Generator: sketchtool 41 (35326) - http://www.bohemiancoding.com/sketch -->
    <title>2B1A9C85-4E6F-49E8-9628-EE2F88631BFE</title>
    <desc>Created with sketchtool.</desc>
    <defs/>
    <g id="main" stroke="none" stroke-width="1" fill="none" fill-rule="evenodd">
        <g id="Motherboard" transform="translate(-78.000000, -210.000000)" fill="#fff">
            <g id="motherboard_logo_black" transform="translate(78.000000, 210.000000)">
                <path d="M70.0463492,27.928254 C65.8368254,27.928254 62.8946032,24.935873 62.8946032,20.5739683 C62.8946032,16.5155556 65.6336508,13.1174603 70.0463492,13.1174603 C74.4590476,13.1174603 77.1980952,16.5155556 77.1980952,20.5739683 C77.1980952,24.935873 74.255873,27.928254 70.0463492,27.928254 L70.0463492,27.928254 Z M140.951746,14.0298413 L132.429841,14.0298413 L132.429841,1.14666667 L89.7244444,1.14666667 L89.7244444,12.6806349 C86.6203175,5.12825397 78.9466667,0.538412698 70.0463492,0.538412698 C58.4311111,0.538412698 48.8952381,8.34984127 48.8952381,20.3707937 C48.8952381,20.8520635 48.9142857,21.3225397 48.9434921,21.7885714 L45.5485714,1.14666667 L31.3974603,1.14666667 L27.0857143,16.1606349 C26.6292063,17.784127 26.375873,19.5587302 26.1219048,21.232381 L25.7669841,21.232381 L20.4914286,1.14666667 L6.18857143,1.14666667 L0,39.391746 L13.4412698,39.391746 L15.064127,23.0590476 C15.2165079,21.5371429 15.3180952,19.9650794 15.4196825,18.4431746 L15.8761905,18.4431746 C15.9777778,20.0666667 16.3326984,21.5885714 16.7384127,23.2120635 L21.7092063,39.391746 L29.8247619,39.391746 L35.3536508,22.2469841 C35.7593651,21.0304762 36.0126984,19.7111111 36.2666667,18.4431746 L36.52,18.4431746 L38.3968254,39.391746 L51.8380952,39.391746 L49.64,26.0247619 C52.0857143,34.8666667 60.3028571,40 70.0463492,40 C81.712381,40 91.1980952,32.6450794 91.1980952,20.3707937 C91.1980952,17.912381 90.7936508,15.6342857 90.0596825,13.5587302 L97.3828571,13.2190476 L97.3828571,39.391746 L111.28127,39.391746 L111.28127,13.2190476 L119.039365,13.5568254 L119.039365,39.391746 L132.429841,39.391746 L132.429841,26.1022222 L140.951746,26.1022222 L140.951746,39.391746 L154.342222,39.391746 L154.342222,1.14666667 L140.951746,1.14666667 L140.951746,14.0298413 L140.951746,14.0298413 Z" id="Fill-1"/>
                <polyline id="Fill-2" points="171.83873 25.1892063 182.539683 25.1892063 182.539683 15.247619 171.83873 15.247619 171.83873 11.5955556 183.55619 11.5955556 183.55619 1.14666667 157.839365 1.14666667 157.839365 39.391746 183.96127 39.391746 183.96127 28.9434921 171.83873 28.9434921 171.83873 25.1892063"/>
                <path d="M381.629841,27.928254 L380.766984,27.928254 L380.766984,13.1174603 L381.629841,13.1174603 C386.702222,13.1174603 389.795556,15.4 389.795556,20.7765079 C389.795556,25.7980952 386.245714,27.928254 381.629841,27.928254 L381.629841,27.928254 Z M345.974603,18.088254 L345.011429,18.088254 L345.011429,11.5955556 L346.07619,11.5955556 C348.460952,11.5955556 350.539683,11.9511111 350.539683,14.8926984 C350.539683,17.7333333 348.257143,18.088254 345.974603,18.088254 L345.974603,18.088254 Z M309.100952,25.544127 L311.63746,13.8780952 L312.144127,13.8780952 C312.39873,15.5015873 312.652063,17.1746032 313.058413,18.7980952 L314.680635,25.544127 L309.100952,25.544127 L309.100952,25.544127 Z M275.272381,27.928254 C271.063492,27.928254 268.12127,24.935873 268.12127,20.5739683 C268.12127,16.5155556 270.860952,13.1174603 275.272381,13.1174603 C279.686349,13.1174603 282.424762,16.5155556 282.424762,20.5739683 C282.424762,24.935873 279.483175,27.928254 275.272381,27.928254 L275.272381,27.928254 Z M236.860952,30.2615873 L235.287619,30.2615873 L235.287619,23.9212698 L236.657778,23.9212698 C238.888889,23.9212698 242.44,23.8704762 242.44,27.0660317 C242.44,30.2107937 239.142857,30.2615873 236.860952,30.2615873 L236.860952,30.2615873 Z M235.287619,10.3784127 L236.252063,10.3784127 C238.280635,10.3784127 240.867302,10.1752381 240.867302,13.015873 C240.867302,15.6533333 238.584762,15.8565079 236.555556,15.8565079 L235.287619,15.8565079 L235.287619,10.3784127 L235.287619,10.3784127 Z M201.711746,18.088254 L200.748571,18.088254 L200.748571,11.5955556 L201.813968,11.5955556 C204.198095,11.5955556 206.276825,11.9511111 206.276825,14.8926984 C206.276825,17.7333333 203.994921,18.088254 201.711746,18.088254 L201.711746,18.088254 Z M381.021587,1.14666667 L366.869206,1.14666667 L366.869206,38.6304762 L359.061587,26.9644444 C358.299683,25.8488889 357.43746,25.24 356.726984,24.6825397 L356.726984,24.3784127 C361.900952,22.6533333 364.132698,20.2184127 364.132698,14.4361905 C364.132698,4.79936508 356.829206,1.14666667 348.206349,1.14666667 L331.416508,1.14666667 L331.416508,34.6926984 L319.448254,1.14666667 L304.079365,1.14666667 L296.112381,24.0749206 C296.314286,22.895873 296.425397,21.6622222 296.425397,20.3707937 C296.425397,8.34984127 286.888889,0.538412698 275.272381,0.538412698 C263.657778,0.538412698 254.121905,8.34984127 254.121905,20.3707937 C254.121905,22.087619 254.313016,23.7047619 254.664762,25.2222222 C253.639365,22.6304762 251.466032,20.8012698 248.526349,19.7619048 L248.526349,19.4577778 C251.873651,18.392381 253.547937,15.095873 253.547937,11.7473016 C253.547937,2.92253968 245.990476,1.14666667 238.584762,1.14666667 L222.405714,1.14666667 L222.405714,38.3301587 L214.79873,26.9644444 C214.03746,25.8488889 213.174603,25.24 212.466032,24.6825397 L212.466032,24.3784127 C217.639365,22.6533333 219.870476,20.2184127 219.870476,14.4361905 C219.870476,4.79936508 212.566349,1.14666667 203.943492,1.14666667 L187.155556,1.14666667 L187.155556,39.391746 L200.748571,39.391746 L200.748571,27.1161905 L201.003175,27.1161905 L207.088254,39.391746 L241.323175,39.391746 C248.019048,39.391746 255.32254,36.7034921 255.32254,28.8412698 C255.32254,28.1898413 255.263492,27.5733333 255.15873,26.9847619 C257.918095,35.2368254 265.886984,40 275.272381,40 C283.420952,40 290.499683,36.4095238 294.031746,30.0653968 L290.791111,39.391746 L305.500952,39.391746 L306.616508,34.6234921 L317.115556,34.6234921 L318.383492,39.391746 L345.011429,39.391746 L345.011429,27.1161905 L345.264127,27.1161905 L351.350476,39.391746 L384.470476,39.391746 C395.68,39.391746 403.693968,32.1892063 403.693968,20.8273016 C403.693968,6.77650794 393.854603,1.14666667 381.021587,1.14666667 L381.021587,1.14666667 Z" id="Fill-3"/>
            </g>
        </g>
    </g>
</svg>
