<svg xmlns="http://www.w3.org/2000/svg" viewBox="0 0 43.1 14.4" width="60" height="19.5333">
  <defs>
    <style>
      .d{fill:#fff}
    </style>
  </defs>
  <path fill="#f15c22" d="M0 0h14.4v14.4H0z"/>
  <path fill="#000017" d="M14.4 0h14.4v14.4H14.4z"/>
  <path fill="#4e84c4" d="M28.7 0h14.4v14.4H28.7z"/>
  <path class="d" d="M8.7 10.9V6.7a2 2 0 0 0-.4-1.4 1.25 1.25 0 0 0-1.1-.4 2.35 2.35 0 0 0-.8.2 1.28 1.28 0 0 0-.7.5v5.3H4V3.5h1.2l.3.7a2.86 2.86 0 0 1 2.1-.8 2.86 2.86 0 0 1 2.1.8 3.11 3.11 0 0 1 .8 2.2v4.5H8.7zM21 4.9a2.46 2.46 0 0 1 1.7.5 3 3 0 0 1 .5 1.8 3 3 0 0 1-.5 1.8 2.06 2.06 0 0 1-1.7.6 1.5 1.5 0 0 1-1.1-.4V5.4a1.39 1.39 0 0 1 1.1-.5zm.4 6.2a3.62 3.62 0 0 0 2.7-1 3.71 3.71 0 0 0 1-2.8c0-2.6-1.2-3.9-3.5-3.9A2.27 2.27 0 0 0 20 4v-.5h-1.7v10H20v-2.8a2.3 2.3 0 0 0 1.4.4zM37.8 5.2a1.69 1.69 0 0 0-1-.3 1.61 1.61 0 0 0-1.1.5 2.11 2.11 0 0 0-.5 1.3v4.2h-1.7V3.5h1.7v.7a2.24 2.24 0 0 1 1.9-.8 2.27 2.27 0 0 1 1.3.3z"/>
</svg>
