<svg xmlns="http://www.w3.org/2000/svg" viewBox="0 0 300 207.72">
    <path fill="#fff" d="M61.314 202.05h129.21v-57.462H61.314z" />
    <g fill="#bdbcbc">
        <path
            d="M134.23 49.073c-5.604 4.5-9.929 7.699-16.79 10.421-5.972 2.377-12.386 3.345-19.716 4.348-4.715.662-9.646 1.635-14.356 1.952-1.936.13-3.872.255-5.802.408L.002 71.857v5.74l77.875-7.551 10.099-.946c3.742-.356 7.07-.764 10.16-1.268 7.547-1.211 14.05-3.056 19.882-5.655 6.045-2.666 12.165-7.036 17.854-11.82 3.866-3.249 7.59-7.336 11.639-11.803V36.5c-4.897 5.061-8.961 9.109-13.28 12.573m13.282 96.132L.003 141.463v5.723h147.51zm-54.973-10.12-19.077-.203c-24.341-.346-48.654-.787-73.46-1.251v5.723c23.673-.153 48.75-.335 73.477-.612l19.088-.283c6.43-.113 12.73-.232 19.099-.441 13.116-.42 24.868-1.342 35.844-2.797v-1.992c-11.021 1.188-22.785 1.811-35.912 1.896-6.346.057-12.703.014-19.06-.04m19.277-8.996c-4.053.158-8.44.238-13.416.238-1.88 0-3.765-.01-5.638-.028l-19.145-.231c-13.06-.097-26.073-.12-38.284-.13l-35.33.031v5.718l35.415-.923c12.165-.3 25.213-.611 38.238-.843l19.128-.255c5.247-.08 12.17-.238 19.184-.697 6.872-.447 13.127-1.132 19.122-2.088 5.394-.86 10.908-2.021 16.422-3.43v-2.027c-5.667 1.302-11.3 2.349-16.761 3.079-5.961.798-12.154 1.313-18.935 1.585m.375-9.31c-9.725.804-19.677.804-29.306.804-2.994 0-5.989 0-8.983.023-24.607.108-49.016.312-73.901.526v5.723c23.702-.803 48.84-1.641 73.986-2.388 2.983-.102 5.966-.176 8.955-.255 9.68-.243 19.688-.492 29.515-1.557 6.86-.735 13.11-1.817 19.094-3.294 5.22-1.285 10.58-2.995 15.963-5.05v-2.105c-5.559 1.992-11.095 3.623-16.49 4.811-5.927 1.308-12.086 2.208-18.833 2.763m.59-9.445c-10.382 1.387-21.064 1.545-31.4 1.698-2.366.032-4.738.068-7.104.12L.002 110.485v5.723l74.405-3.204c2.355-.107 4.72-.204 7.087-.294 10.404-.419 21.166-.85 31.69-2.52 6.656-1.046 13.064-2.603 19.047-4.613 4.953-1.658 10.082-3.804 15.278-6.34v-2.196c-5.463 2.542-10.835 4.659-15.992 6.244-5.91 1.823-12.21 3.187-18.737 4.047m.664-9.386c-5.655 1.036-11.74 1.699-19.162 2.078-2.79.147-5.78.249-9.685.34L.003 102.65v5.735l75.01-3.917 9.72-.493c3.793-.181 6.895-.362 9.765-.583 7.523-.577 13.71-1.404 19.473-2.61 6.544-1.358 12.895-3.34 18.873-5.887 4.817-2.043 9.64-4.534 14.667-7.563V85.03c-5.366 3.124-10.472 5.626-15.544 7.636a97.141 97.141 0 0 1-18.522 5.281m.839-9.345c-5.633 1.319-11.74 2.162-19.218 2.666-2.881.193-5.984.334-9.76.453l-9.82.351c-24.75.934-49.844 2.01-75.487 3.125v5.734c25.48-1.738 50.471-3.43 75.68-5.004l9.798-.589c3.844-.22 6.974-.441 9.856-.707 7.613-.702 13.846-1.727 19.609-3.216a85.138 85.138 0 0 0 18.675-7.257c4.585-2.428 9.159-5.35 13.897-8.87v-2.451c-5.123 3.696-10.037 6.713-14.95 9.17a82.444 82.444 0 0 1-18.28 6.595m.915-9.532c-5.592 1.642-11.888 2.751-19.247 3.391-2.983.26-6.198.459-9.832.606l-9.918.436C51.561 84.646 27.033 85.925.003 87.358v5.734c25.824-1.998 51.128-3.94 76.426-5.74l9.884-.674c3.82-.255 6.985-.526 9.963-.86 7.54-.844 13.993-2.146 19.722-3.98 6.345-2.01 12.533-4.925 18.386-8.66 4.319-2.752 8.644-6.035 13.127-9.947v-.102c-4.942 4.218-9.652 5.157-14.344 7.988-5.752 3.487-11.797 6.159-17.967 7.953m-1.885-10.933c-5.163 2.887-9.024 4.551-16.394 5.321-4.455.481-9.035.708-13.467.929-2.14.107-4.286.215-6.431.35-13.393.765-26.549 1.614-39.971 2.486L.002 79.719v5.751l37.423-3.43c12.091-1.087 26.141-2.338 39.857-3.459l9.974-.77c3.895-.3 7.088-.617 10.042-1.002 7.586-.979 14.067-2.513 19.807-4.681 6.182-2.31 12.012-5.898 17.848-10.121 5.265-3.804 12.55-11.305 12.556-11.401v-2.032c-4.76 4.642-7.5 7.251-12.714 10.687-6.232 4.104-16.852 6.289-21.483 8.876m21.441-29.875c-5.423 4.976-11.084 8.887-16.829 11.627-5.62 2.711-11.905 4.613-19.224 5.814-3.017.503-6.3.91-10.03 1.25L0 64.234v5.752l78.82-8.361 10.194-1.07c3.844-.447 7.195-.946 10.24-1.523 7.58-1.432 14.084-3.566 19.875-6.532 5.921-2.995 11.837-7.976 17.34-13.252 3.69-3.538 7.245-8.107 11.043-12.895v-1.92c-4.387 5.458-8.576 9.997-12.759 13.83m-15.555 1.412c-5.564 3.198-11.989 5.542-19.099 6.957-3.034.617-6.345 1.115-10.116 1.523-2.219.243-4.45.435-6.685.628-1.206.102-2.412.21-3.617.317-27.24 2.445-54.338 5.044-79.681 7.5v5.769c25.54-3.08 52.832-6.346 80.06-9.425 1.211-.142 2.423-.278 3.634-.408 2.23-.244 4.466-.492 6.702-.787 3.878-.515 7.269-1.11 10.365-1.811 7.388-1.653 14.056-4.257 19.824-7.75 5.729-3.436 10.79-8.253 16.235-14.14 3.391-3.663 7.161-8.837 10.693-13.694v-2.117c-4.16 5.638-8.106 10.376-12.006 14.418-5.315 5.508-10.8 9.884-16.309 13.02M-.002 54.576s88.885-11.503 91.393-11.91c3.85-.628 7.263-1.364 10.45-2.242 7.19-1.97 13.807-4.975 19.665-8.938 5.621-3.764 10.846-9.244 16.026-15.256 3.29-3.827 6.748-8.814 9.974-13.625V.278c-3.826 5.667-7.596 10.552-11.474 14.86-5.14 5.722-10.529 10.398-16.026 13.907-5.672 3.657-12.052 6.38-18.975 8.107-3.102.78-6.419 1.415-10.155 1.936-2.456.345-4.992.611-7.443.866-.98.108-83.434 8.853-83.434 8.853zM208.94 142.54s24.313.894 31.7 1.053 59.279 2.208 59.279 2.208v1.42l-90.98-.056zm-.052-12.244s15.465 2.61 31.751 5.253c12.21 1.987 28.757 3.238 30.523 3.312 1.766.079 28.757 1.896 28.757 1.896v1.415s-17.271-.871-28.757-1.494c-11.961-.651-23.849-1.359-30.602-2.05-15.126-1.55-31.672-3.6-31.672-3.6zm.052-11.827s18.85 5.729 31.7 9.04c12.85 3.312 24.658 4.653 30.602 5.044 5.944.396 28.598 2.208 28.598 2.208v1.341s-12.85-.86-28.677-1.97c-12.799-.894-23.079-1.84-30.602-3.47-8.338-1.806-31.672-7.251-31.672-7.251l.05-4.942zm0-11.984s18.584 7.8 31.7 12.901c12.907 5.021 22.762 5.446 30.602 6.312 3.453.38 28.598 2.915 28.598 2.915v1.415s-15.024-1.177-28.677-2.36-19.547-1.682-30.602-5.282c-11.191-3.64-31.672-10.642-31.672-10.642l.05-5.259zm0-11.826s23.622 12.595 31.621 16.529c8.916 4.387 16.626 6.493 30.602 8.117 13.722 1.608 28.757 3.16 28.757 3.16v1.42s-13.903-1.46-28.757-2.842c-14.724-1.364-19.971-1.998-30.602-6.623-9.51-4.132-31.672-14.242-31.672-14.242l.05-5.519zm-.053-11.616s26.69 17.424 31.75 20.186c5.067 2.757 11.01 7.251 30.524 9.697a7411.987 7411.987 0 0 0 28.677 3.543v1.5s-16.144-1.732-28.757-3.073c-12.612-1.342-21.205-3.153-30.602-8.203-9.397-5.043-31.542-17.712-31.542-17.712l-.051-5.938zm0-11.616s26.61 20.684 31.593 24.307c4.981 3.628 11.565 7.857 30.68 10.569a8115.8 8115.8 0 0 0 28.678 4.02v1.578s-17.186-2.45-28.677-3.866c-11.486-1.42-20.294-2.02-30.602-8.751-10.037-6.55-31.621-21.443-31.621-21.443l-.051-6.414zm.053-12.142s23.328 21.233 31.621 28.491c7.63 6.674 13.818 8.752 30.602 11.667 16.79 2.915 28.757 4.727 28.757 4.727v1.5s-15.182-2.446-28.836-4.574c-13.654-2.129-22.354-2.966-30.523-9.46-9.425-7.494-31.621-25.41-31.621-25.41zm0-11.353s24.528 25.196 31.621 32.43c7.523 7.67 17.163 10.512 30.523 12.85 12.754 2.23 28.836 4.812 28.836 4.812v1.415s-15.103-2.423-28.836-4.727c-13.467-2.264-22.892-3.52-30.602-10.489-6.906-6.238-31.542-28.88-31.542-28.88zm-.052-12.247s26.566 30.755 31.672 36.24c7.953 8.542 11.808 11.486 30.602 15.058 7.518 1.432 28.757 5.129 28.757 5.129v1.336s-17.588-3.153-28.757-5.123c-11.163-1.97-20.611-2.706-30.681-12.38-7.67-7.365-31.542-32.323-31.542-32.323l-.051-7.937zm.052-11.774s26.238 33.902 31.542 40.684c5.298 6.776 12.606 12.374 30.681 15.844 10.421 2.004 28.757 5.36 28.757 5.36v1.263s-16.065-2.995-28.757-5.282c-12.691-2.286-23.169-4.5-30.681-12.929-6.59-7.398-31.593-36.478-31.593-36.478l.05-8.462zm0-11.984s27.845 39.891 31.542 44.782c3.696 4.89 8.672 12.771 30.681 17.424 5.683 1.2 28.836 5.757 28.836 5.757v1.262s-17.594-3.39-28.836-5.757c-11.248-2.366-23.062-4.523-30.602-14.033-6.85-8.638-31.672-40.497-31.672-40.497l.05-8.938zm0-11.932s26.945 41.963 31.876 49.679c4.925 7.71 10.557 13.812 30.494 17.956s28.615 6.102 28.615 6.102v1.495s-12.669-2.65-28.972-6.216c-16.297-3.566-22.96-4.772-30.393-14.905-6.187-8.434-31.621-44.284-31.621-44.284z" />
    </g>
    <g fill="#254aa5">
        <path d="M190.55 60.731H61.32v86.451h129.23zM61.314 207.72h129.25v-7.376H61.314z" />
    </g>
    <path fill="#fff200"
        d="M112.72 126.9h4.495l-3.623 2.717 1.398 4.308-3.6-2.655-3.612 2.655 1.427-4.308-3.657-2.717h4.483l1.359-4.206zm-10.445-10.444h4.506l-3.628 2.723 1.403 4.313-3.606-2.66-3.605 2.66 1.415-4.313-3.657-2.723h4.489l1.359-4.195zm-3.821-14.7h4.5l-3.623 2.717 1.404 4.314-3.606-2.655-3.611 2.655 1.42-4.314-3.65-2.717h4.483l1.358-4.2zm3.821-14.259h4.506l-3.628 2.717 1.403 4.314-3.606-2.66-3.605 2.66 1.415-4.314-3.657-2.717h4.489l1.359-4.2zM112.57 76.91h4.495l-3.623 2.723 1.41 4.308-3.612-2.661-3.612 2.66 1.427-4.307-3.657-2.723h4.483l1.359-4.2zm43.515 24.81h4.506l-3.629 2.717 1.41 4.314-3.612-2.66-3.606 2.66 1.421-4.314-3.662-2.717h4.483l1.364-4.2zm-3.967 14.7h4.495l-3.623 2.723 1.41 4.313-3.612-2.66-3.6 2.66 1.42-4.313-3.662-2.723h4.483l1.359-4.206zm0-28.959h4.495l-3.623 2.712 1.41 4.313-3.612-2.655-3.6 2.655 1.42-4.314-3.662-2.711h4.483l1.359-4.206zM141.53 76.874h4.506l-3.629 2.717 1.41 4.308-3.612-2.655L136.6 83.9l1.421-4.308-3.662-2.717h4.489l1.358-4.2zm0 49.99h4.506l-3.629 2.717 1.41 4.308-3.612-2.66-3.606 2.66 1.421-4.308-3.662-2.717h4.489l1.358-4.206zm-14.261 3.818h4.506l-3.629 2.722 1.41 4.303-3.612-2.65-3.606 2.65 1.421-4.303-3.662-2.722h4.489l1.358-4.2zm-.159-57.653h4.495l-3.623 2.824 1.41 4.478-3.612-2.757-3.612 2.757 1.427-4.478-3.657-2.824h4.483l1.359-4.37z" />
    <g fill="#5a5758">
        <path
            d="M143.5 168.83h-1.466c-.266 0-.39-.125-.39-.385l.022-5.729c0-1.205-.283-1.998-1.466-1.998-.816 0-2.242.651-2.797.917v6.81c0 .244-.102.385-.385.385h-1.449c-.283 0-.385-.124-.385-.385v-9.199c0-.26.102-.402.385-.402h1.45c.282 0 .384.142.384.402v.617c.023 0 .045.019.063.019.753-.527 2.18-1.223 3.424-1.223 2.752 0 3 1.817 3 3.872v5.915c0 .244-.084.385-.39.385m-12.248-4.548h-2.485c-1.02 0-1.676.369-1.676 1.716 0 .894.306 1.183 1.268 1.183.878 0 2.117-.515 2.893-.963zm.124 3.386c-1.018.775-2.388 1.324-3.753 1.324-2.162 0-2.79-1.183-2.79-2.892-.023-2.39 1.262-3.408 3.832-3.408h2.61v-.527c0-1.222-.453-1.653-2.123-1.653-.674 0-1.959.102-2.774.182-.408.062-.51.04-.566-.244l-.187-.752c-.04-.267.023-.43.47-.612.877-.306 2.485-.447 3.447-.447 3.527 0 3.952 1.444 3.952 3.73v3.935c0 .832.101.855.735.934.306.022.385.084.385.305v.86c0 .222-.14.363-.486.425a5.172 5.172 0 0 1-.957.102c-.962 0-1.551-.283-1.755-1.24l-.04-.022zm-13.718-4.75h4.037c0-1.246-.329-2.446-2.016-2.446-1.511 0-1.919.917-2.02 2.446m-.023 1.528c.062 2.06.798 2.632 2.468 2.632.736 0 1.874-.147 2.65-.226.367-.041.492-.041.554.345l.119.674c.062.306.023.47-.345.634-.798.306-2.281.51-3.283.51-3.895 0-4.467-2.486-4.467-5.14 0-1.976.369-5.237 4.348-5.237 3.645 0 4.296 2.366 4.359 4.563.022.736-.181 1.245-.997 1.245h-5.406zm-7.395-3.73c-.838 0-2.123.589-2.734.917v5.095a8.115 8.115 0 0 0 2.35.345c1.465 0 1.975-.752 1.975-3.317 0-2.592-.51-3.04-1.591-3.04m-.164 8.3a8.048 8.048 0 0 1-2.547-.454l-.023.023v3.589c0 .22-.056.407-.385.407h-1.449c-.322 0-.385-.14-.385-.407V159.25c0-.266.102-.408.385-.408h1.45c.288 0 .367.159.367.408v.611l.063.04c.73-.509 2.038-1.222 3.22-1.222 2.667 0 3.363 2.015 3.363 5.095 0 3.323-.837 5.242-4.058 5.242m-10.413-8.423c-1.733 0-2.123 1.104-2.123 3.22 0 2.163.39 3.222 2.1 3.222 1.857 0 2.225-1.042 2.225-3.221 0-2.163-.346-3.221-2.202-3.221m-.023 8.4c-4.093 0-4.359-3-4.359-5.32 0-1.92.424-5.039 4.359-5.039 3.957 0 4.506 2.632 4.506 5.038 0 2.321-.283 5.321-4.506 5.321m-8.558-.551c0 .243-.102.384-.385.384h-1.472c-.283 0-.385-.119-.385-.384v-9.194c0-.266.102-.407.385-.407h1.45c.305 0 .407.164.407.407v.895l.04.04c.612-.565 2.061-1.262 3.018-1.443.266-.062.447 0 .493.345l.14 1.364c.019.29.042.408-.39.493-1.137.22-2.587.628-3.3.934v6.566zm-4.359.387h-1.449c-.306 0-.385-.142-.385-.385v-.634l-.04-.023c-.799.555-2.186 1.223-3.425 1.223-2.752 0-3.018-1.63-3.018-3.77v-5.995c0-.243.102-.402.385-.402h1.49c.265 0 .367.141.367.402v5.729c0 1.228.243 1.998 1.49 1.998.876 0 2.218-.651 2.75-.917v-6.81c0-.243.08-.402.385-.402h1.45c.282 0 .384.141.384.402v9.199c0 .26-.102.385-.385.385m-17.853-13.128c0-.267.125-.408.408-.408h7.5c.244 0 .391.141.391.385v1.268c0 .244-.102.368-.407.368h-5.565v3.504h4.93c.266 0 .408.125.408.368v1.262c0 .244-.102.368-.407.368h-4.93v4.014h5.705c.243 0 .368.124.368.39v1.24c0 .266-.102.368-.39.368h-7.603c-.283 0-.407-.125-.407-.368v-12.759z"
            aria-label="European" />
        <path
            d="M164.14 190.34h-1.466c-.266 0-.39-.125-.39-.385l.022-5.729c0-1.205-.283-1.998-1.466-1.998-.816 0-2.242.651-2.797.917v6.81c0 .244-.102.385-.385.385h-1.449c-.283 0-.385-.125-.385-.385v-9.199c0-.26.102-.402.385-.402h1.45c.282 0 .384.142.384.402v.617c.023 0 .041.019.063.019.753-.527 2.185-1.223 3.424-1.223 2.752 0 3 1.817 3 3.872v5.915c0 .244-.084.385-.39.385m-13.9-8.237c-1.732 0-2.117 1.104-2.117 3.221 0 2.163.385 3.221 2.094 3.221 1.857 0 2.225-1.041 2.225-3.22 0-2.163-.346-3.222-2.202-3.222m-.023 8.4c-4.092 0-4.358-3-4.358-5.32 0-1.92.424-5.038 4.358-5.038 3.957 0 4.506 2.632 4.506 5.038 0 2.32-.283 5.32-4.506 5.32m-5.866-.551c0 .221-.08.385-.369.385h-1.449c-.283 0-.407-.12-.407-.385v-9.216c0-.283.124-.385.407-.385h1.45c.288 0 .368.164.368.385zm-1.082-11.067c-1.058 0-1.2-.594-1.2-1.183 0-.651.221-1.166 1.2-1.166 1.002 0 1.206.47 1.206 1.166 0 .628-.187 1.183-1.206 1.183m-6.622 11.618c-1.019 0-2.383-.141-3.159-.447-.407-.164-.492-.351-.43-.674l.141-.673c.063-.329.204-.345.532-.306.895.141 2.202.244 2.893.244 1.308 0 1.84-.346 1.84-1.16 0-.94-.351-1.144-1.636-1.325-1.999-.29-3.748-.714-3.748-2.938 0-2.016 1.546-3.074 3.833-3.074.832 0 2.241.119 3.096.447.345.141.492.306.43.611l-.164.73c-.062.29-.18.329-.549.29-.877-.103-2.02-.227-2.774-.227-1.302 0-1.607.368-1.607 1.143 0 .793.487.895 1.732 1.099 1.936.288 3.685.673 3.685 3.102 0 2.383-2.015 3.158-4.115 3.158m-8.54 0c-1.018 0-2.382-.141-3.158-.447-.407-.164-.492-.35-.43-.674l.141-.673c.063-.329.204-.345.532-.306.895.141 2.202.244 2.893.244 1.308 0 1.84-.346 1.84-1.16 0-.94-.351-1.144-1.636-1.325-1.998-.29-3.748-.714-3.748-2.938 0-2.015 1.546-3.074 3.833-3.074.832 0 2.241.119 3.096.447.346.141.493.306.43.611l-.164.73c-.062.29-.18.329-.549.29-.877-.102-2.02-.227-2.773-.227-1.302 0-1.608.368-1.608 1.143 0 .793.487.895 1.732 1.099 1.936.288 3.685.673 3.685 3.102 0 2.383-2.015 3.158-4.115 3.158m-5.054-.55c0 .22-.08.384-.368.384h-1.45c-.283 0-.407-.119-.407-.385v-9.215c0-.283.124-.385.408-.385h1.449c.289 0 .368.164.368.385zm-1.081-11.068c-1.059 0-1.2-.594-1.2-1.183 0-.65.22-1.166 1.2-1.166 1.002 0 1.205.47 1.205 1.166 0 .629-.186 1.183-1.205 1.183m-3.175 11.454h-1.466c-.288 0-.39-.124-.39-.385v-5.79c0-1.512-.363-1.937-1.388-1.937-.753 0-1.975.59-2.604.917 0 .204.018.572.018 1.036v5.774c0 .244-.079.385-.385.385h-1.488c-.266 0-.346-.124-.346-.385v-5.893c0-1.245-.328-1.834-1.347-1.834-.713 0-1.857.51-2.632.917v6.81c0 .244-.102.385-.385.385h-1.466c-.267 0-.369-.124-.369-.385v-9.198c0-.26.102-.403.369-.403h1.443c.306 0 .408.159.408.403v.594l.022.023c.793-.555 1.914-1.166 3.04-1.206 1.177 0 2.157.244 2.79 1.426 1.02-.752 2.282-1.426 3.59-1.426 2.689 0 2.955 1.755 2.955 3.793v5.994c0 .244-.085.385-.369.385m-15.977 0h-1.466c-.288 0-.39-.124-.39-.385v-5.79c0-1.512-.363-1.937-1.387-1.937-.753 0-1.976.59-2.604.917 0 .204.018.572.018 1.036v5.774c0 .244-.08.385-.385.385h-1.489c-.266 0-.345-.124-.345-.385v-5.893c0-1.245-.329-1.834-1.348-1.834-.713 0-1.856.51-2.632.917v6.81c0 .244-.102.385-.385.385h-1.466c-.266 0-.368-.124-.368-.385v-9.198c0-.26.102-.403.368-.403h1.444c.305 0 .407.159.407.403v.594l.023.023c.792-.555 1.913-1.166 3.04-1.206 1.177 0 2.156.244 2.79 1.426 1.02-.752 2.282-1.426 3.59-1.426 2.688 0 2.954 1.755 2.954 3.793v5.994c0 .244-.085.385-.368.385m-19.893-8.236c-1.732 0-2.123 1.104-2.123 3.221 0 2.163.391 3.221 2.1 3.221 1.857 0 2.225-1.041 2.225-3.22 0-2.163-.346-3.222-2.202-3.222m-.023 8.401c-4.092 0-4.358-3-4.358-5.321 0-1.92.424-5.038 4.358-5.038 3.957 0 4.506 2.632 4.506 5.038 0 2.32-.283 5.321-4.506 5.321m-8.72-13.843c.997 0 2.65.141 3.731.589.328.147.447.311.385.634l-.181.838c-.063.243-.164.345-.532.305-.997-.124-2.22-.266-3.278-.266-2.774 0-3.181 2.242-3.181 4.891 0 2.672.51 4.772 3.181 4.772 1.177 0 2.18-.124 3.278-.266.39-.04.47.063.554.328l.159.776c.085.323-.018.51-.346.65-.996.425-2.773.612-3.77.612-4.545 0-5.502-3.362-5.502-6.832 0-3.482.855-7.03 5.502-7.03" />
    </g>
</svg>