<svg xmlns="http://www.w3.org/2000/svg" xml:space="preserve" viewBox="0 0 1000 417.708">
  <g style="fill:#102d5d">
    <path d="M422.787 298.011c-1.828-2.36-5.407-4.119-8.785-4.119-3.918 0-8.446 1.89-8.446 6.556 0 4.396 3.711 5.677 9.124 7.366 6.148 1.89 13.984 4.597 13.984 13.984 0 10.273-8.037 15.271-17.431 15.271-6.223 0-12.634-2.36-16.42-6.819l6.078-5.676c2.367 3.24 6.687 5.26 10.48 5.26 3.981 0 8.647-1.958 8.647-7.088 0-4.998-4.998-6.417-11.021-8.314-5.808-1.82-12.094-4.659-12.094-13.575 0-9.734 8.854-14.06 17.508-14.06 4.797 0 10.266 1.689 13.914 5.136zM459.638 312.407c-1.281-1.828-4.057-3.17-6.688-3.17-5.946 0-8.923 5.33-8.923 10.397 0 5.075 3.04 10.412 9.193 10.412 2.493 0 5.269-1.018 6.82-2.9l5.067 5.13c-2.7 2.907-7.158 4.533-11.956 4.533-9.602 0-17.57-6.361-17.57-17.175 0-10.536 7.837-17.161 17.37-17.161 4.728 0 9.657 1.897 12.225 5.074zM501.38 315.579v20.277h-8.106v-17.84c0-3.856-.817-8.577-6.016-8.577-5.137 0-7.636 4.389-7.636 8.708v17.709h-8.106v-51.083h8.106v23.177h.132c1.287-2.707 4.866-5.476 9.664-5.476 8.452 0 11.962 6.48 11.962 13.105M511.716 284.77h8.107v51.09h-8.107zM553.272 316.398c0-4.195-2.354-7.843-7.636-7.843-4.79 0-8.646 3.316-8.979 7.843zm8.044 5.801h-24.659c.333 4.597 4.52 7.989 9.256 7.989 4.057 0 6.756-1.627 8.584-4.195l5.4 4.32c-3.17 4.333-7.768 6.493-13.908 6.493-10.017 0-17.438-6.424-17.438-16.967 0-10.474 7.366-17.363 17.154-17.363 9.055 0 15.68 5.878 15.68 17.563 0 .748 0 1.426-.07 2.16M587.927 312.067c-1.412-1.89-4.119-3.51-7.095-3.51-2.569 0-5.2.942-5.2 3.51 0 2.5 2.5 3.178 7.027 4.265 4.798 1.149 10.474 3.302 10.474 9.657 0 7.905-6.417 10.82-13.513 10.82-4.998 0-10.197-1.904-13.305-5.345l5.33-4.998c1.759 2.299 4.804 4.05 8.314 4.05 2.36 0 5.206-.941 5.206-3.856 0-2.693-2.506-3.503-7.442-4.652-4.79-1.156-9.588-3.108-9.588-9.193 0-7.234 6.487-10.343 12.911-10.343 4.66 0 9.519 1.627 12.156 4.936zM597.442 303.421h8.785l6.756 23.24h.132l6.964-23.24h8.653l7.027 23.24h.131l6.895-23.24h8.439l-11.215 32.44h-8.238l-7.372-22.713h-.139l-7.296 22.713h-8.238zM657.556 303.42h8.107v32.44h-8.107zm3.988-15.88c2.97 0 5.268 2.09 5.268 4.866 0 2.77-2.299 4.86-5.268 4.86-2.977 0-5.144-2.299-5.144-4.86 0-2.568 2.167-4.867 5.144-4.867M682.374 319.438c0 5.136 3.447 10.266 9.256 10.266 6.015 0 9.657-4.867 9.657-10.266 0-5.608-3.71-10.343-9.588-10.343-5.878 0-9.325 4.597-9.325 10.343m26.618-16.02v29.533c0 11.692-5.677 19.127-18.31 19.127-5.269 0-11.887-1.904-16.075-5.344l4.659-6.279c3.108 2.977 7.296 4.597 11.346 4.597 7.843 0 10.273-4.729 10.273-11.16v-2.36h-.138c-2.36 3.177-6.14 4.866-10.606 4.866-9.733 0-16.005-7.705-16.005-16.891 0-9.401 6.078-17.037 15.874-17.037 4.527 0 8.785 1.897 11.145 5.815h.132v-4.866zM734.37 322.679h-16.213v-6.895h16.213zM744.33 288.012h8.515v19.328h22.368v-19.328h8.514v47.85h-8.514v-21.226h-22.368v21.225h-8.514zM810.555 330.044c6.417 0 9.394-5.469 9.394-10.536 0-5.075-2.977-10.412-9.394-10.412s-9.394 5.337-9.394 10.412c0 5.067 2.977 10.536 9.394 10.536m0-27.573c9.802 0 17.632 6.833 17.632 17.037 0 10.197-7.83 17.3-17.632 17.3-9.803 0-17.632-7.103-17.632-17.3 0-10.204 7.83-17.037 17.632-17.037M836.895 284.77H845v51.09h-8.106zM873.769 312.067c-1.427-1.89-4.126-3.51-7.096-3.51-2.569 0-5.206.942-5.206 3.51 0 2.5 2.499 3.178 7.026 4.265 4.805 1.149 10.474 3.302 10.474 9.657 0 7.905-6.417 10.82-13.513 10.82-4.998 0-10.204-1.904-13.312-5.345l5.344-4.998c1.745 2.299 4.784 4.05 8.308 4.05 2.367 0 5.199-.941 5.199-3.856 0-2.693-2.5-3.503-7.428-4.652-4.805-1.156-9.595-3.108-9.595-9.193 0-7.234 6.486-10.343 12.897-10.343 4.666 0 9.532 1.627 12.17 4.936zM883.724 309.908v-6.487h5.677v-9.394h7.975v9.394h8.106v6.487h-8.106v15.07c0 2.901.678 4.999 4.257 4.999 1.087 0 2.5-.201 3.447-.672l.27 6.348c-1.419.54-3.579.873-5.406.873-8.584 0-10.543-5.269-10.543-11.478v-15.14zM934.78 316.398c0-4.195-2.367-7.843-7.635-7.843-4.797 0-8.646 3.316-8.992 7.843zm8.045 5.801h-24.672c.346 4.597 4.527 7.989 9.262 7.989 4.057 0 6.764-1.627 8.577-4.195l5.414 4.32c-3.17 4.333-7.767 6.493-13.922 6.493-10.003 0-17.438-6.424-17.438-16.967 0-10.474 7.373-17.363 17.168-17.363 9.062 0 15.673 5.878 15.673 17.563 0 .748 0 1.426-.062 2.16M951.548 303.42h8.107v32.44h-8.107zm3.98-15.88c2.984 0 5.283 2.09 5.283 4.866 0 2.77-2.299 4.86-5.282 4.86-2.97 0-5.13-2.299-5.13-4.86 0-2.568 2.16-4.867 5.13-4.867M970.136 303.421h7.698v5.206h.131c1.426-3.246 5.275-6.154 10.08-6.154 8.445 0 11.955 6.487 11.955 13.105v20.283h-8.106v-17.978c0-3.85-.873-8.647-6.085-8.647-5.137 0-7.567 4.459-7.567 8.778v17.847h-8.106zM404.34 412.573h9.663c14.393 0 21.35-9.734 21.35-19.605 0-9.858-6.957-19.592-21.35-19.592h-9.664zm-4.867-43.523h15.88c11.956 0 25.144 7.968 25.144 23.918 0 15.956-13.188 23.924-25.144 23.924h-15.88zM475.178 398.646c-.27-5.94-3.925-10.342-10.474-10.342-6.154 0-10.674 4.943-11.083 10.342zm4.59 3.648h-26.216c.138 6.356 5.067 11.485 11.554 11.485 4.728 0 8.383-2.63 10.135-5.469l3.447 2.707c-3.717 4.728-8.376 6.687-13.582 6.687-9.387 0-16.351-7.095-16.351-16.628 0-9.525 6.964-16.621 15.95-16.621 9.933 0 15.132 7.026 15.132 15.68 0 .609 0 1.35-.069 2.16M489.894 385.268h4.396c.138 1.682.27 4.057.27 5.407h.138c1.752-3.648 5.67-6.217 10.128-6.217 1.156 0 2.098.07 3.046.333l-.61 4.326c-.54-.2-2.027-.401-3.239-.401-4.867 0-9.262 3.516-9.262 11.955v16.22h-4.597v-24.659c0-1.696-.062-4.804-.27-6.964M555.483 398.646c-.263-5.94-3.918-10.342-10.467-10.342-6.148 0-10.682 4.943-11.09 10.342zm4.596 3.648h-26.216c.125 6.356 5.068 11.485 11.554 11.485 4.735 0 8.384-2.63 10.135-5.469l3.44 2.707c-3.71 4.728-8.369 6.687-13.575 6.687-9.394 0-16.358-7.095-16.358-16.628 0-9.525 6.964-16.621 15.957-16.621 9.927 0 15.133 7.026 15.133 15.68 0 .609 0 1.35-.07 2.16M593.551 392.494c-1.481-2.43-4.659-4.188-8.106-4.188-7.359 0-12.094 5.538-12.094 12.772 0 7.165 4.666 12.703 12.018 12.703 4.001 0 6.77-1.682 8.59-4.119l3.455 2.569c-2.707 3.316-6.563 5.475-12.045 5.475-10.197 0-16.885-7.102-16.885-16.628 0-9.525 6.688-16.621 16.885-16.621 4.27 0 9.068 1.82 11.768 5.469zM610.336 390.466c1.69-3.648 6.154-6.008 10.605-6.008 8.045 0 12.025 5.205 12.025 13.035v19.397h-4.596v-17.493c0-6.625-1.953-11.09-8.578-11.09-4.86 0-9.594 3.925-9.594 12.363v16.22h-4.59v-51.082h4.59v24.658zM659.82 389.12h-8.916v18.448c0 4.728 1.96 5.808 4.728 5.808 1.288 0 2.776-.401 3.995-1.01l.194 3.987c-1.62.602-3.303.942-5.4.942-3.385 0-8.113-1.489-8.113-8.446v-19.73h-6.556v-3.849h6.556v-8.923h4.596v8.923h8.917zM691.405 398.646c-.263-5.94-3.919-10.342-10.467-10.342-6.148 0-10.682 4.943-11.09 10.342zm4.596 3.648h-26.209c.125 6.356 5.06 11.485 11.547 11.485 4.728 0 8.376-2.63 10.135-5.469l3.44 2.707c-3.71 4.728-8.37 6.687-13.575 6.687-9.394 0-16.351-7.095-16.351-16.628 0-9.525 6.957-16.621 15.95-16.621 9.927 0 15.132 7.026 15.132 15.68 0 .609 0 1.35-.069 2.16M756.984 409.795h.131v-40.747h4.874v47.842h-6.078l-27.843-41.155h-.139v41.155h-4.866v-47.842h6.078zM789.77 388.307c-7.296 0-11.962 5.67-11.962 12.773 0 7.095 4.666 12.703 11.962 12.703 7.366 0 12.025-5.608 12.025-12.703 0-7.103-4.66-12.773-12.025-12.773m0 29.4c-9.802 0-16.822-7.102-16.822-16.627 0-9.533 7.02-16.622 16.822-16.622 9.865 0 16.898 7.089 16.898 16.622 0 9.525-7.033 16.628-16.898 16.628M816.72 385.268h4.396c.132 1.682.27 4.057.27 5.407h.139c1.751-3.648 5.67-6.217 10.134-6.217 1.15 0 2.091.07 3.04.333l-.61 4.326c-.54-.2-2.028-.401-3.247-.401-4.86 0-9.255 3.516-9.255 11.955v16.22h-4.597v-24.659c0-1.696-.062-4.804-.27-6.964M856.075 413.78c7.096 0 12.163-5.475 12.163-12.703 0-7.227-5.067-12.772-12.163-12.772-7.636 0-11.962 5.746-11.962 12.772 0 7.034 4.326 12.704 11.962 12.704m-.47 3.925c-9.866 0-16.36-7.297-16.36-16.629 0-9.317 6.494-16.62 16.36-16.62 4.52 0 9.248 2.166 11.962 6.292h.138v-24.936h4.59v51.076h-4.59v-5.33h-.138c-2.714 3.987-7.442 6.147-11.963 6.147M909.2 398.646c-.27-5.94-3.924-10.342-10.473-10.342-6.147 0-10.675 4.943-11.09 10.342zm4.598 3.648H887.58c.125 6.356 5.06 11.485 11.554 11.485 4.722 0 8.377-2.63 10.135-5.469l3.44 2.707c-3.717 4.728-8.376 6.687-13.575 6.687-9.4 0-16.358-7.095-16.358-16.628 0-9.525 6.957-16.621 15.95-16.621 9.934 0 15.14 7.026 15.14 15.68 0 .609 0 1.35-.07 2.16M928.332 385.268c.138 1.682.277 4.057.277 5.407h.131c1.758-3.648 6.355-6.217 10.813-6.217 8.038 0 12.032 5.206 12.032 13.036v19.397h-4.597v-17.494c0-6.625-1.959-11.09-8.584-11.09-4.866 0-9.602 3.925-9.602 12.364v16.22h-4.59v-24.659c0-1.696-.062-4.804-.27-6.964zM0 194.97c15.403 16.51 35.873 27.338 63.73 27.912 29.99.623 63.53-17.417 63.516-52.937-.014-37.127-29.283-48.161-57.84-59.127-18.24-7.013-49.441-16.718-49.448-48.015-.007-23.628 20.983-39.474 47.856-38.857 15.438.353 30.82 7.822 45.76 20.193l8.168-9.401c-18.13-15.93-36.815-22.831-54.287-23.212-33.492-.72-60.837 18.94-60.823 51.283.014 39.577 34.399 50.384 55.748 58.864 24.707 9.802 51.297 19.356 51.304 48.279.007 23.377-21.813 41.12-51.435 40.296-21.17-.595-37.611-7.746-52.806-23.89zM289.79 217.935h13.16V16.415h-13.16v91.096H184.31V16.416h-13.16v201.519h13.16v-98.032h105.48z"/>
  </g>
  <path d="M517.672 791.607h-4.628l-2.468-4.544-.992 4.544-1.736-4.544-1.738 4.544-.993-4.544-2.468 4.544h-4.63l-.013-3.78 5.644-2.304-5.58-2.45 5.726-1.968-5.371-2.772 5.8-1.43-4.975-3.27 5.716-.62-4.174-3.884 5.538-.002-2.883-3.983 4.4-3.421 4.4 3.42-2.883 3.984 5.537.002-4.173 3.885 5.716.619-4.976 3.27 5.8 1.43-5.371 2.772 5.726 1.969-5.58 2.449 5.644 2.304z" style="fill:#da1354" transform="matrix(6.92267 0 0 -6.92267 -2753.2 5496.154)"/>
  <g style="fill:#102d5d">
    <path d="m547.02 198.163-16.29-4.057 12.358-2.824-.589-3.122 8.508-.229s-5.476-7.345-12.578-6.791l-15.742 8.037c-2.126-.886-19.862-18.116-19.862-18.116s14.192-13.728 6.3-23.496c-1.917-2.388-19.335-11.838-21.19-11.838-1.918 0-17.355 13.257-17.355 13.257 5.884 4.562 11.173 11.409 10.418 17.59-.512 4.175-6.445 8.765-6.445 8.765-.927 2.637 35.597 22.713 35.597 22.713l-3.919 3.67c-3.606 3.869-1.654 8.445-1.654 8.445l5.213-3.974 1.315 1.703 6.279-4.832 2.499 11.762 3.641-.402 1.136 8.868c6.832-2.25 7.227-12.24 7.227-12.24l-4.631-11.435 15.271 11.685 1.987-4.465 7.816 2.444s-1.814-7.04-5.31-11.118M653.281 58.981l-11.512 1.585 9.332-10.979-3.808-3.883 5.11-7.27s-8.855-.865-13.175 5.83l-7.615 18.49.063-14.35c-.367.138-3.475.013-4.022.062l-.88-8.861s-6.922 3.226-7.718 14.53l6.936 12.544-31 39.529c.056.069.063.083.07.097 4.714 6.52 5.905 11.886 6.597 15.084l.187.838 2.527 11.602 30.75-48.154 8.73 5.552c4.991-.242 7.345-6.757 7.345-6.757l-7.698-2.824-1.302-11.042 9 .616 1.64-2.859 9.803 1.392c-.907-7.677-5.275-9.747-9.36-10.772"/>
    <path d="M563.798 63.84c-.783-.477-1.018-1.48-.554-2.318 1.675-2.624 5.87-8.73 9.062-9.325.768-.132 1.523-.2 2.263-.2 3.122 0 5.663 1.155 8.197 2.43l2.956 1.446c.83.45 1.149 1.46.734 2.326-.36.796-1.468 1.17-2.278.727l-2.928-1.468c-.319-.166-.61-.318-.9-.457.173.561.256 1.15.256 1.745 0 3.523-2.852 6.39-6.369 6.39a6.283 6.283 0 0 1-6.106-4.694 49.866 49.866 0 0 0-2.028 2.866c-.374.74-1.495 1.038-2.305.533m91.358 133.538-14.226-5.953 9.595-.706c-.132-.353 1.28-4.43 1.239-4.978l10.882-1.114s-7.843-7.075-14.253-6.376l-16.144 6.036-40.795-31.802s8.985-1.606 14.15-3.884c0 0-4.362-5.109-5.608-11.935l-2.797-12.855c-.699-3.011-1.405-7.684-5.87-13.81-.7-1.198-5.04-5.573-5.04-5.573l-5.877-4.625 6.777-.927c8.854-1.89 9.318-8.813 9.318-8.813h-28.459s-.118-1.758-.118-5.254h28.356c4.818 0 8.715-1.489 11.609-4.445 4.874-4.977 5.566-11.415 5.566-11.678 0-1.586-1.267-2.776-2.81-2.776-1.565.069-2.77 1.315-2.75 2.907 0 .014-.837 4.43-4.056 7.615-1.813 1.835-4.375 2.728-7.56 2.728H568.09c.124-.83.159-.416.346-.9.858-2.915 4.202-4.064 7.636-4.091 6.3 0 13.076 0 21.467-.319 3.849-.076 5.822-6.334 5.822-6.334s1.772-10.093 1.772-11.533c0-1.468-.616-1.752-2.375-2.36-1.765-.576-8.847-2.34-12.647-4.708-3.822-2.333-9.415-4.708-12.565-4.708h-17.32c-2.652 0-7.062 3.198-7.062 3.198s-1.945-6.34-6.722-7.988l-7.088-2.444 2.831 17.002-4.361 15.32s-8.321 4.534-11.527 5.137l-5.08-.16 3.834 3.89c1.399 1.323 5.663 1.289 9.934.887l-1.024 3.378c-.34.229-8.044 4.763-11.049 5.358l-5.275-.27 3.94 4.009c1.335 1.301 5.447 1.301 9.573.893l-2.063 6.985s-.678 6.306-8.12 6.306c-6.722 0-90.874-9.948-90.874-9.948-6.009-.574-19.342-2.727-19.342-14.094 0-10.633 10.474-12.295 20.069-12.295l68.631-.041c18.664 0 27.76-9.574 28.612-28.266.734-15.88 10.155-22.228 15.977-22.228h28.473C580.647 15.07 586.054 0 586.054 0s-6.133 2.132-12.523 3.987h-32.668c-6.971 0-14.988 9.824-18.421 21.198h-.014C518.988 13.81 511.8 3.987 504 3.987h-32.662C464.948 2.132 458.808 0 458.808 0s5.414 15.07 13.541 18.837h28.48c6.023 0 15.97 6.348 15.97 22.228 0 12.247-5.683 17.529-17.265 17.529h-28.272c.942-3.413 2.894-9.865 4.728-12.572l6.092-4.957h-8.39c-4.583 0-12.931 13.008-15.977 17.529H447.67c1.163-4.341 4.084-15.217 6.382-18.657l7.83-6.03s-3.877.07-10.785.07c-5.857 0-16.961 19.161-20.692 24.617-10.059 0-30.647 3.572-30.647 23.197 0 15.687 14.406 23.316 29.075 25.137.575.117 19.55 2.471 19.55 2.471l-15.798 35.313s-6.777-1.025-8.335-.284c-2.187 1.024-18.746 41.217-18.746 41.217l-11.028.443c-1.793.713-5.697 4.729-6.583 6.508-1.191 2.409-1.212 4.77-1.212 4.77l6.334-2.23 2.804 2.486 6.798-2.05-5.614 12.953 3.6 3.731-1.212 10.55c5.663-.526 9.976-9.525 9.976-9.525l.533-13.216 4.873 12.198c.734.062.734.09 3.178.312l6.376 10.404s1.924-1.606 2.616-4.133c.526-1.938.63-9.38.63-9.38-2.077-2.471-8.812-10.411-8.812-10.411l11.353 8.14c.104-.352 1.89-1.855 2.174-2.284l11.207 4.396s-2.381-10.1-5.316-12.398l-18.657-7.228 43.973-41.494c10.37-8.84 19.653-16.42 24.326-17.023 4.867-.644 42.152 23.952 48.805 24.928 5.088.748 13.167-.186 13.167-.186s-1.06 5.932-.221 7.268c2.09 4.237 65.876 28.681 65.876 28.681l-8.003 4.763c-2.748 1.737-4.403 9.968-4.403 9.968l10.142-5.593 2.333 3.26 8.259-6.604-1.233 11.035 3.787.491.25 13.804c5.233-2.222 8.445-12.904 8.445-12.904l-.118-10.37 10.737 9.595 3.967-3.704 9.394 4.48s-.353-9.512-3.849-12.697"/>
    <path d="M574.282 61.89a3.185 3.185 0 0 0 3.184-3.184 3.194 3.194 0 0 0-3.184-3.184c-1.751 0-3.205 1.433-3.205 3.184 0 1.766 1.454 3.185 3.205 3.185"/>
  </g>
</svg>